<svg width="124" height="91" viewBox="0 0 124 91" fill="none" xmlns="http://www.w3.org/2000/svg"><path d="M41.101 7.862c1.562 1.954 2.819 4.3 4.71 6.054 2.724 2.516 5.332 3.88 6.823 7.321 1.88 4.376 2.138 9.581 5.462 13.385.798.915 2.266.706 2.771-.295 2.373-4.796-.258-10.611-2.114-15.311-1.162-2.936-1.186-5.253-1.585-8.237-.411-3.032-2.784-5.768-4.745-8.294-4.486-5.796-15.914-.39-11.322 5.377m-28.786 53.52c6.871-3.584 14.67-5.53 21.563-9 1.104-.552 1.022-1.744 0-2.316-8.69-4.881-21.187-.6-27.07 5.52-2.902 3.022.763 8.265 5.507 5.787zM17.8 81.479c3.43-4.767 10.488-9.286 16.067-12.422 4.98-2.803 11.321-4.005 15.82-7.246.599-.429.317-1.373-.482-1.497-6.859-1.058-14.023 2.87-19.25 6.064-6.706 4.109-9.372 8.685-13.341 14.528-.423.63.74 1.183 1.186.563zM7.547 38.216c2.607-.667 5.062-1.792 7.646-2.345 3.03-.648 6.812-.362 9.842.076 5.508.782 10.746 2.546 16.243 3.337 1.503.21 2.583-.896 1.914-2.021-3.007-5.11-9.89-7.97-16.466-9.038-6.706-1.087-16.043-1.687-22.48.277-7.351 2.24-4.45 11.707 3.301 9.724zM69.37 9.835c-2.513 3.737.153 8.676.341 12.727.035.887 1.269 1.592 2.279 1.059 5.649-2.965 10.323-9.81 5.285-14.615-2.08-1.993-6.436-1.344-7.904.83m29.161 4.375c-7.551 2.622-13.46 9.533-18.803 14.376-4.404 3.985-11.192 10.192-10.805 15.845.047.639.975.991 1.562.524 2.185-1.735 3.1-3.947 4.58-6.082 2.044-2.946 4.534-5.606 7.447-8.018 2.994-2.469 6.283-3.88 10.217-5.138 3.512-1.125 7.106-1.268 10.594-2.26 8.421-2.383 3.594-12.174-4.803-9.256zM51.46 86.808c.87-3.442.904-7.065 1.962-10.43.95-3.05 1.491-5.386.927-8.57-.164-.954-1.69-1.02-2.42-.515-2.994 2.097-4.356 4.137-6.083 6.94-1.808 2.936-4.604 5.5-6.612 8.39-4.956 7.111 10.323 11.745 12.226 4.185m24.558-3.289c-.13-4.367-1.632-8.514-3.1-12.68-1.269-3.603-1.621-7.483-5.168-10.143-.728-.544-2.102-.534-2.596.267-2.114 3.508-.845 7.035-.422 10.772.481 4.3.798 8.628 2.607 12.737 1.597 3.632 8.808 3.318 8.68-.953m20.904-1.354c.094-.038.2-.076.294-.105 1.703-.62 2.666-2.374 2.678-3.794.047-3.957-2.243-4.462-5.097-6.96-2.655-2.326-3.84-5.577-6.777-7.826-3.206-2.45-7.305-3.5-10.37-6.178-2.396-2.088-3.876-4.157-7.447-4.862-.751-.153-1.55.553-1.068 1.134 1.62 1.964 3.7 2.632 6.072 3.938 4.286 2.354 5.45 5.72 7.622 9.218 1.398 2.26 4.897 5.158 5.344 7.703.176.982-.552 2.06-.376 3.118.282 1.659 1.456 2.66 2.842 3.823 1.257 1.058 3.512 1.649 5.273 1.134.34-.095.67-.21.999-.334zm25.451-35.598c-5.379-3.956-14.634-5.481-21.575-3.842-4.075.963-8.15 2.107-12.226 3.118-3.3.82-6.166 1.811-8.538 3.89-.552.476 0 1.191.763 1.067 3.054-.505 5.708-1.592 8.656-2.364 4.31-1.135 7.963-.81 12.202.181 5.685 1.325 12.132 2.755 18.005 3.289 3.323.305 5.05-3.604 2.713-5.32zM106.765 34.07c-5.496-1.097-15.42-.592-17.887 4.48-.376.763.693 1.392 1.527 1.24 2.607-.477 4.733-2.146 7.305-2.851a27.7 27.7 0 0 1 8.738-.954c1.351.067 1.621-1.649.317-1.906zM47.068 52.049c-2.408.276-4.722 1.125-6.847 2.097-1.656.763-3.982 1.783-4.44 3.375-.14.496.094 1.068.67 1.325 1.914.858 4.498.077 6.424-.476 2.455-.715 4.65-1.545 6.66-2.898 2.172-1.469-.283-3.67-2.456-3.413zm-15.163-5.911.87.115-1.351-.84c.88 1.221 3.007 1.66 4.663 1.64 1.761-.028 4.24-.829 4.24-2.554 0-.668-.611-1.316-1.175-1.755-.787-.61-1.797-.734-2.842-.781-1.715-.086-3.958.343-4.886 1.62l1.35-.838-.869.114c-2.008.276-2.008 3.022 0 3.298zm4.146-22.069c1.691.79 3.618 2.04 5.661 1.983 1.75-.048 3.16-1.669 2.102-2.975-1.15-1.43-3.312-1.973-5.144-2.66-1.268-.476-2.807-.295-3.558.753-.705.982-.282 2.317.927 2.89zm23.537 22.537c.105-.163.223-.315.328-.477.294-.439.435-.896.353-1.383a1.2 1.2 0 0 0-.2-.715 1.44 1.44 0 0 0-.47-.6l-.47-.296a2.6 2.6 0 0 0-1.162-.257c-.6-.067-1.163.048-1.703.286-.2.086-.388.181-.588.267-1.608.734-1.855 2.593-.575 3.632s3.57.839 4.475-.467zm1.068 9.542a23 23 0 0 0 1.175-.114c.281-.029.54-.229.704-.39.176-.192.306-.43.294-.668 0-.2-.07-.382-.188-.553-.141-.21-.517-.467-.81-.505-.388-.048-.787-.077-1.175-.115-.34-.028-.787.153-1.022.343-.246.2-.434.534-.422.83.035.581.634 1.24 1.444 1.172m11.745-8.751c.071 0 .071-.096 0-.096s-.07.096 0 .096" opacity=".85" fill="#F9E3A2"/></svg>