<svg width="1814" height="723" viewBox="0 0 1814 723" fill="none" xmlns="http://www.w3.org/2000/svg"><g opacity=".6"><path d="M909.592 34.292c-9.76 9.848-18.075 20.306-26.343 30.993-8.022 10.373-16.384 20.583-23.407 31.432-7.012 10.83-14.399 21.44-21 32.451a242 242 0 0 0-8.773 15.969c-2.56 5.109-6.001 10.868-5.943 16.473 0 .858 1.292 1.011 1.844.41 3.947-4.299 5.743-10.153 8.245-15.072 2.983-5.863 6.283-11.612 9.807-17.275 6.424-10.315 13.917-20.534 22.314-29.858 17.441-19.353 34.283-39.125 52.428-58.058 5.05-5.262-3.911-12.784-9.184-7.455zm-75.929-20.306c-2.877 10.62-3.218 21.46-4.944 32.204-.858 5.339-.963 10.696-1.891 16.064-.905 5.281-1.879 10.544-2.725 15.825-1.691 10.573-1.398 21.393-2.725 32.032-1.268 10.086-3.547 21.336-1.691 31.412.129.687 1.445.62 1.633 0 2.83-9.409 2.325-19.924 3.135-29.572.905-10.878 3.947-21.288 5.603-32.042.857-5.558 1.703-11.125 2.807-16.654 1.033-5.187 2.9-10.077 4.298-15.168 2.854-10.468 7.411-20.544 10.112-31.05 1.844-7.17-11.627-10.258-13.588-3.041zm-93.287-2.621c10.899 21.84 22.937 43.32 34.271 65.017 11.357 21.736 21.575 43.911 34.435 65.103.928 1.516 3.77.439 3.288-1.125-7.105-22.985-17.652-45.178-27.646-67.42-9.948-22.117-19.954-44.358-31.593-65.932-3.136-5.806-15.715-1.602-12.743 4.366zM697.826 51.7c14.128 16.693 30.195 32.366 46.027 48.02 15.855 15.682 31.851 31.86 50.337 45.569 1.409 1.049 3.922-.324 2.772-1.735-13.671-16.655-29.656-32.118-44.336-48.181-14.775-16.17-28.446-32.976-43.103-49.212-5.05-5.596-16.677-.352-11.686 5.54zm276.972 35.912c-5.144-4.185-14.059-.953-19.978.725-6.941 1.964-13.706 4.48-20.259 7.179-13.389 5.519-25.967 12.04-38.147 19.133-23.841 13.871-45.768 30.793-62.481 50.431-.798.935.94 1.955 1.903 1.192 20.729-16.531 40.977-33.452 65.206-46.704 11.721-6.406 24.558-11.831 37.841-15.73 6.424-1.878 12.966-3.403 19.554-4.824 6.343-1.363 15.151-1.697 17.688-7.312.622-1.373-.106-3.089-1.327-4.09m-295.376 17.294c21.445 5.968 40.53 17.093 59.31 27.179a3637 3637 0 0 1 28.21 15.33c9.959 5.472 19.567 11.478 30.172 16.111 1.609.696 3.253-.972 1.961-2.059-8.045-6.768-17.511-12.288-26.66-18.018a1067 1067 0 0 0-30.078-18.18c-9.842-5.729-19.742-11.402-29.631-17.084-9.337-5.367-18.392-11.544-29.644-13.985-8.597-1.869-11.92 8.418-3.64 10.725zm-25.862 83.016c-.857.591-.587.448.834-.429a44 44 0 0 1 3.923-1.639 238 238 0 0 1 5.99-2.288c4.944-1.802 10.076-3.318 15.162-4.853 9.736-2.936 19.566-5.663 29.502-8.113 19.696-4.852 40.672-7.541 59.85-13.585 1.868-.591 1.692-2.869-.493-2.927-22.033-.572-45.205 5.072-66.239 9.848-10.699 2.431-21.328 5.044-31.84 7.951-5.602 1.545-11.169 3.118-16.818 4.538-5.109 1.287-8.785 2.059-12.026 5.711-5.285 5.948 7.011 11.821 12.167 5.777zm-13.072 40.527c17.594-11.555 38.018-18.743 58.289-26.637a2789 2789 0 0 1 32.062-12.259c10.958-4.109 22.679-7.58 32.932-12.775 1.562-.791.552-2.736-1.245-2.393-12.108 2.317-23.724 6.94-35.222 10.754a2815 2815 0 0 0-33.636 11.411c-10.993 3.804-21.88 7.779-32.803 11.707-10.241 3.68-20.424 7.255-29.044 13.146-6.084 4.167 2.619 11.021 8.679 7.046zm-15.221 37.962c6.707-4.176 12.72-8.857 19.285-13.156 6.412-4.195 13.119-8.066 19.602-12.175 13.6-8.608 27.423-17.379 42.033-24.824 14-7.141 28.293-13.919 42.739-20.459 7.575-3.432 14.775-7.198 22.221-10.754 7.434-3.546 15.538-6.12 23.007-9.628.588-.277.188-1.154-.481-.925-7.364 2.517-14.176 5.872-21.293 8.799-7.775 3.194-15.691 5.739-23.337 9.209a1105 1105 0 0 0-43.642 20.926c-14.329 7.255-29.127 13.804-43.526 20.983-7.34 3.661-14.363 7.693-21.551 11.545-7.2 3.861-14.622 7.302-21.469 11.564-6.401 3.985-.082 12.937 6.412 8.904zm55.47 31.488c4.698-5.186 8.092-10.982 12.813-16.149 4.945-5.406 10.077-10.697 15.139-16.026 9.501-10.019 19.426-19.677 29.714-29.172 10.241-9.448 20.412-19.067 31.088-28.181 10.934-9.333 22.408-18.323 32.873-28.018 1.104-1.03-.54-2.307-1.821-1.478-12.402 8.056-23.606 17.341-34.693 26.541-11.369 9.448-22.773 18.752-33.637 28.6-10.57 9.581-21.14 19.238-31.393 29.039-5.132 4.9-10.147 9.886-15.197 14.843-5.18 5.072-11.228 9.391-16.184 14.643-5.074 5.377 6.318 10.84 11.286 5.349zm42.88 37.619c3.664-5.282 4.709-10.811 6.718-16.522 2.02-5.748 4.862-11.344 7.575-16.893 5.802-11.897 12.026-23.49 18.474-35.178 6.095-11.039 12.062-22.031 18.791-32.833 6.589-10.591 13.718-20.735 19.391-31.689.199-.39-.541-.591-.811-.276-8.526 10.039-14.892 20.697-21.715 31.527-6.906 10.963-14.317 21.793-20.777 32.928-6.318 10.878-12.778 21.717-19.002 32.604-3.113 5.434-6.119 10.916-9.513 16.245-3.536 5.539-7.916 10.239-9.784 16.445-1.538 5.11 7.341 8.447 10.664 3.651zm67.789-36.494c2.866-9.571 3.723-19.457 5.99-29.172 2.161-9.247 4.933-18.399 7.423-27.59 4.979-18.361 10.863-37.113 12.59-55.875.094-.991-1.656-1.058-2.02-.219-7.893 18.199-12.097 37.705-17.394 56.514-2.584 9.171-5.05 18.361-8.116 27.427-1.632 4.834-3.206 9.705-5.39 14.396-1.997 4.29-4.804 8.532-4.393 13.27.423 5.015 9.701 6.635 11.31 1.24zm57.737 11.183c4.838-3.242 2.666-8.59 0-12.279-3.7-5.091-4.369-11.107-6.683-16.703-4.146-10.038-4.463-21.412-9.889-31.059-.411-.734-1.75-.315-1.773.391-.212 5.777 1.902 11.373 3.077 17.026 1.35 6.549 2.114 13.128 3.347 19.677.575 3.041 2.149 6.425 1.949 9.495-.176 2.746-1.562 4.872-.81 7.751.987 3.765 5.555 9.209 10.805 5.701zm51.558 24.596s.071-.048.106-.067c2.102-1.306 3.547-3.222 2.736-5.463-3.793-10.448-12.507-19.667-19.343-28.905-7.188-9.724-12.743-20.601-18.357-30.974-5.731-10.582-11.263-21.23-16.653-31.927a1092 1092 0 0 1-7.505-15.148c-2.29-4.71-4.451-9.619-8.48-13.547-.646-.629-1.961-.105-1.938.658.141 5.243 2.69 10.219 4.957 15.053a880 880 0 0 0 7.293 15.196 994 994 0 0 0 15.82 30.726c5.637 10.525 11.944 20.983 16.924 31.717 4.768 10.287 8.115 21.984 16.407 30.879 1.539 1.659 4.04 2.955 6.73 2.221.446-.114.892-.257 1.315-.419zm19.167-36.055c-.094-2.803-.845-4.462-2.947-6.76-2.549-2.783-4.933-5.376-7.059-8.398-4.064-5.768-7.975-11.603-12.79-16.979a66.4 66.4 0 0 1-6.177-8.046c-1.974-3.013-4.616-5.73-6.448-8.809-3.054-5.139-6.295-10.611-11.087-14.825-.388-.343-1.045.019-.916.439 1.668 5.577 5.473 10.687 9.008 15.615 4.24 5.902 8.045 12.823 10.969 19.239 2.537 5.558 6.096 10.82 9.373 16.102 1.961 3.165 3.57 6.101 4.92 9.466 1.21 3.041 2.502 4.586 5.72 6.426 3.089 1.763 7.54-.591 7.446-3.47zm65.077-20.059c3.735-3.231-2.161-9.171-4.228-11.897-4.075-5.368-9.36-10.048-14.704-14.596-10.594-9.028-23.301-15.654-35.633-22.975-12.473-7.398-25.075-14.72-38.041-21.546-6.73-3.546-13.635-6.425-20.67-9.504-6.53-2.851-12.755-6.073-19.825-7.961-1.139-.305-2.196 1.049-1.21 1.697 5.755 3.795 12.344 6.454 18.568 9.696 6.119 3.184 11.98 6.683 18.122 9.867 13.366 6.94 26.355 14.309 38.241 22.832 11.263 8.075 20.858 17.694 31.311 26.446 3.171 2.659 22.925 22.403 28.081 17.941zm76.605-39.077c.16-5.52-6.6-8.027-11.55-10.792a187 187 0 0 0-19.59-9.504c-13.03-5.415-26.64-10.01-40.297-14.253-14.106-4.376-28.516-7.741-42.974-11.182-7.082-1.678-14.14-3.461-21.281-4.958-7.258-1.516-14.563-3.317-22.045-3.184-.845.019-1.139.915-.422 1.278 5.884 2.993 12.378 4.299 18.979 6.044 7.023 1.859 14.176 3.356 21.211 5.157 14.034 3.604 27.905 7.875 41.587 12.289a321 321 0 0 1 40.092 15.949c5.99 2.86 11.91 5.815 17.75 8.876 5.19 2.726 10.39 7.502 17.02 5.91.9-.219 1.51-.877 1.54-1.639zm-.76-70.642c-5.65-3.918-14.7-4.776-21.81-5.806-7.95-1.153-15.91-1.725-23.97-2.173-17.663-.992-35.139.343-52.756 1.287-16.747.905-33.589 2.545-50.219 4.385-8.539.944-16.971 2.059-25.333 3.737-7.928 1.592-16.443 2.927-23.924 5.577-.928.324-.423 1.516.505 1.497 8.421-.134 16.947-1.621 25.333-2.355 8.162-.715 16.278-1.64 24.429-2.45 16.794-1.659 33.436-2.326 50.337-2.507 16.489-.181 32.92 1.296 49.398 1.735 8.22.219 16.42.638 24.64.696 7.28.047 16.35.905 23.08-1.697.83-.324 1.01-1.43.3-1.916zm-31.44-49.287c-3.5-4.119-12.72-3.366-18.2-3.089-7.99.4-15.964 1.725-23.739 3.222-15.55 3.013-30.324 7.15-45.346 11.535-14.481 4.233-28.997 8.352-43.137 13.309-7.071 2.479-14.082 5.215-21.035 7.913-6.823 2.64-14.962 4.995-20.424 9.342-.74.591.036 1.497.963 1.345 7.235-1.211 13.941-4.91 20.589-7.427 7.833-2.965 15.784-5.491 23.829-8.027 14.693-4.633 29.832-8.866 45.299-11.478 15.609-2.631 31.534-4.481 47.331-6.187 3.864-.42 39.56-3.785 33.87-10.458" fill="#708D81"/><path d="M647.736 135.854c-2.76 2.412-5.203 4.967-7.775 7.512-2.443 2.403-5.015 4.719-7.54 7.065-5.168 4.804-10.218 9.705-15.303 14.567-10.171 9.733-20.201 19.553-30.019 29.524-9.76 9.925-19.062 20.125-28.575 30.202a1348 1348 0 0 0-27.928 30.516c-5.121 5.778-10.23 11.564-15.268 17.389a1845 1845 0 0 0-7.517 8.761c-2.537 2.984-5.132 5.949-7.223 9.162-.317.486.505 1.077.975.61 4.956-4.786 9.008-10.239 13.377-15.387 4.463-5.243 8.949-10.477 13.53-15.654a1278 1278 0 0 1 27.94-30.525c9.548-10.115 19.602-19.877 29.643-29.668 10.03-9.791 20.213-19.496 30.595-29.039a965 965 0 0 1 17.64-15.796c2.913-2.555 5.802-5.129 8.774-7.637 1.515-1.277 3.124-2.488 4.721-3.708 1.668-1.278 3.183-2.641 4.733-4.014 2.948-2.612-1.809-6.501-4.804-3.899zm-21.657-91.463c-8.21 12.317-15.644 25.073-23.548 37.552-7.916 12.489-15.315 25.178-22.655 37.895-14.364 24.901-27.013 50.622-38.487 76.467-.071.162.235.229.317.067 13.295-25.855 27.893-51.108 43.302-76.172 7.528-12.259 15.526-24.386 23.806-36.322 3.958-5.71 8.163-11.335 12.238-16.998 4.487-6.234 9.572-12.012 14.305-18.094 3.7-4.757-5.978-9.333-9.266-4.395zM466.682 95.862c-.963 6.378.622 13.385 1.28 19.772.681 6.597 1.503 13.185 2.337 19.772 1.668 13.175 3.688 26.35 4.933 39.554 1.209 12.87 2.431 25.74 3.641 38.61 1.221 12.975 1.973 25.998 5.296 38.744.153.591 1.198.41 1.245-.134 1.104-13.194-.469-26.379-1.526-39.554-1.057-13.184-2.103-26.369-3.16-39.554-1.022-12.832-1.28-25.749-1.844-38.61a691 691 0 0 0-1.139-19.772c-.481-6.463-.153-13.537-2.255-19.8-1.421-4.252-8.233-2.88-8.808.972m-59.91 27.961-.563.315c-1.856 1.029-2.819 2.698-2.255 4.509 3.511 11.411 8.796 22.451 12.637 33.786 3.958 11.65 7.787 23.319 11.803 34.959a1291 1291 0 0 0 12.238 33.891 1255 1255 0 0 0 6.471 16.855c2.126 5.434 3.864 11.001 7.576 15.883.552.724 2.196.486 2.102-.458-.552-5.386-2.913-10.401-4.921-15.52a1514 1514 0 0 1-6.483-16.855 1412 1412 0 0 1-12.579-34.778c-3.934-11.335-7.739-22.689-11.086-34.148-3.453-11.812-5.109-23.882-8.269-35.731-.328-1.221-1.867-2.594-3.441-2.794-1.033-.133-2.266-.438-3.23.096zm217.639 294.381c1.527-4.357-2.008-8.914-4.181-12.813a112 112 0 0 0-8.785-13.414c-6.4-8.351-13.929-16.435-21.563-24.071-7.692-7.694-16.125-14.796-25.309-21.317-8.398-5.958-17.911-14.128-28.962-16.588-.811-.181-1.75.629-1.187 1.249 6.577 7.226 17.171 12.107 25.11 18.352a224 224 0 0 1 24.218 22.146c7.117 7.521 13.013 15.367 18.333 23.795 2.713 4.29 5.402 8.58 7.986 12.927 2.314 3.918 3.923 9.295 8.762 11.593 2.137 1.01 4.909.066 5.578-1.84zm-99.5 69.221c-.317-6.025-1.902-12.002-2.454-18.037-.541-6.006-.905-12.031-1.374-18.037-.94-12.031-2.267-24.005-2.948-36.074-1.351-23.957-1.069-48.363-5.004-72.139-.129-.772-1.491-.829-1.538 0-1.445 23.938 1.397 48.21 2.56 72.139.564 11.726.47 23.414.811 35.121.176 6.015.375 12.021.516 18.037.141 6.32-.857 12.689-.528 18.981.27 5.186 10.241 5.215 9.959 0zm-58.922 27.561c3.241-16.388 2.466-33.5 3.535-50.05 1.08-16.693 2.549-33.357 3.523-50.05s2.232-33.376 3.5-50.05c1.269-16.741 4.17-34.244 2.29-50.994-.094-.801-1.585-1.096-1.844-.2-4.427 15.94-4.404 33.061-5.801 49.316-1.433 16.693-2.831 33.376-4.545 50.05-1.715 16.674-2.948 33.376-4.557 50.05-1.621 16.826-5.332 34.11-4.722 50.994.141 3.813 7.787 5.062 8.597.944zm-93.393-78.698c3.899-5.129 4.885-10.972 7.916-16.435 2.947-5.31 6.342-10.477 9.665-15.635 6.66-10.344 13.906-20.411 20.706-30.678 13.647-20.602 31.628-38.887 46.227-58.954.469-.639-.658-1.392-1.292-.811-19.003 17.399-33.132 38.534-48.623 58.011-7.775 9.771-14.575 20.125-21.304 30.402-3.535 5.405-6.977 10.849-10.441 16.283-3.383 5.3-8.339 9.4-10.7 15.139-1.573 3.832 5.356 5.967 7.846 2.688zm-114.768-54.569c16.031-6.864 31.558-14.405 47.753-21.03 16.196-6.626 32.509-13.032 48.916-19.277 16.408-6.244 32.827-12.45 49.304-18.561 16.419-6.092 33.132-11.764 49.034-18.714.963-.419.305-1.687-.74-1.43-16.818 4.099-32.991 9.781-49.139 15.339-17.065 5.863-34.001 11.926-50.796 18.295-16.43 6.225-32.779 12.593-49.08 19.047-16.666 6.597-33.731 12.556-50.161 19.506-5.556 2.345-.635 9.209 4.921 6.825zm-33.531-74.407c31.158.19 62.657-2.346 93.722-4.195a2405 2405 0 0 0 46.168-3.213c15.279-1.201 30.301-2.421 45.193-5.529 1.304-.267 1.022-1.888-.317-1.888-15.468-.019-30.654 1.507-46.027 2.679a1464 1464 0 0 1-46.168 2.746c-30.888 1.373-61.683.467-92.571.772-6.835.067-6.847 8.58 0 8.628m-2.466-82.969c33.437 7.741 66.615 15.558 99.159 25.54 33.049 10.134 63.48 24.653 95.848 35.95 1.397.486 2.443-.925 1.198-1.659-28.598-16.845-62.376-27.656-94.662-38.877-32.062-11.144-65.346-20.992-99.382-27.332-5.097-.953-7.235 5.205-2.161 6.378m69.716-41.079c5.32 2.707 11.051 4.766 16.395 7.426s10.5 5.558 15.667 8.418c10.664 5.892 21.187 11.945 31.664 18.056 10.147 5.911 20.529 11.536 30.829 17.256 10.617 5.891 20.26 12.831 31.041 18.513.799.42 1.644-.514.998-1.048-9.008-7.474-19.507-13.576-29.22-20.421-9.396-6.625-18.921-13.089-28.892-19.133-10.041-6.082-20.33-11.917-30.641-17.704-5.462-3.06-11.04-5.996-16.419-9.152-5.415-3.174-10.394-6.787-15.973-9.79-5.814-3.118-11.38 4.576-5.461 7.588zm231.52 50.46c-2.724 5.72-6.565 11.735-8.009 17.751-.118.467.692.82 1.01.343 3.605-5.434 5.332-12.098 7.692-17.942.141-.362-.528-.496-.693-.152m199.999 5.853c-5.391-4.5-16.76-2.879-23.783-2.574-8.761.381-17.406 1.621-26.096 2.565-17.582 1.906-35.035 5.214-51.994 9.409-16.912 4.185-33.484 9.247-49.456 15.415-15.28 5.911-32.533 12.623-44.747 22.366-.775.619.2 1.487 1.104 1.153 7.881-2.917 15.245-6.978 22.843-10.353 7.669-3.403 15.339-6.759 23.255-9.753 15.925-6.034 32.45-11.049 49.432-14.748 16.913-3.689 34.13-6.111 51.559-7.474 8.679-.677 17.394-.486 26.108-.677 6.73-.143 16.443 1.287 21.775-2.679.928-.696.845-1.954 0-2.65m-16.912 36.742c-13.601-2.336-27.036.038-40.625.781-14.281.782-28.551 1.497-42.785 2.784-13.471 1.22-26.449 3.232-39.662 5.596-13.001 2.326-27.459 3.118-39.614 7.722-.576.219-.282.973.317.954 12.754-.286 25.486-3.862 38.099-5.349 7.235-.848 14.552-1.039 21.81-1.801a986 986 0 0 1 21.293-1.983c13.459-1.125 27.012-2.079 40.542-2.25 13.577-.181 27.071 1.992 40.625.095 4.075-.572 3.91-5.882 0-6.549m-16.514 30.783c-3.112-4.938-13.917-4.652-19.907-5.701-8.432-1.468-16.924-2.727-25.462-3.689-7.74-.868-15.514-1.335-23.325-1.573-8.115-.239-17.217-.916-25.086.991-1.257.305-1.304 1.821 0 2.107 7.305 1.601 15.338 1.268 22.843 1.783 8.656.6 17.288 1.534 25.885 2.574a321 321 0 0 1 24.265 3.842c5.942 1.182 14.034 5.491 19.789 2.745 1.351-.639 1.68-2.002.998-3.089zm-23.77 65.055c-.353-4.299-4.863-7.426-8.245-10.467-4.099-3.671-8.28-7.369-12.86-10.649-8.973-6.444-19.814-11.535-29.327-17.513-9.677-6.082-19.613-12.078-30.312-16.931-9.678-4.395-21.575-10.601-32.92-11.097-1.116-.047-1.844 1.259-.952 1.869 8.433 5.748 20.518 8.57 30.219 12.755 10.535 4.538 21.058 9.095 30.9 14.567 5.238 2.908 10.288 5.94 14.751 9.61 4.099 3.375 7.611 7.102 11.616 10.525 4.216 3.603 8.691 6.997 12.872 10.639 3.394 2.965 6.6 7.255 11.674 8.294 1.209.248 2.666-.496 2.584-1.592zm-184.461-89.842c-.035-.086-.058-.162-.094-.248a.8.8 0 0 0-.105-.2 1.1 1.1 0 0 0-.376-.477c-.024-.028-.059-.057-.082-.086a1.4 1.4 0 0 0-.552-.286 1.5 1.5 0 0 0-.658-.114c-.423.019-.928.124-1.21.4-.023.029-.058.058-.082.086-.094.096-.188.2-.282.296a2 2 0 0 0-.188.372c-.035.085-.07.162-.094.247-.387.973.646 1.983 1.856 1.983s2.243-1.001 1.856-1.983zm12.238-14.014c1.315 0 1.315-1.649 0-1.649s-1.315 1.649 0 1.649m-18.016 4.042c1.668 0 1.668-2.097 0-2.097s-1.668 2.097 0 2.097m-11.51 8.037c.188-.172.376-.353.576-.524.246-.22.399-.487.399-.792 0-.276-.153-.6-.399-.791a1.5 1.5 0 0 0-.975-.324 1.7 1.7 0 0 0-.975.324c-.211.153-.434.305-.646.467-.27.191-.423.544-.423.82 0 .277.153.629.423.82.27.2.634.353 1.01.343.364-.009.764-.114 1.01-.343m-16.419-7.951c-.246-.162-.481-.334-.728-.496a2.8 2.8 0 0 0-.622-.333c-.247-.086-.482-.105-.752-.134-.258-.019-.54-.028-.787.057-.834.258-1.327.858-1.115 1.592.164.582.845 1.097 1.526 1.268.306.077.623.143.928.21.658.153 1.48-.095 1.809-.591.305-.477.305-1.192-.247-1.573z" fill="#FAAF7E"/><path d="M442.958 271.295c.023.2.058.39.082.591.023.209.211.41.493.4.294-.01.47-.181.493-.4.024-.201.059-.391.083-.591.035-.248-.294-.477-.576-.468-.282.01-.611.21-.575.468m.152 20.01.4-.21c.681-.352 1.209-.972 1.174-1.658a1.79 1.79 0 0 0-.693-1.354c-.434-.353-1.069-.563-1.668-.563-.857 0-1.585.372-2.043.954l-.258.324c-.071.143-.153.295-.224.438a1.13 1.13 0 0 0-.035.734c0 .163.047.325.153.458.094.229.246.419.47.591.293.219.622.372.998.467.305.076.599.086.904.029.306-.01.576-.086.834-.219zm19.637 2.183c.153-.028.306-.057.446-.086.635-.143 1.116-.591 1.116-1.134s-.481-1.001-1.116-1.135l-.446-.085c-.528-.105-1.139-.01-1.527.324-.281.248-.458.553-.458.896 0 .324.177.667.458.896.4.324.975.439 1.527.324m14.434 2.279c-.293.019-.481.047-.74.162a1.3 1.3 0 0 0-.516.41 1 1 0 0 0-.212.667c0 .229.082.458.223.658.059.086.153.181.247.257.141.105.364.239.564.267s.387.048.587 0c.235-.048.423-.171.575-.314a.76.76 0 0 0 .083-.992c-.047-.067-.13-.143-.188-.2l.176.181s-.024-.019-.024-.038c.036.076.071.143.118.219 0-.019-.024-.048-.024-.076l.036.248v-.096a2 2 0 0 1-.047.248c0-.028.011-.066.035-.095l-.118.229s.036-.057.059-.077l-.188.201.047-.038c-.082.057-.164.104-.246.162.011 0 .023-.019.047-.019-.094.038-.2.066-.306.104.012 0 .035 0 .047-.009-.117.009-.223.028-.34.038h.058c-.117-.01-.223-.029-.34-.038.023 0 .035 0 .058.019.318.105.705.019.999-.105.352-.152.563-.458.622-.763.047-.286-.035-.543-.258-.772-.235-.238-.623-.438-1.01-.41zm-8.926 14.357c.165-.038.329-.076.505-.124.259-.057.494-.172.682-.324a1.24 1.24 0 0 0 .399-.553c.059-.353.059-.315 0-.667a1.23 1.23 0 0 0-.399-.553 1.66 1.66 0 0 0-.682-.325 14 14 0 0 1-.505-.124c-1.068-.257-2.161.449-2.161 1.335 0 .887 1.093 1.592 2.161 1.335m16.654-12.069c-.023.438.071.886.223 1.315.176.344.353.677.529 1.02 0 .019.012.039.023.048.223.343.552.639.869.925.024.019.047.047.083.067q.281.183.563.352c.177.124.364.239.564.353.411.143.834.286 1.245.429.47.086.94.133 1.421.153.482 0 .963-.096 1.433-.153a4.06 4.06 0 0 0 1.738-.744c.552-.295.998-.677 1.316-1.163.176-.333.34-.657.516-.991a3.36 3.36 0 0 0 0-2.202c-.07-.229-.094-.229-.282-.591-.152-.296-.199-.391-.328-.601.176.334.352.677.528 1.011-.023-.048-.035-.096-.047-.143.059.381.129.753.188 1.134v-.114c-.059.381-.129.762-.188 1.144 0-.019.012-.048.024-.067l-.529 1.029s0-.019.012-.028a3.75 3.75 0 0 0 .728-2.174c0-.781-.247-1.506-.728-2.173-.282-.286-.552-.582-.834-.868-.658-.534-1.445-.906-2.337-1.106a4.8 4.8 0 0 0-2.114-.076q-1.058.043-1.973.515-1.198.572-1.903 1.544a3.75 3.75 0 0 0-.728 2.174zm26.097 15.806c.305.105.458.153.881.143.223 0 .505-.029.728-.067.246-.047.47-.152.693-.248.751-.333 1.221-1.039 1.221-1.725s-.47-1.392-1.221-1.726c-.435-.19-.928-.324-1.421-.314-.224.028-.447.047-.67.076-.023 0-.035.01-.059.019-.058.019-.105.038-.164.057-.188.067-.388.134-.575.201a1.8 1.8 0 0 0-.682.505.97.97 0 0 0-.317.438 1.26 1.26 0 0 0-.211.753c.023.172.059.353.082.525.082.152.164.314.247.467.152.229.364.41.622.553.235.171.505.295.822.353zm-11.639 11.259.34.219c.212.134.423.324.658.401l.423.143q.353.085.704.028c.376-.038.752-.162 1.022-.391.212-.181.364-.4.458-.638a.95.95 0 0 0 .036-.572c0-.191-.083-.372-.212-.534-.106-.191-.329-.363-.493-.534l-.27-.277a1.4 1.4 0 0 0-.599-.314 1.6 1.6 0 0 0-.717-.134c-.458 0-1.01.162-1.327.448-.329.286-.575.668-.552 1.078.024.381.165.829.552 1.077zm34.212-2.66c3.547 0 3.547-4.471 0-4.471s-3.547 4.471 0 4.471m-.776-19.858c-.211-.114-.422-.238-.645-.343-.517-.248-1.281-.191-1.703.181s-.541.925-.224 1.382c.13.181.282.353.423.525.294.372.787.648 1.351.629.411-.019.81-.134 1.104-.372.282-.229.458-.572.458-.896 0-.467-.306-.848-.775-1.096zm-19.589-10.591c.599 0 .599-.763 0-.763s-.599.763 0 .763m-1.633-37.619s-.023 0-.035-.01l.669.229a.1.1 0 0 1-.047-.019c.188.124.376.238.576.362-.012 0-.024-.019-.035-.028.152.152.293.314.446.467 0-.01-.012-.019-.024-.038l.294.553s0-.029-.012-.038l.106.619v-.066l-.106.629v-.01l-2.043 1.659s.047 0 .07-.01a2.56 2.56 0 0 0 1.081-.457c.34-.181.61-.42.81-.725.106-.2.211-.41.317-.61a2.08 2.08 0 0 0 0-1.363v-.038c.035.229.071.448.118.677v-.058c-.036.22-.071.449-.106.668 0-.019 0-.029.012-.048-.106.2-.212.401-.306.591 0-.009.012-.019.024-.028.27-.382.411-.801.411-1.24a2.1 2.1 0 0 0-.411-1.239 2.8 2.8 0 0 0-1.092-.887 3.6 3.6 0 0 0-1.527-.333h-.036c-.082 0-.739.066-.833.085-.153.039-.2.067-.423.143-.188.067-.282.086-.423.153-.059.029-.599.372-.646.41 0 0-.023.019-.035.019-.81.62-1.104 1.64-.81 2.498.293.867 1.15 1.554 2.207 1.792a.1.1 0 0 1 .059.01c-.434-.201-.857-.41-1.292-.611 0 .01.024.019.036.029l.023.019c.2.124.388.248.587.372.235.114.493.21.764.267.575.124.716.095 1.198.047.458-.047.681-.066 1.127-.295.188-.114.376-.238.564-.353.141-.152.293-.305.434-.457l.282-.544c.118-.295.129-.6.047-.896 0-.2-.059-.391-.188-.572a1.2 1.2 0 0 0-.352-.496 1.3 1.3 0 0 0-.493-.4 2.25 2.25 0 0 0-.952-.4zm8.82-37.704c.106-.248.165-.449.212-.725.117-.715-.071-1.325-.482-1.964.153.448.294.887.446 1.335v-.086c.036-.906-.634-1.792-1.585-2.24a3.65 3.65 0 0 0-1.609-.353 3.8 3.8 0 0 0-1.609.353c-.024.019-.059.028-.082.047.258-.085.516-.181.775-.267-.329.038-.681.181-.987.296-.469.191-.775.448-1.068.772-.188.2-.376.391-.552.591-.564.62-.564 1.526-.365 2.241.247.877 1.093 1.544 2.068 1.878a4.16 4.16 0 0 0 2.759 0c1.069-.363 1.692-1.001 2.068-1.878zm-7.998 20.306c-.399-.344-.928-.63-1.538-.611-.517.019-.999.172-1.374.477-.059.048-.106.095-.165.134a2.05 2.05 0 0 0-.564.781 1.05 1.05 0 0 0-.035.706c0 .162.047.305.153.448a.8.8 0 0 0 .282.391.95.95 0 0 0 .387.314c.141.105.294.181.482.229.258.115.54.162.834.153.376-.01.775-.086 1.092-.239l.435-.276c.117-.115.223-.238.34-.353.071-.143.141-.276.223-.419.094-.239.106-.467.036-.706a.72.72 0 0 0-.153-.448 1.3 1.3 0 0 0-.446-.572zm22.315-17.504c.082-.038.176-.076.258-.124l.47-.295c.223-.172.388-.372.482-.61a.82.82 0 0 0 .164-.477 1.1 1.1 0 0 0-.047-.753c-.117-.305-.293-.629-.587-.849-.329-.247-.611-.362-1.045-.476-.212-.019-.411-.048-.623-.067a2.2 2.2 0 0 0-.904.162 1.25 1.25 0 0 0-.517.248 1.54 1.54 0 0 0-.599.534c-.047.067-.094.143-.153.21-.07.143-.152.295-.223.438a1.13 1.13 0 0 0-.035.734c0 .162.047.324.153.467.094.229.246.42.47.591.293.22.622.372.998.467.305.077.599.086.904.029.305-.009.576-.086.834-.219zm-111.644 2.908c1.844 2.545 3.148 5.453 4.663 8.141a609 609 0 0 1 4.662 8.418c3.03 5.549 6.025 11.107 9.373 16.531.105.172.411.019.317-.152-2.89-5.511-6.096-10.897-9.302-16.293a556 556 0 0 1-4.616-7.893c-1.656-2.889-3.699-5.787-4.979-8.79-.024-.067-.153-.019-.106.038zm16.959-98.584c.317 2.574 1.139 5.109 1.785 7.636.635 2.469 1.057 5.138 2.608 7.36.481.686 1.632.324 1.714-.372.282-2.498-.693-5.072-1.362-7.493-.681-2.46-1.186-5.015-2.185-7.408-.446-1.058-2.713-.972-2.56.277m-95.342 38.571c.74.839 1.409 1.612 1.938 2.546.552.991 1.069 1.84 1.914 2.698 1.445 1.468 2.936 2.917 4.381 4.395 3.03 3.117 6.142 6.177 9.149 9.304 5.978 6.254 11.31 12.88 17.123 19.219.529.572 1.516.096 1.175-.552-3.841-7.284-9.149-14.158-14.516-20.755-2.666-3.279-5.462-6.53-8.456-9.628a132 132 0 0 0-4.745-4.7c-.846-.791-1.785-1.392-2.866-1.974-1.069-.572-1.961-1.21-2.901-1.925-1.104-.839-3.159.286-2.184 1.372zm51.899 56.114c3.547 4.242 7.223 8.408 10.934 12.565 3.641 4.071 7.305 8.122 11.404 11.888.306.276.881-.086.634-.4-3.323-4.243-7.105-8.228-10.91-12.194-3.888-4.042-7.787-8.055-11.827-12.002-.106-.105-.329.028-.235.143m61.107-26.493c1.104 3.613 2.161 7.245 3.312 10.849 1.139 3.584 2.067 7.312 3.794 10.744.152.295.81.305.751-.086-.564-3.642-1.985-7.207-3.136-10.754-1.197-3.67-2.489-7.321-3.746-10.982-.176-.515-1.151-.296-.987.219zm67.884-88.632c-.541 1.211-1.057 2.288-1.245 3.575-.165 1.068-.2 2.155-.282 3.222-.164 2.212.117 4.433.164 6.645.094 4.671-.223 9.343-.317 14.014-.094 4.595-.164 9.19-.176 13.785 0 4.557-.176 9.143.681 13.652.094.505.952.315 1.01-.114.67-4.567.388-9.19.4-13.786 0-4.595.07-9.19.199-13.785.141-4.585.176-9.209.717-13.775.258-2.222.787-4.424.892-6.645.047-1.106.141-2.212.118-3.327-.035-1.221-.423-2.298-.764-3.48-.176-.601-1.151-.505-1.386 0zm22.784 160.237c8.515-4.805 17.182-9.41 25.639-14.281 4.192-2.412 8.385-4.834 12.578-7.246s8.174-4.9 12.097-7.598c.317-.219-.094-.638-.446-.467-4.522 2.183-8.809 4.509-13.096 6.998-4.098 2.383-8.209 4.766-12.308 7.159-8.362 4.891-16.513 10.01-24.828 14.948-.352.21-.023.696.352.487zM365.678 375.313c4.158-2.202 7.728-5.196 11.322-7.96a1085 1085 0 0 1 11.099-8.38 596 596 0 0 1 23.254-16.464c4.428-2.984 8.996-5.892 13.048-9.219.552-.448-.153-1.22-.845-.887-4.322 2.107-8.304 4.691-12.191 7.293a584 584 0 0 0-11.768 8.094c-7.764 5.472-15.386 11.088-22.738 16.922-4.04 3.213-8.444 6.454-11.498 10.344-.129.162.129.371.329.267zm65.03 50.622c.235-.391.576-.715.81-1.096.259-.429.412-.906.564-1.363.259-.811.47-1.64.705-2.46.493-1.764 1.139-3.489 1.75-5.234 1.221-3.451 2.807-6.797 4.275-10.181.258-.601-.775-.839-1.175-.401-2.736 2.994-4.686 6.387-6.236 9.877-.752 1.697-1.304 3.46-1.797 5.224-.258.934-.505 1.897-.622 2.85-.118.973.152 1.707.352 2.641.106.515 1.092.601 1.374.143m66.181-19.905c.235-8.6.634-17.199 1.339-25.779.352-4.213.763-8.418 1.198-12.622.446-4.29 1.444-8.742 1.162-13.061-.035-.486-.869-.591-1.045-.114-1.515 4.042-1.75 8.523-2.29 12.708-.564 4.28-.987 8.561-1.339 12.861-.705 8.665-1.104 17.331-1.081 26.016 0 1.077 2.032 1.077 2.056 0zm80.708 44.291c-4.052-18.17-10.805-35.807-20.118-52.652-2.654-4.805-5.626-9.41-8.914-13.948-.235-.314-.787-.038-.599.286 4.874 8.38 9.654 16.836 13.729 25.493a219 219 0 0 1 10.265 26.007 198 198 0 0 1 4.228 15.129c.176.753 1.585.429 1.421-.315zm38.041-84.866c-3.324-2.488-6.917-4.719-10.452-7.007-3.5-2.268-7.223-4.289-11.052-6.168-.423-.209-.893.277-.529.563 3.195 2.545 6.53 4.967 10.112 7.159 3.606 2.212 7.153 4.481 10.958 6.474.763.4 1.656-.525.975-1.03zm25.92-38.181c-.716-.476-1.409-.972-2.149-1.42-.164-.095-.329-.2-.493-.296-.223-.133-.435-.295-.717-.333-.105-.019-.047.019 0 .019-.035 0-.105-.048-.129-.057-.082-.039-.176-.086-.27-.124-.235-.105-.493-.134-.74-.181-.505-.096-.857.314-.646.676.106.172.188.353.341.506.07.076.152.143.235.209.035.029.07.058.105.096.071.057-.035-.077-.011 0 .023.114.188.229.282.305.07.057.152.105.234.162l.494.343c.646.448 1.339.849 2.008 1.268.223.143.423.238.716.238.247 0 .541-.085.717-.238.341-.305.434-.867 0-1.163zm-275.903-47.685a275 275 0 0 0-27.741-3.957c-9.325-.839-18.897-1.582-28.269-.925-.763.058-.74.878 0 .954 9.267.944 18.615 1.277 27.87 2.326a415 415 0 0 1 27.33 3.985c1.902.343 2.724-2.012.81-2.383m-71.665 48.725c.657-.229 1.362-.439 1.973-.735.152-.076.317-.143.458-.228.129-.077.27-.162.387-.248.035-.029.059-.057.094-.086q.123-.1-.07.029c.188-.086.446-.239.587-.363.141-.133.247-.286.352-.429.247-.343.012-.791-.446-.896-.223-.047-.435-.114-.669-.114-.259 0-.529.057-.787.086.105-.01.211-.019.317-.039-.118 0-.247-.019-.364-.009-.235 0-.47.057-.705.095-.27.048-.529.096-.787.172-.517.152-1.022.305-1.538.457-.4.115-.705.296-.928.582-.27.334-.259.772-.082 1.125.164.315.434.534.822.667.188.077.387.115.599.105.282 0 .54-.057.787-.171m95.154-17.599c3.053 0 3.065-3.851 0-3.851s-3.065 3.851 0 3.851m21.61-124.563c-.035-.267-.059-.534-.094-.81-.035-.258-.07-.515-.164-.772a2.4 2.4 0 0 0-.165-.363 1.6 1.6 0 0 0-.423-.524 2.3 2.3 0 0 0-.493-.296l.658.534c-.047-.066-.094-.143-.153-.209a2.1 2.1 0 0 0-.622-.506c-.306-.162-.623-.162-.963-.2.34.115.693.229 1.033.343-.223-.19-.458-.381-.787-.438-.211-.038-.458-.076-.669-.029-.212.048-.399.172-.552.286-.259.191-.341.448-.423.706q.335-.36.669-.706c-.023.01-.046.029-.07.038-.2.086-.364.21-.493.363-.153.152-.27.333-.317.524-.059.191-.059.381-.071.581l.247-.753a1.5 1.5 0 0 0-.247.439 1.6 1.6 0 0 0-.082.467c0 .191.059.381.106.572.011.067.035.134.047.2.058.191.176.362.27.544l.387.743c.094.096.188.2.282.296.165.143.353.238.576.305a2.13 2.13 0 0 0 1.174.076c.294-.076.564-.2.799-.372.176-.133.293-.286.376-.467a.88.88 0 0 0 .152-.562zm-36.972-55.875c.047-.047.082-.105.129-.152l.071-.086c.011-.029.035-.048.047-.076.035-.058.07-.115.093-.163.012-.028.036-.047.047-.076 0-.019.024-.028.024-.047.129-.229.223-.382.211-.639a.8.8 0 0 0-.129-.467.94.94 0 0 0-.305-.391l-.306-.191a1.7 1.7 0 0 0-.751-.162c-.317 0-.505.067-.787.172-.024 0-.035.019-.059.019-.035.009-.059.028-.094.038-.07.028-.141.057-.199.086-.036.009-.059.028-.094.038l-.106.057c-.059.038-.118.067-.188.105-.258.124-.47.295-.622.505a1.23 1.23 0 0 0-.235.715c.023.124.047.248.058.372.083.238.235.448.447.629.152.134.34.238.563.296.212.085.435.133.67.124.317 0 .611-.067.881-.191.258-.124.469-.296.622-.505zm-2.278 12.241h-.482c-1.668 0-1.574 2.221 0 2.059h.117c1.61-.181 1.61-1.868 0-2.04h-.117c-1.574-.181-1.679 2.04 0 2.04h.482c1.632 0 1.632-2.059 0-2.059m23.594 3.232.388.171c.129.058.258.124.388.172.082.029.176.057.258.086l.282.028.141-.019a.8.8 0 0 0 .399-.105s.012 0 .024-.009c.07-.038.082-.029.188-.114 0 0 .14-.143.14-.153v-.009s0-.02.012-.02c.024-.038.035-.066.059-.104a.4.4 0 0 0 .07-.22l.024-.114a.55.55 0 0 0-.094-.334c-.024-.047-.047-.095-.071-.133-.023-.029-.035-.057-.058-.077-.036-.057-.071-.104-.106-.162-.082-.124-.164-.238-.247-.362a1.25 1.25 0 0 0-.481-.391 1.6 1.6 0 0 0-.681-.152c-.118.009-.235.028-.353.038a1.4 1.4 0 0 0-.587.276.9.9 0 0 0-.282.353.77.77 0 0 0-.117.42c0 .371.258.753.657.934zm116.554 54.464c1.186 0 1.186-1.487 0-1.487-1.187 0-1.187 1.487 0 1.487m12.531-17.418c1.773 0 1.773-2.23 0-2.23s-1.773 2.23 0 2.23m-87.755 197.732-.212.286c-.012.019-.035.047-.047.076a7 7 0 0 1-.235.438c0 .02 0 .029-.011.048-.012.048-.036.096-.047.143-.2.591.011 1.249.552 1.688.54.438 1.338.61 2.078.448.306-.067.599-.153.869-.277l.353-.171a2.2 2.2 0 0 0 .857-.696c.223-.305.329-.63.329-.982-.023-.172-.059-.343-.082-.515a1.84 1.84 0 0 0-.623-.858 1.85 1.85 0 0 0-.775-.401 2.2 2.2 0 0 0-.928-.171c-.857 0-1.644.372-2.078.963zm-99.183 8.256 1.585-.115c.165 0 .317-.038.458-.105a.8.8 0 0 0 .329-.267c.07-.124.141-.238.129-.381 0-.143-.059-.248-.129-.381a.8.8 0 0 0-.329-.267 1.05 1.05 0 0 0-.458-.105l-1.585-.115c-.259-.019-.576.115-.752.258-.188.152-.329.4-.317.61a.8.8 0 0 0 .317.61c.2.143.47.277.752.258m90.75 13.632c.012-.095.035-.19.047-.286.023-.162.082-.324.07-.486 0-.152 0-.324-.047-.476-.035-.096-.07-.191-.105-.296a.8.8 0 0 0-.623-.505c-.082-.01-.164-.038-.235-.029-.082 0-.164.019-.235.029a.83.83 0 0 0-.622.505c-.035.095-.07.181-.106.276-.047.153-.047.325-.058.487 0 .152.035.314.07.467.024.105.035.2.059.305.035.057.058.124.094.181a.6.6 0 0 0 .246.21c.153.095.364.171.564.162.164 0 .329-.038.47-.105a.6.6 0 0 0 .258-.2.54.54 0 0 0 .165-.258zm-14.998 21.727c-.564-.029-1.127-.048-1.691-.076q-.265 0-.493.085a1.1 1.1 0 0 0-.411.21.7.7 0 0 0-.259.334.6.6 0 0 0-.105.4.9.9 0 0 0 .375.725c.235.181.564.314.893.305.564-.029 1.127-.048 1.691-.076.305-.01.611-.096.834-.277.2-.162.352-.438.341-.677a.9.9 0 0 0-.341-.677 3 3 0 0 1-.235-.152 1.4 1.4 0 0 0-.587-.134zm-31.886 15.482c.611.238 1.221.486 1.832.725.305.114.599.238.904.352.153.067.317.143.482.181.176.048.376.058.552.067.282.029.387-.286.223-.429-.117-.105-.235-.229-.388-.305-.14-.076-.305-.133-.458-.2a30 30 0 0 0-.857-.362c-.587-.258-1.186-.506-1.773-.763-.247-.105-.564-.048-.705.152a.38.38 0 0 0 .188.572zm17.793 19.029 1.797-.048c.293 0 .587-.01.88-.038.177-.019.364-.019.529-.067.153-.038.293-.095.446-.143.446-.152.446-.601 0-.744-.141-.047-.27-.095-.411-.133-.176-.048-.376-.057-.564-.076a9 9 0 0 0-.88-.038l-1.797-.048c-.435-.01-.846.315-.823.667s.365.687.823.668m14.598 19.295c-.352-.038-.693-.086-1.045-.124-3.359-.4-3.312 3.69 0 3.232.2-.029.388-.057.587-.095 1.856-.334 1.856-2.717 0-3.041a12 12 0 0 0-.587-.096c-3.3-.457-3.382 3.642 0 3.232.352-.038.693-.086 1.045-.124 1.821-.219 1.821-2.765 0-2.984m-100.404-8.523h-.047c-.176-.028-.411-.047-.599-.066h-.117a6 6 0 0 0-.588.066c-.023 0-.047 0-.07.019a8 8 0 0 0-.529.181s-.023 0-.035.01c-.023 0-.047.019-.059.029a7 7 0 0 0-.446.286l-.023.019-.047.038c-.118.105-.247.257-.353.372 0 0-.011.019-.023.028-.012.019-.024.038-.035.048-.059.086-.094.181-.141.257a2 2 0 0 0-.13.267c-.011.038-.023.086-.035.124-.035.191-.082.401-.094.591v.086c0 .067.059.419.083.486.035.067.07.143.105.21a.77.77 0 0 0 .282.391c.211.229.106.124.188.191.129.085.317.209.446.285 0 0 .012.001.024.01.023.01.035.019.058.029-.14-.086-.281-.172-.422-.267-.106-.105-.212-.22-.317-.334.117.134.246.276.375.4l.071.058c.423.295.505.314 1.022.486l.516.057.517-.057c.153-.057.306-.105.47-.162.223-.096.411-.239.552-.41a.8.8 0 0 0 .247-.353.64.64 0 0 0 .129-.4.64.64 0 0 0 0-.42c0-.209-.094-.41-.235-.591a.3.3 0 0 1-.047-.076c.07.124.129.257.2.381a.5.5 0 0 1-.047-.133l.07.438v-.066l-.07.448-.212.4c.012-.029.035-.048.047-.076 0 0 0-.01.012-.019.106-.134.188-.277.223-.429.024-.162.047-.315.082-.477 0-.181-.058-.353-.082-.534.024.162.047.315.082.477a1 1 0 0 1 0-.238c-.023.152-.047.314-.082.467 0-.067.024-.124.059-.182a8 8 0 0 1-.223.42.7.7 0 0 1 .082-.114c-.118.114-.223.238-.341.352a.3.3 0 0 1 .082-.066c-.14.095-.293.181-.434.276.023-.019.059-.029.094-.048-.176.058-.341.115-.517.172.035-.01.082-.019.118-.029q-.282.027-.564.067h.141c.293 0 .564-.038.822-.152.27-.067.493-.191.681-.363l.329-.352a1.23 1.23 0 0 0 .258-.649.76.76 0 0 0 0-.457 1.1 1.1 0 0 0-.258-.649l-.329-.352a2.25 2.25 0 0 0-.939-.448zm-16.959-47.666.411-.267c-.247.152-.494.314-.74.467.106-.067.223-.115.329-.181a3.2 3.2 0 0 0 1.233-1.001c.305-.439.47-.906.47-1.402 0-.505-.153-.972-.47-1.401a3.2 3.2 0 0 0-1.233-1.001c-.106-.057-.223-.115-.329-.181.246.152.493.314.74.467l-.411-.267c-.282-.172-.564-.353-.846-.525l-.986-.343a3.74 3.74 0 0 0-1.656-.057c-.376 0-.729.076-1.046.229a2.3 2.3 0 0 0-.916.429 1.9 1.9 0 0 0-.74.6q-.387.315-.528.744a2.15 2.15 0 0 0-.353 1.297c.047.295.094.6.153.896l.423.801c.211.228.434.457.646.686.282.172.564.353.846.524l.986.344a3.74 3.74 0 0 0 1.656.057c.376 0 .728-.077 1.045-.229a3.3 3.3 0 0 0 1.339-.696zm-75.835-8.018c.188-.725.188-1.506-.352-2.155a3.18 3.18 0 0 0-2.502-1.163 3.18 3.18 0 0 0-2.502 1.163c-.54.649-.54 1.421-.352 2.155l.294.572c.188.276.434.505.763.677.493.314 1.139.534 1.785.515a4.1 4.1 0 0 0 1.492-.325c.599-.257 1.209-.886 1.362-1.43zm-34.564-51.814c-.541 0-1.081-.009-1.621-.019-1.092-.009-2.138.791-2.091 1.697s.916 1.716 2.091 1.697c.54 0 1.08-.01 1.621-.019 1.08-.01 2.114-.763 2.067-1.678s-.905-1.659-2.067-1.678m-18.651-112.493c.717-1.04 1.281-2.126 1.222-3.347-.552 1.078-1.104 2.155-1.644 3.232.833-.762 1.479-1.544 1.843-2.536a3.37 3.37 0 0 0-.164-2.774c-.893-1.706-3.429-2.717-5.661-2.488.951.21 1.891.419 2.842.62-1.245-.734-2.76-.801-4.239-.916-2.291-.171-4.687 1.163-5.802 2.698-1.21 1.678-1.21 3.823 0 5.501 2.501 3.47 9.137 3.604 11.603 0zm39.756-43.444c2.055-2.517 2.736-6.206-.223-8.513.587 1.153 1.174 2.297 1.761 3.451-.117-2.021-1.233-3.928-3.641-4.757-2.231-.763-5.026-.134-6.624 1.306 1.422-.477 2.831-.954 4.252-1.43-2.713.19-4.78 1.163-6.107 3.089-.4.572-.799 1.239-1.022 1.868-.247.687-.258 1.611-.352 2.364-.141 1.106.587 2.327 1.374 3.156.822.858 1.996 1.621 3.335 1.869 2.901.533 5.614-.391 7.258-2.393zm49.362-45.512c4.428 0 4.44-5.587 0-5.587-4.439 0-4.439 5.587 0 5.587m42.281-37.018c2.419 0 2.419-3.051 0-3.051s-2.42 3.051 0 3.051m-95.131 31.317c2.184 0 2.184-2.755 0-2.755s-2.185 2.755 0 2.755m-60.649 14.3s-.012 0-.024.009c-.81.353-1.456.83-1.938 1.449-.611.544-1.022 1.183-1.233 1.907l-.247 1.487c0 1.011.317 1.955.94 2.832q.052.1.141.2c.211.257.81.887 1.069 1.125.011.009.023.028.035.038.223.181.235.153.716.458a3.7 3.7 0 0 0 1.457.696c.258.104.528.2.81.276a8 8 0 0 0 3.5 0c1.116-.257 2.09-.715 2.913-1.373 1.045-.829 1.197-1.334 1.726-2.412l-.669 1.287q.053-.1.14-.2c-.352.372-.716.744-1.068 1.125.023-.029.047-.048.082-.076l1.08-1.135c.505-.648.776-1.334.823-2.088a2.3 2.3 0 0 0 0-1.487c-.047-.743-.318-1.439-.823-2.088 0 0 0-.009-.011-.019a4.7 4.7 0 0 0-1.774-1.563c-.669-.496-1.444-.829-2.337-1.001l-1.832-.2a8.1 8.1 0 0 0-3.476.762zm37.747 142.047c1.045.028 2.02-.143 2.912-.534.94-.248 1.75-.667 2.431-1.268.74-.553 1.257-1.22 1.563-1.973.469-.734.692-1.526.657-2.365-.094-.543-.176-1.086-.27-1.63-.364-1.039-1.01-1.945-1.95-2.707-.505-.324-1.021-.639-1.526-.963a8.9 8.9 0 0 0-3.817-.839c-1.046-.029-2.02.143-2.913.534-.94.248-1.75.667-2.431 1.268-.74.553-1.257 1.22-1.562 1.973-.47.734-.693 1.525-.658 2.364.094.544.176 1.087.27 1.631.364 1.039 1.01 1.944 1.95 2.707.505.324 1.022.639 1.527.963a8.9 8.9 0 0 0 3.817.839m-82.753 75.838c-.258.162-.528.324-.787.486-.47.296-.822.639-1.139 1.049l-.282.371c-.516.687-.587 1.421-.387 2.193.211.82 1.186 1.611 2.196 1.783.916.162 1.82.105 2.643-.286.176-.086.34-.172.505-.258.364-.181.74-.39 1.021-.638.318-.277.588-.61.87-.925.117-.219.223-.439.34-.658.141-.362.165-.734.059-1.096a2.43 2.43 0 0 0-.94-1.583 4.2 4.2 0 0 0-1.503-.705c-.728-.191-1.985-.105-2.62.276zm257.254 98.146c.117.038.223.066.34.095 2.889.582 5.931 0 8.057-1.726s2.842-4.194 2.126-6.539a3 3 0 0 0-.118-.277c-.399-1.163-1.127-2.173-2.173-3.031-1.057-.849-2.301-1.44-3.734-1.764-2.913-.648-6.096.038-8.233 1.764s-2.983 4.318-2.173 6.682c.399 1.164 1.127 2.174 2.173 3.032 1.057.848 2.302 1.44 3.735 1.764m-30.924 63.158c-.693 1.068-1.386 2.088-1.832 3.251-.399 1.068.376 2.221 1.597 2.641 1.351.467 2.607 0 3.441-.915.752-.811 1.233-1.697 1.774-2.603.657-1.106.411-2.584-1.034-3.213-1.339-.572-3.194-.314-3.958.839zm111.679 7.541c-.599 1.563-1.879 3.756-1.139 5.367.634 1.392 2.607 2.326 4.345 1.43 2.138-1.096 2.702-3.479 3.524-5.3.622-1.392-.705-3.165-2.431-3.48-1.891-.353-3.712.458-4.287 1.973zm60.003 14.653q-.845.272-.387-.229a5 5 0 0 0-2.114-.543 8 8 0 0 0-1.292-.096c-.752-.038-.728-.019.082.048.94.448 1.891.896 2.83 1.335-1.55-1.059-2.983-1.745-5.073-1.783-1.703-.029-3.042.438-4.557.972-2.654.934-4.017 4.176-3.159 6.311.88 2.212 3.558 4.309 6.635 4.1 1.633-.105 3.124-.286 4.545-.992 1.774-.877 2.514-2.03 3.254-3.537-.552.763-1.104 1.535-1.645 2.298-1.01.743.306-.029.505-.143.329-.181 3.172-2.241 1.398-1.669 1.762-.572 3.03-1.763 2.725-3.393-.259-1.373-1.832-2.851-3.735-2.679zm116.354-29.315c7.14 0 7.152-9.009 0-9.009s-7.153 9.009 0 9.009m56.914-77.287c1.233.038 2.396-.172 3.465-.629q1.672-.446 2.889-1.507c.881-.657 1.491-1.439 1.855-2.345a4.66 4.66 0 0 0 .776-2.812l-.318-1.945c-.422-1.239-1.197-2.307-2.313-3.222-.611-.382-1.21-.763-1.821-1.144-1.397-.658-2.912-.992-4.533-1.001-1.233-.038-2.396.171-3.465.629-1.115.295-2.078.801-2.889 1.506-.881.658-1.491 1.44-1.856 2.345a4.67 4.67 0 0 0-.775 2.813l.317 1.945c.423 1.239 1.198 2.307 2.314 3.222.611.381 1.21.762 1.821 1.144 1.397.658 2.912.991 4.533 1.001m-32.086-27.637a6 6 0 0 0-.259-.277c.118.353.235.715.353 1.068v-.477c0-.896-.916-1.63-2.02-1.639h-.588c.435.095.881.19 1.316.286-.705-.429-1.598-.677-2.49-.677-1.045 0-2.302.381-3.019 1.01-.223.239-.446.467-.669.706-.317.4-.481.829-.505 1.287-.129.457-.106.924.07 1.382.13.448.388.839.764 1.182q.458.57 1.198.896c.34.115.681.229 1.022.353a3.95 3.95 0 0 0 1.703.057 3.8 3.8 0 0 0 1.585-.41c.916-.476 1.715-1.182 1.961-2.068.235-.849.247-1.936-.434-2.67zm58.91-27.704c11.04 0 11.064-13.928 0-13.928s-11.063 13.928 0 13.928m31.582 30.354c.34.171.681.353 1.021.524.071.038.153.077.224.115.657.333 1.245.457 1.973.543.446.095.892.095 1.327 0 .246.019.481 0 .693-.086.211-.066.411-.133.61-.209a3.9 3.9 0 0 0 1.574-.82c.928-.82 1.398-1.783 1.457-2.879.047-.792-.341-1.621-.869-2.279l-.682-.867c-.986-1.268-2.713-2.231-4.639-2.155-1.421.048-2.772.439-3.793 1.278-.975.791-1.574 1.963-1.574 3.079 0 1.582 1.045 2.926 2.654 3.765zm-149.239 55.227c.458.314.916.638 1.374.953.764.534 1.88.934 2.901.62.482-.153.963-.296 1.328-.62.364-.324.563-.658.763-1.077.387-.83-.106-1.735-.763-2.355-.388-.372-.787-.744-1.175-1.115-.493-.468-1.468-.744-2.208-.744s-1.679.276-2.208.744c-.54.486-.951 1.115-.916 1.792.035.639.294 1.354.916 1.792zm144.189-107.232s.023-.085.035-.123c.082-.277.106-.639.153-.868.176-1.058.234-1.211-.141-2.488l-.036-.124a3.2 3.2 0 0 0-.422-.83c-.2-.581-.564-1.077-1.081-1.506-.376-.515-.881-.915-1.503-1.22-.811-.601-1.762-1.011-2.854-1.22-.74-.086-1.492-.162-2.232-.248-.739.086-1.491.162-2.231.248l-2.008.686c-.564.353-1.128.715-1.703 1.068-.822.619-1.398 1.344-1.739 2.192-.375.534-.575 1.106-.575 1.716-.2.601-.2 1.211 0 1.812 0 .619.188 1.191.575 1.716.341.848.917 1.573 1.739 2.192.563.353 1.127.715 1.703 1.068l2.008.687c.74.085 1.492.162 2.231.247.74-.085 1.492-.162 2.232-.247 1.092-.21 2.043-.62 2.854-1.221a4 4 0 0 0 1.503-1.22c.74-.658 1.245-1.43 1.503-2.317zm38.393 20.488-.74-.229a5.4 5.4 0 0 0-1.433-.248c-.764-.029-1.633.296-2.161.725-.529.429-.928 1.134-.893 1.754.035.638.294 1.306.893 1.754.575.429 1.35.762 2.161.724a5.5 5.5 0 0 0 1.433-.248l.74-.228c.54-.162.974-.372 1.338-.744.341-.353.576-.81.552-1.268a2.14 2.14 0 0 0-.352-1.049c-.317-.495-.928-.772-1.538-.962zM642.275 170.622c-.282-.114-.552-.238-.834-.352-8.444-3.575-8.444 9.876 0 6.301.282-.114.552-.238.834-.353 2.595-1.096 2.595-4.49 0-5.596m49.256-5.186c-.375-1.363-1.068-2.755-2.994-3.041.54.334 1.08.667 1.609 1.011-.353-.534-.846-.887-1.457-1.221-.493-.267-1.268-.267-1.761 0-.611.334-1.104.677-1.457 1.221a83 83 0 0 0 1.609-1.011c-1.914.276-2.63 1.687-2.995 3.041-.54 1.974 1.14 3.957 3.712 3.957s4.251-1.993 3.711-3.957zm-23.089-43.825c4.016 0 4.016-5.062 0-5.062-4.017 0-4.017 5.062 0 5.062m13.142-57.848c-.106-.248-.211-.496-.317-.734v2.145s0-.038.012-.057a3.38 3.38 0 0 0 0-2.203 2.86 2.86 0 0 0-.916-1.4c-.365-.449-.834-.802-1.433-1.069a6 6 0 0 0-2.572-.562h-.2c.822.181 1.644.362 2.478.543l-.235-.105c-.387-.133-.763-.267-1.151-.39a4.4 4.4 0 0 0-1.926-.067c-.434 0-.846.086-1.221.267a3.8 3.8 0 0 0-1.551.81c-.563.505-.986 1.087-1.245 1.726-.375.953-.117 2.173.482 3.022l.129.19a474 474 0 0 1-.669-2.011v.162c0 .743.235 1.44.693 2.088.317.486.751.867 1.315 1.163a4.3 4.3 0 0 0 1.726.743q1.357.3 2.713 0c.024 0 .047 0 .071-.01h-2.643c.306.087.611.172.905.258 1.48.43 3.3-.067 4.369-.934 1.068-.868 1.679-2.345 1.151-3.546zm-37.219-34.187c1.233.038 2.384-.171 3.441-.629 1.104-.295 2.067-.791 2.878-1.497.869-.657 1.491-1.44 1.844-2.335q.845-1.304.775-2.794l-.317-1.925c-.423-1.23-1.187-2.298-2.302-3.204l-1.809-1.134a10.5 10.5 0 0 0-4.51-.991c-1.233-.039-2.384.171-3.441.629-1.104.295-2.067.791-2.877 1.496-.87.658-1.492 1.44-1.844 2.336-.564.868-.822 1.802-.775 2.793l.317 1.926c.422 1.23 1.186 2.298 2.302 3.203l1.808 1.135q2.097.989 4.51.991m-18.204 58.831c5.79 0 5.79-7.303 0-7.303s-5.79 7.303 0 7.303m-28.187 51.861c4.134 0 4.134-5.215 0-5.215s-4.134 5.215 0 5.215m-5.696 20.487c-.376.057-.798.077-1.163.172-.54.133-1.104.553-1.104 1.049 0 .448.47.838.94 1.001.399.133.893.162 1.327.219.987.143 1.973-.353 1.973-1.22 0-.325-.176-.668-.458-.897-.423-.343-.951-.41-1.515-.324m37.407-21.984c4.016 0 4.016-5.062 0-5.062-4.017 0-4.017 5.062 0 5.062m-63.421-37.151c10.864 0 10.875-13.71 0-13.71s-10.876 13.71 0 13.71m-38.005-19.467-.177-.315c.165.505.341 1.01.505 1.506.118-1.382-.281-2.783-1.092-4.013-.376-.582-.916-1.154-1.491-1.62-1.104-.897-2.361-1.04-3.829-1.183-1.844-.172-3.429 1.173-3.97 2.45-.775 1.85.082 3.737 1.68 5.12.364.324.798.629 1.209.915.858.6 1.809.886 2.843 1.21l-1.621-.772c.094.086.176.172.27.258 1.174 1.105 3.429 1.067 4.756.228 1.527-.953 1.692-2.43.928-3.794zm-3.606-34.578c.247-1.678.27-3.947-1.327-5.186-.623-.477-1.586-.486-2.208 0-1.598 1.24-1.574 3.508-1.327 5.186.375 2.536 4.486 2.536 4.862 0M541.6 34.62c2.126 0 2.126-2.68 0-2.68s-2.125 2.68 0 2.68m-63.42 5.481c4.016 0 4.016-5.062 0-5.062-4.017 0-4.017 5.062 0 5.062m-38.452 35.464s-.035-.076-.059-.105a2 2 0 0 0-.599-.924 2.34 2.34 0 0 0-.94-.696c-.739-.324-1.761-.544-2.583-.277l-.247.076c-.258.086-.517.182-.775.267a2.4 2.4 0 0 0-.916.677c-.423.448-.728 1.02-.693 1.602.023.467.176.915.446 1.334.411.63 1.163.963 1.938 1.211l.247.077c.728.238 1.938.057 2.583-.277.224-.143.447-.286.682-.429.411-.343.704-.734.857-1.201.176-.362.235-.992.059-1.335m-43.42 14.234c.47-.42.916-.82 1.339-1.278.106-.114.223-.229.317-.353.282-.362.411-.781.47-1.2.035-.201.082-.363.07-.554-.058-.705-.328-1.468-.998-1.964-.693-.514-1.48-.762-2.419-.81-1.727-.095-2.995.906-4.158 1.783-.704.524-1.116 1.43-1.116 2.183s.412 1.668 1.116 2.183c.728.543 1.68.944 2.69.906.986-.038 2.008-.296 2.689-.906zm43.279-78.021c.27-.086.529-.172.799-.258a32 32 0 0 0 1.362-.467 5.2 5.2 0 0 0 2.008-1.63c.235-.372.423-.801.611-1.192.047-.105.106-.21.153-.314.293-.61.387-.906.387-1.821.036-.81-.176-1.564-.622-2.27-.294-.733-.787-1.363-1.503-1.896-.905-.725-1.974-1.23-3.195-1.516-.646-.067-1.28-.143-1.926-.21a8.5 8.5 0 0 0-3.664.8c-.494.306-.975.61-1.468.926q-1.34 1.103-1.868 2.593l-.258 1.563q0 1.588.986 2.974a4.95 4.95 0 0 0 1.868 1.65c.704.524 1.526.867 2.466 1.048a9.05 9.05 0 0 0 3.852 0zM353.1 54.163c5.907 0 5.919-7.446 0-7.446s-5.919 7.446 0 7.446m-42.281 10.839c4.957 0 4.968-6.254 0-6.254s-4.968 6.254 0 6.254M252.214 42.8c.564-.077 1.081-.268 1.574-.516l-1.691.372h.094c.763.038 1.785-.314 2.302-.772.563-.496.998-1.163.951-1.869v-.076l-.458 1.373c.293-.4.54-.82.634-1.278.2-.524.235-1.048.082-1.573 0-.352-.117-.686-.329-.991a2.93 2.93 0 0 0-1.01-1.268c-.329-.21-.657-.41-.986-.62l-1.163-.4a4.4 4.4 0 0 0-1.938-.067c-.434 0-.845.096-1.221.267-.599.162-1.128.43-1.562.82a4.5 4.5 0 0 0-1.245 1.745c-.2.524-.235 1.048-.082 1.573 0 .352.117.686.328.991.2.486.529.915 1.01 1.268.329.21.658.41.987.62l1.163.4a5.9 5.9 0 0 0 2.584 0zm178.401 50.583c.071 0 .071-.095 0-.095s-.071.095 0 .095M262.502 112.04c-.61-1.449-1.209-2.851-2.243-4.147-1.585-1.964-3.97-4.386-7.047-4.748a10 10 0 0 0-4.251 0c-1.351.305-2.537.868-3.535 1.669-.987.81-1.68 1.763-2.056 2.869a5.43 5.43 0 0 0 0 3.451c.423 2.507 3.43 4.433 5.826 5.739 1.574.858 3.312 1.344 5.085 1.84 4.71 1.335 9.83-2.888 8.245-6.692zm1470.808 31.241c-6.37.763-10.82 5.263-15.19 8.743-5.06 4.023-10.05 8.122-14.79 12.393-9.56 8.58-18.61 17.551-26.95 26.941-16.19 18.237-30.68 38.629-41.16 59.441-.35.696.99 1.087 1.46.495 7.37-9.504 14.48-19.057 22.35-28.314 8.08-9.495 17-18.428 25.95-27.379 8.45-8.457 17.21-16.722 26.33-24.692 4.83-4.214 9.67-8.418 14.66-12.508 4.32-3.546 9.89-6.825 11.25-11.935.57-2.079-1.49-3.461-3.91-3.175zm-70-26.245c-.33-.038-.65-.067-.97-.105-1.79-.181-3.55.944-4.44 2.069-3.34 4.185-4.44 9.009-6.16 13.728-1.79 4.957-4.06 9.8-6.01 14.72-3.66 9.247-7.01 18.571-9.75 28.028-2.65 9.161-4.8 18.065-5.07 27.475-.31 10.324-1.5 20.592-1.54 30.926 0 .191.34.191.37 0 1.17-10.267 2.29-20.459 5.63-30.43 3.04-9.057 5.12-18.228 7.84-27.361 2.7-9.124 5.84-18.18 9.69-27.037 1.99-4.595 3.98-9.276 6.67-13.642 2.7-4.385 6.19-8.389 7.74-13.175.43-1.354.05-3.118-1.33-4.061-.89-.61-1.48-1.001-2.66-1.125zm-88 4.853c-.25.095-.5.19-.75.295-2.29.877-2.71 3.041-2.42 4.815.93 5.491 3.66 10.744 5.12 16.197a524 524 0 0 0 4.65 16.33c3.38 11.145 6.95 22.356 11.5 33.234 4.43 10.591 8.94 21.183 13.76 31.65 4.6 9.953 8.91 21.46 16.81 30.049.81.887 2.41.372 2.17-.743-2.28-10.763-8.93-21.317-13.48-31.555a380 380 0 0 1-12.45-31.947c-3.55-10.467-7.2-20.887-10.31-31.45a474 474 0 0 1-4.52-16.369c-1.53-5.901-1.46-11.841-3.13-17.665-.55-1.945-2.8-2.975-5.06-3.127-.7-.048-1.24.038-1.89.295zm-51.68 25.13c2.88 4.9 6.49 8.894 10.33 13.289 3.71 4.252 6.22 9.209 9.58 13.661 6.75 8.933 12.46 18.409 18.75 27.571a861 861 0 0 0 19.47 27.246c6.32 8.494 12.38 17.208 20.29 24.787.74.705 1.93-.191 1.49-.934-5.59-9.448-13.1-18.114-19.76-27.094a875 875 0 0 1-18.82-26.427c-6.37-9.323-12.76-18.647-17.87-28.485-2.48-4.777-5.73-9.362-7.41-14.377-1.65-4.871-3.47-9.352-6.09-13.966-3.08-5.443-13.14-.715-9.96 4.719zm-53.33 40.564c4.39 3.451 10.04 5.863 15.13 8.561 5.12 2.707 10.32 5.339 15.73 7.665 3.06 1.315 6.49 1.983 9.52 3.327 3.24 1.439 6 3.594 8.76 5.567 4.88 3.48 9.77 6.95 14.74 10.344a584 584 0 0 1 28.25 20.544c4.44 3.432 8.86 6.884 13.23 10.382 4.38 3.509 8.46 7.741 13.85 10.239 1.14.524 2.25-.505 1.71-1.392-2.61-4.271-7.31-7.55-11.39-10.915-4.55-3.785-9.18-7.503-13.95-11.107-9.81-7.426-19.87-14.672-30.34-21.478-4.6-2.994-9.38-5.854-14.24-8.561-3.03-1.688-6.32-3.27-8.94-5.387-2.43-1.973-4.18-4.376-6.68-6.32-8.58-6.674-19.79-14.196-30.93-17.675-4.39-1.373-7.56 3.765-4.45 6.206m-49.56 66.857c12.44-3.127 26.43-2.24 39.36-1.706 12.83.534 25.52 1.783 38.24 3.203a450 450 0 0 1 39.27 6.149c12.45 2.517 24.46 6.159 36.88 8.666.95.191 1.58-.915.68-1.316-11.06-4.928-23.06-7.922-35.11-10.915a436 436 0 0 0-39.63-7.894c-12.49-1.888-25.28-2.869-37.94-3.48-13.81-.657-28.18.534-41.75-1.496-9.71-1.459-8.36 10.887 0 8.789m47.57 68.173c1.43-2.764 8.79-5.367 11.87-6.949 3.93-2.021 7.82-4.128 11.79-6.102 7.59-3.775 15.47-7.245 23.28-10.715 15.96-7.084 33.46-11.507 50.08-17.418.56-.2.14-.858-.4-.772-18.29 3.07-35.25 9.581-52.37 15.416-8.1 2.764-15.88 5.901-23.69 9.171-3.8 1.592-7.61 3.155-11.3 4.919-3.85 1.84-10.33 6.444-14.85 6.483-4.71.047-7.45 4.518-4.56 7.56 3.11 3.269 8.4 1.763 10.15-1.602zm34.65 62.644c2.6-10.773 12.29-20.935 19.5-30.097 7.53-9.562 15.1-19.209 22.95-28.6 15.88-19.019 36.64-35.13 55.42-52.176.8-.724-.4-1.659-1.29-1.048-21.94 14.957-39.06 33.471-57.38 51.194-8.79 8.503-16.85 16.969-24.32 26.302a443 443 0 0 0-10.84 14.119c-4.11 5.587-7.49 11.335-13.27 15.94-6.84 5.463 7.53 11.44 9.23 4.366m78.88 12.689c-.03-2.479-.92-4.3-1.49-6.683-.68-2.841-.28-5.749-.08-8.618.3-4.452 1.01-8.885.84-13.337-.37-10.382 2.2-20.716 4.99-30.831 2.58-9.314 6.19-18.514 10.13-27.494 4.06-9.286 9.64-18.19 13.27-27.571.32-.829-1.13-1.258-1.68-.572-6.33 7.98-10.28 17.666-14.05 26.608-4.07 9.686-7.23 19.524-10.2 29.458-2.96 9.896-4.79 19.972-8.05 29.792-1.5 4.538-1.83 9.276-2.3 13.947-.29 2.908-.31 5.787-1.28 8.618-.83 2.402-1.68 4.147-1.81 6.683-.32 6.092 11.79 6.139 11.71 0m47.41 24.958c3.94-3.165 2.66-7.102 1.12-11.02-.88-2.241-2.07-4.195-3.25-6.311-2.06-3.661-1.91-7.017-1.95-10.897-.16-10.563-1.79-21.164-2.39-31.717-1.22-21.508-.62-43.082-.96-64.608 0-.591-1.18-.772-1.32-.143-5.03 21.412-5.74 43.015-4.55 64.751.57 10.42 1.36 21.021 3.65 31.298.83 3.718 2.44 7.188 1.88 11.03-.33 2.269-1.03 4.385-1.19 6.692-.28 4.223-.09 9.267 5.13 11.326 1.28.505 2.76.438 3.81-.401zm44.33-7.502c2.17-4.576 0-8.752-2.83-12.832-3.53-5.091-5.56-10.43-7.67-15.988-4.14-10.868-7.98-21.822-11.62-32.804-7.16-21.622-12.89-43.548-20.33-65.103-.23-.687-1.61-.572-1.56.171 1.56 22.499 7.45 44.817 14.53 66.572 3.59 11.011 7.63 21.898 12.06 32.709 2.36 5.786 4.75 11.287 5.94 17.312.91 4.567 2.77 8.828 7.98 11.116 1.45.639 2.93.019 3.5-1.153m37.83-14.138c-.24-8.647-6.93-15.015-11.42-22.509-4.72-7.884-8.8-16.082-13.18-24.09-4.39-8.027-8.72-16.093-13.17-24.091-4.26-7.636-8.17-15.864-14.56-22.518-.81-.848-2.17.114-1.98.944 1.73 8.056 6.55 15.749 10.55 23.204 4.31 8.056 8.77 16.073 13.16 24.1 4.22 7.703 8.59 15.368 12.65 23.128 4.18 7.989 5.51 17.113 13.58 23.3 1.57 1.201 4.43.381 4.38-1.468zm61.17-30.107c-4.13-10.515-12.12-20.935-19.9-29.934-3.8-4.386-7.87-8.724-12.4-12.632-4.98-4.3-11.48-7.141-16.92-11.049-10.21-7.36-20.97-14.319-32.99-19.658-12.48-5.549-25.19-9-38.88-11.955-.47-.105-.63.429-.2.572 12.45 4.157 24.6 9.838 36.01 15.654 11.39 5.806 22.71 11.897 32.68 19.267 4.99 3.68 8.02 8.36 12.38 12.479 4.04 3.823 8.29 7.493 12.18 11.421 8.75 8.818 15.17 18.209 22.68 27.675 1.72 2.183 6.41.839 5.35-1.83zm-14.1-72.196c-23.17-15.577-57.64-26.312-87.99-21.202-1.08.181-.72 1.382.25 1.459 15.27 1.296 30.43 1.897 45.29 5.338 14.54 3.366 28.98 8.618 41.9 14.987.43.21.96-.305.55-.582m54.6-29.515c-4.83-4.5-12.75-6.607-19.64-8.399-6.96-1.821-14.2-3.146-21.34-4.404-15.12-2.67-30.45-4.062-45.94-3.88-14.72.171-29.83 2.249-44.22 4.671-14.55 2.45-29.85 5.882-43 11.592-.75.325-.23 1.373.59 1.135 13.98-4.033 27.41-8.132 42.07-10.363 14.95-2.278 29.44-2.259 44.56-1.554 14.63.687 29.34 2.517 43.48 5.673 7.37 1.649 14.37 3.899 21.43 6.282 6.23 2.097 12.31 4.729 19.1 4.967 3.8.133 5.12-3.661 2.91-5.711zm-26.27-41.346c0-.057 0-.105.01-.162.15-1.85-1.67-3.327-3.65-3.89-11.77-3.365-25.37.83-37.32 1.497-12.61.705-25.16 2.069-37.31 4.919-23.93 5.625-48.34 13.07-69.23 24.339-.39.209-.05.696.36.514 22.4-9.743 45.5-18.161 70.87-21.364 12.12-1.535 24.17-3.308 36.43-3.994 12.12-.677 24.13 3.68 36.18 1.868 1.54-.229 3.22-1.563 3.48-2.822.07-.305.12-.61.17-.915zm-24.96-48.725c-13.37-.582-28.92 5.033-40.66 9.781-12.6 5.091-24.52 11.869-32.94 21.135-.52.563.51 1.402 1.21.982 10.79-6.501 21.29-13.213 33.23-18.304a143 143 0 0 1 19.03-6.54c6.72-1.792 13.98-2.402 20.56-4.375 1.77-.525 1.51-2.593-.44-2.679zm-154.56 80.356c-.14.105-.28.21-.42.325.67-.229 1.34-.449 2.01-.677-.06 0-.12 0-.17-.01-1.15-.095-2.19.582-2.79 1.306-.31.362-.58.696-.72 1.144-.26.839-.07 1.573.42 2.326-.14-.41-.27-.819-.41-1.229 0 .047 0 .104.01.152.1.849.5 1.583 1.44 2.031.81.381 2.12.495 2.92 0-.1.038-.21.066-.33.105.26-.086.53-.182.79-.267.5-.239.96-.63 1.24-1.04.26-.381.42-.781.54-1.21.27-.877.04-1.936-.83-2.555a.4.4 0 0 0-.12-.076c.29.543.56 1.086.84 1.63v-.467c0-.839-.66-1.602-1.6-1.926-.98-.334-2.06-.153-2.83.438zm27.95-.257s-.06-.019-.09-.019l2.64 2.145a4.8 4.8 0 0 0-.57-1.211l-.78-.81a3.85 3.85 0 0 0-1.6-.83 4.5 4.5 0 0 0-1.9-.343 4.5 4.5 0 0 0-1.9.343 4.04 4.04 0 0 0-1.6.83c-.48.362-.82.791-1.02 1.296a2.52 2.52 0 0 0-.42 1.545c.06.353.11.715.17 1.068.24.676.66 1.267 1.27 1.773.94.705 2.19 1.22 3.5 1.172l1.32-.143c.64-.124 1.21-.362 1.68-.715.54-.286.96-.657 1.26-1.125.26-.381.46-.791.58-1.21l-2.64 2.145s.06-.019.09-.019c.3-.105.6-.201.89-.305.44-.191.79-.458 1.06-.782.24-.191.4-.41.48-.677.24-.362.34-.753.33-1.173a3 3 0 0 0-.52-1.535c-.44-.676-1.36-1.182-2.24-1.401zm-15.32 16.188c-.27.019-.54.028-.8.047-.88.058-1.66.239-2.3.763-.58.467-.92 1.125-.92 1.792 0 .668.34 1.316.92 1.793.64.524 1.42.705 2.3.762.27.019.53.029.8.048.78.048 1.72-.324 2.26-.763.54-.438.98-1.191.94-1.84-.03-.677-.3-1.373-.94-1.84-.6-.448-1.42-.81-2.26-.762m-.23 20.763-.25-.257c.08.515.16 1.03.24 1.535.04-.038.06-.067.1-.105.43-.505.36-1.268 0-1.783-.37-.496-1.14-.934-1.88-.877h-.07c-.54.038-1.1.153-1.48.496-.4.353-.56.724-.61 1.201v.057c-.07.601.45 1.23 1.08 1.526.62.295 1.57.352 2.19 0l.13-.077c-.63-.066-1.27-.133-1.89-.2.11.067.21.143.32.21.32.219.64.362 1.08.362.37 0 .82-.133 1.08-.362.27-.238.47-.544.45-.877-.03-.343-.18-.61-.45-.877zm-33.63 9.295c1.61 0 1.61-2.03 0-2.03s-1.61 2.03 0 2.03m32.41-36.284c.08.153.15.306.26.449.12.171.33.343.48.495.31.324 1.12.315 1.42 0 .16-.162.37-.333.48-.495.11-.143.18-.296.26-.449.26-.457.33-.924 0-1.372-.29-.41-.85-.677-1.44-.677s-1.15.257-1.45.677c-.32.457-.25.915 0 1.372zm-27.8 22.575.11.649c.03.2.03.438.1.619.13.382.44.677.85.868.5.248 1.17.248 1.68 0 .41-.2.72-.496.84-.868.06-.181.08-.419.11-.619l.11-.649c.05-.362-.26-.839-.56-1.086a2.1 2.1 0 0 0-1.33-.448c-.5.019-1 .152-1.34.448-.32.276-.63.696-.56 1.086zm-76.25 146.423c4.16 0 4.16-5.253 0-5.253-4.17 0-4.17 5.253 0 5.253m-94.65-46.189c.22-.381.47-.753.68-1.134.3-.544.27-.935.4-1.488.08-.362.3-.705.42-1.058.12-.4.18-.82.26-1.22.17-.849-1.04-1.602-1.89-.896a17.5 17.5 0 0 0-2.19 2.145c.23-.181.44-.353.66-.534-.56.334-1.06.553-1.46 1.068-.31.391-.56.829-.83 1.249-1.39 2.125 2.67 4.013 3.96 1.878zm1.6-50.231c-.27-.801-.51-1.602-.82-2.393-.54-1.421-1.25-2.345-2.87-3.098-1.17-.534-2.61-.553-3.77 0-1.25.591-1.68 1.515-1.85 2.621-.13.839-.02 1.554.48 2.326.16.239 1.2 1.449.7.849.7.839 1.08 1.134 1.79 1.887 1.07 1.125 2.61 1.755 4.35 1.154 1.57-.543 2.48-1.964 2.02-3.337zm-53.23 68.421q-.135.814-.24 1.63l.12-.696c-.02.048-.05.095-.07.143l.33-.639s-.05.086-.08.124c-.57.887-.64 1.897 0 2.784.59.839 1.73 1.363 2.93 1.363s2.33-.524 2.94-1.363c.63-.887.56-1.888 0-2.784-.03-.038-.05-.086-.08-.124l.32.639a1 1 0 0 0-.07-.143c.04.229.09.467.12.696-.08-.544-.16-1.087-.23-1.63-.1-.668-.27-1.221-.88-1.716-.52-.42-1.38-.734-2.12-.715-.77.028-1.57.238-2.11.715-.58.505-.78 1.039-.88 1.716m-7.43 54.969c3.34 0 3.35-4.214 0-4.214-3.34 0-3.34 4.214 0 4.214m83.19-19.295c-.54-.611-1.03-1.268-1.73-1.755-.89-.638-2.06-1.153-3.3-1.115-1.28.048-2.33.419-3.3 1.115-.69.496-1.19 1.154-1.72 1.755-1.19 1.334-.98 3.422 0 4.776 1.03 1.439 2.98 2.345 5.04 2.345 2.05 0 3.99-.906 5.03-2.345.98-1.354 1.19-3.442 0-4.776zm-83.54-130.836c-.05-.553-.07-1.125-.24-1.669-.22-.648-.62-1.086-1.31-1.43-.42-.209-1-.209-1.42 0-.7.344-1.1.782-1.3 1.43-.18.544-.19 1.116-.25 1.669-.09.963 1.1 1.878 2.25 1.83 1.16-.038 2.37-.81 2.26-1.83zm-54.35 31.832c-1.24-.058-2.52-.239-3.64.295-1.59.744-1.59 2.679 0 3.432 1.12.534 2.39.353 3.64.296 1.29-.058 2.53-.877 2.48-2.012-.06-1.144-1.1-1.945-2.48-2.011m57.31-88.689c3.74 0 3.74-4.71 0-4.71-3.73 0-3.73 4.71 0 4.71m71.91-99.195c.98-.295 1.94-.61 2.89-.963 1.65-.619 2.61-2.297 2.61-3.699s-.98-3.079-2.61-3.699c-.94-.352-1.91-.667-2.89-.962-1.88-.572-4.47.076-5.79 1.239-1.07.944-1.74 2.107-1.74 3.413 0 1.239.67 2.536 1.74 3.413.74.6 1.62 1.01 2.63 1.239 1.06.229 2.12.229 3.16 0zm-35.94 51.318c.37-.448.74-.886 1.11-1.334.22-.267.43-.534.56-.839.12-.286.13-.639.18-.935.08-.533-.68-1.153-1.34-1.086-.35.038-.73.047-1.07.114-.42.076-.77.286-1.13.477l-1.64.896c-1.29.705-1.66 2.173-.49 3.117 1.15.935 2.96.648 3.84-.4zm-51.6-39.258c3.04 0 3.04-3.832 0-3.832s-3.04 3.832 0 3.832m257.42-90.195-.71.238c.74.162 1.49.324 2.23.477-1.21-1.135-2.43-2.002-4.2-2.47-1.73-.457-4.01-.142-5.56.592-3.25 1.544-4.69 5.348-2.58 7.998 2.04 2.565 6.47 3.87 9.85 2.098 1.34-.696 2.33-1.602 2.95-2.794.81-1.573.6-2.983.13-4.604-.35.705-.7 1.401-1.06 2.107.23-.105.45-.22.67-.325.95-.467 1.37-1.439.92-2.268-.4-.744-1.6-1.411-2.64-1.05m-93.41-6.958c.28-.239.57-.477.85-.725.75-.658 1.24-1.45 1.16-2.364-.14.438-.29.877-.43 1.315.38-.6.77-1.2.78-1.897.01-.524-.34-1.296-.78-1.659-.47-.381-1.39-.638-2.05-.638-.88 0-1.6.324-2.33.638l1.62-.352c-1.16-.067-2.09.333-2.92.943-.3.22-.6.458-.89.687-1.35 1.039-1.39 3.031 0 4.061s3.65 1.163 5 0zm-12.92-38.515c2.52 0 2.52-3.175 0-3.175-2.51 0-2.51 3.175 0 3.175m62.52 21.345c2.83 0 2.83-3.565 0-3.565s-2.83 3.565 0 3.565m-32.51 52.214c.46.162.9.334 1.36.496 1.37.486 2.83 1.115 4.38 1.02 1.69-.105 3.47-.505 4.67-1.564.34-.362.69-.724 1.03-1.086.6-.839.89-1.735.9-2.698.12-1.259-.65-2.45-1.25-3.556-.2-.372-.4-.734-.61-1.106-.68-.934-1.6-1.678-2.75-2.23a9 9 0 0 0-3.87-.85c-2.03.077-3.94.63-5.41 1.822-1.39 1.124-2.24 2.802-2.24 4.394 0 1.125.35 2.164 1.04 3.137.68.934 1.6 1.678 2.75 2.231zm196.85 10.42c-.84.944-2.64.801-3.79.362.41.582.82 1.163 1.23 1.754.19-1.954-1.37-2.888-1.75-3.775.18.42.09.143.12-.105-.03.258.22-.114.08-.028 1.55-.877 3.34-1.526 4.86-.057 1.45 1.391 3.71-.162 3.41-1.612-.89-4.185-7.79-5.605-11.95-3.775-2.4 1.058-4.07 2.908-4.42 5.12-.43 2.707 1.16 4.747 3.76 6.32 1.08.649 2.91.563 4 0 .22-.114.45-.229.67-.343-.65.067-1.28.134-1.93.2 3.44.982 7.46.363 9.41-2.307 1.43-1.964-2.1-3.527-3.69-1.754zm-8.56-34.816c.03-1.296.16-2.488-.68-3.69-1.74-2.44-6.26-2.44-8 0-.85 1.183-.72 2.403-.68 3.69.02.992.5 1.983 1.37 2.689.81.657 2.15 1.153 3.32 1.115 2.58-.095 4.61-1.668 4.68-3.804zm-28.58 372.907c2.01 0 4.13-.705 5.55-1.859q1.14-.86 1.62-2.05c.49-.753.72-1.573.67-2.45-.1-1.64-.75-3.346-2.29-4.5a9.2 9.2 0 0 0-5.55-1.859c-2 0-4.12.706-5.54 1.859-.76.572-1.3 1.259-1.62 2.05-.49.753-.72 1.573-.67 2.45.1 1.64.75 3.346 2.29 4.5 1.53 1.144 3.42 1.859 5.54 1.859m-4.75 41.06c2.55 0 2.56-3.222 0-3.222s-2.56 3.222 0 3.222m-33.87 25.311-1.44-.086c-4.38-.247-4.39 5.787 0 5.539l1.44-.085c4.25-.248 4.26-5.12 0-5.368m-20.02-46.437 1.03-1.096c.64-.696.92-1.411.95-2.288.03-1.392-1.51-2.65-3.22-2.612-1.08.019-1.96.248-2.82.772l-1.35.829c-.6.286-1.07.668-1.42 1.154a2.7 2.7 0 0 0-.54 1.63c.05.858.4 1.659 1.16 2.279.72.581 1.79.943 2.81.943.71 0 1.38-.152 2.01-.438.6-.286 1.07-.667 1.42-1.154zm-39.9-15.158c.97-.019 2.17.086 3.1-.162.78-.209-.43-.019.5-.124.62-.066 1.16-.133 1.74-.333 1.41-.477 2.68-1.402 2.6-2.775-.09-1.382-1.1-2.249-2.6-2.774-.65-.219-.97-.248-1.74-.333-1.29-.143.72.124-.5-.124-.99-.201-2.09-.143-3.1-.162-2.19-.039-4.28 1.582-4.17 3.384.09 1.802 1.83 3.432 4.17 3.384zm-67.39-228.934c-.5-.629-1.04-1.22-1.61-1.802-.6-.6-2.07-.591-2.67 0-.59.582-1.11 1.164-1.61 1.802-1.4 1.793.44 4.166 2.95 4.166s4.35-2.373 2.95-4.166zm-67.35-2.803c1.06-.2 2.12-.324 2.89-1.001.75-.657.76-1.639 0-2.297-.77-.667-1.84-.801-2.89-1.001-1.72-.334-3.47.677-3.47 2.154 0 1.478 1.75 2.489 3.47 2.155zm85.24-32.423c2.29 0 2.29-2.888 0-2.888s-2.29 2.888 0 2.888m-.3-13.613c.35-1.611 1.17-4.023-.09-5.472-1.17-1.335-3.27-1.335-4.43 0-1.27 1.449-.44 3.861-.1 5.472.4 1.849 4.22 1.849 4.62 0m-27.25-6.864c.01-.382.03-.763.04-1.135.03-1.029-.36-1.925-1.31-2.64-1.41-1.068-3.49-1.068-4.89 0-.94.715-1.33 1.62-1.31 2.64 0 .382.03.763.04 1.135.06 1.573 1.67 3.089 3.71 3.012 2.05-.076 3.65-1.325 3.71-3.012zm34.79 195.701c-.18-.229-.36-.448-.54-.677l.26 1.601c.17-.457.26-.896.19-1.372-.08-.42-.27-.754-.47-1.144-.13-.248-.26-.496-.4-.744.16.515.34 1.02.5 1.535.17-1.02-.45-1.974-1.29-2.689-1.47-1.258-4.3-1.296-5.76 0-1.45 1.297-1.64 3.404 0 4.672.89.677 2.07 1.182 3.32 1.048-.64-.133-1.26-.276-1.89-.41.3.105.61.22.91.325.32.114.64.247.96.333.7.181 1.46.076 2.13-.105l-1.97-.209c.28.143.55.295.83.438 1.95 1.02 4.46-1.02 3.21-2.602z" fill="#FAAF7E"/><path d="m1715 338.277 2.21-.162c1.08-.077 2.14-.725 2.09-1.697-.06-.992-.92-1.611-2.09-1.697l-2.21-.162c-1.2-.086-2.34.915-2.29 1.859.05.934 1.01 1.954 2.29 1.859m2.61 23.137c2.11.181 5.09.687 6.48-.944.36-.429.36-1.153 0-1.582-1.39-1.63-4.37-1.125-6.48-.944-2.75.238-2.75 3.232 0 3.47m-56.11-180.876c.27-.019.54-.048.8-.067 1.06 0 2.05-.219 2.96-.648.51-.21.93-.486 1.28-.829.95-.916 1.74-2.022 1.67-3.28-.07-.41-.14-.82-.2-1.23-.27-.781-.76-1.468-1.47-2.04-.34-.343-.77-.62-1.28-.829a6.9 6.9 0 0 0-2.96-.649c-.27-.019-.53-.047-.8-.066-1.42-.115-3.23.619-4.2 1.411-1.03.839-1.81 2.211-1.74 3.413.07 1.248.58 2.545 1.74 3.413 1.09.81 2.67 1.544 4.2 1.41z" fill="#FAAF7E"/><path d="M1266.43 437.414c.35 20.478 1.38 41.508 5.65 61.71.53 2.507 5.87 2.574 6.33 0 3.56-20.268 3.91-41.261 3.57-61.71-.14-8.113-15.68-8.132-15.54 0z" fill="#F9E3A2"/><path d="M1.314 297.348c15.127 28.953 23.02 59.965 36.431 89.461.6 1.325 2.995.82 2.631-.591-8.197-31.136-22.01-61.109-28.363-92.531-1.257-6.225-14.281-3.193-10.7 3.661m1589.147-102.64c-4.57 7.646-7.02 15.892-9.93 24.043-3.03 8.504-6.02 17.027-8.94 25.559-5.75 16.769-10.62 33.748-15.5 50.689a3155 3155 0 0 0-27.78 102.941c-17.23 68.364-30.07 137.175-39.97 206.473-5.63 39.421-10.05 78.956-13.43 118.548 0 .047.08.047.08 0 6.18-70.328 16.35-140.351 30.72-209.887 14.21-68.688 30.64-136.927 52.34-204.338 6.08-18.914 12.92-37.647 19.3-56.485 3.2-9.419 6.35-18.857 9.61-28.257 3.24-9.304 7.27-18.523 8.8-28.123.36-2.279-4.12-3.146-5.31-1.163zM1378.6 432.121c-6.34 7.379-8.26 14.948-10.64 23.595-2.19 8.008-4.34 16.035-6.55 24.043-4.66 16.941-9.42 33.863-14.14 50.794-9.33 33.5-19.56 67.134-26.2 101.063-.44 2.212 3.36 3.175 4.21.944 12.66-33.043 21.88-67.143 31.88-100.777 4.92-16.56 9.79-33.119 14.76-49.669 2.57-8.58 5.2-17.15 7.79-25.721 1.22-4.061 2.9-8.18 3.53-12.317.58-3.756-.03-7.789-.71-11.526-.31-1.63-3-1.497-3.93-.419zm-797.065-24.137c6.119 30.926 13.06 61.805 20.295 92.569.293 1.249 2.924.982 2.76-.305-3.982-31.126-8.292-62.31-13.401-93.332-.939-5.682-10.793-4.709-9.654 1.059z" fill="#708D81"/><path d="M1022.09 370.323c-4.3-3.165-10.71-3.108-16.2-3.594-6.353-.563-12.719-1.039-19.108-1.287-12.837-.496-25.709-.477-38.546.181-24.922 1.277-50.725 4.748-74.578 10.725-.798.2-.364 1.182.4 1.106 12.378-1.268 24.651-2.717 37.101-3.556 12.778-.868 25.556-.925 38.357-.992 12.086-.066 24.206.172 36.268.773 6.377.314 12.754.648 19.116 1.125 5.51.419 11.53 1.687 16.69-.458 2.11-.868 2.12-2.822.48-4.023zm-17.54-54.617c-.15-.2-.32-.41-.47-.61-.87-1.115-2.83-1.468-4.32-1.325-5.497.515-10.277 2.641-15.303 4.376-5.285 1.821-10.735 3.308-16.079 5.014-10.03 3.223-19.954 6.655-29.643 10.525-9.384 3.747-18.251 7.617-26.496 12.851-9.031 5.739-18.544 10.935-27.423 16.827-.165.114.035.305.211.209 9.49-5.214 18.874-10.41 29.35-14.223 9.525-3.461 18.58-7.532 27.964-11.231 9.384-3.689 18.955-7.102 28.75-9.991 5.086-1.506 10.242-3.05 15.538-4.032 5.309-.982 10.735-1.297 15.751-3.165 1.41-.525 2.71-1.754 2.74-3.08.01-.848 0-1.411-.57-2.145m-54.505-46.999c-.223-.086-.458-.172-.681-.258-2.067-.791-4.158.201-5.52 1.392-4.181 3.671-7.129 8.228-10.97 12.165a544 544 0 0 0-11.357 11.983c-7.634 8.294-15.209 16.731-21.95 25.521-6.554 8.561-13.072 17.17-19.297 25.893-5.919 8.294-13.33 17.312-16.184 26.703-.293.962 1.069 1.573 1.88.8 7.939-7.445 13.177-17.255 19.378-25.682a390 390 0 0 1 20.306-25.321c6.965-7.989 13.812-16.026 21.106-23.833a566 566 0 0 1 11.462-11.927c4.193-4.232 9.325-7.598 13.377-11.878 1.351-1.421.94-3.289-.211-4.662-.364-.429-.752-.686-1.339-.906zm-51.148-14.853c-2.56 4.433-3.922 8.761-5.496 13.442-1.527 4.528-4.346 8.79-6.237 13.242-3.805 8.933-8.667 17.579-12.942 26.379a716 716 0 0 0-12.25 26.607c-3.676 8.437-7.692 16.846-9.665 25.664-.188.82 1.268.982 1.644.305 4.909-8.57 8.045-17.78 11.956-26.684a716 716 0 0 1 11.921-25.759c4.357-8.942 8.702-17.894 14.222-26.407 2.678-4.138 4.757-8.599 8.104-12.422 3.241-3.709 6.048-7.322 8.503-11.431 2.913-4.862-6.906-7.836-9.748-2.926zm-65.335-6.959c-.446 4.452.705 9.037 1.304 13.461.611 4.442 1.315 8.894 2.419 13.28.623 2.488 2.009 4.814 2.596 7.293.622 2.659.341 5.453.235 8.141-.2 4.748-.376 9.505-.446 14.252a359 359 0 0 1-1.469 27.733c-.411 4.471-.833 8.952-1.338 13.423-.505 4.481-1.809 9.209-.87 13.69.2.944 1.727.991 2.173.172 2.173-3.919 2.29-8.457 2.854-12.689.634-4.739 1.186-9.486 1.55-14.253.764-9.791 1.222-19.638 1.081-29.448a137 137 0 0 0-.81-12.956c-.282-2.679-.811-5.444-.494-8.132.306-2.507 1.363-4.872 1.609-7.398.822-8.666.869-19.315-2.513-27.609-1.327-3.269-7.564-2.126-7.881 1.03zm-85.759 10.229c9.795 5.253 17.042 13.661 23.983 21.288 6.882 7.56 13.071 15.453 19.132 23.461a264 264 0 0 1 17.194 25.731c4.956 8.485 8.714 17.36 13.67 25.816.376.649 1.692.372 1.515-.362-2.09-9.076-6.389-17.57-10.711-26.102-4.662-9.21-9.994-18.219-15.902-26.932-5.52-8.142-11.991-15.94-18.721-23.443-7.34-8.189-16.595-15.644-22.608-24.472-4.31-6.33-14.129 1.497-7.54 5.024zm-31.299 65.904c3.195-.772 9.642 1.907 12.755 2.736 3.993 1.068 8.021 2.059 11.991 3.175 7.587 2.126 15.068 4.604 22.514 7.035 15.221 4.977 29.021 12.346 43.608 18.361.493.201.822-.41.434-.667-13.095-8.589-28.398-14.452-43.196-20.802-7.012-3.003-14.152-5.605-21.434-8.151-3.547-1.239-7.058-2.497-10.688-3.575-3.781-1.125-11.45-2.164-14.069-4.69-2.737-2.641-8.139-1.621-9.103 1.754-1.033 3.632 3.301 5.758 7.176 4.824zm-33.965 55.446c10.734-4.7 25.004-5.034 36.983-6.197 12.52-1.21 25.134-2.45 37.677-3.384 25.415-1.897 51.124.629 76.504 1.497 1.069.038 1.198-1.173.165-1.335-25.392-3.851-51.089-2.946-76.775-3.175-12.332-.104-24.205.182-36.49 1.297a616 616 0 0 0-18.322 1.945c-7.152.867-14.023 2.25-21.269 1.62-8.609-.743-5.508 10.811 1.538 7.722zm34.247 51.88c2.102-1.439 3.159-2.974 4.886-4.661 2.043-2.012 4.78-3.451 7.352-4.977 3.993-2.374 8.209-4.509 11.932-7.15 8.691-6.158 19.038-10.61 29.326-14.824 9.466-3.871 19.438-7.093 29.397-10.01 10.3-3.013 21.129-4.948 31.264-8.266.893-.295.435-1.363-.47-1.277-10.476.982-21.046 4.29-30.876 7.284-10.653 3.231-20.906 7.073-31.135 11.077-10.194 3.985-19.884 8.723-30.184 12.498-4.756 1.745-9.019 4.271-13.294 6.683-2.667 1.507-5.133 3.137-8.128 4.205-2.537.905-4.521 1.42-6.776 2.793-5.415 3.308 1.479 10.181 6.694 6.625zm5.696 41.099c4.968.41 7.622-2.565 10.1-5.673 1.422-1.782 2.42-3.565 3.559-5.453 1.973-3.26 4.933-5.09 8.245-7.34 8.984-6.121 17.147-13.118 25.861-19.496 17.758-13.004 36.632-25.006 54.918-37.504.505-.344-.012-1.106-.634-.83-21.27 9.4-40.214 21.365-58.195 34.473-8.62 6.282-17.264 12.794-24.781 19.982-2.713 2.602-4.768 5.491-8.385 7.369-2.138 1.115-4.346 1.926-6.425 3.165-3.781 2.259-8.009 5.253-6.788 9.381.294 1.011 1.198 1.821 2.525 1.926m31.816 20.773c5.168-1.382 7.517-5.015 9.396-8.952 2.349-4.91 5.778-9.104 9.337-13.49 6.964-8.56 14.164-16.998 21.516-25.339 14.469-16.417 30.007-32.213 44.253-48.744.447-.525-.434-1.24-1.033-.782-18.427 13.757-34.212 29.858-48.834 46.313-7.399 8.332-14.434 16.855-21.175 25.54-3.618 4.652-6.977 9.142-11.463 13.27-3.394 3.118-5.99 6.616-4.98 10.878.282 1.192 1.656 1.678 2.995 1.315zm33.777 13.318c7.294-5.081 8.926-12.508 12.79-19.334 4.064-7.188 8.773-14.176 13.142-21.24 4.381-7.083 8.821-14.138 13.143-21.24 4.122-6.779 8.949-13.69 11.004-21.117.259-.944-1.339-1.163-1.949-.591-5.931 5.587-9.772 12.718-13.882 19.239-4.452 7.054-8.774 14.157-13.154 21.24-4.205 6.797-8.28 13.652-12.614 20.392-4.463 6.94-11.533 12.908-12.238 21.011-.141 1.573 2.208 2.727 3.77 1.631zm60.849 17.379c6.659-8.351 11.04-18.837 14.317-28.38 1.597-4.662 2.983-9.448 3.746-14.243.834-5.282-.434-10.573-.188-15.892.482-9.991.294-20.058-1.996-29.916-2.384-10.239-6.683-19.4-11.992-28.838-.176-.325-.728-.105-.599.219 3.559 9.428 5.626 19.543 7.165 29.324 1.538 9.763 2.783 19.658 2.161 29.506-.306 4.929-2.584 9.324-3.629 14.138-.964 4.471-1.692 8.971-2.831 13.423-2.572 9.991-6.953 19-10.781 28.667-.881 2.221 2.948 4.109 4.639 1.983zm55.07-14.614c.552-2.431-.434-4.548-.458-6.998-.023-2.269.599-4.633.94-6.883.611-4.042 1.797-7.817-.47-11.602-.376-.639-1.327-.648-1.856-.153-3.417 3.194-3.476 7.189-4.192 11.231-.388 2.154-.599 4.376-1.257 6.483-.787 2.526-2.525 4.461-2.795 7.111-.541 5.358 8.902 5.94 10.077.801zm-1.162-34.673c.117-22.022-10.394-47.657-32.145-61.9-.775-.505-1.586.391-1.116.972 7.634 9.381 15.785 18.295 21.328 28.677 5.438 10.153 9.185 21.316 11.111 32.27.07.372.822.372.822-.019m56.573 13.985c1.104-5.31-1.632-10.992-4.028-15.92-2.42-4.977-5.415-9.829-8.421-14.586-6.366-10.087-13.941-19.553-22.961-28.21-8.562-8.227-18.991-15.587-29.314-22.336-10.429-6.826-22.127-13.519-34.553-17.685-.704-.238-1.315.649-.634.982 11.463 5.596 22.667 10.849 32.967 17.866 10.511 7.15 18.791 15.358 26.836 24.319 7.787 8.666 14.622 18.038 20.013 27.838 2.807 5.119 4.874 10.363 6.871 15.711 1.761 4.719 2.983 9.667 6.659 13.652 2.067 2.23 6.072.8 6.565-1.621zm20.471-38.505.141-.086c1.679-.972 1.903-2.85 1.257-4.29-3.841-8.589-15.233-13.871-22.632-20.248-7.822-6.731-16.172-13.052-25.58-18.285-18.533-10.325-38.874-19.858-60.508-25.235-.399-.105-.622.372-.235.505 21.176 7.093 41.623 15.349 58.888 27.856 8.256 5.978 16.665 11.784 24.276 18.324 7.516 6.473 10.652 15.758 19.096 21.535 1.081.734 3.171.925 4.404.353q.441-.2.881-.429zm27.544-41.994c-7.16-7.894-20.873-13.481-31.666-17.399-11.58-4.214-24.229-7.083-36.984-6.54-.787.029-.916 1.097-.153 1.249 11.757 2.384 23.525 4.481 34.729 8.332a123 123 0 0 1 16.501 7.027c5.391 2.774 10.054 6.53 15.523 9.123 1.46.696 3.09-.629 2.05-1.783zm-157.415-41.461-.517-.057c.575.248 1.151.496 1.726.753-.023-.038-.058-.067-.082-.105-.587-.705-1.75-.915-2.713-.839-.493.038-.928.076-1.397.258-.869.333-1.386.858-1.762 1.573.27-.315.54-.62.822-.935l-.117.096c-.67.534-1.069 1.182-.916 1.973.129.677.798 1.487 1.667 1.649-.094-.038-.188-.085-.282-.124.224.096.458.191.682.296a3.8 3.8 0 0 0 1.597.114c.481-.066.904-.219 1.339-.381.904-.353 1.679-1.087 1.714-1.935v-.115c-.305.468-.61.935-.927 1.402.129-.086.27-.172.399-.267.728-.477.998-1.287.74-2.002-.27-.744-1.045-1.249-1.997-1.354zm16.219 15.663-.035-.066c-.106.905-.223 1.811-.329 2.726.293-.314.528-.648.705-1.02.082-.305.164-.6.258-.906a2.2 2.2 0 0 0-.2-1.372c-.117-.477-.387-.906-.798-1.278a3.36 3.36 0 0 0-1.386-.877 3.9 3.9 0 0 0-1.621-.429 4 4 0 0 0-1.691.162 3.65 3.65 0 0 0-1.574.648l-.81.715c-.447.525-.717 1.097-.799 1.736-.059.934.2 1.935.987 2.65l.88.658c.47.295.999.476 1.574.543a4 4 0 0 0 1.691.076c.482-.066.94-.19 1.374-.362-1.115-.086-2.231-.181-3.358-.267.023.01.046.029.07.038.258.115.517.219.775.334.411.133.846.191 1.28.143a2.2 2.2 0 0 0 .858-.114 2.9 2.9 0 0 0 1.198-.487 3.3 3.3 0 0 0 1.021-1.172c.329-.639.235-1.449-.082-2.069zm-22.679.601-.493-.429c-.552-.467-1.151-.801-1.973-.867-.728-.058-1.492.123-2.067.505-.576.381-.94.944-1.01 1.544-.082.668.211 1.211.657 1.745.141.162.282.324.423.476.411.468 1.269.792 1.95.849.704.057 1.585-.134 2.114-.524.552-.41.998-.963 1.045-1.583.035-.601-.117-1.268-.646-1.716M825.6 393.68c.023-.096.046-.2.07-.296l-1.186 1.02h.141c.681-.047 1.303-.524 1.526-1.029.224-.487.153-1.173-.328-1.564l-.047-.038c-.341-.286-.764-.524-1.269-.553-.528-.019-.939.105-1.386.343-.023.01-.035.019-.058.029-.552.305-.787.963-.693 1.478.105.524.599 1.086 1.256 1.239l.141.029c-.305-.391-.61-.792-.916-1.183v.305c0 .305.059.572.306.82.211.21.587.391.927.401.353.019.74-.048 1.01-.248.282-.21.423-.448.494-.753zm-27.225-13.719c.916.915 2.666-.248 1.75-1.163s-2.666.248-1.75 1.163m49.692-2.412c-.083.134-.177.267-.235.401-.071.171-.106.381-.153.562-.094.362.364.81.81.81.224 0 .494.01.705-.019.176-.019.352-.076.529-.114.54-.114.974-.343 1.186-.791.188-.41.094-.868-.247-1.211-.34-.334-.881-.505-1.409-.439-.576.077-.94.382-1.186.792zm-35.281-2.812c-.164.143-.329.286-.505.429-.153.133-.352.276-.482.41a1.13 1.13 0 0 0-.258.982c.082.429.458.801.963.953.399.115.834.124 1.233-.019.188-.067.4-.2.588-.295.211-.105.411-.21.622-.315.341-.172.575-.629.611-.934a1.26 1.26 0 0 0-.376-1.011 1.84 1.84 0 0 0-1.151-.496c-.423-.019-.951.048-1.245.305zm-169.345 40.641c2.384 2.354 6.894-.649 4.51-3.003s-6.894.648-4.51 3.003m-14.493-79.966c.458-.086.916-.162 1.363-.267.646-.143.963-.382 1.503-.629.364-.162.775-.229 1.151-.372.411-.162.798-.372 1.198-.553.834-.382.775-1.497-.317-1.583a21 21 0 0 0-3.089 0c.282.019.552.048.834.067-.611-.124-1.081-.276-1.75-.21-.517.048-1.034.153-1.55.239-2.62.429-1.915 3.803.657 3.308m44.042-27.828c.529-.61 1.081-1.211 1.586-1.83.904-1.116 1.292-2.06 1.01-3.404-.2-.963-1.022-1.792-2.161-2.135-1.221-.363-2.267-.086-3.3.448-.787.41-1.339.877-1.715 1.601-.117.22-.564 1.507-.329.877-.317.877-.352 1.259-.587 2.088-.352 1.249 0 2.479 1.491 3.118 1.363.581 3.101.276 4.017-.763zm-89.2 9.038c-.505.266-1.021.533-1.526.8.223-.114.446-.219.669-.333-.059.019-.106.028-.164.047.246-.057.493-.114.74-.181-.047 0-.106.019-.153.029-1.081.19-1.997.724-2.384 1.592-.376.82-.177 1.764.505 2.44.681.677 1.785 1.011 2.854.878 1.127-.143 1.937-.763 2.384-1.593.023-.038.047-.076.058-.114-.117.181-.234.372-.364.553.024-.038.059-.086.083-.124q-.265.226-.529.467c.423-.353.846-.705 1.257-1.068.517-.438.892-.848.975-1.477.07-.534-.153-1.201-.599-1.602-.47-.419-1.104-.753-1.821-.791-.763-.038-1.339.152-1.973.486zm-51.441 27.246c1.915 1.887 5.532-.515 3.617-2.412-1.914-1.888-5.531.515-3.617 2.412m64.161 36.017c.211-.648.493-1.316.517-1.983.035-.877-.188-1.83-.94-2.507-.775-.696-1.691-1.078-2.842-1.23-.822-.105-1.668-.019-2.502.029-1.832.095-3.5 1.401-4.099 2.736-.646 1.411-.305 3.022.869 4.185 1.175 1.163 3.066 1.744 4.898 1.506 1.726-.219 3.629-1.297 4.099-2.736m64.524-122.113c.447-.353.928-.686 1.292-1.096.435-.486.587-.963.482-1.554-.059-.362-.388-.677-.811-.801a2.98 2.98 0 0 0-1.973.076c-.563.21-1.068.534-1.573.82-.87.496-.975 1.697-.282 2.326.693.63 2.043.868 2.865.229m-58.429-12.536c-.657-.734-1.233-1.554-2.337-1.888-1.55-.467-3.206.639-2.948 1.964.188.944 1.069 1.554 1.832 2.231.787.696 2.208.934 3.136.248.94-.687 1.045-1.726.305-2.546zm108.931-18.323c2.137 2.107 6.178-.582 4.04-2.698-2.137-2.107-6.178.581-4.04 2.698m126.301-16.074a37 37 0 0 0 2.478 1.078c1.469.572 3.465.162 4.675-.639 1.198-.801 2.079-2.307 1.679-3.594-.235-.734-.528-1.459-.822-2.183-.575-1.392-2.619-2.489-4.381-2.565-1.421-.067-2.807.219-3.934.973-1.069.705-1.797 1.83-1.938 2.945-.094.763.059 1.497.435 2.193.411.725 1.01 1.325 1.808 1.792m-64.618 9.029c.599-.048 1.186-.096 1.785-.134.364-.029.705-.057 1.045-.162.305-.095.623-.296.904-.439.505-.257.599-1.048.165-1.382-.235-.181-.458-.381-.705-.543-.305-.191-.693-.267-1.057-.363-.575-.143-1.139-.276-1.715-.419-1.35-.324-2.806.305-2.959 1.506-.141 1.182 1.139 2.05 2.537 1.945zm4.169-51.652c1.738 1.716 5.027-.467 3.288-2.193-1.738-1.716-5.026.467-3.288 2.193m224.722 93.999c-.2-.086-.41-.172-.61-.258.29.515.57 1.02.87 1.535.28-1.334.33-2.517-.3-3.794-.6-1.239-2.169-2.345-3.684-2.803-3.183-.953-7.27.4-8.351 3.117-1.033 2.622.376 5.873 3.841 6.779 1.362.352 2.701.4 4.087.066 1.808-.438 2.917-1.363 4.027-2.564-.8.2-1.61.4-2.406.61.223.067.436.124.656.191.94.267 2.02-.057 2.47-.782.41-.648.29-1.707-.61-2.097zm-47.461-56.819c.364.019.739.048 1.104.067.998.047 1.949-.124 2.689-.696-.458.171-.916.333-1.374.505.74-.124 1.468-.248 2.09-.639.459-.295.917-.934.975-1.401.059-.486-.246-1.144-.622-1.526-.493-.495-1.198-.715-1.891-.953l1.233.715c-.599-.686-1.48-.991-2.478-1.106-.364-.047-.728-.076-1.104-.114-1.656-.172-3.394.953-3.488 2.326s1.08 2.727 2.866 2.831zm25.662-29.344c1.444 1.421 4.169-.391 2.724-1.811-1.432-1.421-4.169.391-2.724 1.811m17.452 47.581c1.621 1.602 4.687-.438 3.067-2.04-1.622-1.602-4.688.439-3.067 2.04m-63.432 11.478.352 1.059c.364 1.048.658 2.24 1.632 3.06 1.058.896 2.42 1.668 4.017 1.744.505-.009 1.01-.028 1.515-.038 1.057-.143 2.009-.486 2.831-1.039 1.151-.658 1.726-1.773 2.337-2.746.2-.324.399-.648.599-.981a4.62 4.62 0 0 0 .34-2.832q-.3-1.5-1.479-2.669a7.8 7.8 0 0 0-4.663-2.021c-1.762-.143-3.688.333-5.05 1.249-.963.648-1.656 1.439-2.091 2.383a4.6 4.6 0 0 0-.34 2.831m84.009 221.26c.43.153.88.305 1.3.477-.65-.382-1.31-.763-1.97-1.144.06.057.12.105.18.162 1.28 1.21 3.28 1.706 5.16 1.258.87-.21 1.57-.562 2.18-1.096.7-.62 1.25-1.43 1.31-2.298.1-1.401-.61-2.812-2.05-3.641-1.8-1.03-4.23-.906-5.93.181-.07.047-.15.085-.22.133.74-.267 1.48-.543 2.21-.81-.46.095-.93.171-1.4.257-.93.172-1.71.486-2.37 1.058-.6.525-1.07 1.221-1.13 1.955-.03.591.08 1.163.35 1.706.41.849 1.38 1.449 2.37 1.802zm56.02-34.616c3.03 3.003 8.79-.819 5.74-3.832-3.03-3.003-8.78.82-5.74 3.832m-36.34-69.326c-1.29.067-2.19-1.039-2.47-1.935l-.8 1.696c1.78-1.01 1.69-2.431 2.23-3.155-.26.343-.07.133.16 0-.23.133.23.067.07.029 1.65.381 3.22 1.02 2.83 2.717-.37 1.611 2.26 2.011 3.33 1 3.07-2.898.35-7.607-3.6-8.913-2.29-.753-4.82-.648-6.93.429-2.57 1.306-3.41 3.375-3.27 5.739.06.982 1.18 1.973 2.29 2.269.22.057.44.124.67.181-.43-.324-.85-.648-1.28-.972 1.12 2.516 3.95 4.423 7.36 3.994 2.5-.314 1.82-3.213-.61-3.089zm25-24.768c1.12-.715 2.23-1.335 2.77-2.498 1.09-2.373-1.49-4.928-4.57-4.518-1.49.2-2.48.962-3.56 1.725-.83.582-1.41 1.421-1.53 2.317-.1.839.24 1.878.94 2.507 1.57 1.411 4.08 1.659 5.95.477zM998.808 570.8c-.27-.277-.528-.553-.798-.83-3.665-3.794-11.017 1.087-7.141 4.758q.423.402.845.791c3.853 3.632 10.746-.953 7.094-4.729zm-77.972-22.375c.317-.124.623-.248.94-.372l-2.455-.2c.082.038.176.076.258.115 1.445.638 2.89.696 4.24-.124 1.785-1.078 3.136-2.746 3.242-4.567.047-.772-.576-1.392-1.527-1.506-2.22-.277-4.522.476-6.166 1.678-1.28.934-1.456 2.097-.975 3.355.024.077.059.153.082.22l.247-1.993c-.211.229-.423.448-.634.677-1.339 1.421.775 3.508 2.748 2.717m68.999-36.799c.505 1.154.881 2.593 2.255 3.289-.199-.2-.399-.39-.599-.591.341.601.693.973 1.363 1.354.646.362 1.433.105 1.738-.438.329-.601.352-1.068.27-1.726l-.082.725c.704-1.144.07-2.574-.212-3.747-.293-1.182-1.691-1.945-3.147-1.592-1.492.362-2.067 1.592-1.562 2.726zm-109.94 100.11c1.667.62 3.288 1.316 5.097 1.611.963.162 2.02-.486 2.337-1.191.352-.773 0-1.659-.822-2.136-1.468-.867-3.3-1.344-4.968-1.916-1.186-.41-2.631.2-3.065 1.144-.47 1.039.235 2.059 1.409 2.488zm-47.178-34.596c0-.182.011-.725-.059-.048-.082.734.106-.105.153-.296.305-1.001-.494-1.792-1.762-1.735-.153 0-.317.01-.47.019-.211 0-.704-.019.082.048.834.076.165-.009-.047-.048-.739-.143-1.315-.209-2.055-.038-.693.172-1.315.506-1.738.992-.799.915-.799 2.345.141 3.203.881.791 2.161 1.144 3.441.839.693-.172 1.315-.505 1.738-.992.517-.591.588-1.239.552-1.944zm-106.183-52.272c1.151 1.135 2.96 1.926 4.768 2.069a6.3 6.3 0 0 0 2.678-.258 5.8 5.8 0 0 0 2.49-1.02c1.362-.991 2.443-2.345 2.549-3.87.105-1.516-.353-2.994-1.574-4.195-1.151-1.134-2.96-1.926-4.768-2.069a6.3 6.3 0 0 0-2.678.258 5.8 5.8 0 0 0-2.49 1.02c-1.362.991-2.443 2.345-2.549 3.87-.105 1.516.353 2.994 1.574 4.195m-37.97 20.802c1.456 1.449 4.228-.401 2.76-1.84-1.457-1.449-4.228.4-2.76 1.84m-41.106-4.671c-.247-.286-.505-.572-.752-.858-2.29-2.622-7.481.829-4.756 3.165.293.257.598.505.892.762 2.643 2.269 6.835-.524 4.604-3.069zm28.41-37.895 1.527-.058a4.86 4.86 0 0 0 2.513-.772c1.221-.772 1.409-2.364.399-3.317-.634-.601-1.339-.963-2.278-1.154-.494-.095-.987-.2-1.48-.296a4.5 4.5 0 0 0-1.809-.143 4.1 4.1 0 0 0-1.703.62c-.704.515-1.198 1.182-1.292 1.964-.094.744.212 1.554.799 2.126.411.4.916.696 1.527.877a4.4 4.4 0 0 0 1.808.143zm-9.819-31.241c.576.543 1.175 1.277 1.915 1.668.634.334-.223-.248.399.219.423.315.775.572 1.28.792 1.222.524 2.737.705 3.864-.115 1.139-.839 1.316-1.907.893-3.051-.176-.486-.341-.695-.705-1.182-.611-.81.305.477-.188-.352-.399-.677-1.08-1.259-1.644-1.84-1.21-1.259-3.805-1.507-5.297-.42s-1.891 3.003-.517 4.3zm104.468 86.277c.165.095.329.2.47.305l-1.515-1.144q.16.128.317.286c-.376-.487-.74-.973-1.115-1.459.528 1.115 1.632 2.116 2.818 2.784 1.14.648 2.408 1.029 3.794 1.144q1.056 0 2.114-.057c-.67.019-1.339.028-2.008.047 1.503-.019 2.736.067 4.145-.496 2.443-.991 4.181-2.84 4.451-5.071.13-1.03-.082-2.517-.669-3.451-.634-1.03-1.562-2.088-2.772-2.717-1.127-.591-2.572-1.135-3.911-1.144.658.124 1.304.248 1.962.362-2.044-.41-2.842-.486-4.945-.4-.622.152-1.245.295-1.867.448-.576.286-1.139.572-1.715.858-1.292.858-2.126 2.049-2.49 3.355-.657 2.346.435 4.939 2.925 6.34zm200.457 58.334c2.701 2.67 7.81-.734 5.109-3.403-2.702-2.67-7.81.734-5.109 3.403m90.456-114.105c1.29-.953 2.42-2.183 2.51-3.66.06-.868-.04-1.84-.52-2.622-.29-.467-.69-.944-1.06-1.363-.44-.334-.88-.658-1.32-.992-.51-.219-1.02-.438-1.54-.658a5.95 5.95 0 0 0-2.52-.286 4 4 0 0 0-1.69.22c-.6.076-1.13.276-1.6.581-.56.21-1.02.515-1.37.915-.47.315-.8.696-1.01 1.154-.47.6-.73 1.258-.79 1.973.01.467.03.925.05 1.392l.49 1.354c.32.41.63.829.94 1.239.43.334.88.658 1.31.992.52.219 1.03.438 1.54.658.83.276 1.66.371 2.53.286.59.047 1.15-.029 1.69-.22.88-.152 1.67-.467 2.36-.963m58.92 66.362c2.62 2.593 7.59-.715 4.97-3.308s-7.59.715-4.97 3.308m-296.324-265.99c.258-.639.458-1.277.622-1.945.165-.686-.669-1.506-1.527-1.506-.834 0-1.644.038-2.466.114-2.337.229-3.324 2.631-1.891 4.052s4.522 1.096 5.262-.715m-36.127-39.687c.775.476 1.492 1.01 2.514 1.067.998.048 1.843-.505 1.973-1.315.141-.82-.376-1.497-.799-2.212-.705-1.173-2.572-1.583-3.84-.734-1.257.839-1.14 2.412.14 3.194zm76.598 29.658c1.316 1.296 3.794-.353 2.478-1.659-1.315-1.297-3.793.353-2.478 1.659m11.522-7.96c1.574-.725 4.122-1.64 4.651-3.185.481-1.42-.729-2.612-2.537-2.507-1.962.115-3.57 1.964-4.745 3.079-1.362 1.287.822 3.442 2.643 2.613zm-9.701-19.334c.329-.21.669-.42.998-.629.904-.572 1.445-1.306 1.527-2.25.106-1.402-1.081-2.584-2.807-2.774a4.3 4.3 0 0 0-3.007.772 56 56 0 0 0-.951.677c-1.315.934-1.691 2.707-.458 3.823 1.245 1.125 3.23 1.306 4.71.371zM718.219 397.064c.094-.229.176-.458.27-.686l-1.221 1.058c.493-.162.916-.362 1.28-.687.317-.276.493-.581.704-.915.141-.219.271-.429.411-.648-.34.391-.681.772-1.021 1.163.974-.496 1.432-1.382 1.562-2.269.235-1.554-1.351-3.165-3.289-3.26-1.949-.086-3.864 1.01-4.016 2.669-.083.887.164 1.84.998 2.479-.247-.439-.482-.868-.728-1.306l.246.705c.083.248.153.505.27.734.235.496.776.868 1.304 1.144l-.951-1.23.106.725c.234 1.687 3.429 1.945 4.063.324z" fill="#F9E3A2"/><path d="M844.203 471.539c.469.381.939.772 1.397 1.153.693.563 1.844.801 2.655.21.822-.591.857-1.44.258-2.155-.376-.448-.752-.896-1.116-1.344-.61-.724-2.126-.801-2.901-.229-.775.563-1.092 1.688-.282 2.355zm-18.369 14.709c1.045 1.297 2.326 3.28 4.522 3.127.575-.038 1.198-.457 1.362-.905.611-1.716-1.527-3.118-2.901-4.204-1.773-1.411-4.345.295-2.983 1.982m123.177-135.23.517.419c.611.601 1.362 1.03 2.255 1.306.47.172.951.248 1.444.248 1.328.01 2.725-.171 3.77-.924l.94-.82q.775-.901.916-2.002a2.45 2.45 0 0 0-.012-1.202c-.152-.762-.528-1.449-1.139-2.049-.129-.162-.27-.324-.399-.496-.717-.877-2.384-1.468-3.618-1.573-1.303-.105-2.936.238-3.922.963-1.034.753-1.856 1.783-1.938 2.936-.071 1.087.2 2.384 1.186 3.184z" fill="#F9E3A2"/></g></svg>