<svg width="572" height="449" viewBox="0 0 572 449" fill="none" xmlns="http://www.w3.org/2000/svg"><path d="M317.644 100.288c-5.743.686-9.76 4.747-13.694 7.874-4.569 3.633-9.055 7.322-13.342 11.174-8.621 7.741-16.771 15.825-24.288 24.291-14.599 16.445-27.67 34.834-37.113 53.596-.317.629.893.982 1.304.448 6.647-8.57 13.06-17.189 20.153-25.53 7.282-8.561 15.339-16.617 23.396-24.692 7.61-7.626 15.514-15.072 23.747-22.26 4.357-3.804 8.715-7.598 13.213-11.278 3.899-3.194 8.914-6.159 10.147-10.754.505-1.868-1.35-3.117-3.523-2.86zm-63.127-23.662a28 28 0 0 1-.881-.095c-1.609-.162-3.195.848-4.005 1.868-3.007 3.775-4.005 8.123-5.543 12.374-1.621 4.472-3.665 8.838-5.426 13.271-3.301 8.342-6.319 16.74-8.785 25.273-2.384 8.265-4.334 16.292-4.581 24.777-.27 9.305-1.35 18.571-1.386 27.885 0 .172.306.172.329 0 1.057-9.257 2.056-18.447 5.086-27.437 2.748-8.17 4.615-16.435 7.058-24.672 2.443-8.228 5.274-16.398 8.738-24.377 1.797-4.147 3.594-8.36 6.013-12.308 2.431-3.956 5.579-7.56 6.988-11.888.4-1.22.047-2.812-1.198-3.66-.798-.553-1.338-.906-2.395-1.011zm-79.335 4.376c-.223.086-.458.172-.681.267-2.067.791-2.455 2.736-2.173 4.347.846 4.948 3.312 9.686 4.616 14.605a462 462 0 0 0 4.193 14.729c3.053 10.048 6.271 20.163 10.37 29.964 3.993 9.552 8.057 19.095 12.414 28.542 4.134 8.971 8.022 19.353 15.151 27.094.728.791 2.172.334 1.961-.667-2.055-9.705-8.068-19.219-12.156-28.457a343 343 0 0 1-11.227-28.81c-3.195-9.438-6.495-18.838-9.302-28.362a432 432 0 0 1-4.075-14.757c-1.375-5.32-1.316-10.678-2.819-15.93-.505-1.755-2.537-2.68-4.569-2.823-.634-.047-1.127.039-1.715.267zm-46.602 22.661c2.596 4.423 5.849 8.017 9.302 11.983 3.347 3.832 5.614 8.304 8.644 12.317 6.095 8.056 11.227 16.598 16.9 24.863a769 769 0 0 0 17.558 24.567c5.696 7.665 11.158 15.521 18.298 22.356.67.639 1.739-.171 1.339-.839-5.038-8.522-11.827-16.33-17.816-24.434a776 776 0 0 1-16.959-23.824c-5.755-8.408-11.51-16.816-16.114-25.682-2.243-4.309-5.168-8.437-6.683-12.966-1.48-4.385-3.124-8.437-5.484-12.593-2.784-4.91-11.851-.64-8.973 4.261zm-48.094 36.57c3.958 3.107 9.043 5.291 13.647 7.722 4.615 2.44 9.302 4.814 14.176 6.911 2.771 1.192 5.86 1.792 8.585 3.003 2.924 1.297 5.402 3.242 7.904 5.024 4.392 3.137 8.808 6.264 13.295 9.324a531 531 0 0 1 25.474 18.523c4.005 3.099 7.998 6.206 11.932 9.352 3.946 3.166 7.622 6.979 12.485 9.238 1.021.477 2.032-.457 1.538-1.249-2.36-3.851-6.6-6.806-10.265-9.848-4.11-3.413-8.279-6.768-12.578-10.019-8.844-6.692-17.922-13.223-27.353-19.362a225 225 0 0 0-12.849-7.722c-2.736-1.526-5.696-2.946-8.056-4.853-2.197-1.783-3.77-3.947-6.025-5.701-7.728-6.015-17.84-12.803-27.882-15.94-3.958-1.239-6.824 3.394-4.017 5.597zM35.81 200.521c11.215-2.812 23.829-2.021 35.48-1.544 11.568.477 23.007 1.611 34.482 2.889a406 406 0 0 1 35.409 5.539c11.217 2.268 22.057 5.548 33.261 7.807.857.172 1.433-.819.611-1.182-9.971-4.442-20.788-7.14-31.652-9.848a388 388 0 0 0-35.739-7.112c-11.25-1.706-22.784-2.583-34.2-3.136-12.449-.601-25.415.486-37.653-1.344-8.761-1.316-7.54 9.819 0 7.922zm42.89 61.462c1.292-2.498 7.928-4.843 10.7-6.263 3.546-1.821 7.046-3.718 10.628-5.501 6.836-3.404 13.953-6.53 20.988-9.657 14.399-6.388 30.172-10.373 45.146-15.711.505-.181.129-.773-.364-.696-16.489 2.774-31.781 8.637-47.225 13.899-7.305 2.489-14.317 5.32-21.352 8.275-3.429 1.44-6.858 2.851-10.182 4.433-3.477 1.659-9.325 5.816-13.389 5.854-4.252.038-6.706 4.08-4.11 6.816 2.806 2.955 7.575 1.583 9.148-1.439zm31.241 56.485c2.337-9.714 11.075-18.876 17.581-27.132 6.789-8.627 13.624-17.322 20.683-25.787 14.316-17.151 33.037-31.67 49.973-47.048.716-.648-.364-1.496-1.163-.943-19.778 13.489-35.222 30.182-51.746 46.151-7.928 7.664-15.186 15.301-21.916 23.719a386 386 0 0 0-9.771 12.736c-3.712 5.043-6.765 10.22-11.956 14.376-6.178 4.929 6.788 10.316 8.327 3.938zm71.125 11.44c-.035-2.231-.834-3.88-1.351-6.025-.622-2.564-.258-5.186-.082-7.77.27-4.013.916-8.008.764-12.021-.341-9.362 1.985-18.676 4.498-27.799 2.314-8.399 5.579-16.693 9.125-24.797 3.665-8.37 8.691-16.397 11.968-24.853.294-.744-1.022-1.135-1.515-.515-5.708 7.198-9.266 15.93-12.661 23.986-3.676 8.732-6.518 17.608-9.207 26.56-2.666 8.923-4.322 18.008-7.258 26.865-1.363 4.09-1.656 8.37-2.068 12.584-.258 2.622-.27 5.215-1.15 7.77-.752 2.173-1.516 3.737-1.633 6.025-.294 5.5 10.629 5.539 10.558 0zm42.739 22.509c3.547-2.851 2.396-6.407 1.01-9.934-.799-2.021-1.856-3.775-2.936-5.692-1.856-3.298-1.715-6.32-1.762-9.829-.129-9.523-1.609-19.085-2.149-28.6-1.104-19.391-.564-38.848-.858-58.248 0-.534-1.057-.696-1.186-.134-4.545 19.305-5.179 38.782-4.111 58.382.517 9.4 1.222 18.953 3.301 28.219.751 3.356 2.208 6.483 1.691 9.943-.305 2.05-.928 3.947-1.069 6.035-.246 3.804-.082 8.351 4.628 10.21 1.151.458 2.489.401 3.441-.362zm39.967-6.779c1.961-4.118 0-7.893-2.561-11.573-3.183-4.586-5.003-9.4-6.917-14.415-3.735-9.8-7.2-19.677-10.476-29.582-6.46-19.495-11.628-39.268-18.334-58.697-.211-.61-1.456-.514-1.409.153 1.409 20.287 6.718 40.412 13.107 60.022 3.23 9.924 6.882 19.744 10.875 29.496 2.138 5.215 4.275 10.182 5.356 15.606.81 4.109 2.501 7.961 7.199 10.029 1.316.582 2.643.019 3.16-1.039m34.117-12.746c-.211-7.798-6.248-13.537-10.3-20.287-4.263-7.112-7.927-14.5-11.885-21.726-3.958-7.246-7.857-14.51-11.886-21.727-3.828-6.883-7.352-14.3-13.118-20.296-.728-.763-1.95.105-1.797.848 1.55 7.265 5.907 14.195 9.513 20.926 3.887 7.264 7.904 14.491 11.874 21.736 3.805 6.95 7.739 13.861 11.404 20.859 3.77 7.207 4.968 15.434 12.249 21.011 1.41 1.087 3.993.344 3.946-1.325zm55.165-27.141c-3.735-9.477-10.923-18.876-17.946-26.989-3.417-3.957-7.094-7.865-11.181-11.383-4.498-3.88-10.347-6.435-15.244-9.962-9.208-6.645-18.909-12.918-29.749-17.732-11.263-4.996-22.714-8.113-35.069-10.783-.423-.095-.552.391-.177.515 11.228 3.756 22.186 8.876 32.474 14.119 10.265 5.234 20.483 10.735 29.467 17.37 4.498 3.317 7.235 7.541 11.169 11.249 3.653 3.442 7.47 6.759 10.982 10.296 7.88 7.951 13.682 16.426 20.447 24.958 1.562 1.964 5.778.763 4.827-1.649zm21.023-43.816c-1.962-1.897-4.616-2.612-6.953-4.156-2.173-1.43-4.029-3.318-5.955-4.958-3.453-2.945-6.295-6.082-11.345-7.073-.846-.162-1.456.419-1.315 1.067.881 4.176 4.639 6.741 8.033 9.763 1.809 1.611 3.782 3.146 5.379 4.9 1.914 2.097 2.642 4.414 5.003 6.263 4.757 3.737 11.31-1.821 7.164-5.815zm-33.743-21.278c-20.893-14.043-51.969-23.729-79.334-19.114-.975.162-.646 1.239.223 1.315 13.776 1.173 27.435 1.716 40.836 4.814 13.118 3.032 26.12 7.77 37.782 13.509.388.191.869-.276.505-.524zm49.222-26.608c-4.358-4.061-11.498-5.958-17.711-7.579-6.272-1.639-12.802-2.841-19.238-3.975-13.647-2.402-27.459-3.661-41.435-3.499-13.271.153-26.895 2.021-39.872 4.214-13.119 2.212-26.919 5.3-38.769 10.458-.681.296-.212 1.239.528 1.02 12.602-3.642 24.711-7.331 37.923-9.352 13.471-2.059 26.555-2.04 40.179-1.402 13.201.62 26.448 2.269 39.203 5.12 6.659 1.487 12.954 3.518 19.32 5.663 5.614 1.887 11.098 4.261 17.229 4.48 3.43.124 4.616-3.298 2.631-5.148zm-23.677-37.285v-.143c.141-1.668-1.503-3.003-3.289-3.508-10.617-3.041-22.866.753-33.636 1.354-11.369.629-22.69 1.868-33.636 4.442-21.587 5.072-43.585 11.784-62.423 21.946-.352.191-.047.629.329.467 20.189-8.78 41.024-16.378 63.89-19.267 10.935-1.382 21.798-2.984 32.85-3.603 10.934-.61 21.763 3.317 32.626 1.687 1.386-.21 2.901-1.401 3.136-2.545.059-.277.106-.544.153-.82zm-22.503-43.929c-12.05-.525-26.073 4.538-36.655 8.818-11.357 4.595-22.115 10.706-29.702 19.057-.47.515.458 1.268 1.092.887 9.737-5.863 19.191-11.917 29.973-16.502a128 128 0 0 1 17.158-5.892c6.061-1.621 12.602-2.164 18.545-3.947 1.586-.476 1.363-2.336-.399-2.412zm-139.361 72.453-.388.286c.599-.2 1.21-.41 1.809-.61-.047 0-.106 0-.153-.01-1.045-.085-1.985.525-2.525 1.173-.27.334-.517.629-.646 1.039-.223.763-.058 1.421.376 2.098-.117-.372-.246-.735-.364-1.106 0 .047 0 .095.012.143.082.762.446 1.43 1.292 1.83.728.343 1.914.448 2.63 0-.093.029-.199.067-.293.095.235-.085.481-.162.716-.247a3.06 3.06 0 0 0 1.128-.935c.235-.343.376-.705.481-1.086.235-.792.036-1.745-.751-2.308-.036-.028-.071-.047-.106-.076.247.486.505.982.752 1.468v-.419c0-.763-.599-1.449-1.433-1.735a2.8 2.8 0 0 0-2.561.391zm25.204-.238s-.059-.01-.082-.019l2.384 1.935a3.7 3.7 0 0 0-.529-1.087c-.235-.248-.469-.486-.693-.734a3.56 3.56 0 0 0-1.432-.753 4 4 0 0 0-1.715-.315 4 4 0 0 0-1.715.315 3.35 3.35 0 0 0-1.433.753c-.434.324-.74.715-.928 1.163a2.3 2.3 0 0 0-.387 1.392c.059.324.106.639.164.963.212.61.599 1.144 1.151 1.602.846.629 1.962 1.106 3.148 1.058.399-.048.787-.086 1.186-.134.575-.114 1.081-.324 1.515-.648.482-.257.869-.591 1.151-1.02q.352-.514.529-1.087l-2.385 1.936s.059-.01.083-.02c.27-.095.54-.181.81-.276.399-.172.716-.41.951-.705.212-.172.353-.372.435-.611.211-.324.305-.676.293-1.058a2.73 2.73 0 0 0-.458-1.382c-.399-.61-1.233-1.068-2.02-1.259zm-13.824 14.605c-.246.01-.481.029-.728.038-.787.057-1.491.219-2.079.696-.516.42-.833 1.011-.833 1.611s.305 1.192.833 1.611c.588.477 1.292.639 2.079.696.235.019.482.029.728.038.705.039 1.551-.286 2.044-.686.505-.41.881-1.077.846-1.659-.036-.61-.282-1.239-.846-1.659-.54-.4-1.28-.734-2.044-.686m-.199 18.714c-.082-.076-.153-.153-.235-.229.071.467.153.925.223 1.392.024-.029.059-.067.083-.095.387-.458.328-1.144 0-1.602-.318-.448-1.022-.839-1.692-.791h-.07c-.493.038-.987.143-1.339.448a1.6 1.6 0 0 0-.552 1.087v.057c-.059.543.423 1.106.975 1.373.564.267 1.421.314 1.973 0l.117-.067c-.563-.057-1.139-.124-1.714-.181.094.067.188.124.282.19.281.191.587.325.974.325.341 0 .74-.124.975-.325.247-.209.423-.495.399-.791-.011-.314-.152-.553-.399-.791m-30.336 8.38c1.456 0 1.456-1.831 0-1.831-1.457 0-1.457 1.831 0 1.831m29.232-32.709c.07.133.141.276.235.4.106.153.293.305.434.448.282.286 1.01.286 1.281 0 .14-.143.317-.295.434-.448.094-.124.153-.267.235-.4.235-.41.294-.83 0-1.24-.27-.371-.775-.61-1.304-.61-.528 0-1.033.239-1.303.61-.294.41-.235.83 0 1.24zm-25.063 20.354c.035.2.059.39.094.591.023.181.035.4.094.562.117.343.399.61.763.782a1.83 1.83 0 0 0 1.515 0c.376-.181.646-.448.764-.782.058-.162.058-.381.094-.562.035-.201.058-.391.094-.591.047-.325-.224-.763-.505-.982a2 2 0 0 0-1.21-.41c-.446.019-.904.133-1.21.41-.282.247-.552.629-.505.982zm-68.764 132.018c3.758 0 3.758-4.739 0-4.739s-3.759 4.739 0 4.739M34.929 324.76c.2-.343.422-.677.61-1.02.27-.496.247-.848.353-1.344.07-.324.282-.629.376-.953.105-.363.152-.744.234-1.106.165-.763-.94-1.44-1.703-.801a17 17 0 0 0-1.973 1.935l.588-.477c-.505.305-.952.506-1.316.963-.282.353-.505.744-.751 1.125-1.245 1.916 2.407 3.623 3.57 1.688zm1.456-45.283c-.247-.725-.47-1.44-.74-2.155-.482-1.277-1.14-2.116-2.596-2.793-1.045-.486-2.349-.496-3.394 0-1.116.534-1.515 1.373-1.668 2.364-.117.753-.011 1.402.435 2.098.14.209 1.08 1.306.622.762.635.753.975 1.02 1.621 1.697.963 1.02 2.35 1.583 3.923 1.039 1.421-.486 2.243-1.773 1.82-3.003zm20.306 93.856c-.482-.544-.94-1.144-1.562-1.583-.81-.572-1.856-1.039-2.983-1.001a5.26 5.26 0 0 0-2.983 1.001c-.623.448-1.08 1.039-1.562 1.583-1.069 1.21-.881 3.088 0 4.309.94 1.296 2.69 2.116 4.545 2.116 1.856 0 3.605-.82 4.545-2.116.88-1.221 1.069-3.099 0-4.309M48.88 114.664c.882-.267 1.75-.543 2.596-.867 1.48-.563 2.361-2.069 2.361-3.337s-.88-2.774-2.36-3.337c-.846-.324-1.727-.6-2.596-.867-1.691-.515-4.029.066-5.227 1.125-.963.848-1.573 1.897-1.573 3.079 0 1.115.599 2.288 1.573 3.079.67.544 1.457.915 2.373 1.125q1.426.315 2.854 0m-32.415 46.275c.329-.4.67-.801.998-1.201.2-.239.388-.477.505-.763.106-.257.118-.572.153-.848.07-.486-.622-1.039-1.21-.982-.317.028-.657.038-.963.105-.376.076-.693.257-1.01.429-.493.267-.986.543-1.48.81-1.162.639-1.491 1.964-.446 2.803 1.034.839 2.678.581 3.453-.363zM202.042 44.213c-.212.076-.423.143-.634.219l2.008.429c-1.092-1.02-2.196-1.802-3.794-2.221-1.562-.41-3.617-.134-5.003.533-2.936 1.392-4.228 4.824-2.325 7.217 1.844 2.317 5.837 3.49 8.891 1.888 1.209-.63 2.102-1.44 2.654-2.527.74-1.41.54-2.688.117-4.147-.317.63-.634 1.268-.951 1.898.2-.096.399-.191.599-.296.857-.42 1.233-1.306.822-2.05-.364-.667-1.445-1.267-2.384-.953zm-84.221-6.283.764-.648c.681-.591 1.116-1.306 1.045-2.136-.129.391-.258.792-.399 1.182.352-.543.705-1.077.716-1.716 0-.476-.305-1.163-.716-1.496-.423-.343-1.245-.572-1.844-.582-.787 0-1.445.296-2.114.582.481-.105.975-.21 1.456-.324-1.033-.058-1.879.305-2.631.848-.27.2-.54.41-.798.62-1.222.934-1.245 2.736 0 3.66 1.245.925 3.288 1.05 4.51 0zm-11.65-34.72c2.267 0 2.267-2.86 0-2.86s-2.267 2.86 0 2.86m56.374 19.247c2.549 0 2.56-3.222 0-3.222s-2.56 3.222 0 3.222m-29.326 47.076c.411.153.822.296 1.233.448 1.233.439 2.548 1.01 3.946.925 1.527-.095 3.124-.458 4.205-1.41.305-.325.622-.65.927-.973q.811-1.13.811-2.431c.106-1.135-.587-2.203-1.139-3.204a45 45 0 0 0-.552-1c-.611-.84-1.433-1.516-2.478-2.012a8.1 8.1 0 0 0-3.489-.763c-1.832.067-3.558.572-4.874 1.64-1.256 1.02-2.02 2.526-2.02 3.956 0 1.01.317 1.955.94 2.832.611.839 1.433 1.516 2.478 2.011zM397.19 157.24c.423-.172.845-.353 1.28-.515l-2.349.515h.258c1.974-.038 3.712-.972 4.475-2.441.353-.676.458-1.334.329-2.059-.141-.839-.564-1.697-1.351-2.288-1.268-.944-3.065-1.401-4.768-1.02-2.114.477-3.547 2.078-3.594 3.833v.209c.212-.638.423-1.268.634-1.906-.199.352-.422.696-.634 1.039-.434.696-.622 1.382-.493 2.164.117.715.482 1.449 1.151 1.945.528.4 1.151.686 1.844.867 1.069.277 2.255.048 3.218-.343m2.595-57.114c4.78 0 4.792-6.035 0-6.035s-4.791 6.035 0 6.035m-89.059-21.193c-.763.858-2.384.725-3.417.324.376.524.74 1.049 1.115 1.573.165-1.763-1.244-2.602-1.585-3.403.164.381.082.124.106-.096-.024.239.199-.095.07-.028 1.398-.791 3.007-1.373 4.381-.048 1.303 1.259 3.347-.143 3.065-1.449-.798-3.775-7.023-5.053-10.77-3.403-2.172.953-3.676 2.621-3.993 4.614-.387 2.44 1.046 4.28 3.383 5.691.974.582 2.63.505 3.617 0 .2-.105.399-.21.599-.305l-1.738.181c3.1.887 6.718.324 8.479-2.088 1.292-1.763-1.902-3.174-3.323-1.582zm-7.728-31.393c.036-1.163.153-2.25-.622-3.327-1.562-2.193-5.637-2.193-7.211 0-.764 1.067-.646 2.164-.623 3.327.024.896.458 1.782 1.234 2.421.728.591 1.937 1.04 2.983 1.001 2.337-.086 4.169-1.506 4.216-3.422zm190.744 194.566c-.435 0-.857-.019-1.292-.019-5.943-.105-5.955 7.608 0 7.493.435 0 .857-.019 1.292-.019 5.907-.105 5.907-7.341 0-7.445zm-70.773 34.72c.082-.276.165-.552.235-.829l-1.738 1.411.27-.086c1.515-.496 2.49-1.373 2.572-2.745.106-1.802-.622-3.709-2.29-4.939a2.04 2.04 0 0 0-2.396 0c-1.668 1.211-2.419 3.146-2.314 4.939.071 1.391 1.069 2.24 2.572 2.745l.27.086-1.738-1.411c.082.277.153.553.235.829.493 1.745 3.829 1.736 4.334 0zm8.75-66.647c1.421.41 3.03 1.087 4.557.677h-.94c.787.162 1.363.19 2.15 0 .751-.172 1.01-.83.681-1.364-.364-.591-.787-.896-1.468-1.258l.634.515c-.646-1.163-2.408-1.678-3.7-2.241-1.315-.562-2.924-.171-3.511.963-.599 1.163.211 2.307 1.609 2.717zm25.544 132.504c1.644-.658 3.336-1.23 4.769-2.174.763-.505.822-1.573.352-2.221-.505-.705-1.586-1.049-2.549-.839-1.75.372-3.382 1.22-4.979 1.897-1.14.486-1.48 1.774-.858 2.651.693.953 2.103 1.153 3.265.696zm-62.88 7.646c-.176-.105-.669-.467-.082 0 .657.514-.035-.134-.176-.286a1.854 1.854 0 0 0-2.772 0c-.094.105-.188.2-.282.305-.129.133-.47.429.106-.019.599-.477.094-.105-.082 0-.611.371-1.034.696-1.328 1.268-.281.543-.364 1.144-.164 1.725.364 1.077 1.726 1.993 3.136 1.945 1.315-.048 2.466-.629 2.971-1.621.282-.543.364-1.144.165-1.725-.235-.696-.811-1.154-1.492-1.583zm-117.152 33.443c1.809 0 3.711-.639 4.991-1.678.693-.515 1.175-1.135 1.457-1.85.446-.686.646-1.42.61-2.211-.082-1.488-.681-3.022-2.067-4.052s-3.077-1.678-4.991-1.678c-1.809 0-3.711.639-4.992 1.678-.692.515-1.174 1.134-1.456 1.849a3.67 3.67 0 0 0-.611 2.212c.083 1.487.682 3.022 2.067 4.052s3.078 1.678 4.992 1.678m-4.287 37.018c2.302 0 2.302-2.908 0-2.908s-2.302 2.908 0 2.908m-30.536 22.823c-.434-.029-.857-.048-1.292-.077-3.958-.228-3.958 5.215 0 4.986.435-.028.858-.047 1.292-.076 3.829-.219 3.841-4.624 0-4.843zm-18.051-41.871c.305-.334.61-.658.916-.991.575-.63.834-1.268.857-2.06.035-1.249-1.362-2.383-2.901-2.354-.975.019-1.773.219-2.537.696-.411.247-.81.495-1.221.743-.54.258-.963.61-1.28 1.039a2.54 2.54 0 0 0-.493 1.468 2.77 2.77 0 0 0 1.045 2.05c.646.524 1.609.849 2.525.849.646 0 1.245-.134 1.809-.401.54-.257.963-.61 1.28-1.039m-35.974-13.671c.881-.019 1.961.077 2.795-.143.717-.19-.387-.019.458-.114.564-.067 1.046-.124 1.574-.305 1.269-.429 2.408-1.268 2.337-2.498-.07-1.249-.975-2.031-2.337-2.498-.575-.2-.881-.228-1.574-.305-1.162-.133.646.115-.458-.114-.892-.181-1.879-.124-2.795-.143-1.973-.038-3.852 1.43-3.758 3.05.094 1.621 1.656 3.089 3.758 3.051zm148.44-10.782c.199-.048.387-.076.599-.105-.682.076-1.363.153-2.056.219.153-.009.306-.019.47-.019l-2.09-.228c1.385.371 3.053.314 4.439 0 1.339-.306 2.513-.858 3.5-1.659a30 30 0 0 0 1.292-1.354l-1.233 1.287c.939-.953 1.808-1.678 2.149-2.917.611-2.164-.047-4.424-2.008-6.006-.905-.734-2.455-1.545-3.712-1.773-1.386-.258-2.983-.344-4.345.009-1.269.334-2.713.887-3.571 1.726.529-.334 1.057-.668 1.598-1.001-1.68 1.02-2.267 1.477-3.512 2.85l-.752 1.459c-.094.543-.176 1.077-.27 1.62 0 1.354.599 2.632 1.609 3.69 1.809 1.897 4.98 2.86 7.893 2.183zm182.757-88.736c4.251 0 4.263-5.358 0-5.358s-4.263 5.358 0 5.358m-51.253-129.158c-.094-1.411-.552-2.899-1.891-3.9-.787-.591-1.774-1.134-2.842-1.334a15 15 0 0 0-1.962-.2c-.587.066-1.186.133-1.773.19l-1.598.544c-.775.343-1.409.81-1.879 1.401-.411.343-.704.734-.857 1.201q-.458.63-.458 1.373a2.17 2.17 0 0 0 0 1.44q0 .729.458 1.372c.27.677.728 1.259 1.386 1.745.446.286.904.562 1.35.848.529.182 1.069.363 1.598.544.587.067 1.186.133 1.773.191.587-.067 1.186-.134 1.774-.191.528-.181 1.068-.362 1.597-.544.775-.343 1.409-.81 1.879-1.401.411-.343.705-.734.857-1.201a3.44 3.44 0 0 0 .576-2.088zm100.58 5.148c4.134 0 4.134-5.215 0-5.215s-4.134 5.215 0 5.215m-441.291 17.112a17 17 0 0 0-1.456-1.621c-.54-.534-1.856-.534-2.396 0a17 17 0 0 0-1.456 1.621c-1.269 1.621.387 3.756 2.654 3.756s3.923-2.135 2.654-3.756m-60.718-2.526c.95-.181 1.902-.296 2.607-.906.68-.591.68-1.478 0-2.078-.693-.61-1.668-.715-2.608-.906-1.562-.305-3.135.61-3.135 1.935s1.573 2.241 3.135 1.936zm76.855-29.23c2.067 0 2.067-2.602 0-2.602s-2.067 2.602 0 2.602m-.27-12.279c.317-1.449 1.057-3.622-.082-4.928-1.045-1.201-2.948-1.201-3.993 0-1.139 1.306-.399 3.479-.082 4.928.364 1.669 3.793 1.669 4.157 0m-24.569-6.187.035-1.029c.024-.934-.317-1.735-1.174-2.384-1.269-.962-3.148-.962-4.416 0-.846.639-1.198 1.459-1.175 2.384 0 .343.024.686.036 1.029.047 1.421 1.503 2.784 3.347 2.717 1.855-.066 3.3-1.191 3.347-2.717m31.358 176.453c-.164-.2-.329-.41-.482-.61.083.477.153.963.235 1.439.165-.409.235-.81.165-1.239-.059-.372-.235-.677-.423-1.029l-.352-.668c.152.458.305.925.458 1.383.141-.925-.411-1.774-1.163-2.422-1.327-1.134-3.876-1.163-5.191 0-1.316 1.163-1.492 3.07 0 4.214.787.61 1.867 1.068 2.983.944l-1.703-.372.822.286c.282.105.576.219.869.295.623.163 1.316.067 1.926-.095-.587-.067-1.186-.124-1.773-.191.247.134.505.267.752.391 1.761.925 4.028-.915 2.889-2.345z" fill="#708D81"/><path d="M301.131 276.111a133 133 0 0 0 1.985-.152c.974-.076 1.926-.648 1.879-1.525-.047-.887-.834-1.449-1.879-1.526a133 133 0 0 1-1.985-.152c-1.081-.077-2.114.829-2.067 1.678.047.839.916 1.763 2.067 1.677m2.349 20.859c1.903.172 4.592.62 5.837-.848.329-.391.329-1.039 0-1.43-1.245-1.478-3.934-1.02-5.837-.848-2.478.219-2.478 2.907 0 3.126m-50.596-163.096.728-.057a6.3 6.3 0 0 0 2.666-.582c.458-.191.846-.438 1.151-.753.858-.829 1.574-1.821 1.504-2.955a39 39 0 0 0-.188-1.116 4.03 4.03 0 0 0-1.327-1.84 3.4 3.4 0 0 0-1.151-.753 6.14 6.14 0 0 0-2.666-.581l-.729-.058c-1.28-.105-2.912.563-3.793 1.278-.928.753-1.633 1.992-1.574 3.079.059 1.125.517 2.288 1.574 3.079.986.734 2.396 1.392 3.793 1.278z" fill="#708D81"/></svg>