<svg width="489" height="466" viewBox="0 0 489 466" fill="none" xmlns="http://www.w3.org/2000/svg"><path d="M145.845 354.276c.235-.4.282-.496.152-.296.353-.343.435-.429.247-.267.458-.266.564-.333.317-.219.529-.162.658-.21.388-.133-.435.095.892 0 .223-.029-.305-.01-.153 0 .446.057 1.022.591 1.351.744.975.467l.916 1.783c-.129-1.067-.611-1.84-1.738-2.44-1.456-.773-3.723-.277-4.534.963-.798 1.22-.458 3.003 1.187 3.68l.094.037c.974.401 2.372.582 3.335 0 .035-.019.071-.038.106-.066-.529.114-1.046.229-1.574.343.305-.029.611-.057.916-.095-.634.038-.799.066-.482.076.118 0 .224 0 .341-.019.74-.048 1.409-.172 2.067-.477.963-.438 1.856-1.258 2.02-2.173.118-.629.129-1.192-.282-1.764-.34-.477-1.01-.925-1.679-1.049-1.527-.286-2.995.372-3.465 1.592zm.07-22.365c-.059-.42-.118-.83-.176-1.249-.059-.439-.176-.801-.576-1.125a2.22 2.22 0 0 0-1.386-.467c-.505.019-1.033.152-1.386.467-.375.334-.505.677-.575 1.125l-.176 1.249c-.059.41.282.943.622 1.229.376.305.975.525 1.515.506.552-.019 1.128-.172 1.515-.506.353-.314.693-.781.623-1.229m-19.883-23.958c.422-.085.869-.152 1.256-.333.341-.162.564-.372.822-.601.541-.477.541-1.173 0-1.649-.258-.229-.481-.439-.822-.601-.387-.181-.834-.248-1.256-.333-1.41-.286-2.831.562-2.831 1.754s1.433 2.04 2.831 1.754zm-1.034-84.665c-.235-.105-.47-.201-.705-.305-5.379-2.317-5.379 6.33 0 4.013.235-.105.47-.2.705-.305 1.585-.686 1.585-2.736 0-3.413zm-19.085 43.662.141-1.144c-.023.162-.059.334-.082.496.012-.029.023-.067.035-.095.435-1.182-.763-2.384-2.243-2.384s-2.666 1.211-2.243 2.384c0 .028.023.066.035.095-.024-.162-.059-.324-.082-.496l.141 1.144c.058.477.199.887.634 1.23.376.305.986.534 1.515.515.552-.019 1.127-.172 1.515-.515.411-.362.575-.753.634-1.23m-31.91 17.389.575.439c.482.352 1.022.572 1.68.543l-.905-.2c.282.124.576.277.893.334.293.057.552.047.845.019.67-.067 1.07-.382 1.152-.935.035-.238.058-.438-.024-.686-.094-.257-.258-.486-.411-.724.082.247.164.486.246.734.036-.544-.234-.963-.669-1.364a12 12 0 0 0-.54-.467c-.717-.629-2.126-.629-2.842 0s-.823 1.688 0 2.307m23.547-38.677c-.505.448-.998.896-1.503 1.335-.564.505-.658 1.363 0 1.85.67.495 1.62.495 2.278 0 .552-.41 1.104-.811 1.645-1.221a1.227 1.227 0 0 0 0-1.973c-.658-.496-1.786-.572-2.431 0zm1.903-16.597c.505.314 1.022.619 1.527.934.563.343 1.55.191 2.008-.21.188-.171.34-.371.423-.591.117-.286.058-.781-.165-1.029-.387-.41-.763-.83-1.151-1.24-.411-.438-.939-.8-1.668-.781-.516.019-.998.162-1.362.457-.352.286-.564.706-.564 1.106 0 .601.4 1.011.963 1.354zm29.573 49.659c.14-.134.27-.277.411-.41 1.209-1.211 1.221-2.555 0-3.785-.141-.133-.271-.276-.411-.41-2.291-2.288-6.848-.314-6.848 2.307s4.569 4.586 6.848 2.307zm25.803 19.858c.223.582.376 1.182.904 1.649.693.61 2.044.61 2.748 0 .529-.457.693-1.058.905-1.649.446-1.201-.776-2.431-2.279-2.431s-2.725 1.23-2.278 2.431m2.29 18.628c2.443 0 2.443-3.079 0-3.079s-2.443 3.079 0 3.079m-2.747 10.639c-.024-.314-.036-.629-.071-.934-.059-.477-.211-.896-.634-1.249a2.5 2.5 0 0 0-1.539-.515c-.563.019-1.151.172-1.538.515a1.8 1.8 0 0 0-.634 1.249c-.036.315-.047.629-.071.934-.07.963 1.092 1.878 2.255 1.831 1.163-.038 2.337-.811 2.255-1.831zm-20.601-3.956c2.302 0 2.313-2.908 0-2.908s-2.314 2.908 0 2.908m13.353-6.873-.047-.677c0-.105 0-.21-.023-.315-.024-.305-.106-.515-.27-.791-.494-.83-2.197-.83-2.69 0a1.75 1.75 0 0 0-.27.743c-.012.124-.012.248-.024.363l-.047.677c-.047.715.811 1.401 1.68 1.363.869-.029 1.738-.601 1.679-1.363zm-3.347-15.797c.693 0 .693-.868 0-.868s-.693.868 0 .868m9.948 48.668c.106.286.2.581.329.867.2.448.74.972 1.409.944.599-.019 1.104-.372 1.327-.801.165-.324.271-.667.4-1.001.34-.905-.587-1.84-1.727-1.84-1.139 0-2.067.935-1.726 1.84zm-26.93 35.902-.904.763c-.2.172-.4.343-.576.534a2 2 0 0 0-.587 1.354c-.012.228.07.467.117.695.118.63 1.01 1.354 1.786 1.45.27.028.552.076.822.085a3.2 3.2 0 0 0 1.433-.305c.352-.162.645-.419.939-.648l.94-.734c1.057-.82 1.092-2.393 0-3.203-.529-.401-1.234-.696-1.973-.668-.729.029-1.457.229-1.973.668zm3.64 19.429c.364 0 .364-.467 0-.467s-.364.467 0 .467m2.067 12.546c.211.353.435.696.646 1.049.235.381.998.381 1.233 0 .212-.353.435-.696.646-1.049.493-.791-.106-1.792-1.268-1.792-1.163 0-1.762 1.001-1.269 1.792zm1.221 17.322c-1.186-.057-2.02.801-2.043 1.697-.035.972 1.08 2.193 2.408 1.573.387-.181.692-.534.692-.905 0-.191-.082-.258-.152-.43.082.181.129.201.141.42 0-.105-.012-.019-.047.248.023-.105.047-.21.047-.315 0-.343-.177-.534-.411-.801.317.363.176.172.117.105.164.181.141.286.094.153-.047-.162 0 .372.024.133v-.105c.011.315-.047.296 0 .143.047-.162-.177.305-.083.162.106-.143-.305.277-.117.124q-.405.23-.212.143c-.305.096-.399.124-.258.096-.129.019-.27.028-.399.047h.117c-.141-.019-.27-.028-.411-.047.035 0 .059 0 .082.009.905.172 1.797-.276 1.926-1.039.13-.772-.587-1.373-1.515-1.42zm-11.344 28.086c.035.362.059.724.129 1.077.083.496.611 1.001 1.269 1.001.61 0 1.08-.429 1.245-.868.082-.2.07-.476.094-.696.023-.171.035-.343.058-.524.059-.591-.693-1.163-1.397-1.135s-1.468.506-1.398 1.135zm15.726-55.227c-.305.476-.599.963-.904 1.439-.153.239-.306.477-.447.715-.282.477-.399.877-.493 1.402-.129.772.716 1.554 1.515 1.821.916.314 1.961.142 2.69-.411.927-.715 1.456-1.963 2.031-2.888.599-.963.353-2.279-.916-2.822-1.162-.496-2.842-.286-3.476.744m22.079-30.698c.024-.076.036-.143.059-.219a5 5 0 0 1-.223.42c.059-.077.117-.143.176-.22.305-.372.305-.972 0-1.353-.059-.077-.117-.143-.176-.22.07.143.141.286.223.42a2.58 2.58 0 0 0-.881-1.363c-.552-.449-1.456-.792-2.255-.763-1.597.057-2.912.934-3.135 2.24-.094.591.035 1.125.375 1.65.353.533 1.175 1.058 1.903 1.191.81.153 1.726.115 2.455-.257.669-.353 1.291-.887 1.468-1.545zm30.044-7.455c.058.62.035 1.297.399 1.859.587.925 2.419.925 3.007 0 .364-.562.34-1.23.399-1.859.082-.801-.928-1.573-1.903-1.544-.963.038-1.985.677-1.902 1.544m-6.355-23.07c-.27-.239-.528-.477-.787-.715-.458-.429-1.468-.429-1.926 0a51 51 0 0 1-.787.715c-.681.6-.904 1.43-.517 2.192.364.706 1.281 1.268 2.255 1.23.858-.029 1.692-.381 2.138-.991.575-.801.352-1.774-.388-2.431zm2.912-79.776.036.744c.094 2.059 3.852 2.059 3.946 0 0-.248.023-.496.035-.744.094-2.097-4.111-2.097-4.017 0m15.34-65.494-1.539.057c-1.174.048-2.314.811-2.255 1.831.059 1.029.987 1.782 2.255 1.83l1.539.057c1.221.048 2.384-.905 2.325-1.887s-1.022-1.936-2.325-1.888m-6.942-18.409c-.047-.305-.058-.658-.164-.953-.094-.267-.294-.524-.47-.763-.317-.476-1.221-.476-1.55 0-.165.248-.376.496-.47.763-.106.295-.106.648-.164.953-.094.591.704 1.163 1.397 1.135.681-.029 1.492-.506 1.398-1.135zm-4.885-21.65c0 .953-.118 1.926.294 2.841.54 1.22 2.536 1.23 3.077 0 .399-.915.293-1.888.293-2.841 0-1.907-3.652-1.907-3.652 0zm16.347 31.126c.024.668-.047 1.392.376 1.983.775 1.078 2.76 1.078 3.547 0 .435-.6.352-1.315.376-1.983.035-.915-1.01-1.782-2.149-1.744s-2.185.762-2.15 1.744m10.724-20.306c.036-.257.071-.476.024-.734-.047-.257-.141-.457-.235-.686a1.795 1.795 0 0 0-1.691-1.049c-.811.029-1.433.429-1.691 1.049-.094.229-.2.448-.235.686-.047.258 0 .477.023.734.059.42.176.782.552 1.087.329.267.869.467 1.339.448.493-.019.998-.152 1.339-.448.364-.324.493-.658.552-1.087zm1.433-4.709c1.104 0 1.104-1.392 0-1.392s-1.104 1.392 0 1.392m-13.096 60.403-.846.744c-.129.114-.27.229-.399.353-.388.371-.599.762-.623 1.258-.047.772.87 1.506 1.809 1.468.517-.019.951-.133 1.362-.381.224-.143.423-.296.635-.448l.916-.687a1.435 1.435 0 0 0 0-2.307c-.775-.581-2.079-.667-2.842 0zm-15.244-119.72c1.479 0 1.479-1.859 0-1.859s-1.48 1.859 0 1.859m-1.668 21.26c2.995 0 3.007-3.775 0-3.775s-3.007 3.775 0 3.775m-2.384 13.318c.423-1.926 1.997-5.31-.423-6.702-.411-.238-.963-.162-1.374 0-1.268.505-1.445 1.764-1.597 2.793-.176 1.154.058 2.383.082 3.537.035 1.478 2.96 1.935 3.312.362zm2.384-29.411c3.23 0 3.23-4.07 0-4.07s-3.23 4.07 0 4.07m-9.384-5.443c.611-.515 1.21-.906 1.563-1.583.117-.219.223-.41.27-.648.047-.257-.071-.486-.094-.734-.024-.238 0-.496-.118-.734-.199-.4-.611-.62-1.151-.524-.317.057-.517.209-.775.324-.164.076-.423.105-.599.191-.317.152-.528.381-.728.619-.517.629-.599 1.249-.775 1.964-.27 1.087 1.339 2.012 2.396 1.134zm16.642-20.955c.024.277.036.554.059.83.035.4.188.639.505.934.247.23.775.23 1.01 0 .317-.295.47-.534.505-.934.024-.276.035-.553.059-.83.035-.457-.517-.895-1.069-.867-.552.02-1.104.381-1.069.868m-49.386 68.134c.047.277.071.544.212.801.223.429.54.725 1.01 1.001.446.277 1.339.277 1.785 0 .458-.276.787-.581 1.01-1.001.129-.257.165-.524.212-.801a1.45 1.45 0 0 0 0-.943 1.7 1.7 0 0 0-.564-.782 2.58 2.58 0 0 0-1.55-.515c-.564 0-1.151.2-1.551.515-.27.219-.458.486-.564.782a1.45 1.45 0 0 0 0 .943m-3.018 41.89c.106.419.165.906.447 1.277.634.82 2.055.82 2.689 0 .294-.371.341-.858.446-1.277.247-.953-.54-1.916-1.797-1.916-.481 0-.974.171-1.315.438-.493.401-.611.935-.481 1.468zm106.383 13.166c-.353.047-.752.076-1.104.162-.611.152-1.186.61-1.163 1.163.024.505.411.905.975 1.096.387.133.857.162 1.28.219.587.086 1.21.029 1.633-.352.305-.267.493-.601.493-.963 0-.353-.188-.715-.493-.963-.459-.372-1.034-.439-1.633-.353zm-11.228 46.742c3.371 0 3.371-4.243 0-4.243s-3.37 4.243 0 4.243m-9.842 35.769.07 1.249c.035.61.634 1.191 1.433 1.163.81-.029 1.397-.515 1.433-1.163l.07-1.249c.035-.639-.716-1.249-1.503-1.22-.787.028-1.539.533-1.503 1.22m-11.145-12.87.74-.086c.575-.067 1.08-.248 1.491-.601.881-.734.881-1.925 0-2.659-.411-.344-.928-.534-1.491-.601l-.74-.086a3.35 3.35 0 0 0-1.375 0c-.434.096-.81.277-1.139.534-.458.41-.751.915-.751 1.478 0 .534.293 1.096.751 1.477a2.7 2.7 0 0 0 1.139.534q.688.144 1.375 0zm.986 44.273c2.584 0 2.584-3.261 0-3.261s-2.584 3.261 0 3.261m-2.784 7.302c-.587.725-1.163 1.449-1.75 2.164-.576.706-1.139 1.316-1.374 2.145-.118.41.458.858.951.591.881-.486 1.374-1.115 1.997-1.821q.986-1.113 1.973-2.24c.775-.877-1.057-1.764-1.797-.848zm-11.275 16.779c.024.448-.012.944.117 1.382.153.477 1.046.477 1.198 0 .13-.438.094-.934.118-1.382.047-.744-1.48-.753-1.433 0m-9.853 39.249v.781c0 .277.094.487.235.735.117.209.563.209.681 0 .141-.248.235-.458.235-.735v-.781c0-.601-1.151-.601-1.151 0m-12.45 23.747c-.376.63-.693 1.287-1.198 1.859-.199.229-.528.468-.704.706-.282.391-.388.877-.552 1.306-.341.915.411 1.935 1.526 2.183 1.222.267 2.291-.334 2.69-1.239.129-.277.294-.572.388-.868.117-.41.011-.791.023-1.201.024-.629.223-1.258.364-1.878.282-1.173-1.82-2.107-2.548-.877zm-13.659 29.42c2.76 0 2.772-3.489 0-3.489s-2.772 3.489 0 3.489m2.925 20.278c-.67 1.096-1.586 2.231-1.762 3.441-.094.668.622 1.345 1.315 1.583a2.54 2.54 0 0 0 2.338-.362c.54-.41.822-.963 1.15-1.478.282-.448.576-.896.858-1.344.54-.849.305-2.031-.81-2.508-1.022-.438-2.526-.257-3.089.658zM285.487 82.29c3.324 0 3.324-4.186 0-4.186s-3.324 4.185 0 4.185m1.469 13.986c-.541.467-1.081.934-1.621 1.391-.188.163.106.4.305.248a213 213 0 0 0 1.715-1.315c.27-.21-.153-.544-.399-.334zm-5.52 9.638v.782c0 .305.105.514.282.781.187.267.681.267.869 0 .188-.257.281-.467.281-.781v-.782c0-.744-1.432-.753-1.432 0m-8.058 10.353c-.563 1.487-1.937 3.575-.552 4.967.188.191.599.267.87.191 2.055-.572 2.243-2.994 2.713-4.471.516-1.602-2.455-2.25-3.042-.677zm-9.654 21.345c-.364.534-.787 1.059-1.069 1.631s-.669 1.22-.364 1.83c.258.515.904.991 1.668.772 1.573-.457 1.973-2.154 2.443-3.317.528-1.287-1.879-2.088-2.69-.916zm6.601-33.538c.27.334.54.648.833.953.564.591 1.422.591 1.985 0 .294-.314.576-.629.834-.953.893-1.106-.282-2.584-1.82-2.584s-2.713 1.478-1.821 2.584zm30.16-22.098c2.807 0 2.819-3.547 0-3.547s-2.819 3.547 0 3.547M267.859 244.69c.54-.057.939-.124 1.456-.334.822-.343 1.398-1.001 1.398-1.763 0-.763-.587-1.43-1.398-1.764-.317-.134-.611-.238-.963-.277l-.493-.057a3.3 3.3 0 0 0-1.433 0 2.8 2.8 0 0 0-1.186.563c-.482.429-.787.953-.787 1.544 0 .563.305 1.144.787 1.544.34.267.728.458 1.186.563.482.105.951.105 1.433 0zm-7.54 7.379.07 1.144c.047.743.775 1.468 1.762 1.43.986-.038 1.714-.629 1.761-1.43l.071-1.144c.047-.772-.869-1.516-1.832-1.487-.952.038-1.879.648-1.832 1.487m-9.842 14.805c2.032 0 2.032-2.555 0-2.555s-2.031 2.555 0 2.555m2.231-24.615c-.294-.038-.587-.067-.881-.105-3.676-.438-3.699 4.014 0 3.575.294-.038.587-.067.881-.105 2.055-.238 2.055-3.117 0-3.365m-1.351 57.715c.059.229.106.458.165.696.058.238.105.4.281.648.247.334.564.515.94.744.54.324 1.597.324 2.138 0 .364-.22.716-.401.939-.744.129-.2.235-.419.282-.648.059-.229.106-.458.164-.696.165-.715.047-1.487-.657-2.012a2.96 2.96 0 0 0-1.797-.6c-.658 0-1.339.229-1.797.6-.681.553-.822 1.268-.658 2.012m6.425 19.229c-.2-.029-.411-.067-.611-.096l1.762 1.43a3.4 3.4 0 0 0-.975-1.468c-.587-.524-1.621-.839-2.478-.839s-1.844.315-2.478.839c-.611.496-1.069 1.306-1.034 2.012.035.734.341 1.497 1.034 2.011.669.496 1.55.868 2.478.839.787-.028 1.491-.219 2.125-.61.717-.448 1.093-.991 1.328-1.697l-1.762 1.43c.2-.028.411-.067.611-.095.505-.076.951-.381 1.245-.696.317-.324.54-.753.516-1.182a2 2 0 0 0-.329-.982c-.258-.391-.892-.811-1.432-.896m-14.493 27.589c.012.239.035.487.047.725 0 .105 0 .21.024.315.047.514.246.886.681 1.267.728.639 2.137.639 2.866 0 .446-.381.634-.753.681-1.267 0-.105.011-.21.023-.315.012-.238.035-.486.047-.725.059-.924-1.045-1.811-2.184-1.773-1.128.038-2.244.782-2.185 1.773m-6.13 9.476c.047.61.094 1.135.364 1.707.212.438.212.944.576 1.344a.945.945 0 0 0 1.421 0c.352-.391.364-.906.575-1.344.27-.563.317-1.097.364-1.707.13-1.725-3.417-1.725-3.3 0m-11.404 25.397c-.564 1.373-1.315 2.908-1.151 4.366.07.553.928.982 1.468.496 1.292-1.144 1.844-2.793 2.443-4.242.587-1.421-2.185-2.031-2.76-.62m-10.289 56.848c1.656 0 1.667-2.098 0-2.098s-1.668 2.098 0 2.098m-10.453 20.601c.024.62-.047 1.325.399 1.85.411.476.975.801 1.715.801s1.304-.325 1.715-.801c.446-.525.376-1.24.399-1.85.035-.896-.998-1.754-2.114-1.716s-2.149.753-2.114 1.716m15.973-17.942c-.235-.238-.623-.371-.987-.381-.423 0-.728.143-1.045.343l.822-.276c-.74.038-1.198.372-1.409.925-.071.19-.118.4-.118.591 0 .591.623 1.22 1.351 1.363.528.095 1.151-.057 1.421-.467q.159-.243.176-.515c.012-.286-.164-.505-.364-.725.164.162.176.172.27.372-.023-.057-.035-.181 0 .058.035.247.012.038.024-.029-.012.105-.036.2-.047.305.047-.267.07-.458-.024-.725-.023-.066-.059-.267-.023-.019s.011.048.011-.019c-.011-.343-.152-.581-.434-.839.106.305.199.62.305.925l.024-.086s-.13.229-.083.162a.6.6 0 0 1-.211.191.7.7 0 0 1-.341.114c-.211.02-.035 0 .036.02.364.038.728-.22.845-.468.153-.295.047-.581-.188-.829zm-7.188-12.031c3.97 0 3.97-5.005 0-5.005s-3.97 5.005 0 5.005m15.749 11.86c.564-.115 1.116-.258 1.621-.505 1.55-.782 1.55-2.574 0-3.356-.505-.258-1.057-.391-1.621-.506-1.75-.371-3.535.706-3.535 2.184 0 1.477 1.785 2.555 3.535 2.183M246.671 431c.458-.171.998-.324 1.339-.639.658-.619.669-1.41 0-2.03-.341-.315-.881-.467-1.339-.639-.787-.295-1.597-.372-2.384 0-.717.343-1.175.982-1.175 1.659s.447 1.316 1.175 1.659c.787.372 1.597.295 2.384 0zm63.021-161.19c-.293-.4-.575-.8-1.045-1.096-.388-.248-1.01-.496-1.492-.477-.422.019-.869.153-1.244.324-.611.277-.952.782-1.292 1.249-1.128 1.564.317 3.585 2.536 3.585 2.22 0 3.665-2.031 2.537-3.585m5.803-8.742c.153-.019.305-.038.458-.038-.2-.019-.399-.048-.599-.067.552.067 1.046.124 1.586-.047h-.858c.447.095.823.171 1.292.105.364-.048.752-.372.822-.668.083-.381-.011-.686-.129-1.048v.696c.212-.439.141-.839.059-1.287.023.162.059.324.082.486 0-.124.024-.248.047-.372-.035-.2-.07-.4-.094-.591-.094-.181-.188-.353-.282-.534-.282-.429-.787-.734-1.315-.915-.975-.334-2.267-.2-3.018.467-.658.581-.975 1.401-.705 2.174.164.467.517.867.986 1.163.435.276 1.093.533 1.668.476m14.258 6.655c-.117-.41-.234-.763-.481-1.154-.411-.648-1.198-1.106-2.114-1.106s-1.715.467-2.114 1.106c-.235.381-.352.744-.482 1.154-.411 1.372.811 2.764 2.596 2.764s2.995-1.392 2.595-2.764m12.695-7.97c.047-.086.094-.162.141-.248l-.869.705c.81-.372 1.292-.991 1.409-1.725.083-.515-.047-.916-.317-1.383-.047-.085-.094-.162-.141-.247-.775-1.335-3.558-1.335-4.333 0-.047.085-.094.162-.141.247-.259.458-.4.877-.317 1.383.117.734.599 1.344 1.409 1.725l-.869-.705c.047.086.094.162.141.248.693 1.201 3.194 1.201 3.899 0zm-25.356 53.148c.118-.086.317-.19.4-.295-.059.038-.118.066-.177.105l.177-.115c.094-.057.176-.114.27-.162.751-.467.751-1.192 0-1.659-.094-.057-.176-.114-.27-.162a1 1 0 0 1-.13-.086 2 2 0 0 1 .13.077c-.036-.086-.317-.239-.4-.296a2.69 2.69 0 0 0-2.466-.381c-.787.267-1.433.944-1.386 1.678.035.638.423 1.249 1.116 1.582.892.429 1.985.267 2.736-.286m-11.603-11.526c3.089 0 3.089-3.899 0-3.899s-3.089 3.899 0 3.899m-9.995 65.132c3.371 0 3.371-4.242 0-4.242s-3.37 4.242 0 4.242m15.972-4.824c-.834-.333-1.75-.41-2.584-.019-.599.277-1.033.782-1.209 1.316-.294.906.364 1.907 1.503 2.145h.012l-1.363-1.106c.153.372.341.677.67.972.329.296.916.591 1.432.544.423-.038.834-.115 1.128-.382.27-.238.517-.581.47-.915-.047-.352-.059-.381-.235-.696.059.105.106.21.164.315-.011-.029-.023-.057-.023-.086.023.124.035.238.059.362v-.162a4 4 0 0 0-.059.382c.012-.077.047-.153.082-.229-.059.124-.129.248-.188.362a.4.4 0 0 1 .059-.095c-.564.257-1.116.524-1.68.782h.036c.188-.02.375-.039.575-.067.282-.057.529-.162.728-.315.388-.248.599-.524.775-.906 0-.019.012-.028.024-.047-.071.143-.141.276-.211.419a1 1 0 0 1 .07-.105l-.341.353s.047-.047.071-.067c-.141.096-.294.182-.435.277.024-.01.047-.019.071-.038-.176.057-.341.114-.517.181.023 0 .047-.01.07-.019-.187.019-.387.038-.575.067h.117c-.187-.019-.387-.039-.575-.067.035 0 .059.009.094.019-.176-.057-.352-.114-.517-.181a.5.5 0 0 1 .106.048c.481.238 1.151.295 1.679.181.505-.115 1.057-.43 1.304-.82.27-.41.399-.906.223-1.364-.164-.419-.493-.857-1.01-1.058zm-20.036 25.874.282 1.287c.082.362.822.362.893 0l.282-1.287c.082-.381-.2-.772-.729-.772s-.81.391-.728.772m-15.95 15.225c2.948 0 2.96-3.718 0-3.718s-2.959 3.718 0 3.718m-9.876 3.556c-.082-.563-.082-1.192-.411-1.697-.564-.839-2.184-.839-2.76 0-.34.495-.329 1.134-.411 1.697-.047.343.235.791.529 1.029.305.248.822.439 1.268.429.881-.028 1.903-.648 1.785-1.449zm8.773-36.828c.306-.324.611-.638.916-.963.846-.886.341-2.24-.469-2.984-.012-.019-.035-.028-.047-.047.27.534.552 1.077.822 1.611l-.035.21.105-.286c.118-.401.176-.792.035-1.192-.105-.315-.305-.61-.457-.906-.329-.6-1.316-.791-2.021-.667-.422.076-.88.143-1.256.334-.587.305-.952.781-1.363 1.229l.964-.781a2 2 0 0 0-.177.095l1.421-.315h-.117c-1.327-.095-2.584.839-2.924 1.812-.141.381-.271.762-.411 1.144-.388 1.077.364 2.221 1.597 2.641 1.374.467 2.595-.019 3.441-.916zm64.454-21.221c.235 0 .235-.296 0-.296s-.235.296 0 .296m24.006-65.704-1.092-.171c.54.343 1.092.676 1.632 1.02-.035-.048-.07-.086-.105-.134a3.05 3.05 0 0 0-1.457-1.01c-.599-.21-1.35-.296-1.985-.124l-.117.028c-1.222.334-2.267 1.249-2.208 2.355.059 1.115.904 2.002 2.208 2.355l.117.028.811.086c.423.01.81-.057 1.174-.21.623-.219 1.081-.543 1.457-1.01.035-.048.07-.086.105-.134-.54.344-1.092.677-1.632 1.02l1.092-.171c.2-.067.399-.134.599-.21.294-.124.528-.305.705-.524.328-.343.563-.791.54-1.23a2.1 2.1 0 0 0-.341-1.03c-.27-.41-.928-.848-1.503-.934m-20.166 12.374.576.439c.164.124.329.257.517.353.14.076.281.124.446.143.106.019.07.009-.094-.019-.059.047.763.295.552.247.247.058.587.058.834 0 .176-.038.481-.152.622-.257s.282-.372.317-.505c.059-.21.071-.477 0-.677 0-.029-.293-.458-.305-.448l.023.124a.8.8 0 0 0-.187-.401 2.6 2.6 0 0 0-.388-.381l-.587-.505c-.588-.515-1.739-.525-2.326 0-.587.524-.669 1.382 0 1.887m14.682-18.39c.552-.381 1.174-.867 1.174-1.496s-.622-1.116-1.174-1.497c-.811-.563-1.844-.782-2.854-.439-.916.315-1.656 1.097-1.609 1.936.035.743.493 1.449 1.292 1.83.505.238 1.092.315 1.668.248.599-.067 1.033-.257 1.503-.582m28.163 26.398c3.453 0 3.464-4.356 0-4.356s-3.465 4.356 0 4.356m-20.001 20.211c3.324 0 3.324-4.185 0-4.185s-3.323 4.185 0 4.185m-7.693 7.903c-.587.477-1.198.935-1.762 1.43-.552.486-.857 1.173-1.221 1.764-.306.505.305 1.01.928.753.728-.295 1.562-.543 2.172-.991.611-.458 1.175-.954 1.762-1.43 1.21-.982-.669-2.498-1.879-1.526m96.881-104.485c-.07-.01-.129-.029-.199-.038.188.066.387.133.575.2-.141-.048-.258-.134-.388-.2-.458-.248-1.197-.248-1.667 0-.118.066-.247.152-.388.2.188-.067.388-.134.576-.2a3.8 3.8 0 0 0-.952.295c-1.75.829-2.078 2.851-.634 4.023 1.386 1.125 3.993.953 4.956-.515.4-.61.552-1.296.317-1.973-.281-.849-1.139-1.564-2.196-1.783zm-30.841-90.119c3.406 0 3.417-4.3 0-4.3-3.418 0-3.418 4.3 0 4.3m38.909-13.871c.129-.105.259-.21.388-.305l-.529.333c.235-.152.54-.305.752-.467.446-.362.704-.858.704-1.363s-.258-1.011-.704-1.363c-.2-.162-.505-.315-.752-.467.176.114.353.219.529.333-.129-.105-.259-.21-.388-.305-.916-.724-2.278-.925-3.441-.524-1.104.381-1.997 1.325-1.938 2.335.047.897.587 1.745 1.562 2.212 1.222.582 2.819.391 3.817-.4zm-5.566 48.887c3.136 0 3.136-3.956 0-3.956s-3.136 3.956 0 3.956m-21.669 23.338c1.527 0 1.527-1.917 0-1.917s-1.527 1.917 0 1.917m28.34 62.91c.411 0 .411-.524 0-.524s-.411.524 0 .524m-28.246-5.92c.458-.276.963-.534 1.327-.887.458-.438.834-.972.81-1.573-.035-.619-.317-1.105-.81-1.573-.364-.352-.869-.6-1.327-.886a4.1 4.1 0 0 0-1.774-.391c-.634 0-1.221.133-1.773.391-1.069.505-1.738 1.458-1.738 2.459s.669 1.955 1.738 2.46a4.14 4.14 0 0 0 1.773.391c.635 0 1.222-.134 1.774-.391m6.565 37.523c3.324 0 3.324-4.185 0-4.185s-3.323 4.185 0 4.185m18.627-.972a11 11 0 0 0-.881-.629c-.693-.449-1.421-.449-2.126 0-.317.2-.599.41-.881.629-.798.629-.998 1.63-.575 2.45.411.782 1.421 1.42 2.525 1.373.963-.038 1.891-.42 2.384-1.106.611-.849.446-2.021-.435-2.717zm18.051-2.326c.235 0 .235-.286 0-.286s-.234.286 0 .286m-53.86 29.21c-.246.248-.505.496-.751.743-.235.239-.505.468-.682.744a3.1 3.1 0 0 0-.387.925c-.2.753-.012 1.506.669 2.069.693.562 1.621.705 2.549.543.282-.048.517-.105.798-.191.482-.162.858-.4 1.257-.677.306-.2.611-.41.916-.61.576-.381.905-1.191.905-1.763 0-.61-.341-1.345-.905-1.764-.587-.439-1.362-.763-2.173-.734-.775.028-1.667.229-2.172.734zm-32.779 27.437c.094.076.258.276.387.305-.047-.048-.082-.095-.129-.143l.141.143c.07.076.141.143.2.219.575.61 1.468.61 2.043 0 .071-.076.141-.143.2-.219.035-.038.07-.076.105-.105.083-.086.047-.048-.094.114.071 0 .329-.257.388-.305.658-.524.822-1.353.47-2.03-.341-.649-1.186-1.173-2.091-1.144-.798.028-1.562.352-1.985.924-.505.706-.364 1.678.365 2.26zm-24.499 19.438-1.339 1.173c-.329.286-.588.791-.388 1.192.106.2.176.39.376.543.2.152.411.219.669.305.494.162 1.104-.048 1.468-.315l1.445-1.086a1.13 1.13 0 0 0 0-1.812c-.611-.457-1.632-.524-2.231 0m22.209-29.725c.082.258.153.525.247.782.258.734 1.021 1.325 1.996 1.325s1.738-.591 1.997-1.325c.094-.257.164-.515.246-.782.376-1.191-.716-2.392-2.243-2.392s-2.619 1.201-2.243 2.392m87.261-65.875c.47-.029.975-.019 1.433-.105.364-.067.693-.2 1.069-.257.857-.134 1.726-.21 2.584-.315.305-.038.305-.467 0-.505-.858-.105-1.739-.181-2.584-.315-.388-.057-.693-.181-1.069-.257-.458-.096-.975-.077-1.433-.105a.944.944 0 0 0 0 1.859m9.291 42.719c-.305.191-.611.372-.916.562h1.621c-1.116-.6-2.608-.581-3.594.22-1.022.829-1.093 2.345 0 3.165.528.391 1.221.686 1.949.658.717-.029 1.457-.22 1.95-.658.94-.839 1.033-1.974.27-2.917v1.315c.235-.248.458-.496.693-.744.364-.39.2-1.086-.223-1.41-.435-.325-1.222-.496-1.738-.182zM71.947 188.977h-.106c.224.029.447.048.67.076a.4.4 0 0 1-.106-.019c.2.067.411.143.61.21-.023 0-.046-.019-.058-.029.176.115.353.22.529.334-.024-.01-.036-.029-.047-.038.14.143.282.286.41.438-.011-.019-.023-.028-.034-.047l.27.524s-.024-.047-.024-.076c.035.2.07.391.094.591v-.086c-.458.648-.916 1.306-1.386 1.954.447-.247.834-.486 1.104-.886.376-.582.505-1.211.294-1.859-.024-.067-.047-.124-.047-.191l.106.639v-.181c0-.668-.294-1.325-.916-1.783l.387 2.441c0-.02.023-.029.035-.048.306-.429.435-1.039.247-1.525-.188-.458-.552-.973-1.116-1.183-.2-.076-.4-.171-.61-.209-.2-.038-.482-.057-.693-.077.223.029.434.048.657.077-.035-.01-.082-.029-.117-.038a2.7 2.7 0 0 0-1.163-.039 2.45 2.45 0 0 0-1.08.277l-.588.372c-.364.295-.61.639-.751 1.039-.141.295-.177.658-.188.953-.059 1.354 1.327 2.593 3.03 2.546-.658-.22-1.315-.439-1.973-.668.493.324.728.496 1.339.639.282.067.575.095.857.095a3.16 3.16 0 0 0 2.478-1.172c.482-.582.423-1.44 0-2.021-.423-.591-1.268-1.02-2.137-.992zm17.617-26.226c.012-.105.024-.2.047-.305 0-.048.012-.105.024-.153 0-.066-.012-.267.011-.047.024.181 0 .066.047-.029l.07-.172c.06-.133.118-.267.165-.391.294-.686-.646-1.458-1.503-1.22-.141.038-.282.086-.435.124l-.211.057c-.094.029-.364.039-.082.058.258.019.07 0 0 0-.059 0-.13.009-.188.019-.141.009-.282.028-.411.038-.447.038-.846.105-1.245.276-.47.2-.81.572-1.01.963a1.73 1.73 0 0 0 .517 2.193c.645.476 1.55.705 2.407.515a2.54 2.54 0 0 0 1.28-.715c.365-.382.458-.735.529-1.221zm-40.378 20.363c-.493-.067-.986-.124-1.468-.191-.67-.086-1.35-.038-1.844.391-.34.305-.552.668-.552 1.087 0 .391.212.81.552 1.087.517.419 1.151.486 1.844.391.493-.067.987-.124 1.468-.191.681-.086 1.245-.753 1.21-1.287-.035-.543-.482-1.192-1.21-1.287m-22.116 8.151c2.303 0 2.315-2.908 0-2.908-2.313 0-2.313 2.908 0 2.908m-6.54 47.266c.023.801-.141 1.888.928 2.308l-.564-.592c.153.382.294.763.446 1.154.224.581 1.222.581 1.457 0 .152-.381.293-.763.446-1.154l-.564.592c1.057-.42.905-1.507.928-2.308.047-1.611-3.124-1.611-3.077 0m12.778 39.306c-.353.058-.752.096-1.093.182-.599.152-1.104.572-1.104 1.106 0 .476.411.867.94 1.048.387.134.845.172 1.256.239 1.034.171 2.09-.382 2.09-1.287 0-.906-1.044-1.469-2.09-1.288m-13.352 37.829c-.024.238-.047.486-.059.724-.012.601.235 1.125.775 1.554.775.61 2.02.61 2.796 0 .54-.419.81-.944.774-1.554a15 15 0 0 0-.058-.724c-.035-.458-.212-.887-.623-1.211-.364-.296-.963-.524-1.491-.505-1.21.047-2.032.753-2.114 1.716m62.269 8.98c.423-.476.787-.934 1.093-1.458.493-.83.857-1.497.634-2.45-.282-1.211-2.044-1.516-3.218-1.059-.88.344-1.292 1.049-1.727 1.707-.387.6-.657 1.211-.927 1.859-.364.867.329 1.821 1.303 2.164a2.59 2.59 0 0 0 2.819-.753zm-79.64-30.468c.353-.086.717-.162 1.07-.258.645-.171 1.209-.677 1.185-1.258-.035-.591-.481-1.077-1.186-1.259-.352-.095-.716-.171-1.069-.257-1.21-.286-2.442.505-2.442 1.516 0 1.01 1.233 1.802 2.442 1.516m29.49 55.77c2.854 0 2.866-3.604 0-3.604s-2.866 3.604 0 3.604m99.36 25.902c.388.086.763.172 1.151.248.693.133 1.503.305 2.055-.181.376-.324.482-.744.376-1.173-.035-.152-.094-.295-.141-.448-.094-.334-.211-.658-.317-.982-.505-1.497-2.901-2.012-4.251-.915s-.729 3.041 1.127 3.451m-35.105 10.058c.094-.134.188-.267.27-.41.176-.296.305-.563.352-.887.024-.162.047-.296.06-.448-.036.191-.06.372-.095.563 0-.029.012-.058.024-.096l-.259.496c.106-.153.212-.296.317-.448.47-.725.423-1.735-.364-2.317-.798-.591-1.902-.715-2.854-.295-.187.076-.364.171-.552.257l.611-.21s-.07.01-.117.019c.235-.028.458-.047.693-.076-.6.029-1.093.115-1.645.343-.164.067-.34.143-.505.22-1.69.753-1.926 2.717-.599 3.794 1.316 1.068 3.747.887 4.675-.486zm9.818-25.045c.118-.314.247-.638.376-.962-.094.181-.188.371-.293.553.035-.058.082-.105.129-.153.27-.381.411-.791.411-1.23s-.141-.848-.411-1.23c-.529-.743-1.539-1.21-2.596-1.21s-2.055.467-2.595 1.21c-.27.382-.411.792-.411 1.23 0 .439.141.849.411 1.23.047.048.094.095.129.153-.094-.182-.188-.372-.294-.553.118.324.247.638.364.962.318.811 1.281 1.516 2.385 1.469 1.115-.038 2.043-.601 2.384-1.469zM220.998 23.144c-.282-.076-.564-.143-.846-.219-1.808-.467-3.394 1.154-2.689 2.498.646 1.23 3.3 1.668 4.064.219.399-.763.399-1.096 0-1.869-.752-1.44-3.418-1.01-4.064.22-.693 1.344.881 2.965 2.689 2.498.282-.077.564-.143.846-.22 1.903-.486 1.903-2.65 0-3.136zm-88.143 35.064c1.257-.581 3.265-1.144 3.406-2.498.024-.257-.188-.505-.446-.629-.764-.381-1.68-.181-2.419.086-.717.257-1.445.524-2.161.782-.799.286-.987 1.23-.576 1.792.446.62 1.445.82 2.208.467zM244.98 2.81c-.188.18-.258.095.2-.105.141-.048.27-.086.411-.134-.164.038-.106.029.141 0 .47-.047.164-.019.047-.019.34-.01.634.076.892.258.611.305.576.267-.082-.115-.07-.028-.129-.066-.199-.095-.247-.095.505.39.258.172-.258-.239.364.476.188.2.047.076.235.59.153.238.035.19.058.381.093.572-.011-.124 0-.248 0-.372-.035.19-.058.382-.093.572.023-.105.117-.305-.071.048-.117.2-.141.248-.082.162.106-.143 0-.048-.282.276.27-.295.517-.552.658-.915.094-.219.094-.486.094-.724-.353.505-.717 1.01-1.069 1.525.411-.22-.423.095-.106.01.059-.02.118-.029.165-.038-.529.057-.482.057.164-.02.576-.2.623-.219.141-.047.176-.038.082-.029-.258.019.164 0 .094-.01-.224-.038q.211.043-.14-.058c.716.286 1.902.096 2.055-.676.117-.63-.012-1.173-.493-1.678-.541-.572-1.515-.83-2.396-.772.364.076.728.162 1.092.238-1.703-.963-3.817.095-4.369 1.525-.388 1.001.047 2.098.963 2.813a4.1 4.1 0 0 0 2.478.848c.259-.019.505-.048.752-.086q-.757.057-.388.057c.47.067 1.339-.19 1.727-.371a3.2 3.2 0 0 0 1.221-.992c.587-.81.305-1.868-.599-2.44-.857-.534-2.302-.572-3.053.143zM391.435 44.7c.411.19.364.41.329.6a1.5 1.5 0 0 1-.129.372c.105-.22-.118.162-.141.19-.212.239.164-.028-.153.134.305-.153-.071.019-.176.057l1.069-.238c-.412.019.387.152.422.152-.282-.019-.599-.2-.881-.267-.387-.086-.199-.086.036.038.282.191.34.239.199.124s-.094-.057.141.181c-.141-.21-.293-.448-.458-.648.353.42.106.153.012-.038-.188-.41-.399-.763-.822-1.058.223.314.446.62.669.934.176.486 0 0 .024-.21-.035.315 0 .21.07-.038a3.3 3.3 0 0 0 .094-.59c0-.144 0-.087-.023.17.199-.371-.376.344 0 .03 1.127-.925.211-2.26-1.222-2.384-1.021-.086-2.196.248-2.924.849-.893.724-.987 1.782-1.151 2.736l.352-1.068c-1.256 1.554.141 3.775 1.903 4.614.916.439 2.137.648 3.171.439.387-.077.716-.239 1.045-.42.857-.477-.493.334.247-.172.164-.114.317-.21.458-.343l.34-.362c-.129.172-.152.2-.035.105 2.067-1.792 1.903-5.291-1.362-6.092-1.597-.39-2.572 1.506-1.128 2.183zM363.4 59.533c1.116 1.344 2.972 2.04 4.945 1.592 1.28-.295 2.795-1.506 2.76-2.698-.024-.696-.975-.944-1.586-.534-.117.077-.634.258-.693.334-.059.086-.011.048.235.105-.27-.057-.54-.162-.81-.22-.047-.009-.529-.133-.317-.066.211.067-.247-.105-.294-.114-.411-.163.106.18-.188-.096.247.239-.023-.066-.082-.171-1.245-2.155-5.626-.134-3.958 1.878zm65.466-2.736-.917-.057c-2.854-.172-2.854 3.765 0 3.594l.917-.057c2.759-.162 2.771-3.328 0-3.49zm18.003.829a2.65 2.65 0 0 0-1.667.935c-.165.19-.364.457-.388.686-.059.134-.035.124.059-.038-.047.095-.106.2-.153.295-.106.277-.094.525-.024.81.294 1.078 1.61 2.194 3.007 1.498.423-.21.599-.677.329-1.03-.106-.133.07.162-.023-.086a1.03 1.03 0 0 0-.341-.477c.023.03.059.058.082.086-.07-.114-.07-.095 0 .038a1 1 0 0 1-.047-.171c.024.171.035.19.024.047V60.2c0 .305.047-.743-.036-.686-.035.41-.023.505.024.296.047-.105.035-.115 0-.03-.047.125.258-.161-.024 0 .271-.17-.422.115-.058.03.728-.172 1.174-.801.975-1.392-.212-.639-.975-.896-1.715-.792z" opacity=".55" fill="#F9E3A2"/></svg>