<svg width="489" height="466" viewBox="0 0 489 466" fill="none" xmlns="http://www.w3.org/2000/svg"><path d="M145.703 353.343c.235-.401.282-.496.153-.296.352-.343.434-.429.246-.267.459-.266.564-.333.317-.219.529-.162.658-.21.388-.133-.434.095.893 0 .223-.029-.305-.009-.152 0 .447.057 1.021.591 1.35.744.974.467.306.592.611 1.192.916 1.783-.129-1.068-.61-1.84-1.738-2.44-1.456-.773-3.723-.277-4.533.963-.799 1.22-.458 3.002 1.186 3.679l.094.039c.975.4 2.372.581 3.335 0 .036-.02.071-.039.106-.067-.528.114-1.045.229-1.574.343.306-.029.611-.057.916-.095-.634.038-.798.066-.481.076.117 0 .223 0 .34-.019.74-.048 1.41-.172 2.068-.477.963-.438 1.855-1.258 2.02-2.173.117-.63.129-1.192-.282-1.764-.341-.477-1.01-.925-1.68-1.049-1.527-.286-2.995.372-3.464 1.592zm.071-22.365-.177-1.249c-.058-.439-.176-.801-.575-1.125a2.23 2.23 0 0 0-1.386-.467c-.505.019-1.033.152-1.386.467-.376.334-.516.677-.575 1.125-.059.419-.118.829-.176 1.249-.059.41.281.944.622 1.23.376.305.975.524 1.515.505.552-.019 1.128-.172 1.515-.505.352-.315.693-.782.623-1.23M125.89 307.02c.423-.085.869-.152 1.257-.333.34-.162.563-.372.822-.601.54-.477.54-1.172 0-1.649-.259-.229-.482-.439-.822-.601-.388-.181-.834-.248-1.257-.333-1.41-.286-2.83.562-2.83 1.754s1.432 2.04 2.83 1.754zm-1.034-84.656c-.235-.105-.469-.2-.704-.305-5.379-2.317-5.379 6.33 0 4.014.235-.105.469-.201.704-.305 1.586-.687 1.586-2.736 0-3.413zm-19.085 43.653.141-1.144c-.023.162-.058.334-.082.496.012-.028.024-.067.035-.095.435-1.182-.763-2.384-2.243-2.384s-2.666 1.211-2.243 2.384c0 .028.023.067.035.095-.023-.162-.059-.324-.082-.496l.141 1.144c.059.477.199.887.634 1.23.376.305.987.534 1.515.515.552-.019 1.128-.172 1.515-.515.411-.362.576-.753.634-1.23m-31.909 17.399.575.438c.482.353 1.022.572 1.68.544-.306-.067-.6-.134-.905-.2.282.123.576.276.893.333.293.057.552.048.846.019.669-.066 1.068-.381 1.15-.934.036-.238.06-.439-.023-.686-.094-.258-.258-.487-.411-.725.082.248.164.486.246.734.036-.543-.234-.963-.669-1.363a11 11 0 0 0-.54-.467c-.717-.63-2.126-.63-2.842 0-.717.629-.822 1.687 0 2.307m23.548-38.677c-.506.448-.999.896-1.504 1.335-.564.505-.658 1.363 0 1.849a1.93 1.93 0 0 0 2.279 0l1.644-1.22a1.227 1.227 0 0 0 0-1.974c-.658-.495-1.785-.572-2.431 0zm1.902-16.607c.505.314 1.022.62 1.527.934.564.343 1.55.191 2.008-.21.188-.171.341-.371.423-.591.117-.286.059-.781-.165-1.029-.387-.41-.763-.83-1.15-1.24-.412-.438-.94-.8-1.668-.781-.517.019-.998.162-1.363.457-.352.286-.563.706-.563 1.106 0 .601.399 1.011.963 1.354zm29.573 49.669c.141-.134.27-.277.411-.41 1.21-1.211 1.221-2.555 0-3.785-.141-.134-.27-.276-.411-.41-2.29-2.288-6.847-.314-6.847 2.307s4.568 4.586 6.847 2.307zm25.803 19.858c.223.581.375 1.182.904 1.649.693.61 2.043.61 2.748 0 .529-.458.693-1.058.905-1.649.446-1.202-.776-2.431-2.279-2.431s-2.725 1.229-2.278 2.431m2.29 18.618c2.443 0 2.443-3.079 0-3.079s-2.443 3.079 0 3.079m-2.748 10.639c-.024-.314-.035-.629-.071-.934-.058-.477-.211-.896-.634-1.249a2.5 2.5 0 0 0-1.538-.514c-.564.019-1.151.171-1.539.514a1.8 1.8 0 0 0-.634 1.249c-.035.315-.047.629-.071.934-.07.963 1.093 1.879 2.255 1.831 1.163-.038 2.337-.811 2.255-1.831zm-20.6-3.956c2.302 0 2.313-2.908 0-2.908s-2.314 2.908 0 2.908m13.353-6.864-.047-.677c0-.105 0-.209-.023-.314-.024-.305-.106-.515-.271-.792-.493-.829-2.196-.829-2.689 0a1.76 1.76 0 0 0-.27.744c-.012.124-.012.248-.024.362l-.047.677c-.047.715.811 1.402 1.68 1.363.869-.028 1.738-.6 1.679-1.363zm-3.347-15.806c.693 0 .693-.877 0-.877s-.693.877 0 .877m9.948 48.668c.105.286.199.581.328.867.2.448.74.973 1.41.944.599-.019 1.104-.372 1.327-.801.164-.324.27-.667.399-1.001.341-.906-.587-1.84-1.726-1.84s-2.067.934-1.727 1.84zm-26.93 35.902-.905.763a7 7 0 0 0-.575.534 2 2 0 0 0-.588 1.354c-.011.228.071.467.118.695.117.63 1.01 1.354 1.785 1.45.27.028.552.076.822.085a3.2 3.2 0 0 0 1.433-.305c.352-.162.646-.419.94-.648l.939-.734c1.057-.82 1.092-2.393 0-3.203-.528-.401-1.233-.696-1.973-.668-.728.029-1.456.229-1.973.668zm3.64 19.429c.364 0 .364-.467 0-.467s-.364.467 0 .467m2.067 12.546c.212.353.435.696.646 1.049.235.381.998.381 1.233 0 .212-.353.435-.696.646-1.049.494-.791-.105-1.792-1.268-1.792s-1.762 1.001-1.269 1.792zm1.222 17.322c-1.187-.057-2.02.801-2.044 1.697-.035.972 1.08 2.193 2.408 1.573.387-.181.693-.534.693-.906 0-.19-.083-.257-.153-.429.082.182.129.201.141.42 0-.105-.012-.019-.047.248.023-.105.047-.21.047-.315 0-.343-.176-.534-.411-.801.317.363.176.172.117.105.165.181.141.286.094.153-.047-.162 0 .372.024.133v-.105c.011.315-.047.296 0 .143.047-.162-.177.305-.083.162.106-.143-.305.277-.117.124q-.406.229-.211.143c-.306.096-.4.124-.259.096-.129.019-.27.028-.399.047h.117c-.141-.019-.27-.028-.411-.047a.2.2 0 0 1 .083.009c.904.172 1.796-.276 1.926-1.039.129-.772-.588-1.373-1.515-1.42zm-11.346 28.095c.036.362.071.724.13 1.077.082.496.61 1.001 1.268 1.001.611 0 1.081-.429 1.245-.867.082-.201.07-.477.094-.696.023-.172.035-.343.059-.525.058-.591-.693-1.163-1.398-1.134s-1.468.505-1.398 1.134zm15.726-55.236c-.305.476-.599.963-.904 1.439-.153.239-.305.477-.446.715-.282.477-.399.877-.493 1.402-.118.772.716 1.554 1.515 1.821.916.314 1.961.143 2.689-.41.928-.715 1.456-1.964 2.032-2.889.599-.963.352-2.278-.916-2.822-1.163-.496-2.842-.286-3.477.744m22.08-30.688c.024-.076.035-.143.059-.219-.071.143-.141.286-.223.419.059-.076.117-.143.176-.219.305-.372.305-.973 0-1.354-.059-.076-.117-.143-.176-.219.07.143.141.286.223.419a2.6 2.6 0 0 0-.881-1.363c-.552-.448-1.456-.791-2.255-.763-1.597.058-2.912.935-3.136 2.241-.094.591.036 1.125.376 1.649.352.534 1.175 1.058 1.903 1.192.81.152 1.726.114 2.454-.258.67-.352 1.292-.886 1.469-1.544zm30.043-7.455c.059.619.035 1.296.399 1.859.588.924 2.42.924 3.007 0 .364-.563.341-1.23.399-1.859.083-.801-.928-1.573-1.902-1.545-.963.038-1.985.677-1.903 1.545m-6.354-23.071c-.27-.238-.529-.477-.787-.715-.458-.429-1.468-.429-1.926 0-.259.238-.517.477-.787.715-.681.601-.904 1.43-.517 2.193.364.705 1.28 1.268 2.255 1.23.857-.029 1.691-.382 2.138-.992.575-.801.352-1.773-.388-2.431zm2.912-79.785.036.744c.094 2.059 3.852 2.059 3.946 0 0-.248.023-.496.035-.744.094-2.097-4.111-2.097-4.017 0m15.339-65.494-1.539.057c-1.174.048-2.313.811-2.254 1.831.058 1.029.986 1.783 2.254 1.83l1.539.057c1.221.048 2.384-.905 2.325-1.887s-1.021-1.935-2.325-1.888m-6.941-18.409c-.047-.305-.059-.658-.164-.953-.094-.267-.294-.524-.47-.763-.317-.476-1.222-.476-1.55 0-.165.248-.376.496-.47.763-.106.295-.106.648-.165.953-.094.591.705 1.163 1.398 1.135.681-.029 1.492-.506 1.398-1.135zm-4.886-21.65c0 .953-.117 1.926.294 2.841.54 1.22 2.537 1.23 3.077 0 .399-.915.294-1.888.294-2.841 0-1.907-3.653-1.907-3.653 0zm16.349 31.127c.023.667-.047 1.391.376 1.982.775 1.078 2.759 1.078 3.546 0 .435-.6.353-1.315.376-1.982.035-.916-1.01-1.783-2.149-1.745s-2.185.763-2.149 1.745m10.711-20.297c.035-.257.07-.477.023-.734-.047-.258-.141-.458-.235-.686a1.79 1.79 0 0 0-1.691-1.049c-.81.028-1.433.429-1.691 1.049-.094.228-.2.448-.235.686-.047.257 0 .477.024.734.058.419.176.782.552 1.087.328.267.869.467 1.338.448.494-.019.999-.153 1.339-.448.364-.324.494-.658.552-1.087zm1.445-4.719c1.104 0 1.104-1.392 0-1.392s-1.104 1.392 0 1.392m-13.096 60.403-.845.744c-.13.114-.271.229-.4.353-.387.371-.599.762-.622 1.258-.047.772.869 1.506 1.808 1.468.517-.019.952-.133 1.363-.381.223-.143.423-.296.634-.448l.916-.687a1.435 1.435 0 0 0 0-2.307c-.775-.581-2.079-.667-2.842 0zm-15.244-119.71c1.48 0 1.48-1.859 0-1.859s-1.48 1.859 0 1.859m-1.668 21.259c2.995 0 3.007-3.775 0-3.775s-3.007 3.775 0 3.775m-2.384 13.309c.423-1.926 1.996-5.31-.423-6.702-.411-.238-.963-.162-1.374 0-1.269.505-1.445 1.764-1.597 2.793-.177 1.154.058 2.383.082 3.537.035 1.478 2.959 1.935 3.312.362zm2.384-29.411c3.23 0 3.23-4.07 0-4.07s-3.23 4.07 0 4.07m-9.384-5.433c.611-.515 1.21-.906 1.562-1.583.118-.219.223-.41.27-.648.047-.258-.07-.487-.094-.734-.023-.239 0-.496-.117-.734-.2-.401-.611-.62-1.151-.525-.317.057-.517.21-.775.324-.165.077-.423.105-.599.191-.317.153-.529.381-.728.62-.517.629-.599 1.249-.775 1.964-.271 1.086 1.338 2.011 2.395 1.134zm16.642-20.955c.024.277.035.553.059.83.035.39.188.638.505.934.247.229.775.229 1.01 0 .317-.296.47-.534.505-.934.023-.277.035-.553.059-.83.035-.457-.517-.896-1.069-.867-.552.019-1.104.381-1.069.867m-49.386 68.135c.047.277.07.543.211.801.224.429.541.724 1.01 1.001.447.276 1.339.276 1.786 0 .458-.277.786-.582 1.01-1.001.129-.258.164-.524.211-.801a1.44 1.44 0 0 0 0-.944 1.7 1.7 0 0 0-.564-.782 2.58 2.58 0 0 0-1.55-.514c-.564 0-1.151.2-1.55.514-.27.22-.458.487-.564.782a1.44 1.44 0 0 0 0 .944m-3.018 41.88c.106.419.164.906.446 1.278.634.819 2.056.819 2.69 0 .293-.372.34-.859.446-1.278.247-.953-.54-1.916-1.797-1.916-.481 0-.975.171-1.315.438-.493.401-.611.935-.482 1.468zm106.382 13.166c-.352.047-.752.076-1.104.152-.611.153-1.186.61-1.163 1.163.024.505.411.906.975 1.097.388.133.858.162 1.28.219.588.086 1.21.028 1.633-.353.305-.267.493-.601.493-.963 0-.353-.188-.715-.493-.963-.458-.371-1.034-.438-1.633-.352zm-11.227 46.751c3.37 0 3.37-4.242 0-4.242s-3.371 4.242 0 4.242m-9.842 35.769.07 1.249c.035.61.634 1.192 1.433 1.163.81-.028 1.398-.514 1.433-1.163l.07-1.249c.036-.638-.716-1.248-1.503-1.22s-1.539.534-1.503 1.22m-11.146-12.87.74-.085c.575-.067 1.08-.248 1.491-.601.881-.734.881-1.926 0-2.66-.411-.343-.927-.534-1.491-.6l-.74-.086a3.3 3.3 0 0 0-1.374 0 2.8 2.8 0 0 0-1.139.534c-.458.41-.752.915-.752 1.477 0 .534.294 1.097.752 1.478.317.257.704.438 1.139.534q.687.143 1.374 0zm.986 44.264c2.584 0 2.584-3.261 0-3.261s-2.584 3.261 0 3.261m-2.783 7.302c-.588.725-1.163 1.449-1.75 2.164-.576.706-1.139 1.316-1.374 2.145-.118.41.458.858.951.591.881-.486 1.374-1.115 1.997-1.82.657-.744 1.315-1.488 1.973-2.241.775-.877-1.057-1.763-1.797-.848zm-11.275 16.789c.023.448-.012.943.117 1.382.153.476 1.046.476 1.198 0 .13-.439.094-.934.118-1.382.047-.744-1.48-.754-1.433 0m-9.854 39.239v.782c0 .276.094.486.235.734.118.209.564.209.681 0 .141-.248.235-.458.235-.734v-.782c0-.601-1.151-.601-1.151 0m-12.449 23.747c-.376.63-.693 1.287-1.198 1.859-.199.229-.528.468-.704.706-.282.391-.388.877-.552 1.306-.341.915.411 1.935 1.526 2.183 1.222.267 2.291-.334 2.69-1.239.129-.277.293-.572.387-.868.118-.41.012-.791.024-1.201.023-.629.223-1.258.364-1.878.282-1.173-1.82-2.107-2.549-.877zm-13.659 29.42c2.76 0 2.772-3.489 0-3.489s-2.772 3.489 0 3.489m2.913 20.287c-.669 1.097-1.585 2.231-1.762 3.442-.094.667.623 1.344 1.316 1.582.81.277 1.691.124 2.337-.362.54-.41.822-.963 1.151-1.478.282-.448.575-.896.857-1.344.541-.848.306-2.03-.81-2.507-1.022-.439-2.525-.257-3.089.658zm113.793-378.55c3.324 0 3.324-4.185 0-4.185s-3.324 4.185 0 4.185m1.468 13.976c-.54.467-1.08.934-1.62 1.392-.188.162.105.4.305.248.575-.44 1.151-.878 1.715-1.316.27-.21-.153-.544-.411-.334zm-5.52 9.638v.782c0 .305.106.514.282.781.188.267.681.267.869 0 .188-.257.282-.467.282-.781v-.782c0-.744-1.433-.753-1.433 0m-8.056 10.353c-.564 1.487-1.938 3.575-.553 4.967.188.191.599.267.87.191 2.055-.572 2.243-3.003 2.713-4.471.516-1.602-2.455-2.25-3.042-.677zm-9.655 21.355c-.364.534-.787 1.058-1.068 1.63s-.67 1.22-.365 1.83c.259.515.905.992 1.668.773 1.574-.458 1.973-2.155 2.443-3.318.528-1.287-1.879-2.088-2.69-.915zm6.601-33.548c.27.334.54.648.834.953.564.591 1.421.591 1.985 0 .293-.314.575-.629.833-.953.893-1.106-.281-2.584-1.82-2.584-1.538 0-2.713 1.478-1.82 2.584zm30.16-22.098c2.807 0 2.819-3.547 0-3.547s-2.819 3.547 0 3.547m-32.627 162.725c.54-.058.94-.124 1.457-.334.822-.343 1.397-1.001 1.397-1.764s-.587-1.43-1.397-1.764c-.318-.133-.611-.238-.963-.276l-.494-.057a3.3 3.3 0 0 0-1.433 0 2.84 2.84 0 0 0-1.186.562c-.481.429-.787.954-.787 1.545 0 .562.306 1.144.787 1.544a2.96 2.96 0 0 0 1.186.563 3.3 3.3 0 0 0 1.433 0zm-7.54 7.369.071 1.144c.047.743.775 1.468 1.762 1.43.986-.038 1.714-.629 1.761-1.43l.071-1.144c.047-.772-.869-1.516-1.832-1.487-.952.038-1.879.648-1.833 1.487m-9.841 14.815c2.031 0 2.031-2.555 0-2.555s-2.032 2.555 0 2.555m2.231-24.616c-.294-.038-.587-.066-.881-.104-3.676-.439-3.7 4.013 0 3.575.294-.039.587-.067.881-.105 2.055-.239 2.055-3.118 0-3.366m-1.351 57.715c.059.229.106.458.165.696.058.239.106.401.282.649.246.333.563.514.939.743.541.324 1.598.324 2.138 0 .364-.219.716-.4.939-.743.13-.2.235-.42.282-.649.059-.228.106-.457.165-.696.164-.715.047-1.487-.658-2.011a2.95 2.95 0 0 0-1.797-.601c-.658 0-1.339.229-1.797.601-.681.553-.822 1.268-.658 2.011m6.425 19.22c-.2-.029-.411-.067-.611-.096l1.762 1.43a3.4 3.4 0 0 0-.975-1.468c-.587-.524-1.621-.839-2.478-.839s-1.844.315-2.478.839c-.611.496-1.069 1.306-1.034 2.012.035.734.341 1.496 1.034 2.011.669.496 1.55.868 2.478.839.787-.028 1.491-.219 2.126-.61.716-.448 1.092-.991 1.327-1.697l-1.762 1.43c.2-.028.411-.067.611-.095.505-.076.951-.382 1.245-.696.317-.324.54-.753.516-1.182a2.03 2.03 0 0 0-.328-.982c-.259-.391-.893-.81-1.433-.896m-14.493 27.599c.012.238.035.486.047.724 0 .105 0 .21.024.315.047.515.246.887.681 1.268.728.639 2.137.639 2.865 0 .447-.381.635-.753.682-1.268 0-.105.011-.21.023-.315.012-.238.035-.486.047-.724.059-.925-1.045-1.812-2.184-1.773-1.128.038-2.244.781-2.185 1.773m-6.131 9.466c.047.611.094 1.135.364 1.707.212.438.212.944.576 1.344a.945.945 0 0 0 1.421 0c.352-.391.364-.906.575-1.344.271-.563.318-1.096.365-1.707.129-1.725-3.418-1.725-3.301 0m-11.404 25.407c-.563 1.373-1.315 2.908-1.15 4.366.07.553.916.982 1.468.496 1.291-1.144 1.843-2.793 2.442-4.243.588-1.42-2.184-2.03-2.76-.619m-10.288 56.838c1.656 0 1.668-2.098 0-2.098s-1.668 2.098 0 2.098m-10.453 20.611c.024.619-.047 1.325.4 1.849.411.477.974.801 1.714.801s1.304-.324 1.715-.801c.446-.524.376-1.239.399-1.849.035-.897-.998-1.754-2.114-1.716s-2.149.753-2.114 1.716m15.973-17.942c-.235-.238-.623-.372-.987-.381-.422 0-.728.143-1.045.343.27-.096.552-.181.822-.277-.74.039-1.198.372-1.409.925a1.8 1.8 0 0 0-.118.591c0 .591.623 1.221 1.351 1.364.529.095 1.151-.058 1.421-.468q.16-.243.176-.514c.012-.286-.164-.506-.364-.725.165.162.176.172.27.372-.023-.057-.035-.181 0 .057.036.248.012.038.024-.029-.012.105-.035.201-.047.305.047-.266.07-.457-.024-.724-.023-.067-.058-.267-.023-.019s.012.047.012-.019c-.012-.343-.153-.582-.435-.839.106.305.2.62.305.925l.024-.086s-.129.229-.082.162a.6.6 0 0 1-.212.19.7.7 0 0 1-.34.115c-.212.019-.036 0 .035.019.364.038.728-.219.846-.467.152-.296.046-.582-.188-.83zm-7.188-12.041c3.97 0 3.97-5.005 0-5.005s-3.97 5.005 0 5.005m15.749 11.869c.564-.114 1.116-.257 1.621-.505 1.551-.782 1.551-2.574 0-3.356-.505-.257-1.057-.39-1.621-.505-1.749-.372-3.535.706-3.535 2.183 0 1.478 1.786 2.555 3.535 2.183m17.124-10.01c.458-.171.998-.324 1.339-.638.658-.62.669-1.411 0-2.031-.341-.315-.881-.467-1.339-.639-.787-.295-1.597-.371-2.384 0-.716.344-1.175.982-1.175 1.659s.447 1.316 1.175 1.659c.787.372 1.597.295 2.384 0zm63.022-161.19c-.294-.4-.576-.8-1.046-1.096-.387-.248-1.01-.496-1.491-.477-.423.019-.869.153-1.245.325-.611.276-.951.781-1.292 1.248-1.128 1.564.317 3.585 2.537 3.585s3.664-2.031 2.537-3.585m5.802-8.732c.152-.019.305-.038.458-.038-.2-.019-.4-.048-.599-.067.552.067 1.045.124 1.585-.048h-.857c.446.096.822.172 1.292.105.364-.048.751-.372.822-.667.082-.382-.012-.687-.129-1.049v.696c.211-.439.141-.839.058-1.287.024.162.059.324.082.486 0-.124.024-.248.048-.372-.036-.2-.071-.4-.094-.591-.094-.181-.188-.352-.282-.533-.282-.429-.787-.735-1.316-.916-.975-.333-2.266-.2-3.018.467-.658.582-.975 1.402-.705 2.174.165.467.517.868.987 1.163.434.277 1.092.534 1.668.477m14.258 6.654c-.118-.41-.235-.763-.482-1.153-.411-.649-1.198-1.106-2.114-1.106s-1.715.467-2.114 1.106c-.235.381-.352.743-.482 1.153-.411 1.373.811 2.765 2.596 2.765s2.995-1.392 2.596-2.765m12.695-7.97c.047-.086.094-.162.141-.248l-.869.706c.811-.372 1.292-.992 1.409-1.726.083-.515-.046-.915-.317-1.382-.047-.086-.093-.162-.14-.248-.776-1.335-3.559-1.335-4.334 0-.047.086-.094.162-.141.248-.259.458-.4.877-.317 1.382.117.734.599 1.344 1.409 1.726l-.869-.706c.047.086.094.162.141.248.693 1.201 3.194 1.201 3.899 0zm-25.356 53.149c.117-.086.317-.191.399-.296-.059.038-.117.067-.176.105l.176-.114c.094-.058.176-.115.27-.163.752-.467.752-1.191 0-1.658-.094-.057-.176-.115-.27-.162-.047-.029-.094-.058-.129-.086-.106-.067-.059-.038.129.076-.035-.086-.317-.238-.399-.295a2.69 2.69 0 0 0-2.467-.382c-.786.267-1.432.944-1.386 1.678.036.639.423 1.249 1.116 1.583.893.429 1.985.267 2.737-.286m-11.604-11.526c3.089 0 3.089-3.899 0-3.899s-3.089 3.899 0 3.899m-9.994 65.132c3.37 0 3.37-4.243 0-4.243s-3.371 4.243 0 4.243m15.972-4.834c-.834-.333-1.75-.41-2.584-.019-.599.277-1.033.782-1.209 1.316-.294.905.364 1.907 1.503 2.145h.012l-1.363-1.106c.153.372.341.677.67.972.329.296.916.591 1.433.544.422-.038.833-.115 1.127-.382.27-.238.517-.581.47-.915-.047-.352-.059-.381-.235-.696.059.105.106.21.164.315-.011-.029-.023-.057-.023-.086.023.124.035.239.059.362v-.162a4 4 0 0 0-.059.382 1 1 0 0 1 .082-.229c-.059.124-.129.248-.188.362a.4.4 0 0 1 .059-.095c-.564.257-1.116.524-1.68.782h.036c.188-.02.375-.039.575-.058.282-.057.529-.162.728-.314.388-.248.599-.525.775-.906 0-.019.012-.029.024-.048-.07.143-.141.277-.211.42.023-.038.047-.076.07-.105l-.341.353s.047-.048.071-.067c-.141.095-.294.181-.435.277a.3.3 0 0 0 .071-.039c-.176.058-.341.115-.517.181a.2.2 0 0 0 .07-.019c-.187.02-.387.039-.575.067h.106c-.188-.019-.388-.038-.576-.067.035 0 .059.01.094.019a8 8 0 0 1-.517-.181c.036.01.071.029.106.048.482.238 1.151.296 1.68.181.505-.114 1.057-.429 1.303-.81.27-.41.399-.906.223-1.364-.164-.419-.493-.857-.998-1.058m-20.036 25.874.282 1.287c.082.362.822.362.892 0l.282-1.287c.082-.381-.199-.772-.728-.772s-.81.391-.728.772m-15.95 15.234c2.948 0 2.96-3.718 0-3.718s-2.959 3.718 0 3.718m-9.877 3.556c-.082-.562-.082-1.192-.411-1.697-.563-.839-2.184-.839-2.76 0-.34.496-.328 1.135-.411 1.697-.047.343.235.791.529 1.03.305.248.822.438 1.268.429.881-.029 1.903-.649 1.785-1.449zm8.774-36.827c.305-.324.611-.639.916-.963.845-.887.34-2.24-.47-2.984-.012-.019-.035-.029-.047-.048.27.534.552 1.077.822 1.611l-.035.21.106-.286c.117-.4.176-.791.035-1.192-.106-.314-.305-.61-.458-.905-.329-.601-1.316-.792-2.02-.668-.423.077-.881.143-1.257.334-.587.305-.951.782-1.362 1.23l.963-.782c-.059.029-.118.057-.176.096l1.421-.315h-.118c-1.327-.095-2.584.839-2.924 1.811-.141.382-.27.763-.411 1.144-.388 1.078.364 2.222 1.597 2.641 1.374.467 2.596-.019 3.441-.915zm64.454-21.222c.235 0 .235-.295 0-.295s-.235.295 0 .295m24.006-65.713-1.092-.172c.54.344 1.092.677 1.632 1.021-.035-.048-.07-.086-.106-.134a3.04 3.04 0 0 0-1.456-1.01c-.599-.21-1.35-.296-1.985-.124l-.117.028c-1.222.324-2.267 1.249-2.208 2.355.059 1.115.904 2.002 2.208 2.355l.117.028.811.086c.422.01.81-.057 1.174-.21.623-.219 1.081-.543 1.456-1.01.036-.048.071-.086.106-.134-.54.344-1.092.677-1.632 1.02l1.092-.171c.2-.067.399-.134.599-.21.293-.124.528-.305.705-.524.328-.343.563-.792.54-1.23a2.1 2.1 0 0 0-.341-1.03c-.27-.41-.928-.848-1.503-.934m-20.166 12.384.576.438c.164.124.329.258.517.353.141.076.281.124.446.143.106.019.07.01-.094-.019-.059.048.763.296.552.248.247.057.587.057.834 0 .176-.038.481-.153.622-.258.141-.104.282-.371.317-.505.059-.209.071-.476 0-.677 0-.028-.293-.457-.305-.448 0 .038.024.077.024.124a.8.8 0 0 0-.188-.4 2.6 2.6 0 0 0-.388-.381l-.587-.506c-.587-.515-1.738-.524-2.326 0-.587.525-.669 1.383 0 1.888m14.681-18.39c.552-.381 1.175-.867 1.175-1.497 0-.629-.623-1.115-1.175-1.496-.81-.563-1.844-.782-2.854-.439-.916.315-1.656 1.096-1.609 1.935.035.744.493 1.449 1.292 1.831.505.238 1.092.314 1.668.248.599-.067 1.033-.258 1.503-.582m28.164 26.388c3.453 0 3.464-4.356 0-4.356s-3.465 4.356 0 4.356m-20.001 20.211c3.323 0 3.323-4.185 0-4.185s-3.324 4.185 0 4.185m-7.693 7.903c-.587.477-1.198.935-1.762 1.43-.552.486-.857 1.173-1.221 1.764-.306.505.305 1.01.928.753.728-.295 1.562-.543 2.172-.991.611-.458 1.175-.954 1.762-1.43 1.21-.982-.669-2.498-1.879-1.526m96.881-104.485c-.071-.01-.129-.029-.2-.038.188.066.388.133.576.2-.141-.048-.258-.134-.388-.2-.458-.248-1.198-.248-1.667 0-.118.066-.247.143-.388.2.188-.067.388-.134.575-.2-.34.066-.599.133-.951.295-1.75.83-2.079 2.851-.634 4.023 1.444 1.173 3.993.954 4.956-.515.399-.61.552-1.296.317-1.973-.282-.848-1.139-1.563-2.196-1.783zm-30.841-90.11c3.406 0 3.417-4.299 0-4.299-3.418 0-3.418 4.299 0 4.299m38.909-13.88c.13-.105.259-.21.388-.305-.176.114-.352.219-.529.333.235-.152.541-.305.752-.467.446-.362.705-.858.705-1.363s-.259-1.01-.705-1.363c-.2-.162-.505-.315-.752-.467.177.114.353.219.529.333a11 11 0 0 0-.388-.305c-.916-.724-2.278-.924-3.441-.524-1.104.381-1.996 1.325-1.938 2.336.047.896.588 1.744 1.562 2.211 1.222.582 2.819.391 3.817-.4zm-5.566 48.887c3.135 0 3.135-3.956 0-3.956-3.136 0-3.136 3.956 0 3.956m-21.669 23.347c1.527 0 1.527-1.916 0-1.916s-1.527 1.916 0 1.916m28.339 62.901c.411 0 .411-.524 0-.524s-.411.524 0 .524m-28.245-5.92c.458-.277.963-.534 1.327-.887.458-.438.834-.972.81-1.573-.035-.619-.317-1.106-.81-1.573-.364-.352-.869-.6-1.327-.886a4.1 4.1 0 0 0-1.774-.391c-.634 0-1.221.133-1.773.391-1.069.505-1.739 1.458-1.739 2.459s.67 1.955 1.739 2.46a4.14 4.14 0 0 0 1.773.391c.634 0 1.222-.134 1.774-.391m6.565 37.523c3.324 0 3.324-4.185 0-4.185s-3.324 4.185 0 4.185m18.627-.963a11 11 0 0 0-.881-.629c-.693-.448-1.421-.448-2.126 0-.317.2-.599.41-.881.629-.798.63-.998 1.631-.575 2.45.411.782 1.421 1.421 2.525 1.373.963-.038 1.891-.419 2.384-1.106.611-.848.446-2.021-.435-2.717zm18.051-2.335c.235 0 .235-.296 0-.296s-.235.296 0 .296m-53.86 29.21c-.247.248-.505.496-.752.744-.235.238-.505.467-.681.743a3.1 3.1 0 0 0-.388.925c-.199.753-.011 1.506.67 2.069.693.562 1.62.705 2.548.543.282-.048.517-.105.799-.191.481-.162.857-.4 1.256-.677.306-.2.611-.41.917-.61.575-.381.904-1.191.904-1.763 0-.611-.341-1.345-.904-1.764-.588-.439-1.363-.763-2.173-.734-.775.028-1.668.229-2.173.734zm-32.78 27.446c.094.077.259.277.388.305-.047-.047-.082-.095-.129-.143l.141.143c.07.077.141.143.199.22.576.61 1.468.61 2.044 0 .07-.077.141-.143.2-.22.035-.038.07-.076.105-.104.083-.086.047-.048-.094.114.071 0 .329-.257.388-.305.658-.524.822-1.354.47-2.031-.341-.648-1.186-1.172-2.091-1.144-.798.029-1.562.353-1.985.925-.505.706-.364 1.678.364 2.259zm-24.499 19.429-1.339 1.173c-.328.286-.587.791-.387 1.192.106.2.176.391.376.543.199.153.411.219.669.305.493.162 1.104-.048 1.468-.314l1.445-1.087a1.13 1.13 0 0 0 0-1.812c-.611-.457-1.633-.524-2.232 0m22.209-29.715c.082.257.153.524.247.782.258.734 1.021 1.325 1.996 1.325s1.739-.591 1.997-1.325c.094-.258.164-.515.247-.782.375-1.192-.717-2.393-2.244-2.393s-2.619 1.201-2.243 2.393m87.262-65.885c.47-.029.975-.019 1.433-.105.364-.067.693-.2 1.069-.257.857-.134 1.726-.21 2.584-.315.305-.038.305-.467 0-.505-.858-.105-1.738-.181-2.584-.315-.388-.057-.693-.181-1.069-.257-.458-.096-.975-.077-1.433-.105a.944.944 0 0 0 0 1.859m9.279 42.728c-.306.191-.611.372-.916.563h1.62c-1.115-.601-2.607-.582-3.593.219-.987.801-1.093 2.345 0 3.165.528.391 1.221.687 1.949.658.717-.029 1.456-.219 1.95-.658.939-.839 1.033-1.973.27-2.917v1.316c.235-.248.458-.496.693-.744.364-.391.199-1.087-.223-1.411-.435-.324-1.222-.496-1.738-.181zM71.806 188.044H71.7c.224.029.447.048.67.076a.4.4 0 0 1-.106-.019c.2.067.411.143.61.21-.023 0-.046-.019-.058-.029.176.115.352.22.529.334-.024-.009-.036-.028-.047-.038.14.143.282.286.41.438-.01-.019-.023-.028-.034-.047.093.171.176.343.27.524 0-.028-.024-.047-.024-.076.035.2.07.391.094.591v-.086c-.458.648-.916 1.306-1.386 1.954.447-.247.834-.486 1.104-.886.376-.582.505-1.211.294-1.859-.023-.067-.047-.124-.047-.191l.106.639v-.181c0-.667-.294-1.325-.916-1.783l.387 2.441c0-.019.023-.029.035-.048.306-.429.435-1.039.247-1.525-.188-.458-.552-.973-1.116-1.182-.2-.077-.399-.172-.61-.21-.2-.038-.482-.057-.693-.077.223.029.434.048.657.077-.035-.01-.082-.029-.117-.038a2.7 2.7 0 0 0-1.163-.039 2.6 2.6 0 0 0-1.08.277c-.2.124-.388.248-.588.372-.364.295-.61.639-.751 1.039-.141.295-.176.658-.188.953-.059 1.354 1.327 2.593 3.03 2.546-.658-.22-1.315-.439-1.973-.668.493.324.728.496 1.339.639.282.067.575.095.857.095a3.16 3.16 0 0 0 2.478-1.172c.482-.582.423-1.44 0-2.021-.423-.591-1.268-1.02-2.137-.992zm17.617-26.226c.012-.105.024-.2.047-.305 0-.048.012-.105.024-.153 0-.066-.012-.267.011-.047.024.181 0 .066.047-.029l.07-.172c.06-.133.118-.266.165-.39.294-.687-.646-1.459-1.503-1.221-.141.038-.282.086-.435.124l-.21.057c-.095.029-.365.039-.083.058.258.019.07 0 0 0-.059 0-.13.009-.188.019-.14.009-.282.028-.411.038-.447.038-.846.105-1.245.276-.47.2-.81.572-1.01.963a1.73 1.73 0 0 0 .517 2.193 3.03 3.03 0 0 0 2.407.515 2.54 2.54 0 0 0 1.28-.715c.364-.382.459-.734.53-1.221zm-40.378 20.363c-.493-.067-.986-.124-1.468-.191-.67-.085-1.35-.038-1.844.391-.34.305-.552.668-.552 1.087 0 .391.212.81.552 1.087.517.419 1.151.486 1.844.391.494-.067.987-.124 1.468-.191.681-.086 1.245-.753 1.21-1.287-.035-.543-.482-1.192-1.21-1.287m-22.115 8.161c2.302 0 2.314-2.908 0-2.908s-2.314 2.908 0 2.908m-6.542 47.257c.024.8-.14 1.887.928 2.307l-.564-.592c.153.382.294.763.447 1.154.223.582 1.221.582 1.456 0 .153-.381.293-.763.446-1.154l-.563.592c1.056-.42.904-1.507.927-2.307.047-1.612-3.124-1.612-3.077 0m12.779 39.315c-.353.057-.74.095-1.093.181-.598.153-1.103.572-1.103 1.106 0 .477.41.868.939 1.049.388.133.846.171 1.257.238 1.033.172 2.09-.381 2.09-1.287s-1.045-1.468-2.09-1.287m-13.354 37.828a15 15 0 0 0-.059.725c-.012.6.235 1.125.775 1.554.776.61 2.02.61 2.796 0 .54-.42.81-.944.775-1.554a15 15 0 0 0-.059-.725c-.035-.457-.212-.886-.622-1.21-.365-.296-.964-.525-1.492-.506-1.21.048-2.032.753-2.114 1.716m62.27 8.981c.422-.477.787-.935 1.092-1.459.493-.829.857-1.497.634-2.45-.282-1.211-2.043-1.516-3.218-1.058-.88.343-1.292 1.049-1.715 1.706-.387.601-.657 1.211-.927 1.859-.364.868.328 1.821 1.303 2.164a2.59 2.59 0 0 0 2.819-.753zm-79.64-30.478c.352-.086.716-.162 1.069-.258.646-.171 1.21-.677 1.186-1.258-.035-.591-.482-1.077-1.186-1.259-.353-.095-.717-.171-1.07-.257-1.209-.286-2.442.505-2.442 1.516 0 1.01 1.233 1.802 2.443 1.516m29.49 55.779c2.854 0 2.866-3.603 0-3.603s-2.865 3.603 0 3.603m99.359 25.893c.388.086.764.172 1.151.248.693.133 1.504.305 2.056-.181.376-.324.481-.744.376-1.173-.036-.152-.094-.295-.141-.448-.094-.334-.212-.658-.318-.982-.505-1.497-2.9-2.011-4.251-.915s-.728 3.041 1.127 3.451m-35.104 10.058c.094-.134.188-.267.27-.41.176-.296.305-.563.352-.887.024-.162.047-.295.06-.448-.036.191-.06.372-.095.562 0-.028.012-.057.024-.095-.083.162-.177.324-.259.496.106-.153.212-.296.317-.448.47-.725.423-1.735-.364-2.317-.798-.591-1.902-.715-2.854-.295-.187.076-.364.171-.551.247l.61-.209s-.07.009-.117.019c.234-.029.458-.048.693-.076-.6.028-1.093.114-1.645.343-.164.066-.34.143-.505.219-1.69.753-1.926 2.717-.599 3.794 1.328 1.078 3.747.887 4.675-.486zm9.819-25.045c.117-.324.246-.638.375-.962-.094.181-.188.371-.293.552.035-.057.082-.104.129-.152.27-.381.411-.791.411-1.23s-.141-.848-.411-1.23c-.529-.743-1.539-1.21-2.596-1.21s-2.055.467-2.595 1.21c-.27.382-.411.792-.411 1.23 0 .439.141.849.411 1.23.047.048.094.095.129.152-.094-.181-.188-.371-.294-.552.118.314.247.638.364.962.318.811 1.281 1.516 2.385 1.469 1.115-.039 2.043-.601 2.384-1.469zm114.85-337.719c-.282-.076-.564-.143-.846-.219-1.809-.467-3.394 1.154-2.69 2.498.646 1.23 3.301 1.668 4.064.22.399-.764.399-1.097 0-1.87-.751-1.439-3.418-1.01-4.064.22-.692 1.344.881 2.965 2.69 2.498.282-.077.564-.143.846-.22 1.902-.486 1.902-2.65 0-3.136zm-88.144 35.074c1.257-.582 3.266-1.144 3.406-2.498.024-.258-.187-.505-.446-.63-.763-.38-1.679-.18-2.419.086-.717.258-1.445.525-2.161.782-.799.286-.987 1.23-.576 1.792.447.62 1.445.82 2.208.468zM244.839 1.886c-.188.181-.258.096.2-.105.129-.047.27-.085.411-.133-.165.038-.106.038.141 0 .469-.048.164-.02.047-.02.34-.009.634.077.892.258.611.305.576.267-.082-.114-.07-.029-.129-.067-.2-.096-.246-.095.505.391.259.172-.259-.238.364.477.188.2.047.077.235.591.152.239.036.19.059.38.094.572-.011-.124 0-.248 0-.372-.035.19-.058.381-.094.572.024-.105.118-.305-.07.047-.118.2-.141.248-.082.163.105-.143 0-.048-.282.276.27-.295.517-.553.658-.915.093-.22.093-.486.093-.725l-1.068 1.526c.411-.22-.423.095-.106.01.059-.02.117-.03.164-.039-.528.057-.481.057.165-.019.575-.2.622-.22.141-.048.176-.038.082-.028-.259.02.165 0 .094-.01-.223-.039q.212.043-.141-.057c.717.286 1.903.095 2.056-.677.117-.629-.012-1.172-.494-1.678-.54-.572-1.515-.83-2.396-.772.365.076.729.162 1.093.238-1.703-.962-3.817.096-4.369 1.526-.388 1 .047 2.097.963 2.812a4.1 4.1 0 0 0 2.478.849 10 10 0 0 0 .752-.086q-.758.057-.388.057c.47.067 1.339-.19 1.726-.372a3.24 3.24 0 0 0 1.222-.991c.587-.81.305-1.869-.599-2.44-.858-.535-2.302-.573-3.054.142zm146.455 41.89c.411.19.364.41.329.6a1.4 1.4 0 0 1-.13.372c.106-.22-.117.162-.14.19-.212.24.164-.028-.153.134.305-.152-.071.02-.176.057.352-.076.716-.152 1.068-.238-.411.02.388.153.423.153-.282-.02-.599-.2-.881-.267-.387-.086-.199-.086.036.038.282.19.34.238.199.124q-.212-.174.141.18c-.141-.209-.293-.447-.458-.647.353.42.106.152.012-.038-.188-.41-.399-.763-.822-1.059.223.315.446.62.669.935.176.486 0 0 .024-.21-.036.314 0 .21.07-.038a3.3 3.3 0 0 0 .094-.591c0-.143 0-.086-.023.171.199-.372-.376.343 0 .029 1.127-.925.211-2.26-1.222-2.383-1.021-.086-2.196.247-2.924.848-.893.724-.987 1.783-1.151 2.736l.352-1.068c-1.256 1.554.141 3.776 1.903 4.614.916.439 2.137.649 3.171.439.388-.076.716-.238 1.045-.42.857-.476-.493.334.247-.171.164-.114.317-.21.458-.343l.34-.363c-.129.172-.152.2-.035.105 2.067-1.792 1.903-5.29-1.362-6.091-1.597-.391-2.572 1.506-1.128 2.183zM363.26 58.61c1.104 1.344 2.971 2.04 4.944 1.592 1.28-.296 2.795-1.506 2.76-2.698-.023-.696-.975-.944-1.585-.534-.118.076-.635.257-.693.334-.059.085-.012.047.235.104-.271-.057-.541-.162-.811-.219-.047-.01-.528-.133-.317-.066.211.066-.247-.105-.294-.115-.411-.162.106.181-.187-.095.246.238-.024-.067-.083-.172-1.245-2.154-5.625-.133-3.958 1.878zm65.464-2.736-.916-.058c-2.854-.171-2.854 3.766 0 3.594l.916-.057c2.76-.162 2.771-3.327 0-3.489zm18.004.829a2.66 2.66 0 0 0-1.668.934c-.164.191-.364.458-.387.687-.059.133-.035.124.059-.038-.047.095-.106.2-.153.295-.106.277-.094.524-.023.81.293 1.078 1.608 2.193 3.006 1.497.423-.21.599-.677.329-1.03-.106-.133.07.163-.024-.085a1 1 0 0 0-.34-.477c.023.029.059.057.082.086-.07-.114-.07-.095 0 .038a1 1 0 0 1-.047-.172c.024.172.035.191.024.048v-.019c0 .305.047-.744-.036-.686-.035.41-.023.505.024.295.047-.105.035-.114 0-.028-.047.123.258-.162-.024 0 .27-.172-.422.114-.058.028.728-.172 1.174-.8.974-1.392-.211-.639-.974-.896-1.714-.79z" opacity=".55" fill="#F9E3A2"/></svg>