<svg width="689" height="656" viewBox="0 0 689 656" fill="none" xmlns="http://www.w3.org/2000/svg"><g opacity=".75" fill="#F9E3A2"><path d="M153.254 184.118c.928 14.319 2.818 28.591 4.263 42.881 1.409 13.843 2.713 27.742 5.144 41.489.364 2.079 4.205 1.43 4.322-.476.893-13.957.576-27.981.458-41.947-.129-13.976.118-27.98-.54-41.947-.341-7.121-14.117-7.121-13.647 0m68.459-72.205c-8.315 2.23-3.97 13.604-3.265 18.599 1.151 8.18 2.29 16.359 3.453 24.539a5739 5739 0 0 0 7.505 50.965c1.209 7.989 3.394 15.826 4.944 23.767 1.633 8.418 2.889 16.903 4.392 25.34 2.948 16.559 6.249 33.061 9.079 49.64 3.253 19.066 5.156 38.352 10.206 57.181.212.791 1.75.61 1.727-.191-.482-17.074-3.536-34.005-5.802-50.965-2.267-16.97-3.747-33.977-5.708-50.965-1.926-16.674-3.336-33.358-5.133-50.022-1.843-17.017-4.885-34.005-7.375-50.965-1.386-9.448-2.866-18.876-4.31-28.314-.552-3.623-.435-21.088-9.713-18.6zm75.435-31.766c-1.139 14.748-1.01 29.573-1.761 44.331-.74 14.776-1.421 29.553-1.95 44.33-.517 14.471-.904 28.933-1.938 43.395-1.08 15.054-2.807 30.193-2.102 45.274.047.954 1.949 1.278 2.161.239 2.924-14.405 3.582-29.077 4.792-43.625 1.233-14.805 3.077-29.563 4.827-44.33a3301 3301 0 0 0 4.932-44.33c1.574-15.091 4.041-30.164 5.203-45.274.576-7.388-13.6-7.36-14.164 0zm-49.151-29.41c2.737 13.07 3.524 26.236 5.121 39.43 1.503 12.403 2.29 25.406 6.788 37.39.2.524 1.28.61 1.421 0 2.725-12.508 1.645-25.683 1.257-38.324-.423-13.385-1.456-26.646-.658-40.021.482-7.951-15.726-7.14-13.917 1.525zM370.47 33.186c-3.571 12.06-3.665 24.815-5.591 37.104-1.973 12.546-4.216 25.063-6.177 37.609-3.982 25.425-8.116 50.87-12.508 76.257-8.562 49.564-17.065 99.128-25.78 148.673-4.874 27.723-9.29 55.551-12.226 83.455-.07.696 1.339.858 1.515.162 12.426-49.573 20.048-99.843 29.28-149.845 9.125-49.431 17.757-98.937 27.541-148.282 2.724-13.738 5.32-27.485 7.915-41.241 2.643-14.09 7.705-28.276 8.586-42.52.364-5.834-10.864-7.054-12.543-1.381zm44.124-4.433c-2.243 10.334-3.794 20.773-5.473 31.174-1.691 10.525-2.56 21.126-1.327 31.718.141 1.172 2.126 1.487 2.595.286 3.829-9.81 6.389-19.887 8.891-29.964 2.525-10.153 5.896-20.096 9.255-30.087 2.501-7.398-12.356-10.468-13.953-3.127zm23.36 87.249c-3.101 8.266-4.745 16.827-7.916 25.111a1792 1792 0 0 0-9.29 24.815c-6.178 16.875-12.191 33.787-17.91 50.766a1767 1767 0 0 0-16.067 50.212c-5.015 16.521-10.453 33.595-11.698 50.641-.141 1.945 3.136 1.992 3.888.429 7.763-15.997 12.144-33.262 17.217-49.917a1807 1807 0 0 1 16.126-50.202c5.637-16.674 11.486-33.31 17.711-49.85a1896 1896 0 0 1 9.513-24.768c3.276-8.332 8.08-16.054 11.65-24.281 2.925-6.731-10.652-9.858-13.236-2.965zm29.855-65.818c-2.384 6.597-7.212 15.997-3.441 22.69.669 1.182 2.936 1.582 4.216.896 7.493-4.014 9.513-14.224 11.756-20.783s-10.171-9.314-12.531-2.803m34.482 61.872c-4.663 7.102-7.235 14.919-10.441 22.479-3.054 7.198-6.589 14.262-10.007 21.345-7.269 15.082-14.633 30.135-21.786 45.246-6.999 14.805-13.694 29.696-20.635 44.52-7.035 15.035-14.857 30.116-20.283 45.589-.329.925 1.374 1.544 1.95.667 8.738-13.585 15.561-28.152 22.855-42.29 7.716-14.986 15.69-29.887 23.348-44.902 7.493-14.691 14.798-29.448 22.185-44.177 3.829-7.627 7.529-15.301 11.698-22.814 4.04-7.293 8.891-14.357 11.533-22.108 1.691-4.957-7.317-8.255-10.394-3.555zm-6.272 87.487c-5.555 6.817-8.926 14.872-13.271 22.222-4.393 7.427-8.808 14.834-13.166 22.27-8.726 14.891-17.018 29.954-25.615 44.893-17.029 29.601-33.249 59.517-50.525 89.022-9.889 16.884-20.024 33.691-29.396 50.775-.341.62.728 1.163 1.139.543 19.061-29.01 36.584-58.687 55.34-87.83 18.921-29.411 37.97-58.812 56.351-88.451 5.085-8.199 10.1-16.416 15.127-24.634 5.05-8.237 11.462-16.283 15.091-25.016 2.279-5.5-7.434-8.246-11.063-3.784zm51.207-82.225c-6.108 7.674-11.064 15.806-16.49 23.795-5.073 7.474-11.134 14.968-14.845 22.966-.869 1.878 2.396 3.165 3.993 1.888 7.505-6.064 13.448-13.757 19.778-20.611 6.777-7.341 13.906-14.386 20.048-22.099 5.062-6.359-7.446-12.25-12.484-5.92zm11.967 72.73c-10.112 12.822-18.204 26.493-27.717 39.611-9.49 13.099-19.05 26.121-28.069 39.439-17.97 26.551-40.226 51.433-56.104 78.899-.635 1.096 1.08 1.868 1.961.934 22.655-24.158 39.544-51.7 60.25-76.934 10.382-12.661 20.189-25.569 30.113-38.467 9.936-12.918 21.128-25.083 30.465-38.305 4.064-5.759-6.53-10.716-10.899-5.177m55.411-52.51c-3.547 4.471-7.646 10.058-7.399 15.578.059 1.22 1.597 2.478 3.206 1.983 6.718-2.05 11.592-7.417 15.597-12.146 4.804-5.663-6.788-11.23-11.404-5.415m-8.115 78.355c-11.087 9.981-21.399 20.611-31.793 31.079-10.382 10.458-21.152 20.658-31.346 31.25-20.013 20.792-39.779 42.366-54.859 65.818-.705 1.106 1.174 2.488 2.243 1.411 20.424-20.573 39.027-42.338 59.345-62.987 10.065-10.229 20.213-20.544 31.194-30.135 11.263-9.838 23.195-19.076 34.858-28.59 6.224-5.082-3.782-13.118-9.654-7.837zm28.151 62.539c-11.122 6.559-18.885 15.377-28.457 23.185-9.665 7.893-20.388 14.862-30.453 22.403-9.784 7.331-19.308 14.92-28.728 22.566-9.419 7.655-19.355 15.625-26.484 24.834-.786 1.011.834 2.46 2.114 1.716 10.277-6.006 19.132-13.757 28.035-21.021 9.665-7.875 19.355-15.721 29.197-23.462 9.572-7.531 18.732-15.386 29.021-22.298 10.675-7.179 23.195-12.165 33.155-20.135 4.791-3.832-1.657-11.182-7.411-7.798zm-44.488 91.177c-7.975 4.938-16.196 10.725-22.937 16.769-3.195 2.869-6.049 6.025-8.715 9.228-2.607 3.137-5.813 6.53-6.882 10.268-.387 1.325 1.315 2.402 2.807 1.754 3.629-1.592 6.554-4.29 9.678-6.473 3.558-2.489 7.105-4.996 10.675-7.484 7.376-5.148 14.517-9.648 22.609-14.014 7.775-4.195-.024-14.481-7.223-10.029zm-191.378 51.518-.893-.086c-2.912-.286-5.12 1.811-6.048 3.737-3.453 7.122-4.263 14.701-7.775 21.774-3.5 7.065-7.164 14.072-10.746 21.107-7.024 13.776-14.035 27.552-21.058 41.337-14.176 27.828-28.105 55.589-40.155 84.084-.282.667 1.022 1.125 1.409.486 16.008-26.712 30.114-53.959 44.066-81.415 7-13.785 14.011-27.561 21.011-41.346 3.582-7.035 7.082-14.1 10.735-21.107 3.864-7.426 10.029-13.585 13.976-20.983 1.01-1.887 1.339-4.69-.987-6.168-1.186-.753-2.008-1.258-3.547-1.401zm-123.94-12.05c2.536 30.03-6.319 59.984-5.074 90.071.047 1.125 2.232 1.478 2.525.276 7.247-29.4 4.487-60.041 13.001-89.203 1.868-6.378-10.969-7.246-10.452-1.144m-63.703-79.585c2.114 10.382 1.022 21.126 1.727 31.613.669 9.905 2.525 20.268 6.447 29.687.564 1.354 2.913 1.087 3.031-.334.845-10.01.399-20.249.058-30.278-.34-10.22-1.033-20.773 2.443-30.688 3.03-8.627-15.749-9.991-13.706 0m264.934 105.525c-3.958 4.69-7.34 9.829-11.251 14.605-3.747 4.567-7.2 9.276-10.559 14.033-6.541 9.238-13.423 19.115-16.794 29.487-.435 1.344 1.691 1.916 2.619.896 7.763-8.57 13.858-18.209 21.128-27.084 3.559-4.338 7.329-8.561 11.122-12.765 4.275-4.738 9.114-8.514 13.906-12.804 6.236-5.586-4.815-12.717-10.171-6.368m-270.36 62.787c.329-.563.4-.696.223-.42.505-.476.611-.61.341-.381.634-.372.787-.467.458-.305.752-.238.939-.296.552-.191-.611.134 1.257 0 .317-.038-.423-.019-.211 0 .634.086 1.445.829 1.903 1.048 1.363.658.422.839.857 1.677 1.28 2.516-.176-1.515-.858-2.593-2.443-3.432-2.044-1.086-5.25-.39-6.389 1.364-1.116 1.725-.646 4.223 1.679 5.186l.141.057c1.386.563 3.348.82 4.698 0l.141-.086-2.22.486c.435-.038.869-.085 1.292-.142-.892.057-1.115.095-.681.104.164 0 .317-.009.481-.019 1.046-.066 1.997-.238 2.913-.667 1.351-.62 2.607-1.773 2.854-3.06.165-.887.188-1.669-.399-2.479-.482-.667-1.421-1.306-2.373-1.478-2.149-.4-4.216.525-4.874 2.25zm.094-31.518-.246-1.763c-.083-.61-.247-1.135-.811-1.583-.481-.391-1.268-.677-1.949-.658-.717.029-1.457.22-1.95.658-.529.467-.716.963-.81 1.583l-.247 1.763c-.082.582.399 1.335.881 1.726.517.419 1.374.744 2.126.715.775-.029 1.585-.238 2.125-.715.505-.448.975-1.096.881-1.726m-28.011-33.757c.599-.124 1.233-.219 1.774-.467.481-.22.798-.525 1.162-.839.764-.668.764-1.649 0-2.317-.364-.314-.681-.619-1.162-.839-.541-.257-1.175-.343-1.774-.467-1.985-.41-3.993.791-3.993 2.469s2.008 2.879 3.993 2.469zm-1.456-119.272-.987-.429c-7.575-3.26-7.575 8.914 0 5.663l.987-.429c2.231-.963 2.231-3.852 0-4.815zm-26.883 61.509.199-1.611c-.035.229-.082.467-.117.696.012-.048.035-.086.047-.133.611-1.669-1.069-3.366-3.159-3.366-2.091 0-3.759 1.697-3.16 3.366.012.047.036.085.047.133-.035-.229-.082-.467-.117-.696l.2 1.611c.082.668.281 1.249.892 1.735.529.429 1.386.744 2.138.725.787-.029 1.597-.239 2.137-.725.576-.505.81-1.058.893-1.735m-44.959 24.501c.27.2.54.41.811.61.681.496 1.432.801 2.36.763-.423-.096-.845-.181-1.268-.277.399.172.822.391 1.257.477.411.076.775.067 1.186.029.951-.086 1.503-.534 1.621-1.316.046-.334.093-.61-.036-.963-.129-.362-.364-.686-.587-1.02.117.343.223.686.341 1.03.047-.763-.329-1.364-.94-1.917-.247-.228-.505-.438-.752-.657-1.01-.887-2.994-.887-3.993 0-.998.886-1.162 2.373 0 3.241m33.167-54.493-2.114 1.888c-.799.715-.939 1.916 0 2.612.94.705 2.279.696 3.218 0l2.326-1.716a1.734 1.734 0 0 0 0-2.784c-.928-.696-2.514-.81-3.43 0m2.689-23.395c.717.439 1.433.878 2.162 1.316.786.477 2.184.267 2.818-.295.27-.239.47-.525.599-.839.165-.401.094-1.106-.235-1.459-.54-.582-1.08-1.163-1.62-1.754-.576-.62-1.328-1.135-2.349-1.096-.729.028-1.41.228-1.927.648-.493.4-.798 1.001-.798 1.563 0 .849.552 1.43 1.35 1.907zm41.659 69.975.575-.581c1.715-1.707 1.726-3.604 0-5.329-.188-.191-.388-.391-.575-.582-3.23-3.232-9.655-.439-9.655 3.241s6.437 6.454 9.655 3.242zm36.373 27.981c.305.829.528 1.668 1.28 2.316.986.858 2.889.858 3.864 0 .74-.648.974-1.496 1.28-2.316.634-1.688-1.092-3.423-3.206-3.423s-3.841 1.735-3.207 3.423zm3.206 26.245c3.441 0 3.453-4.338 0-4.338s-3.453 4.338 0 4.338m-3.864 14.986c-.035-.438-.059-.877-.106-1.315-.082-.677-.293-1.268-.904-1.764-.529-.429-1.41-.763-2.173-.734-.799.029-1.621.238-2.173.734-.575.515-.822 1.068-.904 1.764-.047.438-.07.877-.106 1.315-.105 1.354 1.539 2.641 3.183 2.584 1.633-.057 3.289-1.135 3.183-2.584m-29.021-5.577c3.241 0 3.253-4.099 0-4.099s-3.253 4.099 0 4.099m18.815-9.676c-.024-.315-.035-.639-.059-.953 0-.143-.012-.296-.023-.439-.036-.438-.153-.734-.388-1.125-.705-1.163-3.089-1.163-3.793 0a2.5 2.5 0 0 0-.376 1.049c-.024.171-.024.343-.035.515-.024.314-.036.638-.059.953-.071 1.011 1.139 1.973 2.372 1.926s2.443-.849 2.373-1.926zm-4.722-22.27c.975 0 .975-1.23 0-1.23-.974 0-.974 1.23 0 1.23m14.012 68.573c.152.401.281.82.458 1.221.293.639 1.033 1.363 1.973 1.334.845-.028 1.562-.524 1.879-1.134.235-.458.387-.944.564-1.421.481-1.277-.834-2.593-2.431-2.593-1.598 0-2.913 1.316-2.432 2.593zm-37.935 50.585c-.423.362-.858.724-1.28 1.077a9 9 0 0 0-.811.753 2.88 2.88 0 0 0-.834 1.907c-.011.324.106.657.165.991.164.887 1.421 1.907 2.513 2.04.376.048.775.115 1.151.124.658.029 1.445-.152 2.032-.429.493-.238.904-.591 1.315-.906.446-.343.893-.695 1.327-1.039 1.492-1.163 1.551-3.365 0-4.518-.751-.563-1.738-.973-2.783-.935-1.034.038-2.055.315-2.784.935zm5.132 27.37c.517 0 .517-.658 0-.658s-.517.658 0 .658m2.913 17.684c.305.486.61.982.916 1.468.329.534 1.409.534 1.738 0 .305-.486.611-.982.916-1.468.693-1.115-.141-2.526-1.785-2.526s-2.478 1.411-1.785 2.526m1.714 24.406c-1.679-.077-2.842 1.124-2.889 2.392-.047 1.373 1.515 3.089 3.394 2.212.552-.257.975-.753.975-1.277 0-.277-.117-.363-.211-.61.117.257.188.286.188.6 0-.143-.012-.028-.059.353.035-.143.059-.296.07-.439 0-.486-.246-.753-.575-1.134.446.515.258.248.164.143.224.248.188.41.13.21-.071-.229.011.524.035.19v-.152c.023.438-.071.419 0 .2.059-.238-.258.429-.118.229s-.434.391-.164.181c-.376.21-.47.276-.305.2-.435.134-.552.172-.364.134-.188.019-.376.038-.576.066h.164c-.187-.019-.387-.038-.575-.066a.4.4 0 0 1 .118.019c1.268.238 2.525-.391 2.712-1.469.177-1.086-.822-1.935-2.125-1.992zm-15.996 39.573c.059.505.094 1.01.176 1.515.118.696.87 1.411 1.797 1.411.858 0 1.515-.61 1.762-1.22.118-.286.094-.677.129-.982.024-.248.047-.486.083-.734.094-.839-.975-1.63-1.974-1.601-.986.038-2.067.705-1.973 1.601zm22.174-77.812-1.268 2.031c-.212.334-.435.677-.634 1.01-.412.677-.564 1.23-.693 1.974-.177 1.077 1.01 2.192 2.125 2.574 1.292.448 2.76.21 3.782-.582 1.316-1.01 2.044-2.764 2.866-4.07.845-1.354.493-3.213-1.28-3.976-1.633-.696-3.994-.41-4.898 1.039m31.111-43.243c.024-.105.048-.2.083-.305-.106.2-.212.4-.306.601.083-.105.165-.21.259-.306.434-.524.434-1.372 0-1.906a3 3 0 0 0-.259-.305c.106.2.212.4.306.6a3.7 3.7 0 0 0-1.233-1.916c-.776-.629-2.056-1.106-3.171-1.068-2.255.086-4.111 1.316-4.416 3.165-.141.83.058 1.592.528 2.327.493.753 1.656 1.487 2.69 1.677 1.151.21 2.442.162 3.464-.371.951-.496 1.821-1.249 2.067-2.183zm42.316-10.506c.082.877.059 1.821.564 2.622.822 1.296 3.406 1.296 4.228 0 .505-.801.47-1.735.564-2.622.105-1.134-1.304-2.221-2.678-2.173-1.351.047-2.795.962-2.678 2.173m-8.949-32.509a48 48 0 0 1-1.104-1.01c-.646-.601-2.067-.601-2.713 0a48 48 0 0 1-1.104 1.01c-.952.849-1.28 2.012-.717 3.089.517.992 1.797 1.792 3.183 1.735 1.21-.047 2.384-.534 3.007-1.401.81-1.125.505-2.488-.541-3.423zm4.099-112.398.047 1.049c.129 2.898 5.426 2.908 5.555 0 .012-.353.035-.696.047-1.049.129-2.955-5.79-2.955-5.649 0m21.621-92.273c-.728.028-1.444.057-2.172.076-1.656.057-3.265 1.144-3.183 2.584.082 1.449 1.398 2.516 3.183 2.583.728.029 1.444.057 2.172.076 1.715.067 3.359-1.267 3.277-2.659s-1.444-2.727-3.277-2.66m-9.771-25.94c-.07-.439-.082-.925-.223-1.345-.129-.381-.423-.734-.658-1.077-.446-.667-1.726-.667-2.184 0-.235.343-.529.696-.658 1.077-.141.42-.153.906-.223 1.345-.129.829.998 1.63 1.973 1.601.951-.038 2.102-.705 1.973-1.601m-6.894-30.507c0 1.354-.164 2.717.411 4.004.763 1.725 3.57 1.725 4.334 0 .563-1.287.411-2.66.411-4.004 0-2.689-5.144-2.689-5.144 0zm23.031 43.853c.035.944-.071 1.955.528 2.794 1.093 1.525 3.9 1.525 4.992 0 .611-.839.505-1.85.528-2.794.047-1.287-1.421-2.517-3.03-2.459s-3.077 1.077-3.03 2.459zm15.104-28.6c.047-.352.105-.667.035-1.029-.059-.344-.188-.639-.329-.973-.341-.81-1.257-1.516-2.384-1.477-1.139.038-2.02.6-2.384 1.477-.141.324-.27.629-.329.973-.059.362 0 .677.035 1.029.082.591.247 1.097.787 1.535.47.372 1.221.658 1.891.639.693-.029 1.409-.21 1.891-.639.505-.448.693-.934.787-1.535m2.02-6.644c1.562 0 1.562-1.964 0-1.964s-1.562 1.964 0 1.964m-18.439 85.104c-.4.353-.799.696-1.198 1.048-.188.163-.388.325-.564.496-.552.524-.846 1.077-.881 1.783-.059 1.077 1.222 2.116 2.549 2.069.728-.029 1.35-.181 1.914-.544.317-.2.599-.41.881-.629.434-.324.857-.648 1.292-.972a2.014 2.014 0 0 0 0-3.242c-1.093-.81-2.925-.943-3.993 0zm-21.493-168.664c2.079 0 2.079-2.622 0-2.622s-2.079 2.622 0 2.622m-2.349 29.944c4.217 0 4.228-5.329 0-5.329s-4.228 5.329 0 5.329m-3.359 18.761c.599-2.707 2.807-7.483-.599-9.438-.575-.333-1.351-.238-1.938 0-1.785.715-2.031 2.489-2.255 3.938-.246 1.62.083 3.355.118 4.986.059 2.078 4.169 2.726 4.662.514zm3.359-41.431c4.545 0 4.557-5.74 0-5.74s-4.557 5.74 0 5.74m-13.212-7.665c.869-.725 1.691-1.278 2.208-2.231.164-.305.317-.582.375-.915.071-.372-.094-.687-.129-1.03s0-.696-.164-1.039c-.282-.553-.858-.877-1.609-.744-.447.077-.728.296-1.092.458-.224.105-.588.152-.846.267-.446.21-.74.534-1.022.877-.728.887-.845 1.764-1.092 2.765-.376 1.535 1.891 2.831 3.371 1.592m23.442-29.525c.023.391.047.782.082 1.173.047.552.27.896.716 1.315.341.315 1.081.315 1.433 0 .446-.41.67-.753.717-1.315.035-.391.058-.782.082-1.173.047-.639-.728-1.258-1.515-1.23-.775.029-1.562.544-1.515 1.23m-69.575 96.001c.07.391.105.763.293 1.134.306.601.764 1.02 1.422 1.421.634.381 1.879.381 2.513 0 .646-.391 1.104-.811 1.421-1.421.188-.362.223-.743.294-1.134a2.13 2.13 0 0 0 0-1.325c-.141-.42-.412-.792-.787-1.106a3.6 3.6 0 0 0-2.173-.734c-.787 0-1.621.276-2.173.734-.376.314-.646.677-.787 1.106a2.13 2.13 0 0 0 0 1.325zm-4.252 59.002c.153.6.223 1.277.634 1.802.893 1.153 2.901 1.153 3.794 0 .411-.525.481-1.202.634-1.802.341-1.344-.752-2.698-2.525-2.698-.669 0-1.374.238-1.856.619-.693.563-.869 1.316-.669 2.069zm149.873 18.552c-.505.076-1.069.105-1.551.219-.857.21-1.679.858-1.632 1.63.035.715.575 1.278 1.386 1.554.552.191 1.209.219 1.797.305.822.115 1.703.038 2.302-.496.423-.381.693-.838.693-1.363 0-.496-.27-1.01-.693-1.363-.646-.524-1.457-.62-2.302-.496zM336.681 360.6c4.744 0 4.744-5.978 0-5.978-4.745 0-4.745 5.978 0 5.978m-13.859 50.393c.035.591.071 1.173.094 1.764.047.858.893 1.678 2.02 1.639 1.139-.038 1.973-.724 2.02-1.639.035-.591.071-1.173.094-1.764.047-.896-1.01-1.764-2.114-1.716-1.104.038-2.173.753-2.114 1.716"/><path d="M307.108 392.86c.352-.038.693-.085 1.045-.123.822-.096 1.515-.353 2.114-.849 1.245-1.039 1.245-2.707 0-3.747-.576-.486-1.304-.753-2.114-.848-.352-.038-.693-.086-1.045-.124a4.4 4.4 0 0 0-1.926 0c-.611.143-1.151.391-1.609.763-.658.581-1.069 1.287-1.069 2.088 0 .753.411 1.553 1.069 2.087.458.363.986.62 1.609.763a4.4 4.4 0 0 0 1.926 0zm1.386 62.377c3.641 0 3.641-4.585 0-4.585s-3.641 4.585 0 4.585m-3.911 10.287c-.822 1.02-1.645 2.04-2.455 3.05-.799 1.001-1.597 1.859-1.926 3.022-.164.582.646 1.211 1.339.83 1.245-.687 1.938-1.573 2.807-2.565.928-1.048 1.844-2.097 2.771-3.155 1.081-1.24-1.491-2.488-2.524-1.201zm-15.891 23.642c.035.63-.023 1.335.165 1.945.211.677 1.468.677 1.679 0 .188-.619.129-1.315.165-1.945.058-1.058-2.079-1.058-2.021 0zm-13.893 55.294v1.096c0 .391.129.677.328 1.03.165.295.799.295.963 0 .2-.353.329-.639.329-1.03v-1.096c0-.839-1.62-.848-1.62 0m-17.523 33.462c-.529.887-.987 1.811-1.692 2.612-.282.324-.74.658-.986 1.001-.388.544-.552 1.239-.775 1.84-.482 1.297.575 2.727 2.161 3.079 1.714.382 3.229-.476 3.793-1.754.176-.4.423-.81.54-1.22.165-.581.024-1.115.036-1.697.023-.887.305-1.773.516-2.641.4-1.658-2.572-2.965-3.593-1.23zm-19.25 41.451c3.899 0 3.899-4.919 0-4.919s-3.899 4.919 0 4.919m4.111 28.572c-.94 1.534-2.232 3.136-2.49 4.852-.141.944.869 1.897 1.856 2.231 1.139.391 2.395.171 3.288-.506.763-.572 1.151-1.353 1.621-2.087.399-.629.81-1.259 1.21-1.888.763-1.201.422-2.86-1.14-3.527-1.433-.62-3.558-.362-4.345.925M402.45 114.591c4.674 0 4.686-5.901 0-5.901s-4.686 5.901 0 5.901m2.067 19.706-2.278 1.964c-.27.229.141.562.423.343l2.419-1.85c.376-.286-.211-.772-.576-.467zm-7.775 13.575v1.097c0 .429.141.724.4 1.096.258.372.963.372 1.221 0s.399-.667.399-1.096v-1.097c0-1.058-2.02-1.058-2.02 0m-11.345 14.586c-.787 2.098-2.737 5.034-.775 6.998.258.267.845.372 1.233.267 2.889-.811 3.159-4.223 3.829-6.302.728-2.25-3.453-3.174-4.287-.963m-13.6 30.078c-.517.753-1.116 1.497-1.504 2.298-.399.81-.951 1.725-.516 2.583.376.725 1.28 1.392 2.349 1.087 2.208-.648 2.783-3.032 3.441-4.671.74-1.812-2.643-2.946-3.782-1.297zm9.29-47.257c.376.467.763.906 1.174 1.344.787.83 1.997.83 2.784 0a27 27 0 0 0 1.174-1.344c1.257-1.554-.399-3.632-2.572-3.632s-3.829 2.078-2.572 3.632zm42.503-31.136c3.958 0 3.97-4.995 0-4.995-3.969 0-3.969 4.995 0 4.995m-45.968 229.268c.764-.086 1.316-.172 2.055-.477 1.151-.476 1.974-1.411 1.974-2.488s-.823-2.021-1.974-2.488c-.446-.181-.869-.343-1.35-.401-.235-.028-.458-.057-.693-.076a4.75 4.75 0 0 0-2.008 0 3.96 3.96 0 0 0-1.668.791c-.681.601-1.104 1.345-1.104 2.174 0 .791.423 1.611 1.104 2.174.47.381 1.033.648 1.668.791a4.75 4.75 0 0 0 2.008 0zm-10.629 10.382c.036.534.059 1.077.094 1.611.059 1.049 1.092 2.059 2.478 2.011 1.398-.047 2.408-.886 2.478-2.011.036-.534.059-1.077.094-1.611.059-1.097-1.233-2.136-2.572-2.088s-2.642.925-2.572 2.088m-13.87 20.868c2.854 0 2.866-3.603 0-3.603s-2.866 3.603 0 3.603m3.159-34.682-1.245-.143c-5.179-.61-5.214 5.653 0 5.034l1.245-.143c2.889-.344 2.889-4.395 0-4.738zm-1.914 81.32c.07.324.152.648.223.972.082.343.141.562.399.915.341.477.799.725 1.327 1.039.764.458 2.255.458 3.019 0 .505-.305 1.01-.562 1.327-1.039.188-.286.329-.6.399-.915.082-.324.153-.648.223-.972.235-1.011.071-2.098-.916-2.832a4.2 4.2 0 0 0-2.537-.848c-.916 0-1.879.324-2.536.848-.963.782-1.163 1.783-.917 2.832zm9.055 27.084a25 25 0 0 0-.857-.134l2.478 2.012c-.282-.791-.693-1.468-1.374-2.069-.834-.734-2.279-1.172-3.5-1.172s-2.596.448-3.5 1.172c-.857.696-1.503 1.84-1.445 2.841.059 1.039.482 2.116 1.445 2.841.939.705 2.184 1.22 3.5 1.173 1.115-.039 2.102-.305 2.995-.858.998-.63 1.538-1.402 1.879-2.384l-2.478 2.012c.282-.048.575-.096.857-.134.705-.114 1.339-.543 1.762-.982.446-.467.763-1.058.728-1.658a2.74 2.74 0 0 0-.458-1.383c-.364-.553-1.257-1.144-2.02-1.258zm-20.424 38.877.07 1.029c0 .143.012.296.024.439.07.734.341 1.249.963 1.792 1.034.896 3.018.896 4.04 0 .623-.534.893-1.058.963-1.792a5 5 0 0 0 .024-.439l.07-1.029c.082-1.306-1.48-2.555-3.077-2.498s-3.171 1.096-3.077 2.498m-8.644 13.347c.059.858.129 1.601.505 2.402.294.62.306 1.335.811 1.888.54.6 1.456.6 2.008 0 .505-.553.517-1.268.81-1.888.388-.801.447-1.544.505-2.402.176-2.422-4.827-2.431-4.639 0m-16.066 35.788c-.787 1.926-1.856 4.099-1.609 6.158.094.782 1.303 1.373 2.067.696 1.82-1.611 2.595-3.937 3.441-5.977.822-2.002-3.077-2.87-3.888-.868zm-14.493 80.09c2.337 0 2.337-2.946 0-2.946s-2.338 2.946 0 2.946m-14.728 29.028c.035.868-.07 1.869.564 2.613.575.667 1.362 1.125 2.407 1.125 1.046 0 1.833-.449 2.408-1.125.634-.744.529-1.745.564-2.613.047-1.267-1.41-2.478-2.983-2.421s-3.03 1.068-2.983 2.421zm22.514-25.272c-.329-.334-.869-.525-1.397-.534-.588 0-1.022.2-1.468.486.387-.134.775-.257 1.162-.391-1.045.057-1.679.524-1.984 1.297a2.3 2.3 0 0 0-.165.838c0 .839.881 1.726 1.891 1.917.74.143 1.621-.086 1.997-.658.141-.229.223-.467.246-.725.024-.4-.235-.715-.517-1.02.224.239.247.248.376.525-.035-.077-.058-.248 0 .085.059.353.024.058.036-.038l-.071.429c.059-.371.094-.638-.024-1.02-.023-.086-.082-.381-.023-.019.059.353.023.067.012-.029-.024-.476-.212-.819-.611-1.182.141.439.282.868.423 1.306 0-.009.035-.114.035-.114s-.188.324-.117.229a.86.86 0 0 1-.306.267 1.1 1.1 0 0 1-.481.162c-.306.028-.047.009.047.019.505.057 1.022-.315 1.198-.658.223-.419.07-.82-.27-1.163zm-10.135-16.96c5.59 0 5.59-7.045 0-7.045-5.591 0-5.591 7.045 0 7.045m22.185 16.712c.799-.172 1.574-.363 2.279-.715 2.172-1.106 2.172-3.623 0-4.729-.705-.362-1.48-.553-2.279-.715-2.478-.515-4.979.992-4.979 3.079s2.513 3.604 4.979 3.08m24.124-14.091c.646-.248 1.409-.457 1.891-.905.927-.868.939-1.983 0-2.86-.482-.448-1.234-.668-1.891-.906-1.116-.419-2.255-.524-3.359 0-1.01.477-1.645 1.382-1.645 2.336 0 .953.635 1.849 1.645 2.335 1.104.525 2.255.42 3.359 0m88.8-227.113c-.411-.572-.81-1.134-1.468-1.544-.552-.343-1.421-.696-2.102-.677-.587.019-1.221.219-1.75.458-.857.391-1.339 1.096-1.82 1.763-1.586 2.202.434 5.053 3.57 5.053s5.156-2.851 3.57-5.053m8.175-12.307c.211-.019.434-.048.657-.048a25 25 0 0 1-.845-.095c.787.086 1.468.171 2.231-.077h-1.209c.634.134 1.162.248 1.82.153.505-.067 1.069-.524 1.151-.934.117-.544-.024-.973-.188-1.478v.982c.294-.62.2-1.182.094-1.811.035.228.07.457.117.686 0-.181.036-.353.059-.534l-.141-.839c-.129-.248-.258-.505-.387-.753-.388-.6-1.116-1.039-1.856-1.287-1.374-.467-3.194-.276-4.24.648-.928.82-1.374 1.974-.998 3.07.223.667.728 1.22 1.398 1.64.622.391 1.55.753 2.348.677zm20.095 9.371c-.165-.572-.329-1.077-.67-1.621-.575-.915-1.679-1.563-2.971-1.563s-2.42.648-2.972 1.563c-.34.544-.505 1.049-.669 1.621-.575 1.935 1.139 3.89 3.653 3.89 2.513 0 4.216-1.955 3.652-3.89zm17.887-11.221.199-.343-1.221.992c1.139-.525 1.809-1.392 1.985-2.422.117-.725-.071-1.287-.447-1.954-.07-.115-.129-.229-.199-.344-1.093-1.878-5.015-1.878-6.119 0a5 5 0 0 0-.2.344c-.364.648-.564 1.229-.446 1.954.176 1.039.834 1.897 1.985 2.422l-1.222-.992.2.343c.986 1.688 4.51 1.688 5.485 0m-35.739 74.875c.164-.124.458-.267.564-.419-.083.047-.165.105-.247.152.082-.047.164-.105.247-.152.129-.077.246-.153.375-.229 1.057-.658 1.057-1.678 0-2.336-.129-.076-.246-.152-.375-.229-.059-.038-.13-.076-.188-.114-.141-.086-.083-.057.188.114-.047-.123-.447-.333-.564-.419a3.83 3.83 0 0 0-3.477-.534c-1.115.381-2.008 1.335-1.949 2.355.047.896.599 1.763 1.574 2.231 1.268.6 2.807.371 3.852-.401zm-16.337-16.235c4.346 0 4.357-5.491 0-5.491s-4.357 5.491 0 5.491m-14.093 91.768c4.744 0 4.744-5.977 0-5.977-4.745 0-4.745 5.977 0 5.977m22.514-6.807c-1.174-.467-2.455-.581-3.629-.028-.846.4-1.456 1.096-1.703 1.859-.411 1.268.517 2.688 2.114 3.022h.023l-1.914-1.554c.211.524.482.953.951 1.363.47.42 1.292.829 2.02.763.588-.058 1.175-.162 1.598-.534.375-.334.728-.82.657-1.297-.07-.495-.082-.534-.328-.982.082.153.152.296.234.448l-.035-.114c.024.172.059.343.082.505-.011-.076 0-.152 0-.228-.035.181-.058.352-.094.533.024-.114.059-.219.106-.324-.094.172-.176.343-.27.515a1 1 0 0 1 .082-.133c-.787.362-1.574.734-2.36 1.096h.058l.811-.086c.399-.076.74-.219 1.033-.438.552-.344.846-.744 1.081-1.278 0-.019.023-.048.035-.067-.106.201-.2.391-.305.592.035-.058.058-.105.105-.153-.164.162-.317.334-.47.496.036-.038.071-.067.106-.096l-.622.391s.058-.038.094-.047c-.247.085-.482.162-.729.247l.106-.028-.81.086h.153l-.811-.086c.047 0 .082.019.129.028-.246-.085-.493-.171-.728-.247l.141.057c.681.333 1.609.419 2.373.248.716-.162 1.491-.611 1.843-1.144.376-.582.564-1.287.306-1.926-.235-.591-.705-1.211-1.41-1.497zm-28.234 36.456.388 1.821c.105.505 1.151.505 1.268 0l.388-1.821c.117-.544-.294-1.087-1.022-1.087s-1.139.543-1.022 1.087m-22.467 21.459c4.157 0 4.157-5.243 0-5.243-4.158 0-4.158 5.243 0 5.243m-13.918 5.005c-.117-.791-.105-1.687-.587-2.383-.798-1.182-3.077-1.182-3.887 0-.47.705-.47 1.602-.588 2.383-.07.487.329 1.116.74 1.449.435.353 1.151.62 1.786.601 1.233-.048 2.689-.906 2.525-2.05zm12.356-51.88 1.291-1.363c1.187-1.249.482-3.156-.669-4.214-.024-.019-.047-.048-.07-.067.387.753.775 1.516 1.162 2.269-.023.095-.035.2-.059.295.047-.133.094-.266.153-.4.165-.562.247-1.115.047-1.678-.153-.438-.423-.858-.646-1.277-.458-.849-1.844-1.116-2.854-.944-.599.105-1.245.2-1.773.477-.822.429-1.339 1.106-1.926 1.725l1.35-1.096c-.082.048-.164.086-.246.133.669-.143 1.327-.295 1.996-.438-.058 0-.105 0-.164-.01-1.868-.133-3.641 1.182-4.122 2.555-.188.534-.376 1.068-.576 1.602-.54 1.516.505 3.127 2.255 3.718 1.926.658 3.653-.029 4.851-1.287m90.821-29.906c.328 0 .328-.41 0-.41-.329 0-.329.41 0 .41m33.824-92.579c-.517-.076-1.034-.162-1.539-.238l2.29 1.43c-.047-.067-.105-.124-.152-.191-.517-.648-1.175-1.125-2.055-1.43-.846-.286-1.903-.419-2.796-.171-.058.019-.105.028-.164.047-1.715.468-3.195 1.764-3.112 3.318.082 1.573 1.268 2.822 3.112 3.318.059.019.106.028.164.047.376.038.764.086 1.14.124a3.9 3.9 0 0 0 1.656-.305c.88-.305 1.526-.763 2.055-1.43.047-.067.105-.124.152-.191l-2.29 1.43c.517-.076 1.034-.162 1.539-.238l.846-.286c.411-.181.739-.429.986-.734.458-.486.799-1.106.763-1.735a2.9 2.9 0 0 0-.481-1.449c-.376-.572-1.315-1.192-2.114-1.316m-28.422 17.446c.27.21.54.41.81.62.224.172.458.362.729.496.187.105.399.171.622.2.153.019.106.019-.129-.019-.083.076 1.068.41.775.343.34.076.822.086 1.174 0 .247-.057.682-.21.869-.372.188-.152.4-.515.458-.705.083-.296.106-.668 0-.954-.011-.038-.411-.648-.422-.629l.035.172a1.3 1.3 0 0 0-.259-.572 4 4 0 0 0-.54-.534c-.27-.238-.552-.477-.822-.715-.834-.725-2.454-.734-3.288 0s-.952 1.945 0 2.669zm20.694-25.911c.775-.544 1.656-1.221 1.656-2.117s-.881-1.573-1.656-2.116c-1.139-.801-2.596-1.106-4.028-.62-1.292.439-2.326 1.545-2.267 2.736.059 1.039.693 2.04 1.82 2.584.717.343 1.539.448 2.349.352.846-.095 1.468-.371 2.114-.819zm39.673 37.18c4.874 0 4.874-6.149 0-6.149s-4.874 6.149 0 6.149m-28.187 28.476c4.674 0 4.686-5.901 0-5.901s-4.686 5.901 0 5.901m-10.84 11.135c-.822.667-1.691 1.315-2.478 2.011-.787.687-1.21 1.65-1.727 2.479-.434.705.435 1.42 1.316 1.068 1.033-.42 2.208-.763 3.053-1.402.858-.638 1.656-1.344 2.478-2.011 1.703-1.383-.939-3.528-2.642-2.145M640.877 317.9l-.282-.058.81.277c-.188-.067-.364-.181-.54-.277-.646-.352-1.691-.352-2.349 0-.176.096-.352.21-.54.277l.81-.277c-.481.096-.845.182-1.339.42-2.466 1.173-2.924 4.023-.904 5.663 1.95 1.582 5.626 1.344 6.976-.734.564-.858.775-1.821.447-2.774-.4-1.192-1.609-2.212-3.101-2.517zM597.41 190.944c4.804 0 4.815-6.063 0-6.063s-4.815 6.063 0 6.063m54.812-19.553c.188-.143.364-.295.552-.438-.247.152-.493.314-.74.467.341-.21.763-.429 1.057-.658.622-.505.986-1.211.986-1.926s-.364-1.42-.986-1.926c-.282-.228-.716-.448-1.057-.657.247.152.493.314.74.467a21 21 0 0 1-.552-.439c-1.28-1.02-3.206-1.306-4.851-.743-1.562.534-2.807 1.868-2.724 3.298.07 1.259.833 2.46 2.196 3.118 1.714.81 3.97.553 5.379-.563m-7.834 68.879c4.416 0 4.428-5.568 0-5.568-4.427 0-4.427 5.568 0 5.568m-30.536 32.89c2.138 0 2.15-2.708 0-2.708s-2.149 2.708 0 2.708m39.932 88.631c.587 0 .587-.734 0-.734s-.587.734 0 .734m-39.779-8.341c.634-.391 1.351-.754 1.868-1.249.646-.62 1.186-1.373 1.139-2.221-.047-.878-.446-1.554-1.139-2.222-.517-.495-1.234-.848-1.868-1.249a5.8 5.8 0 0 0-2.501-.543q-1.34 0-2.502.543c-1.503.715-2.455 2.05-2.455 3.471 0 1.42.94 2.755 2.455 3.47a5.8 5.8 0 0 0 2.502.543q1.338 0 2.501-.543m9.243 52.862c4.674 0 4.686-5.901 0-5.901s-4.686 5.901 0 5.901m26.237-1.363c-.399-.315-.81-.61-1.244-.896-.975-.63-2.009-.639-2.995 0a15 15 0 0 0-1.245.896c-1.128.886-1.398 2.297-.799 3.441.576 1.106 2.008 1.993 3.547 1.936 1.351-.048 2.654-.591 3.359-1.564.857-1.191.622-2.85-.611-3.823zm25.439-3.289c.329 0 .329-.41 0-.41-.328 0-.328.41 0 .41m-75.881 41.165c-.353.353-.705.696-1.069 1.049-.341.333-.717.657-.963 1.039-.27.419-.423.848-.541 1.306-.281 1.067-.023 2.126.952 2.907s2.278.992 3.582.773a6.5 6.5 0 0 0 1.116-.277c.681-.229 1.209-.572 1.773-.953.423-.286.857-.572 1.28-.858.811-.544 1.269-1.678 1.269-2.488 0-.868-.47-1.897-1.269-2.489-.822-.619-1.914-1.077-3.065-1.029-1.092.038-2.349.324-3.065 1.029zm-46.192 38.657c.141.105.376.391.552.439a9 9 0 0 0-.188-.21c.059.067.13.134.188.201.094.104.188.2.282.305.811.858 2.067.858 2.878 0 .093-.105.187-.201.281-.305.047-.048.094-.105.141-.153.106-.114.071-.067-.129.153.106 0 .458-.363.552-.439.928-.734 1.163-1.907.67-2.86-.482-.915-1.668-1.659-2.948-1.611-1.128.038-2.208.496-2.784 1.296-.716.992-.516 2.365.505 3.175zm-34.529 27.38-1.891 1.65c-.47.41-.834 1.115-.54 1.678.141.276.247.552.54.762.282.21.587.315.94.439.693.238 1.562-.057 2.067-.439l2.032-1.535a1.58 1.58 0 0 0 0-2.545c-.858-.639-2.291-.734-3.136 0zm31.299-41.87c.118.362.223.734.353 1.096.375 1.03 1.444 1.869 2.818 1.869s2.443-.83 2.819-1.869c.129-.362.235-.734.352-1.096.529-1.678-1.01-3.375-3.159-3.375s-3.688 1.697-3.159 3.375zm122.954-92.817c.658-.038 1.374-.019 2.02-.143.517-.095.975-.286 1.504-.362 1.198-.191 2.431-.296 3.64-.448a.359.359 0 0 0 0-.715c-1.209-.143-2.442-.258-3.64-.448-.541-.086-.975-.258-1.504-.362-.634-.124-1.362-.105-2.02-.144a1.33 1.33 0 0 0 0 2.622m13.072 60.194-1.292.791h2.279c-1.574-.848-3.676-.82-5.062.305-1.445 1.173-1.551 3.308 0 4.462.74.553 1.714.963 2.748.924 1.01-.038 2.043-.305 2.748-.924 1.327-1.173 1.468-2.774.376-4.109v1.849c.329-.352.646-.696.975-1.048.505-.553.282-1.535-.317-1.983-.611-.458-1.715-.696-2.443-.258zM101.601 264.904h-.141c.317.038.634.067.94.105-.047 0-.106-.019-.153-.029.294.095.576.2.869.296-.035-.01-.059-.029-.082-.039.247.153.493.315.752.468l-.071-.058c.2.201.388.41.587.611-.023-.02-.035-.048-.047-.067.13.248.259.486.388.734-.012-.038-.024-.067-.035-.105l.141.829v-.114c-.646.915-1.304 1.84-1.95 2.755.634-.353 1.186-.686 1.55-1.249.529-.82.705-1.706.423-2.621-.023-.086-.059-.172-.07-.267l.152.896c-.011-.086-.011-.172-.011-.258 0-.943-.411-1.868-1.292-2.516.188 1.144.364 2.288.552 3.432a.2.2 0 0 1 .047-.058c.422-.6.61-1.468.34-2.145-.258-.648-.775-1.372-1.574-1.658-.281-.105-.552-.239-.857-.296-.282-.048-.681-.076-.963-.105.305.038.622.067.928.105-.059-.019-.106-.038-.164-.048a3.64 3.64 0 0 0-1.633-.057 3.6 3.6 0 0 0-1.515.391c-.27.172-.552.343-.822.515-.505.41-.858.905-1.057 1.468-.188.41-.247.925-.258 1.335-.094 1.906 1.867 3.651 4.263 3.584-.928-.314-1.856-.619-2.784-.934.705.448 1.022.696 1.891.906a5 5 0 0 0 1.21.133c1.503-.019 2.678-.667 3.488-1.659.681-.829.599-2.021 0-2.85-.599-.839-1.797-1.44-3.007-1.402zm24.805-36.952c.023-.143.035-.286.059-.419 0-.067.023-.143.035-.21.012-.095-.024-.381.023-.066.036.257.012.095.071-.039.035-.085.07-.162.105-.247a10 10 0 0 0 .235-.553c.423-.973-.916-2.06-2.114-1.716-.199.057-.399.114-.611.171l-.305.086c-.141.038-.505.057-.117.076.364.019.105 0-.012 0-.082 0-.176.019-.258.029l-.588.057c-.634.057-1.186.143-1.761.381-.658.286-1.139.811-1.421 1.354a2.45 2.45 0 0 0 .716 3.089c.904.677 2.185 1.001 3.382.724a3.6 3.6 0 0 0 1.809-1.01c.505-.534.646-1.039.752-1.716zm-56.879 28.686c-.693-.085-1.386-.181-2.08-.267-.939-.123-1.913-.047-2.595.553-.481.42-.787.944-.787 1.535 0 .553.294 1.135.787 1.535.729.591 1.633.687 2.596.553.693-.095 1.386-.181 2.079-.267.951-.124 1.75-1.058 1.703-1.821s-.681-1.687-1.703-1.821m-31.159 11.498c3.242 0 3.254-4.1 0-4.1s-3.253 4.1 0 4.1m-9.219 66.59c.035 1.135-.188 2.66 1.303 3.251l-.786-.829.634 1.62c.317.82 1.726.82 2.043 0l.635-1.62-.787.829c1.491-.591 1.268-2.126 1.303-3.251.07-2.269-4.404-2.269-4.345 0m17.993 55.379c-.506.086-1.046.134-1.539.258-.846.219-1.55.81-1.55 1.554 0 .677.575 1.22 1.315 1.477.552.191 1.198.239 1.773.344 1.469.247 2.937-.544 2.937-1.821 0-1.278-1.48-2.06-2.937-1.821zm-18.803 53.301c-.024.344-.071.687-.083 1.03-.023.848.33 1.582 1.093 2.183 1.08.858 2.842.858 3.934 0 .752-.601 1.14-1.335 1.092-2.183-.012-.343-.059-.686-.082-1.03-.047-.648-.294-1.239-.87-1.706-.516-.42-1.361-.734-2.101-.706-1.703.058-2.866 1.059-2.983 2.422zm87.732 12.651c.587-.677 1.104-1.315 1.55-2.059.704-1.173 1.21-2.116.904-3.451-.399-1.707-2.889-2.126-4.521-1.497-1.234.477-1.809 1.478-2.42 2.412-.552.839-.928 1.716-1.304 2.612-.505 1.22.459 2.574 1.844 3.041 1.539.525 3.042 0 3.97-1.058zM3.863 413.128c.505-.114 1.01-.228 1.503-.362.916-.238 1.703-.953 1.668-1.773-.047-.829-.681-1.516-1.668-1.773-.493-.124-.998-.239-1.503-.362-1.703-.401-3.453.715-3.453 2.135s1.738 2.536 3.453 2.135m41.552 78.574c4.029 0 4.029-5.081 0-5.081-4.028 0-4.028 5.081 0 5.081m139.984 36.494c.54.124 1.08.248 1.632.353.975.191 2.114.429 2.901-.258.517-.457.67-1.039.529-1.658-.047-.21-.13-.42-.188-.63-.141-.467-.306-.924-.458-1.382-.717-2.116-4.087-2.831-5.99-1.287s-1.022 4.28 1.586 4.862zm-49.457 14.167c.129-.191.259-.382.376-.572.247-.41.423-.792.505-1.249.035-.229.071-.42.082-.639-.047.267-.082.524-.129.791 0-.038.024-.085.035-.124-.117.229-.234.458-.364.696.153-.209.294-.419.435-.629.669-1.029.587-2.44-.517-3.27-1.127-.839-2.678-1.001-4.028-.419-.259.114-.517.238-.775.352.281-.095.563-.19.857-.295-.047 0-.106.019-.153.028.329-.038.646-.066.975-.104-.846.038-1.55.162-2.325.476-.235.096-.47.21-.705.305-2.384 1.059-2.713 3.833-.846 5.339 1.856 1.506 5.274 1.249 6.577-.686m13.835-35.283c.177-.448.353-.896.517-1.354-.141.257-.27.524-.411.782.047-.077.106-.143.176-.21a2.9 2.9 0 0 0 .576-1.735c0-.62-.2-1.201-.576-1.735-.751-1.049-2.161-1.697-3.652-1.697s-2.901.658-3.653 1.697a2.9 2.9 0 0 0-.575 1.735c0 .62.199 1.201.575 1.735.071.067.129.133.176.21-.129-.258-.27-.525-.411-.782.176.448.353.896.517 1.354.446 1.144 1.809 2.135 3.359 2.078 1.574-.057 2.877-.848 3.359-2.078zM311.594 31.26l-1.186-.305c-2.549-.658-4.78 1.63-3.794 3.528.905 1.735 4.651 2.345 5.72.314.564-1.067.575-1.554 0-2.631-1.069-2.03-4.815-1.42-5.72.315-.986 1.887 1.234 4.185 3.794 3.527l1.186-.305c2.678-.687 2.69-3.737 0-4.424zM187.395 80.672c1.774-.83 4.592-1.62 4.804-3.518.035-.353-.27-.706-.623-.887-1.069-.533-2.36-.257-3.417.124-1.022.372-2.032.734-3.054 1.106-1.116.4-1.386 1.735-.81 2.526.622.868 2.043 1.164 3.112.658zM345.383 2.613c-.258.247-.364.133.282-.153l.576-.19c-.223.047-.153.047.199 0 .658-.067.235-.02.071-.03.481-.018.892.106 1.256.363.858.429.811.381-.105-.162a4 4 0 0 0-.282-.133c-.352-.143.705.543.376.238-.364-.334.505.677.27.286.07.114.329.83.211.343.047.267.094.543.129.81-.023-.171 0-.343 0-.514-.047.267-.093.533-.129.81.024-.153.176-.439-.094.076-.164.277-.199.353-.117.229.141-.2.012-.067-.388.39.388-.419.729-.78.928-1.286.129-.315.141-.687.129-1.03l-1.515 2.145c.587-.305-.599.124-.152.02.082-.02.152-.039.235-.048-.752.085-.67.076.234-.02.822-.285.881-.304.2-.066.247-.048.118-.038-.376.028.235 0 .129-.019-.305-.047.2.047.129.019-.2-.076 1.022.41 2.678.133 2.889-.954.177-.886-.023-1.65-.704-2.364-.764-.8-2.138-1.173-3.371-1.096.517.114 1.034.228 1.539.343-2.396-1.363-5.38.133-6.155 2.154-.54 1.411.071 2.956 1.363 3.966.599.467 1.48.896 2.278 1.068.376.076.811.133 1.21.143.352-.02.705-.057 1.057-.124-.717.057-.893.086-.54.076.657.096 1.879-.276 2.431-.534a4.3 4.3 0 0 0 1.715-1.401c.833-1.144.434-2.631-.846-3.432-1.198-.753-3.242-.81-4.31.21zm206.341 59.021c.575.267.516.572.458.848a2 2 0 0 1-.176.524c.14-.314-.165.239-.188.267-.294.334.235-.038-.223.191.422-.22-.094.029-.247.086.505-.115.998-.22 1.503-.334-.575.029.552.22.587.22-.387-.03-.845-.287-1.233-.382-.54-.124-.282-.124.047.048.388.276.482.333.282.18-.2-.161-.141-.075.2.258a12 12 0 0 0-.646-.905c.493.6.141.219.012-.058-.271-.572-.564-1.077-1.152-1.496.318.438.635.877.94 1.315.247.687 0 .01.035-.295-.047.448 0 .295.106-.057.071-.277.117-.553.129-.83.012-.2 0-.124-.035.248.282-.524-.529.477 0 .038 1.585-1.306.294-3.184-1.715-3.356-1.444-.123-3.089.353-4.122 1.192-1.257 1.02-1.398 2.507-1.621 3.852.165-.506.329-1.001.505-1.507-1.761 2.183.188 5.32 2.69 6.511 1.292.61 3.006.916 4.474.61.552-.114 1.01-.333 1.468-.59 1.21-.668-.704.467.353-.239.235-.162.446-.295.658-.476l.481-.506c-.188.239-.211.286-.059.153 2.913-2.526 2.678-7.455-1.914-8.59-2.255-.553-3.629 2.126-1.597 3.07zM512.227 82.54c1.562 1.888 4.181 2.87 6.964 2.24 1.809-.41 3.935-2.116 3.888-3.794-.024-.982-1.386-1.325-2.244-.753-.164.105-.904.362-.974.467-.083.124-.024.067.34.143-.376-.076-.751-.228-1.139-.305-.07-.01-.752-.19-.446-.095.305.095-.353-.143-.411-.162-.576-.239.152.257-.271-.134.341.334-.035-.085-.117-.248-1.75-3.04-7.928-.19-5.579 2.65zm92.23-3.86c-.435-.03-.857-.048-1.292-.077-4.017-.238-4.028 5.31 0 5.072.435-.029.857-.048 1.292-.076 3.887-.23 3.899-4.681 0-4.92m25.368 1.173a3.73 3.73 0 0 0-2.349 1.316c-.223.276-.517.638-.552.962-.07.181-.047.172.071-.057a7 7 0 0 1-.224.42c-.152.39-.141.743-.023 1.134.411 1.516 2.267 3.089 4.228 2.107.599-.296.846-.953.47-1.459-.141-.19.094.22-.036-.124a1.5 1.5 0 0 0-.481-.667c.035.038.082.076.117.115-.105-.153-.093-.144.012.047a1 1 0 0 1-.07-.238c.035.238.047.267.035.067.012-.162 0-.172-.012-.02 0 .43.071-1.048-.047-.972-.047.572-.035.715.035.41.059-.153.059-.162 0-.038-.07.171.364-.229-.035.01.388-.239-.587.161-.094.047 1.022-.248 1.656-1.125 1.374-1.964-.305-.905-1.374-1.258-2.419-1.115z"/></g></svg>