<svg width="70" height="70" viewBox="0 0 70 70" fill="none" xmlns="http://www.w3.org/2000/svg">
<path d="M0 32.5C0 50.4493 14.5507 65 32.5 65C50.4493 65 65 50.4493 65 32.5C65 14.5507 50.4493 0 32.5 0C14.5507 0 0 14.5507 0 32.5Z" fill="#D99F66"/>
<path d="M38.384 12.804H41.45V20.532H38.384V12.804ZM29.774 18.852H50.69V26.916H47.75V21.624H32.588V26.916H29.774V18.852ZM32.966 25.782H35.906V45.732C35.906 46.572 36.06 47.118 36.368 47.37C36.676 47.594 37.362 47.706 38.426 47.706C38.678 47.706 39.126 47.706 39.77 47.706C40.442 47.706 41.184 47.706 41.996 47.706C42.836 47.706 43.606 47.706 44.306 47.706C45.006 47.706 45.51 47.706 45.818 47.706C46.49 47.706 46.98 47.552 47.288 47.244C47.596 46.936 47.82 46.348 47.96 45.48C48.1 44.612 48.212 43.324 48.296 41.616C48.632 41.868 49.066 42.106 49.598 42.33C50.13 42.554 50.606 42.708 51.026 42.792C50.886 44.808 50.662 46.376 50.354 47.496C50.046 48.616 49.556 49.4 48.884 49.848C48.212 50.296 47.246 50.52 45.986 50.52C45.818 50.52 45.468 50.52 44.936 50.52C44.404 50.52 43.788 50.52 43.088 50.52C42.416 50.52 41.73 50.52 41.03 50.52C40.33 50.52 39.714 50.52 39.182 50.52C38.678 50.52 38.342 50.52 38.174 50.52C36.83 50.52 35.766 50.38 34.982 50.1C34.226 49.848 33.694 49.372 33.386 48.672C33.106 47.972 32.966 46.992 32.966 45.732V25.782ZM47.12 28.89L49.22 31.368C47.96 32.152 46.518 32.936 44.894 33.72C43.298 34.476 41.632 35.204 39.896 35.904C38.188 36.604 36.522 37.248 34.898 37.836C34.814 37.5 34.66 37.108 34.436 36.66C34.24 36.184 34.044 35.778 33.848 35.442C35.416 34.826 37.026 34.168 38.678 33.468C40.33 32.74 41.884 31.984 43.34 31.2C44.824 30.388 46.084 29.618 47.12 28.89ZM19.778 13.224H22.55V22.17H19.778V13.224ZM15.746 20.574H28.178V35.694H15.746V33.048H25.7V23.178H15.746V20.574ZM14.108 20.574H16.628V37.878H14.108V20.574ZM19.988 21.666H22.298V34.392H22.508V45.732H19.736V34.392H19.988V21.666ZM12.554 45.816C13.842 45.648 15.326 45.452 17.006 45.228C18.686 45.004 20.464 44.752 22.34 44.472C24.216 44.164 26.106 43.87 28.01 43.59L28.178 46.32C25.49 46.768 22.816 47.216 20.156 47.664C17.524 48.112 15.158 48.518 13.058 48.882L12.554 45.816ZM24.692 38.844L27.086 38.13C27.562 39.25 28.01 40.454 28.43 41.742C28.878 43.002 29.256 44.234 29.564 45.438C29.9 46.642 30.138 47.72 30.278 48.672L27.716 49.512C27.604 48.532 27.394 47.44 27.086 46.236C26.778 45.004 26.414 43.744 25.994 42.456C25.602 41.168 25.168 39.964 24.692 38.844Z" fill="#BD3F2D"/>
</svg>
