<svg width="533" height="225" viewBox="0 0 533 225" fill="none" xmlns="http://www.w3.org/2000/svg">
<path d="M92.9343 103.281C90.0836 106.709 86.9653 109.155 83.5791 110.621C80.225 112.112 76.718 112.746 73.058 112.52C69.4247 112.262 65.7053 111.228 61.8996 109.418C58.094 107.609 54.3331 105.158 50.6168 102.068C47.3171 99.3239 44.2893 96.4808 41.5335 93.5388C38.7776 90.5968 36.267 87.4251 34.0015 84.0238L43.7123 72.3464C44.7598 74.0845 45.8979 75.8439 47.1267 77.6245C48.3556 79.405 49.6244 81.1376 50.9332 82.822C52.3006 84.5011 53.7053 86.1028 55.1473 87.6271C56.5893 89.1514 58.0632 90.5396 59.5689 91.7918C61.8114 93.6567 63.8775 95.0496 65.7669 95.9706C67.6564 96.8916 69.3775 97.4287 70.9301 97.5818C72.4827 97.7349 73.8696 97.5334 75.0907 96.9773C76.3118 96.4213 77.3886 95.5826 78.321 94.4613C79.5998 92.9236 80.217 91.2691 80.1725 89.498C80.1866 87.7214 79.8059 85.8333 79.0303 83.8335C78.2547 81.8337 77.2043 79.7409 75.879 77.5549C74.5857 75.3956 73.2844 73.1483 71.9749 70.813C70.6975 68.5043 69.5161 66.1128 68.4305 63.6386C67.3771 61.1909 66.7023 58.6789 66.4062 56.1025C66.1102 53.526 66.2995 50.9197 66.9744 48.2836C67.7079 45.6421 69.1936 42.9758 71.4314 40.2847C73.4828 37.8179 75.8762 35.8522 78.6115 34.3877C81.3468 32.9231 84.3549 32.1731 87.6358 32.1378C90.9433 32.0704 94.5024 32.8082 98.3131 34.3514C102.15 35.8626 106.2 38.3899 110.46 41.9332C111.71 42.9722 112.954 44.1152 114.193 45.3623C115.491 46.604 116.716 47.8671 117.87 49.1517C119.082 50.4308 120.191 51.7047 121.195 52.9733C122.258 54.2366 123.195 55.4227 124.007 56.5315L115.016 67.3438C114.31 66.1069 113.482 64.822 112.531 63.4893C111.58 62.1565 110.541 60.8319 109.414 59.5153C108.346 58.1934 107.208 56.9222 106.001 55.7017C104.794 54.4813 103.598 53.3782 102.413 52.3924C100.33 50.6608 98.4219 49.3717 96.6872 48.5252C94.9791 47.6467 93.4075 47.1255 91.9722 46.9616C90.5636 46.7656 89.2914 46.927 88.1556 47.4456C87.0198 47.9643 86.0123 48.7522 85.1332 49.8094C84.0409 51.1229 83.5276 52.6199 83.5933 54.3003C83.7178 55.9753 84.1811 57.7967 84.9833 59.7645C85.8443 61.7268 86.908 63.8036 88.1747 65.995C89.5 68.1809 90.804 70.4576 92.0868 72.8249C93.4283 75.1869 94.6124 77.6077 95.6393 80.0874C96.6981 82.5937 97.3756 85.1351 97.6717 87.7115C97.9998 90.3146 97.8104 92.9209 97.1035 95.5303C96.4554 98.1344 95.0656 100.718 92.9343 103.281Z" fill="black"/>
<path d="M128.805 124.815C130.371 125.596 131.676 126.619 132.721 127.885C133.785 129.114 134.55 130.473 135.018 131.963C135.542 133.435 135.748 134.981 135.638 136.602C135.529 138.224 135.092 139.799 134.33 141.328C133.587 142.819 132.601 144.097 131.372 145.16C130.162 146.187 128.803 146.952 127.294 147.457C125.841 147.943 124.304 148.132 122.683 148.022C121.043 147.949 119.44 147.522 117.874 146.742C116.382 145.998 115.132 145.002 114.125 143.755C113.098 142.545 112.342 141.214 111.856 139.761C111.388 138.271 111.2 136.734 111.292 135.15C111.401 133.528 111.828 131.972 112.572 130.48C113.334 128.951 114.329 127.655 115.558 126.592C116.787 125.528 118.127 124.753 119.58 124.267C121.052 123.744 122.579 123.527 124.163 123.619C125.766 123.673 127.313 124.072 128.805 124.815Z" fill="black"/>
<path d="M203.073 174.54L188.217 130.462L179.164 168.911L163.955 165.33L182.676 85.8169L197.885 89.3978L189.363 125.596L221.672 94.9985L239.741 99.2527L203.806 130.794L222.419 179.095L203.073 174.54Z" fill="black"/>
<path d="M298.778 139.205C298.778 146.622 297.903 153.018 296.153 158.393C294.445 163.768 292.07 168.184 289.028 171.643C286.028 175.101 282.487 177.664 278.403 179.33C274.362 180.997 270.028 181.83 265.403 181.83C254.653 181.83 246.57 178.268 241.153 171.143C235.737 163.976 233.028 153.58 233.028 139.955C233.028 132.539 233.882 126.143 235.591 120.768C237.341 115.393 239.716 110.976 242.716 107.518C245.757 104.059 249.299 101.497 253.341 99.8303C257.424 98.1637 261.778 97.3303 266.403 97.3303C277.153 97.3303 285.237 100.893 290.653 108.018C296.07 115.143 298.778 125.539 298.778 139.205ZM282.528 139.955C282.528 130.289 281.237 123.08 278.653 118.33C276.07 113.58 271.82 111.205 265.903 111.205C262.945 111.205 260.424 111.83 258.341 113.08C256.257 114.289 254.528 116.08 253.153 118.455C251.82 120.83 250.841 123.768 250.216 127.268C249.591 130.726 249.278 134.705 249.278 139.205C249.278 148.872 250.57 156.08 253.153 160.83C255.778 165.58 260.028 167.955 265.903 167.955C268.862 167.955 271.382 167.351 273.466 166.143C275.591 164.893 277.32 163.08 278.653 160.705C279.987 158.33 280.966 155.414 281.591 151.955C282.216 148.455 282.528 144.455 282.528 139.955Z" fill="black"/>
<path d="M355.153 168.467L337.943 145.551C336.316 143.366 334.406 141.89 332.213 141.122C330.052 140.304 327.693 140.195 325.138 140.797L322.279 141.47L330.028 174.383L315.062 177.906L296.341 98.3932L319.519 92.9358C323.9 91.9045 327.965 91.3539 331.716 91.2842C335.457 91.1739 338.79 91.6947 341.715 92.8466C344.64 93.9985 347.101 95.8162 349.099 98.2995C351.136 100.773 352.633 104.038 353.588 108.094C354.275 111.014 354.461 113.71 354.144 116.182C353.827 118.654 353.093 120.902 351.944 122.928C350.784 124.913 349.249 126.666 347.339 128.186C345.468 129.696 343.324 130.95 340.905 131.948C342.947 131.895 344.994 132.59 347.046 134.034C349.088 135.436 351.322 137.65 353.746 140.675L372.735 164.327L355.153 168.467ZM338.236 113.25C337.319 109.356 335.423 106.849 332.548 105.728C329.673 104.607 325.761 104.629 320.813 105.794L314.243 107.341L319.528 129.79L325.612 128.357C327.924 127.813 329.955 127.078 331.706 126.152C333.498 125.216 334.948 124.104 336.058 122.816C337.167 121.527 337.919 120.087 338.315 118.496C338.701 116.864 338.675 115.115 338.236 113.25Z" fill="black"/>
<path d="M391.823 156.47L355.377 83.3633L399.397 61.4176L405.197 73.052L375.16 88.0264L384.223 106.205L412.862 91.9278L418.522 103.283L389.884 117.56L400.006 137.864L430.043 122.89L435.843 134.524L391.823 156.47Z" fill="black"/>
<path d="M490.555 92.9303L476.785 83.4094L454.871 101.632L461.626 116.988L449.9 126.738L416.267 48.4652L432.798 34.7182L503.626 82.0605L490.555 92.9303ZM433.643 53.5245L449.674 89.6154L466.109 75.9483L433.643 53.5245Z" fill="black"/>
</svg>
