<?xml version="1.0" encoding="UTF-8"?>
<svg xmlns="http://www.w3.org/2000/svg" xmlns:xlink="http://www.w3.org/1999/xlink" width="455px" height="454px" viewBox="0 0 454 454" version="1.1">
<g id="surface1">
<path style=" stroke:none;fill-rule:nonzero;fill:rgb(20%,41.960785%,32.941177%);fill-opacity:1;" d="M 445.34375 227 C 445.34375 105.890625 347.371094 7.710938 226.519531 7.710938 C 105.664062 7.710938 7.695312 105.890625 7.695312 227 C 7.695312 348.109375 105.664062 446.289062 226.519531 446.289062 C 347.371094 446.289062 445.34375 348.109375 445.34375 227 Z M 445.34375 227 "/>
<path style="fill:none;stroke-width:15;stroke-linecap:butt;stroke-linejoin:miter;stroke:rgb(85.09804%,71.764708%,58.823532%);stroke-opacity:1;stroke-miterlimit:10;" d="M 235.947205 420.748761 C 338.458081 420.748761 421.560848 337.809902 421.560848 235.5 C 421.560848 133.190098 338.458081 50.251239 235.947205 50.251239 C 133.43633 50.251239 50.333563 133.190098 50.333563 235.5 C 50.333563 337.809902 133.43633 420.748761 235.947205 420.748761 Z M 235.947205 420.748761 " transform="matrix(0.961864,0,0,0.963907,0,0)"/>
<path style="fill:none;stroke-width:15;stroke-linecap:butt;stroke-linejoin:miter;stroke:rgb(85.09804%,71.764708%,58.823532%);stroke-opacity:1;stroke-miterlimit:10;" d="M 235.947205 463.000327 C 361.837968 463.000327 463.893998 361.144308 463.893998 235.5 C 463.893998 109.855692 361.837968 7.999673 235.947205 7.999673 C 110.056443 7.999673 8.000413 109.855692 8.000413 235.5 C 8.000413 361.144308 110.056443 463.000327 235.947205 463.000327 Z M 235.947205 463.000327 " transform="matrix(0.961864,0,0,0.963907,0,0)"/>
<path style="fill:none;stroke-width:15;stroke-linecap:butt;stroke-linejoin:miter;stroke:rgb(85.09804%,71.764708%,58.823532%);stroke-opacity:1;stroke-miterlimit:10;" d="M 235.894411 150.470041 L 150.696104 235.5 L 235.894411 320.529959 L 321.088656 235.5 Z M 235.894411 150.470041 " transform="matrix(0.961864,0,0,0.963907,0,0)"/>
<path style="fill:none;stroke-width:15;stroke-linecap:butt;stroke-linejoin:miter;stroke:rgb(85.09804%,71.764708%,58.823532%);stroke-opacity:1;stroke-miterlimit:10;" d="M 235.898472 105.422236 L 105.56484 235.5 L 235.898472 365.577764 L 366.232104 235.5 Z M 235.898472 105.422236 " transform="matrix(0.961864,0,0,0.963907,0,0)"/>
<path style="fill:none;stroke-width:15;stroke-linecap:butt;stroke-linejoin:miter;stroke:rgb(85.09804%,71.764708%,58.823532%);stroke-opacity:1;stroke-miterlimit:10;" d="M 235.947205 7.999673 L 235.947205 50.251239 " transform="matrix(0.961864,0,0,0.963907,0,0)"/>
<path style="fill:none;stroke-width:15;stroke-linecap:butt;stroke-linejoin:miter;stroke:rgb(85.09804%,71.764708%,58.823532%);stroke-opacity:1;stroke-miterlimit:10;" d="M 235.947205 420.748761 L 235.947205 463.000327 " transform="matrix(0.961864,0,0,0.963907,0,0)"/>
<path style="fill:none;stroke-width:15;stroke-linecap:butt;stroke-linejoin:miter;stroke:rgb(85.09804%,71.764708%,58.823532%);stroke-opacity:1;stroke-miterlimit:10;" d="M 176.951267 15.74809 L 187.908177 56.561011 " transform="matrix(0.961864,0,0,0.963907,0,0)"/>
<path style="fill:none;stroke-width:15;stroke-linecap:butt;stroke-linejoin:miter;stroke:rgb(85.09804%,71.764708%,58.823532%);stroke-opacity:1;stroke-miterlimit:10;" d="M 283.986233 414.438989 L 294.943144 455.243805 " transform="matrix(0.961864,0,0,0.963907,0,0)"/>
<path style="fill:none;stroke-width:15;stroke-linecap:butt;stroke-linejoin:miter;stroke:rgb(85.09804%,71.764708%,58.823532%);stroke-opacity:1;stroke-miterlimit:10;" d="M 121.97584 38.47867 L 143.134292 75.07292 " transform="matrix(0.961864,0,0,0.963907,0,0)"/>
<path style="fill:none;stroke-width:15;stroke-linecap:butt;stroke-linejoin:miter;stroke:rgb(85.09804%,71.764708%,58.823532%);stroke-opacity:1;stroke-miterlimit:10;" d="M 328.751996 395.92708 L 349.922632 432.517277 " transform="matrix(0.961864,0,0,0.963907,0,0)"/>
<path style="fill:none;stroke-width:15;stroke-linecap:butt;stroke-linejoin:miter;stroke:rgb(85.09804%,71.764708%,58.823532%);stroke-opacity:1;stroke-miterlimit:10;" d="M 74.76122 74.631195 L 104.703882 104.51042 " transform="matrix(0.961864,0,0,0.963907,0,0)"/>
<path style="fill:none;stroke-width:15;stroke-linecap:butt;stroke-linejoin:miter;stroke:rgb(85.09804%,71.764708%,58.823532%);stroke-opacity:1;stroke-miterlimit:10;" d="M 367.19459 366.48958 L 397.125069 396.3607 " transform="matrix(0.961864,0,0,0.963907,0,0)"/>
<path style="fill:none;stroke-width:15;stroke-linecap:butt;stroke-linejoin:miter;stroke:rgb(85.09804%,71.764708%,58.823532%);stroke-opacity:1;stroke-miterlimit:10;" d="M 38.540061 121.749837 L 75.203882 142.871567 " transform="matrix(0.961864,0,0,0.963907,0,0)"/>
<path style="fill:none;stroke-width:15;stroke-linecap:butt;stroke-linejoin:miter;stroke:rgb(85.09804%,71.764708%,58.823532%);stroke-opacity:1;stroke-miterlimit:10;" d="M 396.690529 328.120328 L 433.35435 349.250163 " transform="matrix(0.961864,0,0,0.963907,0,0)"/>
<path style="fill:none;stroke-width:15;stroke-linecap:butt;stroke-linejoin:miter;stroke:rgb(85.09804%,71.764708%,58.823532%);stroke-opacity:1;stroke-miterlimit:10;" d="M 15.765281 176.620947 L 56.656732 187.558697 " transform="matrix(0.961864,0,0,0.963907,0,0)"/>
<path style="fill:none;stroke-width:15;stroke-linecap:butt;stroke-linejoin:miter;stroke:rgb(85.09804%,71.764708%,58.823532%);stroke-opacity:1;stroke-miterlimit:10;" d="M 415.24174 283.445356 L 456.121008 294.383105 " transform="matrix(0.961864,0,0,0.963907,0,0)"/>
<path style="fill:none;stroke-width:15;stroke-linecap:butt;stroke-linejoin:miter;stroke:rgb(85.09804%,71.764708%,58.823532%);stroke-opacity:1;stroke-miterlimit:10;" d="M 8.000413 235.5 L 50.333563 235.5 " transform="matrix(0.961864,0,0,0.963907,0,0)"/>
<path style="fill:none;stroke-width:15;stroke-linecap:butt;stroke-linejoin:miter;stroke:rgb(85.09804%,71.764708%,58.823532%);stroke-opacity:1;stroke-miterlimit:10;" d="M 421.560848 235.5 L 463.893998 235.5 " transform="matrix(0.961864,0,0,0.963907,0,0)"/>
<path style="fill:none;stroke-width:15;stroke-linecap:butt;stroke-linejoin:miter;stroke:rgb(85.09804%,71.764708%,58.823532%);stroke-opacity:1;stroke-miterlimit:10;" d="M 15.765281 294.383105 L 56.656732 283.445356 " transform="matrix(0.961864,0,0,0.963907,0,0)"/>
<path style="fill:none;stroke-width:15;stroke-linecap:butt;stroke-linejoin:miter;stroke:rgb(85.09804%,71.764708%,58.823532%);stroke-opacity:1;stroke-miterlimit:10;" d="M 415.24174 187.558697 L 456.121008 176.620947 " transform="matrix(0.961864,0,0,0.963907,0,0)"/>
<path style="fill:none;stroke-width:15;stroke-linecap:butt;stroke-linejoin:miter;stroke:rgb(85.09804%,71.764708%,58.823532%);stroke-opacity:1;stroke-miterlimit:10;" d="M 38.540061 349.250163 L 75.203882 328.120328 " transform="matrix(0.961864,0,0,0.963907,0,0)"/>
<path style="fill:none;stroke-width:15;stroke-linecap:butt;stroke-linejoin:miter;stroke:rgb(85.09804%,71.764708%,58.823532%);stroke-opacity:1;stroke-miterlimit:10;" d="M 396.690529 142.871567 L 433.35435 121.749837 " transform="matrix(0.961864,0,0,0.963907,0,0)"/>
<path style="fill:none;stroke-width:15;stroke-linecap:butt;stroke-linejoin:miter;stroke:rgb(85.09804%,71.764708%,58.823532%);stroke-opacity:1;stroke-miterlimit:10;" d="M 74.76122 396.3607 L 104.703882 366.48958 " transform="matrix(0.961864,0,0,0.963907,0,0)"/>
<path style="fill:none;stroke-width:15;stroke-linecap:butt;stroke-linejoin:miter;stroke:rgb(85.09804%,71.764708%,58.823532%);stroke-opacity:1;stroke-miterlimit:10;" d="M 367.19459 104.51042 L 397.125069 74.631195 " transform="matrix(0.961864,0,0,0.963907,0,0)"/>
<path style="fill:none;stroke-width:15;stroke-linecap:butt;stroke-linejoin:miter;stroke:rgb(85.09804%,71.764708%,58.823532%);stroke-opacity:1;stroke-miterlimit:10;" d="M 121.97584 432.517277 L 143.134292 395.92708 " transform="matrix(0.961864,0,0,0.963907,0,0)"/>
<path style="fill:none;stroke-width:15;stroke-linecap:butt;stroke-linejoin:miter;stroke:rgb(85.09804%,71.764708%,58.823532%);stroke-opacity:1;stroke-miterlimit:10;" d="M 328.751996 75.07292 L 349.922632 38.47867 " transform="matrix(0.961864,0,0,0.963907,0,0)"/>
<path style="fill:none;stroke-width:15;stroke-linecap:butt;stroke-linejoin:miter;stroke:rgb(85.09804%,71.764708%,58.823532%);stroke-opacity:1;stroke-miterlimit:10;" d="M 176.951267 455.243805 L 187.908177 414.438989 " transform="matrix(0.961864,0,0,0.963907,0,0)"/>
<path style="fill:none;stroke-width:15;stroke-linecap:butt;stroke-linejoin:miter;stroke:rgb(85.09804%,71.764708%,58.823532%);stroke-opacity:1;stroke-miterlimit:10;" d="M 283.986233 56.561011 L 294.943144 15.74809 " transform="matrix(0.961864,0,0,0.963907,0,0)"/>
</g>
</svg>
