<svg width="262" height="167" viewBox="0 0 262 167" fill="none" xmlns="http://www.w3.org/2000/svg">
<path d="M82.6948 90.5246C81.3467 95.5555 79.4763 99.7993 77.0834 103.256C74.7416 106.683 71.9631 109.325 68.7482 111.181C65.5735 113.048 62.0025 114.14 58.0352 114.458C54.0678 114.775 49.8304 114.33 45.3227 113.122C40.2516 111.763 36.0775 109.955 32.8003 107.696C29.5232 105.438 27.0813 102.799 25.4745 99.7803C23.8677 96.7616 23.0249 93.3868 22.9462 89.6559C22.8675 85.9251 23.405 81.9065 24.5589 77.6001L38.5837 25.259L53.4348 29.2383L39.6527 80.6739C38.9409 83.3301 38.5314 85.7439 38.4242 87.9151C38.3571 90.0971 38.693 92.0635 39.4316 93.8144C40.2214 95.5358 41.3845 96.9905 42.921 98.1787C44.4575 99.3669 46.5338 100.311 49.1498 101.012C51.6049 101.67 53.7585 101.924 55.6106 101.773C57.4735 101.582 59.1518 100.953 60.6453 99.8868C62.1497 98.7801 63.4748 97.2156 64.6206 95.1932C65.7664 93.1709 66.7545 90.6102 67.5848 87.5112L81.2052 36.6793L96.0563 40.6587L82.6948 90.5246Z" fill="black"/>
<path d="M164.75 98.3126C164.75 102.771 163.917 106.646 162.25 109.938C160.625 113.229 158.333 115.958 155.375 118.125C152.417 120.25 148.896 121.833 144.812 122.875C140.729 123.917 136.271 124.438 131.438 124.438C127.146 124.438 123 124.188 119 123.688C115 123.188 111.042 122.354 107.125 121.188V106C109.042 106.667 111.042 107.292 113.125 107.875C115.208 108.458 117.292 108.979 119.375 109.438C121.5 109.854 123.604 110.188 125.688 110.438C127.771 110.688 129.792 110.813 131.75 110.813C134.667 110.813 137.146 110.563 139.188 110.063C141.229 109.563 142.896 108.875 144.188 108C145.479 107.125 146.417 106.083 147 104.875C147.583 103.667 147.875 102.333 147.875 100.875C147.875 98.8751 147.292 97.2084 146.125 95.8751C145 94.5001 143.5 93.2917 141.625 92.2501C139.75 91.2084 137.604 90.2709 135.188 89.4376C132.812 88.6042 130.375 87.7084 127.875 86.7501C125.417 85.7917 122.979 84.7084 120.562 83.5001C118.188 82.2917 116.062 80.7917 114.188 79.0001C112.312 77.2084 110.792 75.0834 109.625 72.6251C108.5 70.1251 107.938 67.1251 107.938 63.6251C107.938 60.4167 108.521 57.3751 109.688 54.5001C110.854 51.6251 112.688 49.1251 115.188 47.0001C117.688 44.8334 120.896 43.1251 124.812 41.8751C128.729 40.5834 133.458 39.9376 139 39.9376C140.625 39.9376 142.312 40.0209 144.062 40.1876C145.854 40.3126 147.604 40.5001 149.312 40.7501C151.062 40.9584 152.729 41.2292 154.312 41.5626C155.938 41.8542 157.417 42.1667 158.75 42.5001V56.5626C157.417 56.0626 155.958 55.6042 154.375 55.1876C152.792 54.7709 151.146 54.4167 149.438 54.1251C147.771 53.7917 146.083 53.5417 144.375 53.3751C142.667 53.2084 141.042 53.1251 139.5 53.1251C136.792 53.1251 134.5 53.3542 132.625 53.8126C130.75 54.2292 129.208 54.8334 128 55.6251C126.792 56.3751 125.917 57.3126 125.375 58.4376C124.833 59.5626 124.562 60.8126 124.562 62.1876C124.562 63.8959 125.125 65.3751 126.25 66.6251C127.417 67.8334 128.938 68.9376 130.812 69.9376C132.729 70.8959 134.875 71.8126 137.25 72.6876C139.667 73.5209 142.125 74.4376 144.625 75.4376C147.167 76.3959 149.625 77.5001 152 78.7501C154.417 80.0001 156.562 81.5209 158.438 83.3126C160.354 85.1042 161.875 87.2292 163 89.6876C164.167 92.1042 164.75 94.9792 164.75 98.3126Z" fill="black"/>
<path d="M232.548 110.382L224.028 95.9712L196.499 103.348L196.205 120.12L181.475 124.067L183.696 38.9029L204.463 33.3383L248.969 105.982L232.548 110.382ZM197.358 50.7712L196.809 90.2587L217.456 84.7265L197.358 50.7712Z" fill="black"/>
</svg>
