<svg width="536" height="222" viewBox="0 0 536 222" fill="none" xmlns="http://www.w3.org/2000/svg">
<path d="M62.6815 111.878L46.43 99.5887L75.8106 19.392L89.719 29.9097L71.0679 77.4737L64.8813 93.0118L78.8617 82.1921L118.882 51.963L131.943 61.8398L62.6815 111.878Z" fill="black"/>
<path d="M125.307 71.3252L130.562 59.915L177.452 81.513L172.197 92.9233L155.848 85.3927L132.236 136.654L148.585 144.184L143.277 155.708L96.3873 134.11L101.695 122.586L118.044 130.117L141.656 78.8558L125.307 71.3252Z" fill="black"/>
<path d="M168.79 164.098L186.283 84.3056L234.329 94.8391L231.545 107.537L198.762 100.35L194.412 120.191L225.669 127.044L222.952 139.437L191.695 132.584L186.836 154.746L219.62 161.933L216.836 174.631L168.79 164.098Z" fill="black"/>
<path d="M275.421 108.555L275.421 177.43H259.671L259.671 108.555L237.296 108.555L237.296 95.7427L297.796 95.7427V108.555H275.421Z" fill="black"/>
<path d="M353.984 166.936L322.177 124.001L315.533 114.708L322.787 147.797L328.221 172.584L314.546 175.582L297.053 95.7894L315.49 91.7473L347.791 134.893L353.685 143.391L345.963 108.165L341.131 86.1259L354.806 83.1278L372.299 162.92L353.984 166.936Z" fill="black"/>
<path d="M431.609 137.666L420.776 124.903L394.89 136.826L397.435 153.407L383.584 159.787L371.378 75.4729L390.906 66.4781L447.05 130.554L431.609 137.666ZM386.85 84.8612L392.983 123.873L412.398 114.931L386.85 84.8612Z" fill="black"/>
<path d="M495.618 94.8011L466.563 58.866L454.993 44.4992L459.392 56.8444L468.94 84.4943L461.263 90.2998L437.957 73.0545L427.675 65.1577L438.221 79.8285L465.209 117.797L454.79 125.676L408.71 58.1078L422.568 47.6278L442.287 61.7872L452.908 70.1327L448.223 58.2387L439.817 34.5843L453.924 23.9158L506.436 86.6207L495.618 94.8011Z" fill="black"/>
</svg>
