<?xml version="1.0" standalone="no"?>
<!DOCTYPE svg PUBLIC "-//W3C//DTD SVG 20010904//EN"
 "http://www.w3.org/TR/2001/REC-SVG-20010904/DTD/svg10.dtd">
<svg version="1.0" xmlns="http://www.w3.org/2000/svg"
 width="564.000000pt" height="1348.000000pt" viewBox="0 0 564.000000 1348.000000"
 preserveAspectRatio="xMidYMid meet">

<g transform="translate(0.000000,1348.000000) scale(0.100000,-0.100000)"
fill="#000000" stroke="none">
<path d="M2688 11711 c-81 -26 -294 -131 -375 -183 -80 -52 -108 -96 -148
-233 -31 -107 -42 -234 -27 -330 6 -38 14 -141 18 -227 6 -131 5 -158 -7 -162
-61 -18 -116 -43 -170 -77 -35 -22 -156 -85 -269 -139 -439 -213 -428 -207
-487 -285 -69 -91 -167 -287 -249 -500 -36 -93 -97 -236 -135 -316 -79 -165
-102 -254 -143 -538 -25 -170 -36 -291 -56 -636 -22 -375 -94 -907 -167 -1229
-33 -146 -36 -178 -41 -351 -3 -162 -1 -208 17 -312 12 -66 21 -141 21 -165 0
-76 27 -145 75 -193 l43 -44 3 -748 c1 -411 -1 -901 -5 -1089 -5 -188 -6 -362
-2 -387 7 -43 9 -46 46 -52 21 -4 83 -1 137 6 171 22 152 32 183 -98 15 -61
34 -122 43 -136 10 -15 64 -49 140 -86 120 -59 127 -61 259 -78 l135 -16 12
-125 c15 -156 50 -355 96 -542 40 -166 77 -407 100 -657 l16 -171 -46 -94
c-25 -52 -57 -139 -71 -194 -34 -134 -31 -287 8 -382 32 -78 127 -230 152
-244 10 -5 47 -14 83 -19 35 -5 85 -19 111 -32 45 -21 57 -22 330 -22 269 0
284 1 298 19 19 27 18 89 -5 176 -11 41 -18 76 -16 78 2 3 57 -3 123 -12 202
-27 266 -20 404 50 76 38 88 60 69 124 -15 49 -85 154 -119 178 -15 11 -61 29
-102 41 -145 44 -451 181 -498 224 -34 32 -55 118 -54 227 1 174 7 197 224
870 71 223 134 413 139 422 5 9 23 18 41 20 26 2 33 9 43 38 l12 35 57 -3 c41
-3 64 1 83 13 25 17 28 16 112 -26 l86 -44 155 2 c203 3 214 7 220 63 5 41 8
45 40 51 37 8 58 29 94 94 l23 40 -9 870 c-5 479 -6 911 -3 962 3 51 14 116
25 145 43 124 59 499 41 968 -22 585 -41 924 -61 1124 -12 110 -20 210 -18
223 3 21 6 20 70 -27 46 -34 82 -72 116 -123 28 -40 61 -80 74 -89 44 -29 96
-90 122 -145 27 -55 61 -79 98 -70 13 4 21 -9 38 -67 47 -157 75 -200 142
-213 15 -3 31 -10 35 -16 3 -6 140 -1391 304 -3080 164 -1688 300 -3071 303
-3074 3 -3 40 0 84 7 l78 12 -3 31 c-23 223 -563 6025 -563 6045 0 20 22 52
80 117 44 50 105 126 135 170 46 67 55 87 55 124 0 58 -30 118 -91 183 -52 54
-53 58 -58 170 -1 9 -20 38 -43 65 -23 26 -54 69 -70 95 -17 27 -33 48 -38 48
-19 0 -53 77 -109 246 -114 348 -138 401 -297 679 -71 124 -132 250 -195 400
-115 275 -193 484 -220 583 -32 120 -101 210 -246 325 -35 27 -63 51 -63 54 0
2 12 20 26 38 14 19 40 69 57 112 29 75 31 84 31 228 1 176 4 184 104 288 l65
68 -7 142 c-12 257 -20 318 -45 367 -60 115 -225 314 -294 354 -75 43 -259 73
-507 81 -125 5 -153 3 -202 -14z"/>
</g>
</svg>
