<?xml version="1.0" encoding="UTF-8"?>
<svg version="1.1" id="Layer_1" xmlns="http://www.w3.org/2000/svg" xmlns:xlink="http://www.w3.org/1999/xlink" x="0px" y="0px" viewBox="0 0 790.959 1759.519" enable-background="new 0 0 790.959 1759.519" xml:space="preserve">
<g>
	<path d="M140.845,79.811c5.639-1.047,2.868,14.201,3.739,24.61c0.407,4.054,2.545,7.641,3.398,11.584   c0.42,1.528-0.564,2.929-1.072,4.306c9.736,2.862,14.152,8.97,13.581,18.359c-1.048,16.296-8.902,24.547-13.548,22.734   c-3.289-1.118-6.802-1.584-9.927-3.162c0.974,0.987,2.312,1.879,2.578,3.339c-1.354,0.085-2.555-0.636-3.706-1.25   c2.338,2.302,4.113,5.077,6.11,7.658c0.389,0.523,4.377,3.791,0.289,12.108c-3.664,7.119-13.72,17.029-22.219,14.761   c-4.28-1.148-7.523-4.431-10.216-7.782c-0.656,0.964-1.256,2.017-2.187,2.742c-3.785,1.25-7.979,0.426-11.685,2.024   c-11.451,4.978-19.642,14.156-21.606,5.405c-4.06-19.086,18.808-39.901,33.96-53.566c-0.971-0.764-1.427-1.951-1.417-3.171   c-10.568-0.503-15.467,3.004-17.343,3.844c-0.033-0.151-0.098-0.459-0.131-0.613c5.228-3.188,11.518-4.106,17.552-3.768   c0.302-0.869,0.859-1.587,1.509-2.22c-0.64-6.887-0.761-13.85,0.039-20.727c0.577-0.479,0.613,0.597,0.528,0.925   c-0.666,6.5-0.594,13.059,0.003,19.563c0.856-0.102,1.702,0.036,2.499,0.354C115.298,118.453,122.356,82.383,140.845,79.811z"/>
	<path d="M506.277,252.272c30.145-12.565,66.641-7.339,94.072,13.827c48.473,4.56,72.549,39.969,70.839,88.021   c-0.767,22.215-10.665,83.628-14.286,105.649c-24.247,147.734,8.056,215.242-20.117,325.073   c-5.661,2.529-11.711,4.132-17.851,4.932c-1.705-9.321-3.385-18.644-5.103-27.959c-0.167,9.468-0.246,18.94-0.338,28.408   c-8.891,0.485-17.815-0.745-26.397-3.04c-0.089-3.247-0.131-6.494-0.256-9.737c-1.587,2.735-3.086,5.52-4.644,8.274   c-4.5-1.482-8.914-3.224-13.204-5.244c1.007-8.34,1.932-16.69,2.955-25.027c-3.309,7.179-6.566,14.381-9.796,21.596   c-1.092-0.603-2.174-1.21-3.26-1.814c-0.2,14.64-0.315,29.284-0.495,43.924c-0.723,12.219,57.382,93.823,60.63,99.323   c29.662,49.854,63.351,249.285,89.638,285.213c-4.106,8.087-6.641,17.965-15.234,23.659c7.864,11.219,15.765,22.413,23.633,33.632   c-25.201,19.659-71.514,38.158-82.856,30.602c-3.377-2.141-2.029-5.211-1.23-13.82c-11.736,6.251-29.732,12.13-42.746,15.342   c-4.842,22.064-4.397,19.159-3.945,20.524c42.948,107.639,21.094,177.384,19.72,224.79c-1.59,41.577,20.077,92.952,6.982,102.874   c-15.002,10.426-40.072,3.168-61.089,0.41c1.544,9.95,3.767,24.811-2.738,29.549c-19.782,13.507-56.446-3.204-78.195-0.184   c-6.819,1.1-60.564,9.727-64.388,3.883c-1.404,0.594-2.935,1.125-4.473,0.781c-0.931,2.765-4.85,5.224-11.374,3.394   c-4.29,1.43-8.957-2.119-9.783-6.343c-3.67-2.343-2.568-5.139-2.909-6.913c-0.817-2.752,0.194-5.812,2.03-7.904   c2.758-0.918,5.713-1.191,8.596-0.83c6.008-5.864,13.905-9.449,22.036-11.236c0.803-0.262,1.791-0.19,2.394-0.866   c9.468-9.34,20.255-17.26,31.605-24.151c22.084-13.539,42.097-19.943,40.696-24.8c-4.225-36.99-3.725-34.517-4.237-35.036   c-4.599-25.501-23.185-130.49-33.517-188.596c-9.195-3.14-15.008-30.711-15.076-33.167c-0.751-10.275-1.492-20.553-2.25-30.828   c-30.972,3.335-62.053,5.595-93.163,7.166c11.298-130.233,32.986-363.392,44.521-464.315c4.421-35.712-1.169-57.987,1.089-88.287   c-7.219,2.435-15.893,5.376-22.869,4.04c-1.699-0.237-22.712-11.339-47.879-41.687c-15.616-18.659-21.405-29.355-37.073-55.425   c-45.434-75.563-39.732-55.006-66.907-61.535c-10.885-2.092-21.019-0.79-23.79-2.214c-36.412-26.337-31.022-27.062-45.422-43.15   c-2.053-2.187-4.582-3.916-6.444-6.271c-0.619-4.522,2.622-6.829,7.297-7.402c-2.227-2.361-4.565-4.611-6.828-6.93   c-0.913-0.807-0.82-4.846,2.512-6.221c4.02-1.74,10.519-0.124,12.266,2.961c-0.544-1.974-0.728-4.362,0.676-6.031   c5.013-6.591,24.826,6.662,31.638,11.246c-0.695-6.281-1.327-10.637,4.145-11.16c8.806-0.819,8.019,2.834,23.649,4.25   c11.878,2.493,16.132-1.669,45.262,15.375c4.847,4.293,5.907,11.275,10.354,15.896c64.789,83.035,66.4,58.969,101.976,88.415   c64.68-120.426,41.153-81.532,62.614-126.094c22.321-45.442,36.489-16.184,47.341-28.759c5.748-7.444,4.727-40.227-3.371-58.226   c-3.164-6.507-3.871-6.887-19.514-15.244c-21.397-11.42-28.912-12.695-35.521-19.586c-3.742-3.899-5.939-9.639-4.677-15.017   c1.423-5.739,6.536-9.501,8.652-14.912c-2.371-7.09-4.247-11.101,3.893-13.919c-1.613-3.016-3.507-8.817-0.318-10.396   c4.801-2.902,8.806-6.94,12.344-11.256c-5.454-4.76-5.885-13.082-3.175-16.28c1.312-1.568,3.519-1.581,5.333-2.165   c8.396-2.289,17.123-4.552,24.233-9.803c-1.108-0.62-2.174-1.338-3.142-2.145c1.256,0.59,2.558,1.145,3.916,1.482   c0.272-0.23,0.548-0.456,0.83-0.676c-2.817-2.378-5.733-4.634-8.556-7.009C461.99,281.924,483.039,261.776,506.277,252.272    M542.241,1572.873c2.759-1.607,7.295-4.081,6.858-6.297c-1.141-10.341-2.368-20.671-3.46-31.015   C545.601,1535.889,542.142,1566.577,542.241,1572.873z"/>
</g>
</svg>