<?xml version="1.0" encoding="UTF-8"?>
<!DOCTYPE svg PUBLIC "-//W3C//DTD SVG 1.1//EN" "http://www.w3.org/Graphics/SVG/1.1/DTD/svg11.dtd">
<svg version="1.1" id="Layer_1" xmlns="http://www.w3.org/2000/svg" xmlns:xlink="http://www.w3.org/1999/xlink" x="0px" y="0px" viewBox="0 0 594.193 1681.693" enable-background="new 0 0 594.193 1681.693" xml:space="preserve">
<path d="M380.261,348.654c15.086-5.157,30.362-4.798,45.756-2.004c10.249,1.86,19.219,6.833,28.223,11.736  c6.376,3.472,6.552,3.527,11.742-1.472c2.269-2.186,3.789-2.354,6.347-0.451c4.235,3.15,6.105,2.602,9.199-1.344  c9.98-12.728,20.558-24.886,32.729-35.639c10.756-9.503,16.466-22.007,16.758-36.054c0.558-26.852-11.744-48.411-30.173-66.97  c-7.56-1.479-9.524-9.232-14.831-13.262c-3.194-2.425-6.675-4.567-9.025-7.987c-9.976-14.517-21.649-27.544-35.206-38.762  c-11.387-9.422-22.547-19.48-37.04-23.956c-7.011-2.165-13.286-5.1-19.085-9.595c-4.11-3.186-8.96-5.729-14.488-4.799  c-6.299,1.061-11.934-0.784-17.578-3.042c-2.964-1.186-5.922-2.395-8.926-3.473c-5.457-1.958-10.883-2.376-15.941,1.097  c-1.826,1.254-3.277,0.735-5.13,0.03c-7.177-2.732-14.327-4.404-21.982-0.959c-4.588,2.065-8.245-0.458-9.187-5.342  c-0.335-1.737,0.376-3.265,0.922-4.878c2.241-6.616,1.516-12.644-4.094-17.409c-1.585-1.346-2.302-2.83-1.87-4.852  c0.846-3.958-0.885-6.807-3.841-9.205c-3.137-2.545-6.216-5.151-9.94-6.848c-1.067-0.486-2.587-0.884-3.001-1.751  c-2.599-5.448-8.051-7.566-12.291-11.11c-2.595-2.169-5.664-3.925-8.564-3.319c-6.698,1.4-11.953-1.316-17.538-4.089  c-6.425-3.191-13.378-2.487-19.489,0.395c-3.416,1.612-6.672,3.128-10.319,3.316c-6.518,0.335-11.908,2.374-17.547,6.138  c-6.693,4.467-10.77,10.406-14.814,16.764c-0.821,1.291-1.36,2.735-1.017,4.318c0.777,3.593-1.252,6.045-3.449,8.378  c-0.918,0.975-2.172,1.691-2.599,3.029c-3.328,10.413-7.179,20.77-2.991,31.916c0.705,1.877,1.018,3.934,0.7,5.977  c-1.857,11.923,3.34,21.438,9.902,30.744c3.476,4.93,9.247,6.251,13.322,10.137c6.056,5.774,12.999,9.951,21.785,9.997  c2.801,0.015,4.807,1.478,5.83,4.073c0.847,2.148,2.032,4.076,2.357,6.548c0.595,4.515,4.46,6.892,8.506,4.943  c3.17-1.526,5.376-0.799,7.745,0.901c2.601,1.866,5.228,2.082,8.036,0.588c1.027-0.547,2.348-1.503,3.214-0.398  c2.542,3.244,5.982,2.559,9.291,2.482c2.115-0.049,3.328,1.312,4.723,2.535c2.87,2.515,7.098,3.189,9.37,1.115  c4.57-4.171,6.193-0.877,8.56,1.941c0.74,0.88,1.668,1.722,2.685,2.227c3.283,1.628,5.104,4.106,5.658,7.781  c0.267,1.77,1.052,3.617,2.099,5.073c1.251,1.741,0.966,2.826-0.336,4.307c-10.14,11.526-20.345,22.962-34.01,30.562  c-2.511,1.396-4.875,3.034-6.82,5.154c-2.275,2.48-5.318,3.245-8.269,2.828c-12.639-1.786-25.572,0.041-38.092-3.312  c-3.339-0.895-5.153,1.286-4.454,4.654c0.539,2.594,1.785,4.705,4.4,5.754c0.443,0.178,0.827,0.5,1.239,0.756  c-0.384,0.257-0.736,0.636-1.159,0.746c-1.132,0.296-2.296,0.468-3.444,0.703c-6.63,1.357-12.705,4.242-18.768,7.066  c-3.06,1.425-2.591,4.418-1.955,7.113c0.301,1.277,1.212,2.328,2.603,2.267c1.098-0.048,2.157-0.387,3.161-0.816  c0.496-0.212,0.98-0.523,1.488-0.698c0.417-0.144,0.883-0.225,1.316-0.34c2.165-0.575,4.413-0.884,6.494-1.742  c0.309-0.128,0.614-0.267,0.912-0.42c0.217-0.112,0.439-0.234,0.683-0.25c0.244-0.016,0.517,0.108,0.583,0.343  c0.051,0.179-0.032,0.374-0.162,0.506c-0.131,0.132-0.303,0.213-0.472,0.29c-0.94,0.423-1.909,0.78-2.899,1.068  c-0.978,0.284-2.011,0.433-2.975,0.754c-0.709,0.174-1.42,0.34-2.132,0.501c-0.622,0.14-1.637,0.055-1.972,0.72  c-0.154,0.305-0.16,0.661-0.142,1.002c0.053,1.027-0.093,2.046,0.079,3.071c0.217,1.294,0.914,2.388,2.211,2.797  c1.2,0.378,2.529,0.343,3.771,0.288c1.582-0.07,2.883-0.818,4.288-1.294c4.092-1.386,8.167-3.532,11.537,1.423  c0.449,0.661,1.9,0.552,2.719,1.067c1.86,1.171,5.665,1.451,4.98,3.895c-0.707,2.525-4.328,2.796-7.038,2.602  c-1.805-0.129-3.568-0.866-5.348-1.338c-1.936-0.514-3.844-1.19-5.81-1.524c-4.756-0.809-9.605-1.054-13.884-3.8  c-1.487-0.954-3.447-1.324-5.246-1.602c-2.113-0.326-4.796-0.802-5.552,1.927c-0.774,2.791-0.629,5.806,2.456,7.514  c1.162,0.644,2.476,1.026,3.74,1.472c5.822,2.054,11.662,4.059,17.469,6.152c1.151,0.415,3.076,0.463,2.81,2.137  c-0.136,0.854-1.843,1.186-3.079,1.301c-7.025,0.65-14.043,1.365-21.064,2.055c-3.373,0.331-5.515,2.628-5.585,5.911  c-0.08,3.796,2.995,3.924,5.285,3.929c7.396,0.015,14.812,0.811,22.197-0.25c0.647-0.093,1.309-0.071,1.965-0.103  c-0.203,0.878-0.893,1.406-1.625,1.617c-4.809,1.387-9.611,2.821-14.476,3.982c-4.441,1.06-5.888,2.771-5.204,6.875  c0.48,2.883,2.272,3.323,6.792,2.874c2.609-0.259,5.183-0.774,7.758-1.252c1.65-0.306,3.31-0.509,4.969-0.749  c1.754-0.254,3.373-0.751,5.077-1.272c0.408-0.125,1.022-0.52,1.453-0.466c0.29,0.036,0.307,0.303,0.294,0.537  c-0.022,0.41-0.197,0.546-0.528,0.706c-0.878,0.422-1.89,0.669-2.827,0.92c-1.879,0.504-3.795,0.852-5.686,1.307  c-2.45,0.589-3.388,2.437-3.341,4.966c0.037,1.983,0.832,3.586,2.708,3.632c4.961,0.121,9.933,0.945,14.629-2.203  c4.937-3.31,9.375-7.767,15.701-8.561c5.545-0.696,10.723-2.463,15.731-4.904c2.716-1.324,5.623-2.206,8.691-2.345  c12.449-0.566,24.521-3.651,36.762-5.588c7.427-1.175,14.915-2.181,22.161-4.377c1.047-0.317,3.275-0.773,1.919,1.749  c-4.356,8.101-4.056,16.883-3.805,25.632c0.075,2.635-0.52,4.842-1.732,7.173c-3.561,6.852-6.92,13.811-10.217,20.795  c-7.034,14.899-10.132,31.026-12.932,46.989c-3.304,18.831-12.842,34.43-22.24,50.307c-1.051,1.775-2.188,1.947-4.52,1.209  c-3.923-1.241-6.009-5.069-9.626-6.095c-4.977-1.412-9.526-3.05-13.735-6.361c-2.484-1.954-7.303-0.683-8.151-5.507  c-0.05-0.287-0.829-0.552-1.304-0.64c-2.612-0.483-4.477-1.928-6.033-4.061c-0.887-1.216-2.388-2.083-3.958-1.929  c-5.058,0.497-6.45-2.211-7.288-6.722c-1.596-8.59-9.074-11.517-16.355-6.716c-2.547,1.68-5.265,2.965-7.913,4.42  c-2.614,1.437-4.829,1.908-6.948-0.857c-1.015-1.324-2.548-2.276-4.36-2.251c-5.795,0.078-11.153-2.123-16.729-3.179  c-8.265-1.565-16.502-3.031-24.969-3.17c-4.959-0.082-8.984,1.562-12.085,5.117c-4.924,5.646-10.878,10.026-16.884,14.324  c-6.345,4.54-9.565,10.528-9.862,18.265c-0.07,1.825-0.289,3.798-1.054,5.412c-2.284,4.818-2.563,10.378-5.79,14.869  c-1.015,1.413-1.579,3.282-1.782,5.198c-0.542,5.139-1.391,10.246-1.894,15.388c-0.306,3.121-1.27,5.786-3.281,8.243  c-2.276,2.781-3.542,6.085-3.719,9.738c-0.435,8.975,0.34,17.777,3.278,26.357c1.577,4.607,2.861,9.292,3.712,14.142  c1.539,8.769,3.507,17.47,5.54,26.142c2.227,9.501,4.333,19.01,5.709,28.684c1.016,7.147,2.352,14.25,3.647,21.354  c0.417,2.288,1.383,4.048,4.334,3.855c5-0.327,4.785-0.159,6.037,4.926c0.872,3.54-0.069,8.394,5.764,9.15  c1.156,0.15,1.698,2.359,2.008,3.881c0.37,1.816,0.757,3.629,1.158,5.438c0.781,3.525,3.372,6.484,6.451,6.209  c6.268-0.559,6.39,4.157,8.092,7.659c0.802,1.649,1.215,3.482,1.928,5.179c3.156,7.521,3.172,7.51,11.043,5.81  c0.485-0.105,1.014-0.113,1.508-0.05c4.539,0.581,6.796-2.291,8.453-5.785c1.218-2.569,2.157-5.281,3.079-7.977  c0.61-1.784,1.232-4.22,2.916-4.385c2.256-0.221,2.12,2.602,2.59,4.163c0.752,2.494,2.142,4.338,4.589,3.29  c2.43-1.04,5.808-2.242,6.826-4.057c2.239-3.989,5.044-2.785,7.954-2.296c1.187,0.2,2.421,0.666,3.41-0.005  c2.032-1.38,2.647,0.031,3.255,1.443c4.852,11.251,10.813,21.997,15.112,33.504c1.305,3.493,1.274,7.416,2.942,10.648  c3.851,7.459,7.81,14.921,12.447,21.901c5.567,8.38,10.468,17.161,16.154,25.474c7.773,11.365,14.652,23.344,22.505,34.649  c2.849,4.101,3.717,8.026,3.329,12.648c-0.125,1.494-0.628,3.466,0.597,4.354c4.668,3.383,2.847,6.978,1.077,10.99  c-1.766,4.001-0.464,7.137,3.169,9.356c3.875,2.367,4.378,3.933,1.703,7.651c-1.415,1.966-1.937,3.954-1.591,6.134  c0.839,5.276-0.054,10.45-0.995,15.552c-0.593,3.215-0.44,6.223-0.228,9.433c0.365,5.511,0.348,11.239-1.196,16.541  c-2.274,7.808-3.208,15.784-4.651,23.714c-1.352,7.425-2.551,15.239-8.498,21.085c-2.358,2.318-4.305,5.186-5.528,8.361  c-5.115,13.278-7.527,27.307-9.14,41.232c-2.008,17.336-4.51,34.656-5.351,52.142c-0.71,14.766-5.177,28.989-6.265,43.853  c-1.016,13.87-1.806,27.835-3.45,41.682c-1.249,10.521-1.229,21.221-3.692,31.559c-2.648,11.115-4.477,22.399-7.182,33.484  c-1.161,4.757-1.461,9.734-2.765,14.449c-1.069,3.865-2.947,7.463-4.097,11.335c-2.399,8.072-3.376,16.484-4.316,24.825  c-1.088,9.655-4.237,18.92-5.905,28.502c-1.596,9.173-0.504,11.858,8.376,14.304c2.697,0.743,4.87,1.524,5.292,5.047  c0.4,3.345,3.103,5.674,6.028,7.036c3.315,1.543,6.742,2.851,10.517,3.328c12.358,1.563,24.819,1.969,37.178,3.613  c5.226,0.695,10.785,0.645,15.764-2.166c1.482-0.837,3.231-0.763,4.876-1.065c7.343-1.35,14.38,1.274,21.579,1.383  c4.467,0.068,8.614,0.355,12.404,3.196c1.805,1.352,4.105,2.297,6.598,2.244c3.008-0.064,5.248,1.428,6.333,4.112  c1.048,2.595-1.283,3.928-2.794,5.395c-4.415,4.286-8.879,8.753-12.599,13.426c-4.37,5.49-7.325,12.329-11.535,18.148  c-3.805,5.259-5.657,11.415-8.64,17.043c-4.622,8.72-8.303,17.908-12.567,26.817c-4.734,9.893-6.91,20.804-10.645,31.141  c-4.05,11.211-7.207,22.753-11.066,34.062c-6.694,19.618-14.23,38.908-21.489,58.311c-5.441,14.544-13.657,27.442-22.083,40.2  c-6.633,10.042-10.839,20.919-13.686,32.372c-2.498,10.05-0.285,13.627,9.375,17.683c0.621,0.261,1.244,0.546,1.894,0.704  c16.141,3.921,29.536,13.502,43.599,21.568c7.869,4.514,15.6,8.64,24.825,8.808c6.076,0.111,12.111,0.559,18.141,1.227  c7.558,0.837,15.148,0.729,22.725,0.548c7.315-0.175,13.506-2.537,17.142-9.544c0.999-1.925,2.203-3.932,3.816-5.317  c6.827-5.86,10.35-9.222,18.132-2.873c3.455,2.819,5.668,6.389,9.882,8.252c3.934,1.739,8.368,2.258,12.611,2.643  c11.673,1.061,23.377,2.121,35.083,2.743c9.75,0.518,20.677-3.56,30.396-5.154c3.588-0.589,3.459-3.184,3.857-5.573  c0.407-2.437,1.169-5.013-2.093-6.442c-8.954-3.922-17.342-9.011-26.154-13.164c-18.211-8.584-34.705-20.642-40.592-40.823  c-6.275-21.512-3.845-45.663-4.973-67.831c-0.466-9.152,0.935-18.134,1.256-27.202c0.159-4.91,3.802-7.622,5.726-11.656  c2.496-5.233,3.999-11.27,5.779-16.783c3.633-11.254,6.829-22.65,9.578-34.153c1.766-7.391,3.759-14.952,4.557-22.467  c0.77-7.255,2.409-14.02,6.158-20.369c1.326-2.246,2.845-4.371,4.362-6.493c5.389-7.538,10.432-15.465,18.826-20.01  c3.257-1.763,4.462-5.361,7.804-6.974c10.689-5.157,18.783-13.545,26.532-22.24c1.545-1.733,2.861-3.309,5.336-3.151  c7.711,0.494,14.886-2.182,22.252-3.723c5.925-1.239,10.088-6.047,16.001-7.702c2.99-0.837,5.621-1.605,8.636-1.063  c5.219,0.938,10.344,0.832,15.431-0.97c2.627-0.931,3.716-2.403,3.595-5.223c-0.251-5.864-0.396-11.715-0.834-17.586  c-1.172-15.717-2.762-31.417-4.492-47.047c-1.269-11.463-2.151-23.028-4.146-34.468c-2.483-14.241-5.737-28.345-7.594-42.707  c-0.925-7.153-2.871-14.169-4.039-21.298c-1.956-11.942-3.239-24.008-5.556-35.874c-4.67-23.909-9.658-47.751-14.037-71.722  c-2.559-14.008-4.969-28.117-10.416-41.493c-4.761-11.691-10.211-23.034-15.789-34.333c-0.586-1.187-1.603-2.165-1.518-3.652  c0.63-11.02,0.986-22.064,1.928-33.057c0.965-11.256,1.563-22.493,0.931-33.777c-0.374-6.688-1.341-13.425-3.756-19.548  c-1.441-3.655-2.457-7.17-3.082-10.98c-0.924-5.637-0.022-9.907,5.557-13.082c4.028-2.292,3.694-4.555,2.018-9.101  c-1.803-4.888-4.186-9.405-6.851-13.839c-3.951-6.57-4.915-14.279-7.911-21.224c-5.913-13.703-11.786-27.423-17.683-41.133  c-1.329-3.089-2.495-6.266-4.066-9.228c-5.222-9.847-5.55-19.873-1.661-30.212c1.235-3.283,2.521-6.517,3.099-10.081  c2.08-12.833-1.131-24.68-6.155-36.246c-0.859-1.977-0.994-4.312-2.793-5.851c-6.902-5.904-13.004-12.676-20.285-18.193  c-9.922-7.52-20.603-13.96-30.075-22.149c-9.163-7.921-17.374-16.851-26.782-24.483c-6.637-5.384-13.338-10.696-19.44-16.706  c-4.157-4.095-4.151-4.063-1.595-9.248c5.055-10.249,10.129-20.488,15.074-30.789c1.026-2.137,2.331-3.664,4.655-4.166  c3.787-0.819,6.283-3.375,7.882-6.582c3.036-6.09,4.959-12.537,4.144-19.472c-0.393-3.338-1.065-6.643-1.588-9.967  c-1.381-8.772,3.226-16.316,5.19-24.374c2.581-10.595,5.768-21.059,7.859-31.762c2.005-10.263,3.922-20.456,9.846-29.379  c1.703-2.566,2.608-5.465,2.572-8.58c-0.104-9.09,0.361-18.232-1.234-27.221c-0.724-4.078-0.516-7.97,0-11.992  C375.857,351.705,377.03,349.759,380.261,348.654z M310.965,269.084c-17.635,9.64-35.283,19.263-55.329,23.142  c-0.324,0.063-0.671,0.008-1.556,0.008c-0.429-0.092-1.916,0-2.233-0.565c-0.716-1.275,0.765-1.892,1.499-2.757  c2.864-3.375,6.194-6.271,10.096-8.223c14.28-7.141,27.058-16.704,40.667-24.921c4.044-2.442,4.008-2.491,5.853,1.869  c1.178,2.785,0.63,5.978,2.452,8.628C313.15,267.333,312.001,268.517,310.965,269.084z M312.65,1588.205  c-0.469,2.588-2.215,4.828-3.293,7.263c-1.114,2.515-5.072,2.247-7.129-0.774c-4.448-6.534-9.7-12.428-14.902-18.267  c-11.583-13.003-10.373-35.364-5.301-50.808c2.191-6.671,5.822-12,9.139-18.059c3.39-6.191,6.036-12.646,10.148-18.526  c2.945-4.211,5.778-4.265,8.274,0.188c1.665,2.97,2.835,6.132,1.994,10.253c0.4,5.092,0.663,10.777,1.336,16.413  c0.855,7.159,0.744,14.37,1.12,21.54c0.27,5.154,1.514,10.126,1.608,15.317C315.86,1564.702,314.773,1576.491,312.65,1588.205z"/>
</svg>