<svg width="62" height="62" viewBox="0 0 62 62" fill="none" xmlns="http://www.w3.org/2000/svg">
<path fill-rule="evenodd" clip-rule="evenodd" d="M31 61C47.5236 61 61 47.5238 61 30.9999C61 14.4766 47.5236 0.999897 31 0.999897C14.4764 0.999897 1 14.4766 1 30.9999C1 47.5238 14.4764 61 31 61Z" fill="#885D32"/>
<path d="M31 61C47.5236 61 61 47.5238 61 30.9999C61 14.4766 47.5236 0.999897 31 0.999897C14.4764 0.999897 1 14.4766 1 30.9999C1 47.5238 14.4764 61 31 61Z" stroke="#E3D7B6" stroke-width="0.755867" stroke-miterlimit="22.9256"/>
<path fill-rule="evenodd" clip-rule="evenodd" d="M31 32.5234C31.8392 32.5234 32.5233 31.8391 32.5233 30.9999C32.5233 30.1613 31.8392 29.4769 31 29.4769C30.1611 29.4769 29.4767 30.1613 29.4767 30.9999C29.4767 31.8391 30.1611 32.5234 31 32.5234Z" fill="#E3D7B6"/>
<path d="M31 32.5234C31.8392 32.5234 32.5233 31.8391 32.5233 30.9999C32.5233 30.1613 31.8392 29.4769 31 29.4769C30.1611 29.4769 29.4767 30.1613 29.4767 30.9999C29.4767 31.8391 30.1611 32.5234 31 32.5234Z" stroke="#E3D7B6" stroke-width="0.755867" stroke-miterlimit="22.9256"/>
<path fill-rule="evenodd" clip-rule="evenodd" d="M30.164 3.22906H31.836L31 4.90045L30.164 3.22906Z" fill="#E3D7B6"/>
<path fill-rule="evenodd" clip-rule="evenodd" d="M28.0955 4.70711L27.9555 3.37687L28.2346 3.34712L28.3745 4.67824L28.0955 4.70711Z" fill="#E3D7B6"/>
<path fill-rule="evenodd" clip-rule="evenodd" d="M25.3627 5.15501L25.0848 3.84635L25.3595 3.78774L25.6377 5.09669L25.3627 5.15501Z" fill="#E3D7B6"/>
<path fill-rule="evenodd" clip-rule="evenodd" d="M22.692 5.88599L22.2785 4.61349L22.5459 4.5266L22.9594 5.7991L22.692 5.88599Z" fill="#E3D7B6"/>
<path fill-rule="evenodd" clip-rule="evenodd" d="M20.1123 6.89173L19.5685 5.66938L19.8248 5.55507L20.3692 6.77772L20.1123 6.89173Z" fill="#E3D7B6"/>
<path fill-rule="evenodd" clip-rule="evenodd" d="M15.3381 9.68226L14.5517 8.59988L14.7785 8.43454L15.5653 9.51693L15.3381 9.68226Z" fill="#E3D7B6"/>
<path fill-rule="evenodd" clip-rule="evenodd" d="M13.1952 11.4362L12.3 10.4415L12.5088 10.2541L13.404 11.2481L13.1952 11.4362Z" fill="#E3D7B6"/>
<path fill-rule="evenodd" clip-rule="evenodd" d="M11.248 13.4044L10.2533 12.5089L10.4417 12.3001L11.436 13.1956L11.248 13.4044Z" fill="#E3D7B6"/>
<path fill-rule="evenodd" clip-rule="evenodd" d="M9.5171 15.5654L8.43412 14.779L8.59945 14.5518L9.68184 15.3379L9.5171 15.5654Z" fill="#E3D7B6"/>
<path fill-rule="evenodd" clip-rule="evenodd" d="M6.77731 20.3693L5.55496 19.8252L5.66955 19.5683L6.89161 20.1127L6.77731 20.3693Z" fill="#E3D7B6"/>
<path fill-rule="evenodd" clip-rule="evenodd" d="M5.79901 22.9596L4.52652 22.5461L4.61311 22.279L5.8859 22.6925L5.79901 22.9596Z" fill="#E3D7B6"/>
<path fill-rule="evenodd" clip-rule="evenodd" d="M4.67754 28.3747L3.34702 28.235L3.37618 27.9557L4.707 28.0953L4.67754 28.3747Z" fill="#E3D7B6"/>
<path fill-rule="evenodd" clip-rule="evenodd" d="M4.707 33.9047L3.37618 34.0447L3.34702 33.7653L4.67754 33.6257L4.707 33.9047Z" fill="#E3D7B6"/>
<path fill-rule="evenodd" clip-rule="evenodd" d="M5.1546 36.6372L3.84623 36.9154L3.78761 36.6407L5.09657 36.3626L5.1546 36.6372Z" fill="#E3D7B6"/>
<path fill-rule="evenodd" clip-rule="evenodd" d="M5.8859 39.3079L4.61311 39.7211L4.52652 39.4543L5.79901 39.0405L5.8859 39.3079Z" fill="#E3D7B6"/>
<path fill-rule="evenodd" clip-rule="evenodd" d="M6.89161 41.8876L5.66955 42.4317L5.55496 42.1751L6.77731 41.631L6.89161 41.8876Z" fill="#E3D7B6"/>
<path fill-rule="evenodd" clip-rule="evenodd" d="M13.404 50.752L12.5088 51.7466L12.3 51.5585L13.1952 50.5642L13.404 50.752Z" fill="#E3D7B6"/>
<path fill-rule="evenodd" clip-rule="evenodd" d="M15.5653 52.4832L14.7785 53.5655L14.5517 53.4005L15.3381 52.3184L15.5653 52.4832Z" fill="#E3D7B6"/>
<path fill-rule="evenodd" clip-rule="evenodd" d="M20.3692 55.2226L19.8248 56.445L19.5685 56.3307L20.1123 55.1086L20.3692 55.2226Z" fill="#E3D7B6"/>
<path fill-rule="evenodd" clip-rule="evenodd" d="M28.3745 57.3224L28.2346 58.6532L27.9555 58.6237L28.0955 57.2929L28.3745 57.3224Z" fill="#E3D7B6"/>
<path fill-rule="evenodd" clip-rule="evenodd" d="M41.8874 55.1086L42.4318 56.3307L42.1749 56.445L41.6308 55.2226L41.8874 55.1086Z" fill="#E3D7B6"/>
<path fill-rule="evenodd" clip-rule="evenodd" d="M46.6619 52.3184L47.4483 53.4005L47.2212 53.5655L46.4345 52.4832L46.6619 52.3184Z" fill="#E3D7B6"/>
<path fill-rule="evenodd" clip-rule="evenodd" d="M48.8042 50.5642L49.7 51.5585L49.4915 51.7466L48.5958 50.752L48.8042 50.5642Z" fill="#E3D7B6"/>
<path fill-rule="evenodd" clip-rule="evenodd" d="M50.7518 48.596L51.7464 49.4914L51.5586 49.6999L50.5637 48.805L50.7518 48.596Z" fill="#E3D7B6"/>
<path fill-rule="evenodd" clip-rule="evenodd" d="M52.4826 46.4347L53.5653 47.2214L53.4003 47.4482L52.3179 46.6621L52.4826 46.4347Z" fill="#E3D7B6"/>
<path fill-rule="evenodd" clip-rule="evenodd" d="M55.2227 41.631L56.4448 42.1751L56.3308 42.4317L55.1081 41.8876L55.2227 41.631Z" fill="#E3D7B6"/>
<path fill-rule="evenodd" clip-rule="evenodd" d="M57.2927 28.0953L58.6232 27.9557L58.6527 28.235L57.3219 28.3747L57.2927 28.0953Z" fill="#E3D7B6"/>
<path fill-rule="evenodd" clip-rule="evenodd" d="M56.8448 25.3631L58.1541 25.085L58.2124 25.3594L56.9035 25.6378L56.8448 25.3631Z" fill="#E3D7B6"/>
<path fill-rule="evenodd" clip-rule="evenodd" d="M56.1144 22.6925L57.3869 22.279L57.4735 22.5461L56.201 22.9596L56.1144 22.6925Z" fill="#E3D7B6"/>
<path fill-rule="evenodd" clip-rule="evenodd" d="M55.1081 20.1127L56.3308 19.5683L56.4448 19.8252L55.2227 20.3693L55.1081 20.1127Z" fill="#E3D7B6"/>
<path fill-rule="evenodd" clip-rule="evenodd" d="M52.3179 15.3379L53.4003 14.5518L53.5653 14.779L52.4826 15.5654L52.3179 15.3379Z" fill="#E3D7B6"/>
<path fill-rule="evenodd" clip-rule="evenodd" d="M50.5637 13.1956L51.5586 12.3001L51.7464 12.5089L50.7518 13.4044L50.5637 13.1956Z" fill="#E3D7B6"/>
<path fill-rule="evenodd" clip-rule="evenodd" d="M48.5958 11.2481L49.4915 10.2541L49.7 10.4415L48.8042 11.4362L48.5958 11.2481Z" fill="#E3D7B6"/>
<path fill-rule="evenodd" clip-rule="evenodd" d="M46.4345 9.51693L47.2212 8.43454L47.4483 8.59988L46.6619 9.68226L46.4345 9.51693Z" fill="#E3D7B6"/>
<path fill-rule="evenodd" clip-rule="evenodd" d="M41.6308 6.77772L42.1749 5.55507L42.4318 5.66938L41.8874 6.89173L41.6308 6.77772Z" fill="#E3D7B6"/>
<path fill-rule="evenodd" clip-rule="evenodd" d="M39.0406 5.7991L39.4541 4.5266L39.7212 4.61349L39.3077 5.88599L39.0406 5.7991Z" fill="#E3D7B6"/>
<path fill-rule="evenodd" clip-rule="evenodd" d="M36.3624 5.09669L36.6405 3.78774L36.9149 3.84635L36.637 5.15501L36.3624 5.09669Z" fill="#E3D7B6"/>
<path fill-rule="evenodd" clip-rule="evenodd" d="M33.6252 4.67824L33.7652 3.34712L34.0445 3.37687L33.9048 4.70711L33.6252 4.67824Z" fill="#E3D7B6"/>
<path fill-rule="evenodd" clip-rule="evenodd" d="M16.3902 7.36728L17.8382 6.53158L17.9502 8.39747L16.3902 7.36728Z" fill="#E3D7B6"/>
<path fill-rule="evenodd" clip-rule="evenodd" d="M3.22864 31.8362V30.1642L4.90062 31.0002L3.22864 31.8362Z" fill="#E3D7B6"/>
<path fill-rule="evenodd" clip-rule="evenodd" d="M17.8382 55.4684L16.3902 54.6328L17.9502 53.6029L17.8382 55.4684Z" fill="#E3D7B6"/>
<path fill-rule="evenodd" clip-rule="evenodd" d="M31.836 58.7712H30.164L31 57.0996L31.836 58.7712Z" fill="#E3D7B6"/>
<path fill-rule="evenodd" clip-rule="evenodd" d="M45.6096 54.6328L44.1615 55.4684L44.0496 53.6029L45.6096 54.6328Z" fill="#E3D7B6"/>
<path fill-rule="evenodd" clip-rule="evenodd" d="M55.4685 44.162L54.6328 45.6098L53.6026 44.05L55.4685 44.162Z" fill="#E3D7B6"/>
<path fill-rule="evenodd" clip-rule="evenodd" d="M54.6328 16.3906L55.4685 17.8383L53.6026 17.9503L54.6328 16.3906Z" fill="#E3D7B6"/>
<path fill-rule="evenodd" clip-rule="evenodd" d="M44.1615 6.53158L45.6096 7.36728L44.0496 8.39747L44.1615 6.53158Z" fill="#E3D7B6"/>
<path fill-rule="evenodd" clip-rule="evenodd" d="M42.3557 53.2188C42.4776 53.1165 42.4732 52.8663 42.3432 52.4692C42.298 52.3345 42.1627 52.0047 41.9367 51.4804L39.0736 44.7945L39.3637 44.6268L44.8643 51.7708L45.1853 51.5854L45.3387 51.851L43.9983 52.6246L43.8449 52.3592L44.1729 52.1671L40.1947 46.9884L42.1111 51.4442C42.1411 51.513 42.1953 51.6236 42.2752 51.7761C42.356 51.928 42.4449 52.0889 42.5423 52.2578C42.691 52.5155 42.8325 52.6701 42.9666 52.7214C43.1002 52.773 43.2034 52.7613 43.2763 52.6876L43.4297 52.9529L42.5091 53.4845L42.3557 53.2188Z" fill="#E3D7B6"/>
<path fill-rule="evenodd" clip-rule="evenodd" d="M49.6554 12.3448C44.8809 7.57033 38.2854 4.61769 31 4.61769C23.7143 4.61769 17.1188 7.57033 12.3446 12.3448C7.57013 17.1193 4.6172 23.7151 4.6172 31.0002C4.6172 38.2856 7.57013 44.8814 12.3446 49.6556C17.1188 54.4301 23.7143 57.383 31 57.383C38.2854 57.383 44.8809 54.4301 49.6554 49.6556C54.4296 44.8814 57.3828 38.2856 57.3828 31.0002C57.3828 23.7151 54.4296 17.1193 49.6554 12.3448ZM31 4.47714C38.3242 4.47714 44.9549 7.44583 49.7548 12.2457C54.5544 17.0453 57.5231 23.676 57.5231 31.0002C57.5231 38.3244 54.5544 44.9552 49.7548 49.755C44.9549 54.5543 38.3242 57.523 31 57.523C23.6758 57.523 17.0445 54.5543 12.2449 49.755C7.44504 44.9552 4.47666 38.3244 4.47666 31.0002C4.47666 23.676 7.44504 17.0453 12.2449 12.2457C17.0445 7.44583 23.6758 4.47714 31 4.47714Z" fill="#E3D7B6"/>
<path fill-rule="evenodd" clip-rule="evenodd" d="M50.601 11.3989C45.5848 6.38268 38.6548 3.27986 31 3.27986C23.3455 3.27986 16.4152 6.38268 11.399 11.3989C6.38249 16.4154 3.27967 23.3454 3.27967 31.0002C3.27967 38.6548 6.38249 45.585 11.399 50.6012C16.4152 55.6178 23.3455 58.7206 31 58.7206C38.6548 58.7206 45.5848 55.6178 50.601 50.6012C55.6172 45.585 58.7201 38.6548 58.7201 31.0002C58.7201 23.3454 55.6172 16.4154 50.601 11.3989ZM31 3.13961C38.6936 3.13961 45.6588 6.25816 50.7002 11.2998C55.742 16.3417 58.8609 23.3066 58.8609 31.0002C58.8609 38.6938 55.742 45.6591 50.7002 50.7007C45.6588 55.7422 38.6936 58.8608 31 58.8608C23.3064 58.8608 16.3412 55.7422 11.2996 50.7007C6.25739 45.6591 3.13941 38.6938 3.13941 31.0002C3.13941 23.3066 6.25739 16.3417 11.2996 11.2998C16.3412 6.25816 23.3064 3.13961 31 3.13961Z" fill="#E3D7B6"/>
<path fill-rule="evenodd" clip-rule="evenodd" d="M36.637 56.845L36.9149 58.154L36.6405 58.2123L36.3624 56.9037L36.637 56.845Z" fill="#E3D7B6"/>
<path fill-rule="evenodd" clip-rule="evenodd" d="M33.9048 57.2929L34.0445 58.6237L33.7652 58.6532L33.6252 57.3224L33.9048 57.2929Z" fill="#E3D7B6"/>
<path fill-rule="evenodd" clip-rule="evenodd" d="M39.3077 56.1144L39.7212 57.3867L39.4541 57.4737L39.0406 56.2013L39.3077 56.1144Z" fill="#E3D7B6"/>
<path fill-rule="evenodd" clip-rule="evenodd" d="M25.6377 56.9037L25.3595 58.2123L25.0848 58.154L25.3627 56.845L25.6377 56.9037Z" fill="#E3D7B6"/>
<path fill-rule="evenodd" clip-rule="evenodd" d="M22.9594 56.2013L22.5459 57.4737L22.2785 57.3867L22.692 56.1144L22.9594 56.2013Z" fill="#E3D7B6"/>
<path fill-rule="evenodd" clip-rule="evenodd" d="M11.436 48.805L10.4417 49.6999L10.2533 49.4914L11.248 48.596L11.436 48.805Z" fill="#E3D7B6"/>
<path fill-rule="evenodd" clip-rule="evenodd" d="M7.36719 45.6098L6.5312 44.162L8.39738 44.05L7.36719 45.6098Z" fill="#E3D7B6"/>
<path fill-rule="evenodd" clip-rule="evenodd" d="M9.68184 46.6621L8.59945 47.4482L8.43412 47.2214L9.5171 46.4347L9.68184 46.6621Z" fill="#E3D7B6"/>
<path fill-rule="evenodd" clip-rule="evenodd" d="M5.09657 25.6378L3.78761 25.3594L3.84623 25.085L5.1546 25.3631L5.09657 25.6378Z" fill="#E3D7B6"/>
<path fill-rule="evenodd" clip-rule="evenodd" d="M6.5312 17.8383L7.36719 16.3906L8.39738 17.9503L6.5312 17.8383Z" fill="#E3D7B6"/>
<path fill-rule="evenodd" clip-rule="evenodd" d="M58.7714 30.1642V31.8362L57.0994 31.0002L58.7714 30.1642Z" fill="#E3D7B6"/>
<path fill-rule="evenodd" clip-rule="evenodd" d="M57.3219 33.6257L58.6527 33.7653L58.6232 34.0447L57.2927 33.9047L57.3219 33.6257Z" fill="#E3D7B6"/>
<path fill-rule="evenodd" clip-rule="evenodd" d="M56.9035 36.3626L58.2124 36.6407L58.1541 36.9154L56.8448 36.6372L56.9035 36.3626Z" fill="#E3D7B6"/>
<path fill-rule="evenodd" clip-rule="evenodd" d="M56.201 39.0405L57.4735 39.4543L57.3869 39.7211L56.1144 39.3079L56.201 39.0405Z" fill="#E3D7B6"/>
<path fill-rule="evenodd" clip-rule="evenodd" d="M31.1318 14.9519H29.6476V14.6451H29.9474L29.114 11.104L28.6644 12.9028C28.6168 13.0883 28.5839 13.2277 28.5635 13.3207C28.5253 13.5067 28.5063 13.6461 28.5063 13.7391C28.5063 14.0733 28.5323 14.3083 28.5848 14.4433C28.6373 14.578 28.7539 14.6451 28.9344 14.6451V14.9519H27.6429V14.6451C27.7858 14.6177 27.908 14.5221 28.0109 14.3593C28.1127 14.1969 28.2448 13.7904 28.4066 13.1396L29.0149 10.7252L27.9214 6.12658H27.6934V5.82011H29.1767V6.12658L28.8035 6.12891L29.5645 9.36352L29.9331 7.88312C29.9666 7.75336 29.9996 7.58832 30.0328 7.38829C30.0663 7.18855 30.0827 7.03721 30.0827 6.93545C30.0827 6.69372 30.0535 6.49835 29.9934 6.34964C29.9343 6.20064 29.8453 6.12658 29.7263 6.12658V5.82011H30.9464V6.12658C30.7799 6.12658 30.6416 6.24292 30.5323 6.47532C30.4232 6.70771 30.292 7.13956 30.1401 7.77173L29.668 9.76563L30.7988 14.6501L31.1318 14.6451V14.9519Z" fill="#E3D7B6"/>
<path fill-rule="evenodd" clip-rule="evenodd" d="M18.1091 21.5351L17.367 22.8202L17.1016 22.6671L17.2512 22.4073L13.7679 21.359L15.1007 22.6475C15.2378 22.7814 15.3416 22.8799 15.4124 22.9441C15.5542 23.0698 15.6656 23.1561 15.7457 23.2024C16.0356 23.3698 16.2522 23.4643 16.3951 23.4864C16.5377 23.5086 16.654 23.4412 16.7447 23.2847L17.0104 23.4383L16.3645 24.5566L16.0991 24.4032C16.1464 24.2653 16.1251 24.1119 16.035 23.9419C15.9458 23.7719 15.6591 23.4547 15.1766 22.9893L13.39 21.2549L8.861 19.9031L8.7467 20.1005L8.48105 19.9471L9.22315 18.6624L9.4885 18.8154L9.30392 19.14L12.4858 20.0982L11.3879 19.0391C11.292 18.9452 11.1657 18.8338 11.0094 18.7049C10.8528 18.5764 10.7304 18.4862 10.642 18.4352C10.4327 18.3142 10.249 18.2425 10.0903 18.2197C9.932 18.197 9.82266 18.2369 9.76346 18.3399L9.49783 18.1865L10.1078 17.1301L10.3732 17.2834C10.2898 17.4272 10.3219 17.6051 10.4685 17.8159C10.6149 18.027 10.924 18.3565 11.3949 18.8041L12.8858 20.2095L17.681 21.6725L17.8437 21.382L18.1091 21.5351Z" fill="#E3D7B6"/>
<path fill-rule="evenodd" clip-rule="evenodd" d="M32.6481 14.9519H31.0356V14.6451H31.4566V6.12658H31.0356V5.82011H32.6481V6.12658H32.2273V14.6451H32.6481V14.9519Z" fill="#E3D7B6"/>
<path fill-rule="evenodd" clip-rule="evenodd" d="M23.984 16.2276L22.699 16.9697L22.5459 16.7038L22.8054 16.5542L20.3126 13.9039L20.8226 15.6861C20.8745 15.871 20.9153 16.0083 20.9442 16.0993C21.0043 16.2789 21.0576 16.4093 21.104 16.4894C21.2711 16.7796 21.4113 16.97 21.5242 17.0604C21.6367 17.1508 21.7714 17.1508 21.9277 17.0607L22.0811 17.3263L20.9632 17.9716L20.8095 17.706C20.9191 17.6106 20.978 17.4672 20.9847 17.275C20.992 17.0828 20.9031 16.665 20.7176 16.0206L20.0376 13.6251L16.7911 10.1896L16.5934 10.3039L16.44 10.0383L17.7253 9.29649L17.8787 9.56184L17.5562 9.7505L19.8327 12.1716L19.4116 10.7052C19.3754 10.5757 19.3221 10.4159 19.2509 10.2267C19.1798 10.0371 19.1188 9.89775 19.0675 9.80911C18.9468 9.60004 18.8232 9.44549 18.6975 9.34635C18.5718 9.24779 18.4572 9.22796 18.3543 9.28745L18.2009 9.02152L19.2574 8.41152L19.411 8.67715C19.2664 8.76055 19.2051 8.93025 19.2267 9.18627C19.248 9.44199 19.3509 9.88142 19.5352 10.5051L20.1237 12.4678L23.5446 16.1325L23.831 15.9617L23.984 16.2276Z" fill="#E3D7B6"/>
<path fill-rule="evenodd" clip-rule="evenodd" d="M25.2974 15.4691L23.9009 16.2757L23.7476 16.01L24.1124 15.7995L19.8528 8.42198L19.4883 8.63251L19.3349 8.36717L20.7314 7.56033L20.8844 7.82656L20.52 8.03679L24.7795 15.4143L25.1443 15.2038L25.2974 15.4691Z" fill="#E3D7B6"/>
<path fill-rule="evenodd" clip-rule="evenodd" d="M34.3565 14.9519H32.7443V14.6451H33.1653V6.12658H32.7443V5.82011H34.3565V6.12658H33.9357V14.6451H34.3565V14.9519Z" fill="#E3D7B6"/>
<path fill-rule="evenodd" clip-rule="evenodd" d="M45.2317 22.7438L44.4257 21.3479L44.6914 21.1942L44.9019 21.5584L52.2788 17.2995L52.0689 16.935L52.3342 16.7813L53.1402 18.1777L52.8748 18.3311L52.6643 17.9663L45.2868 22.2259L45.4973 22.5904L45.2317 22.7438Z" fill="#E3D7B6"/>
<path fill-rule="evenodd" clip-rule="evenodd" d="M46.0863 24.2239L45.2798 22.8277L45.5454 22.6741L45.7562 23.0383L53.1335 18.7793L52.9229 18.4148L53.1886 18.2617L53.9948 19.6576L53.7292 19.8109L53.5187 19.4467L46.1411 23.706L46.3517 24.0705L46.0863 24.2239Z" fill="#E3D7B6"/>
<path fill-rule="evenodd" clip-rule="evenodd" d="M39.9996 17.4211L38.6032 16.6148L38.7566 16.3495L39.1211 16.56L43.3803 9.18276L43.0161 8.97194L43.1692 8.7063L44.5654 9.51255L44.4123 9.77818L44.0478 9.56795L39.7885 16.9452L40.1527 17.1557L39.9996 17.4211Z" fill="#E3D7B6"/>
<path fill-rule="evenodd" clip-rule="evenodd" d="M30.0972 47.0852H28.4853V47.392H28.9061V55.9108H28.4853V56.2172H30.0972V55.9108H29.6768V47.392H30.0972V47.0852Z" fill="#E3D7B6"/>
<path fill-rule="evenodd" clip-rule="evenodd" d="M33.5147 55.9108C33.3578 55.8828 33.2368 55.6641 33.1508 55.2553C33.1225 55.1157 33.075 54.7628 33.0082 54.1957L32.1448 46.9735H31.8094L30.6183 55.9108H30.2474V56.2172H31.7954V55.9108L31.4149 55.9084L32.271 49.4346L32.8394 54.2514C32.8478 54.3257 32.856 54.4488 32.8633 54.6208C32.8694 54.7928 32.8726 54.9766 32.8726 55.1716C32.8726 55.4688 32.8271 55.6734 32.7373 55.7851C32.6466 55.8968 32.5515 55.9385 32.4518 55.9108V56.2172H33.5147V55.9108Z" fill="#E3D7B6"/>
<path fill-rule="evenodd" clip-rule="evenodd" d="M56.1783 32.2642V33.8761H55.8721V33.4557H47.3533V33.8761H47.0462V32.2642H47.3533V32.6847H55.8721V32.2642H56.1783Z" fill="#E3D7B6"/>
<path fill-rule="evenodd" clip-rule="evenodd" d="M56.1783 30.471V32.0832H55.8721V31.6627H47.3533V32.0832H47.0462V30.471H47.3533V30.892H55.8721V30.471H56.1783Z" fill="#E3D7B6"/>
<path fill-rule="evenodd" clip-rule="evenodd" d="M56.1783 28.6777V30.2902H55.8721V29.8691H47.3533V30.2902H47.0462V28.6777H47.3533V29.0987H55.8721V28.6777H56.1783Z" fill="#E3D7B6"/>
<path fill-rule="evenodd" clip-rule="evenodd" d="M45.6889 37.7184L46.4948 36.3223L46.7602 36.4757L46.5502 36.8402L53.9275 41.0994L54.1374 40.7352L54.4037 40.888L53.5971 42.2845L53.3315 42.1314L53.542 41.7666L46.1648 37.5073L45.9542 37.8718L45.6889 37.7184Z" fill="#E3D7B6"/>
<path fill-rule="evenodd" clip-rule="evenodd" d="M44.7919 39.2712L45.5985 37.8753L45.8638 38.0287L45.6536 38.3932L53.0305 42.6524L53.2414 42.288L53.5067 42.441L52.7008 43.8375L52.4351 43.6841L52.6454 43.3199L45.2678 39.0606L45.0579 39.4251L44.7919 39.2712Z" fill="#E3D7B6"/>
<path fill-rule="evenodd" clip-rule="evenodd" d="M43.8953 40.8248L44.7016 39.428L44.9672 39.5814L44.7567 39.9462L52.1342 44.2055L52.3447 43.8407L52.6101 43.9944L51.8038 45.3905L51.5385 45.2368L51.749 44.8726L44.3715 40.6134L44.161 40.9778L43.8953 40.8248Z" fill="#E3D7B6"/>
<path fill-rule="evenodd" clip-rule="evenodd" d="M42.9957 42.383L43.802 40.9863L44.0673 41.14L43.8568 41.5045L51.2346 45.7634L51.4451 45.3992L51.7105 45.5526L50.9043 46.9488L50.6386 46.7954L50.8491 46.4309L43.4719 42.1719L43.2611 42.5361L42.9957 42.383Z" fill="#E3D7B6"/>
<path fill-rule="evenodd" clip-rule="evenodd" d="M15.2999 31.9047V33.5166H14.9926V33.0958H6.47405V33.5166H6.16758V31.9047H6.47405V32.3255H14.9926V31.9047H15.2999Z" fill="#E3D7B6"/>
<path fill-rule="evenodd" clip-rule="evenodd" d="M15.2999 28.2934V29.7773H14.9926V29.4775L11.4518 30.3112L13.2506 30.7608C13.4358 30.8083 13.5757 30.8416 13.6687 30.8617C13.8545 30.8996 13.9939 30.9188 14.0866 30.9188C14.4213 30.9188 14.6561 30.8926 14.7908 30.8401C14.9258 30.7882 14.9926 30.6716 14.9926 30.4905H15.2999V31.7819H14.9926C14.9649 31.6397 14.8698 31.5169 14.7074 31.4145C14.5444 31.3122 14.1379 31.1801 13.4874 31.0186L11.0733 30.4097L6.47405 31.5038V31.7321H6.16758V30.2479H6.47405L6.47667 30.6214L9.71157 29.8604L8.23145 29.4921C8.10111 29.4588 7.93608 29.4256 7.73604 29.3921C7.5363 29.3585 7.38498 29.3422 7.28321 29.3422C7.04119 29.3422 6.84611 29.372 6.69769 29.4311C6.54869 29.4906 6.47405 29.5799 6.47405 29.6985H6.16758V28.4791H6.47405C6.47405 28.6453 6.59068 28.7835 6.82307 28.8926C7.05518 29.0022 7.48761 29.1328 8.11978 29.2851L10.1131 29.7571L14.9978 28.6264L14.9926 28.2934H15.2999Z" fill="#E3D7B6"/>
<path fill-rule="evenodd" clip-rule="evenodd" d="M16.5138 36.4512L15.7075 35.0548L15.4419 35.2084L15.6527 35.5729L8.27519 39.8322L8.06467 39.4677L7.79903 39.6214L8.60528 41.0175L8.87091 40.8641L8.66039 40.4993L16.0379 36.2401L16.2485 36.6049L16.5138 36.4512Z" fill="#E3D7B6"/>
<path fill-rule="evenodd" clip-rule="evenodd" d="M17.4247 38.029L16.6182 36.6323L16.3528 36.7856L16.5634 37.1501L9.18583 41.4094L8.97558 41.0449L8.70937 41.1983L9.51591 42.595L9.78126 42.4413L9.57102 42.0769L16.9485 37.8173L17.1588 38.1821L17.4247 38.029Z" fill="#E3D7B6"/>
<path fill-rule="evenodd" clip-rule="evenodd" d="M18.3354 39.6059L17.5291 38.2098L17.2635 38.3629L17.4743 38.7273L10.0962 42.9869L9.88594 42.6224L9.62059 42.7755L10.4265 44.1719L10.6925 44.0188L10.4814 43.6543L17.8589 39.3948L18.0697 39.7593L18.3354 39.6059Z" fill="#E3D7B6"/>
<path fill-rule="evenodd" clip-rule="evenodd" d="M12.4149 47.0024C12.361 46.8525 12.489 46.6382 12.8007 46.3597C12.9068 46.265 13.1891 46.0474 13.6469 45.7063L19.4697 41.3476L19.302 41.0572L10.9669 44.4941L10.7814 44.1728L10.5158 44.3262L11.2897 45.6669L11.5553 45.5135L11.3669 45.1829L17.4017 42.6872L13.5139 45.5879C13.4538 45.6322 13.3515 45.701 13.2057 45.7935C13.0599 45.8844 12.9027 45.9795 12.7336 46.0769C12.4762 46.2256 12.2767 46.2889 12.1347 46.2664C11.9927 46.2437 11.9093 46.1822 11.8833 46.0819L11.6177 46.2352L12.1493 47.1555L12.4149 47.0024Z" fill="#E3D7B6"/>
<path fill-rule="evenodd" clip-rule="evenodd" d="M24.4911 45.8212L25.8873 46.6274L25.7339 46.8931L25.3697 46.6826L21.1104 54.0601L21.4752 54.2703L21.3215 54.536L19.9251 53.73L20.0785 53.4641L20.443 53.6749L24.7025 46.2974L24.338 46.0871L24.4911 45.8212Z" fill="#E3D7B6"/>
<path fill-rule="evenodd" clip-rule="evenodd" d="M22.9139 44.9105L24.3104 45.7168L24.1567 45.9824L23.7925 45.7716L19.5329 53.1491L19.8974 53.36L19.7443 53.6253L18.3479 52.8191L18.501 52.5537L18.8655 52.7642L23.1253 45.387L22.7608 45.1762L22.9139 44.9105Z" fill="#E3D7B6"/>
<path fill-rule="evenodd" clip-rule="evenodd" d="M15.5174 50.831C15.6676 50.8852 15.8816 50.7569 16.1601 50.4455C16.2543 50.3388 16.4721 50.0571 16.8135 49.599L21.1725 43.7766L21.4627 43.9442L18.026 52.2793L18.3473 52.4645L18.1939 52.7304L16.8529 51.9563L17.0063 51.6909L17.3369 51.8787L19.8327 45.8442L16.9319 49.7317C16.8876 49.7921 16.8185 49.8944 16.7266 50.0402C16.6357 50.186 16.5406 50.3432 16.4429 50.512C16.2942 50.7695 16.2312 50.9695 16.2537 51.1112C16.2758 51.2529 16.3374 51.3366 16.438 51.3623L16.2846 51.6282L15.3643 51.0966L15.5174 50.831Z" fill="#E3D7B6"/>
<path fill-rule="evenodd" clip-rule="evenodd" d="M25.2726 36.3958C24.7241 35.8252 23.8173 35.8071 23.2463 36.3553C22.676 36.9035 22.6576 37.8109 23.2061 38.3815C23.7543 38.9519 24.6614 38.97 25.2318 38.4218C25.803 37.8733 25.8208 36.9662 25.2726 36.3958Z" fill="#E3D7B6"/>
<path fill-rule="evenodd" clip-rule="evenodd" d="M24.9256 36.1301C25.7753 34.7541 27.3537 33.2134 30.1322 31.192L30.6653 31.7469C28.5352 34.443 26.932 35.9581 25.5236 36.7527C24.115 37.5473 24.9256 36.1301 24.9256 36.1301Z" fill="#E3D7B6"/>
<path fill-rule="evenodd" clip-rule="evenodd" d="M42.2933 22.5362C37.7139 26.8526 36.1848 28.0388 31.7048 30.6666L31.4418 30.3304C35.0654 26.61 36.5828 25.4089 41.8699 21.9956L50.897 14.9239L51.3204 15.4645L42.2933 22.5362Z" fill="#E3D7B6"/>
<path fill-rule="evenodd" clip-rule="evenodd" d="M25.3376 25.5804C25.3376 25.5804 25.2192 25.5273 25.0699 25.4801C25.0014 25.4588 24.9516 25.4136 24.923 25.3477L24.7877 25.0342C25.0991 24.3172 24.9087 23.441 24.2651 22.8978C23.847 22.5452 23.323 22.405 22.8273 22.4665L18.9544 20.6721C18.9215 20.6566 18.8838 20.6648 18.8602 20.6928C18.8366 20.7205 18.8349 20.7589 18.8556 20.789L21.2766 24.3047C21.2994 24.8036 21.5259 25.297 21.9438 25.6495C22.5783 26.1846 23.4572 26.2315 24.1089 25.8233L24.4733 25.9044C24.5375 25.9183 24.5871 25.9533 24.6223 26.0087C24.6672 26.0793 24.7238 26.1618 24.7757 26.2359C25.7018 27.5612 27.3642 29.0112 30.2521 30.8731L30.7533 30.289C28.4743 27.7169 26.7886 26.2942 25.3376 25.5804ZM22.0068 23.3474C22.5042 22.7581 23.3988 22.6945 24.005 23.206C24.6113 23.7174 24.6993 24.6097 24.2022 25.1996C23.7047 25.7889 22.8104 25.8524 22.2039 25.341C21.598 24.8295 21.5096 23.937 22.0068 23.3474Z" fill="#E3D7B6"/>
<path fill-rule="evenodd" clip-rule="evenodd" d="M31.5333 31.7353C31.1271 32.0295 30.56 31.9391 30.2649 31.5332C29.9704 31.1279 30.0611 30.5599 30.4664 30.2654C30.8723 29.9709 31.44 30.061 31.7345 30.4669C32.029 30.8728 31.9389 31.4405 31.5333 31.7353Z" fill="#E3D7B6"/>
</svg>
